<?xml version="1.0" encoding="UTF-8" standalone="no"?>
<!-- icon666.com - MILLIONS vector ICONS FREE -->

<svg
   viewBox="-56 0 335.99969 336"
   version="1.1"
   id="svg17"
   sodipodi:docname="beer.svg"
   width="335.99969"
   height="336"
   inkscape:version="1.3.1 (9b9bdc1480, 2023-11-25, custom)"
   xmlns:inkscape="http://www.inkscape.org/namespaces/inkscape"
   xmlns:sodipodi="http://sodipodi.sourceforge.net/DTD/sodipodi-0.dtd"
   xmlns="http://www.w3.org/2000/svg"
   xmlns:svg="http://www.w3.org/2000/svg">
  <defs
     id="defs17" />
  <sodipodi:namedview
     id="namedview17"
     pagecolor="#ffffff"
     bordercolor="#000000"
     borderopacity="0.25"
     inkscape:showpageshadow="2"
     inkscape:pageopacity="0.0"
     inkscape:pagecheckerboard="0"
     inkscape:deskcolor="#d1d1d1"
     showgrid="false"
     inkscape:zoom="1.5781275"
     inkscape:cx="199.28681"
     inkscape:cy="197.06899"
     inkscape:window-width="1920"
     inkscape:window-height="1011"
     inkscape:window-x="0"
     inkscape:window-y="32"
     inkscape:window-maximized="1"
     inkscape:current-layer="svg17" />
  <path
     d="M 149.37635,21.248087 C 140.40497,18.374425 130.97893,17.718174 122.08333,18.935827 116.25506,10.055928 104.03185,4.2624613 90.43805,4.9802361 72.73581,5.9159065 59.25074,17.548984 59.68563,31.217465 c -14.84906,3.40174 -25.695103,14.081203 -25.695103,26.73711 0,15.393703 16.038443,27.872733 35.822913,27.872733 8.12465,0 15.61672,-2.109749 21.62619,-5.657607 5.11991,5.196177 12.00906,9.448993 20.35116,12.120139 25.21408,8.07753 54.06877,-1.281737 64.44697,-20.900058 10.37821,-19.618324 -1.64733,-42.066729 -26.86141,-50.141695 z m 0,0"
     fill="#ffe8ca"
     id="path1"
     style="stroke-width:0.743979" />
  <path
     d="m 176.23447,71.392341 c -8.89889,16.826694 -31.40147,26.106493 -53.54163,23.304609 16.3712,-2.068727 31.0127,-10.500019 37.78653,-23.304609 10.3815,-19.620883 -1.64403,-42.071851 -26.85482,-50.144254 -3.57801,-1.140749 -7.22191,-1.935428 -10.8724,-2.401982 8.69462,-1.094606 17.88015,-0.399903 26.62749,2.401982 25.21079,8.072403 37.23633,30.523371 26.85483,50.144254 z m 0,0"
     fill="#ffdbaa"
     id="path2"
     style="stroke-width:0.743979" />
  <path
     d="M 188.34896,143.3954 V 63.991573 c 0,-3.840095 -4.00302,-6.954725 -8.93843,-6.954725 H 34.530854 c -4.935412,0 -8.938432,3.11463 -8.938432,6.954725 V 143.3954 c 0,11.4485 3.907475,22.18693 10.737319,31.45135 14.905069,20.21561 22.607999,43.15621 22.607999,66.46081 v 3.77857 c 0,23.3687 -8.28279,46.16574 -22.98359,66.54285 -0.09884,0.13843 -0.200976,0.27686 -0.299815,0.41785 -6.058893,8.55177 1.993273,19.03128 14.545955,19.03128 h 113.5408 c 12.55268,0 20.60814,-10.47951 14.54596,-19.03128 -0.0988,-0.14099 -0.19768,-0.27942 -0.29982,-0.41785 -14.7008,-20.37711 -22.9803,-43.17415 -22.9803,-66.54285 v -2.74036 c 0,-23.98392 8.36187,-47.40389 23.26035,-68.40393 6.4246,-9.05677 10.08168,-19.46964 10.08168,-30.54644 z m 0,0"
     fill="#d5f3f7"
     id="path3"
     style="stroke-width:0.743979" />
  <path
     d="m 155.00693,242.34577 v 2.7378 c 0,23.3687 8.28279,46.16573 22.9836,66.54284 0.10213,0.13843 0.19438,0.28199 0.29652,0.42042 6.06218,8.55177 -1.98998,19.03128 -14.54266,19.03128 h -19.11895 c 12.54938,0 20.60484,-10.47951 14.53936,-19.03128 -0.0923,-0.13843 -0.19438,-0.28199 -0.29322,-0.42042 -14.7041,-20.37711 -22.9836,-43.17414 -22.9836,-66.54284 v -2.7378 c 0,-23.98649 8.36516,-47.40645 23.26035,-68.40137 6.42789,-9.0619 10.07838,-19.46964 10.07838,-30.549 V 63.989009 c 0,-3.837531 -3.99643,-6.949597 -8.93184,-6.949597 h 19.11236 c 4.942,0 8.94173,3.112066 8.94173,6.949597 V 143.3954 c 0,11.07936 -3.65379,21.4871 -10.07839,30.549 -14.90507,20.99492 -23.26364,44.41488 -23.26364,68.40137 z m 0,0"
     fill="#a9e8f0"
     id="path4"
     style="stroke-width:0.743979" />
  <path
     d="m 76.51479,312.29805 c -6.33235,0 -10.6879,-4.9911 -8.29267,-9.54897 9.76539,-18.58011 14.85235,-38.201 14.85235,-57.66295 v -3.77857 c 0,-26.69353 -8.92525,-52.90512 -25.80712,-75.8047 -4.93212,-6.68812 -7.5382,-14.33242 -7.5382,-22.10746 V 57.036848 H 164.21223 V 143.3954 c 0,7.51869 -2.44794,14.9451 -7.07694,21.47172 -17.18498,24.21977 -26.26509,51.01071 -26.26509,77.47865 v 2.74036 c 0,19.46195 5.08697,39.08284 14.84907,57.66295 2.39522,4.56043 -1.96033,9.54897 -8.28938,9.54897 z m 0,0"
     fill="#ffe804"
     id="path5"
     style="stroke-width:0.743979" />
  <path
     d="M 164.20894,57.034285 V 143.3954 c 0,7.51869 -2.44794,14.94766 -7.07036,21.47172 -17.19157,24.21721 -26.27167,51.01071 -26.27167,77.47609 v 2.74036 c 0,19.46195 5.08696,39.08284 14.85565,57.66808 2.39522,4.5553 -1.96691,9.54896 -8.29597,9.54896 h -19.06624 c 6.32906,0 10.68131,-4.99366 8.28609,-9.54896 -9.7621,-18.58524 -14.84906,-38.20613 -14.84906,-57.66808 v -2.74036 c 0,-26.46538 9.08339,-53.25888 26.26508,-77.47609 4.62901,-6.52662 7.08024,-13.95303 7.08024,-21.47172 V 57.034285 Z m 0,0"
     fill="#f4d803"
     id="path6"
     style="stroke-width:0.743979" />
  <path
     d="M 49.73245,57.034285 H 164.20894 V 120.12155 H 49.73245 Z m 0,0"
     fill="#ffdbaa"
     id="path7"
     style="stroke-width:0.743979" />
  <path
     d="m 145.1427,57.034285 h 19.06624 V 120.12155 H 145.1427 Z m 0,0"
     fill="#ffc26d"
     id="path8"
     style="stroke-width:0.743979" />
  <path
     d="m 117.99794,93.430588 c -7.90061,0 -14.30544,-4.980841 -14.30544,-11.128071 v -34.00714 h 28.60759 v 34.00714 c 0,6.14723 -6.40483,11.128071 -14.30215,11.128071 z m 0,0"
     fill="#ffe8ca"
     id="path9"
     style="stroke-width:0.743979" />
  <path
     d="m 229.67726,253.83529 c -5.82497,-14.13503 -19.90308,-25.39384 -37.82607,-30.33879 -2.10529,-0.58191 -2.10529,-2.94288 0,-3.52223 17.92299,-4.94495 32.0011,-16.20632 37.82607,-30.3388 0.72483,-1.75598 3.86794,-1.75598 4.58947,0 5.82827,14.13504 19.90638,25.39385 37.82936,30.3388 2.1053,0.57935 2.1053,2.94032 0,3.52223 -17.92298,4.94495 -32.00109,16.20376 -37.82936,30.33879 -0.72153,1.75599 -3.86464,1.75599 -4.58947,0 z m 0,0"
     fill="#ffc26d"
     id="path10"
     style="stroke-width:0.743979" />
  <path
     d="M -21.158899,56.085797 C -25.376072,45.857507 -35.563182,37.7082 -48.53099,34.12958 c -1.525431,-0.42041 -1.525431,-2.127689 0,-2.5481 12.967808,-3.57862 23.154918,-11.725363 27.372091,-21.9536527 0.523852,-1.2714867 2.797172,-1.2714867 3.321024,0 4.217174,10.2282897 14.404283,18.3750327 27.372092,21.9536527 1.52543,0.420411 1.52543,2.12769 0,2.5481 -12.967809,3.57862 -23.154918,11.727927 -27.372092,21.956217 -0.523852,1.268923 -2.797172,1.268923 -3.321024,0 z m 0,0"
     fill="#ffe804"
     id="path11"
     style="stroke-width:0.743979" />
  <path
     d="m 183.50251,309.21931 c -11.76526,-16.30887 -18.93775,-33.59186 -21.3132,-51.36448 -0.36242,-2.70447 -3.47258,-4.6604 -6.94846,-4.38611 -3.47257,0.27942 -5.99629,2.69934 -5.63717,5.40382 2.55666,19.11844 10.253,37.67805 22.87158,55.16867 l 0.27345,0.38196 c 1.76265,2.49171 1.70335,5.33461 -0.16802,7.79812 -1.86808,2.4635 -5.17263,3.93494 -8.8396,3.93494 H 50.20029 c -3.66367,0 -6.971516,-1.47144 -8.839592,-3.93494 -1.871371,-2.46351 -1.930676,-5.30641 -0.161439,-7.80324 l 0.273457,-0.37939 C 57.03672,292.4644 65.26351,268.62145 65.26351,245.08613 v -3.77857 c 0,-24.27872 -8.10818,-48.10629 -23.444854,-68.90894 -6.477315,-8.78504 -9.897179,-18.81338 -9.897179,-29.00322 V 63.991573 c 0,-1.120241 1.169607,-2.032841 2.612671,-2.032841 h 8.872537 v 81.434108 c 0,8.6338 2.896015,17.12661 8.375045,24.55815 16.33496,22.15616 24.96698,47.52181 24.96698,73.35657 v 3.77857 c 0,18.86722 -4.83657,37.6396 -14.37792,55.7993 -1.92079,3.6504 -1.37388,7.78786 1.45624,11.06912 2.84659,3.29663 7.58762,5.26538 12.68776,5.26538 h 60.9151 c 5.10014,0 9.84116,-1.96875 12.68776,-5.26538 2.83012,-3.2787 3.37703,-7.41872 1.45624,-11.06912 -9.54136,-18.1597 -14.37793,-36.93208 -14.37793,-55.7993 v -2.74036 c 0,-25.63737 8.80994,-51.608 25.47766,-75.09974 5.14627,-7.25465 7.86437,-15.50137 7.86437,-23.85319 V 61.958732 h 8.87254 c 1.43977,0 2.61267,0.9126 2.61267,2.032841 V 143.3954 c 0,9.85658 -3.2156,19.59781 -9.29426,28.16753 -14.05504,19.81059 -22.27853,41.70015 -23.78419,63.30773 -0.1878,2.71217 2.48747,5.03212 5.97323,5.1808 0.1186,0.005 0.23392,0.008 0.34923,0.008 3.3375,0 6.12808,-2.03285 6.31258,-4.65528 1.40353,-20.13615 9.08669,-40.56453 22.22582,-59.08312 7.1099,-10.02321 10.86911,-21.41019 10.86911,-32.92535 V 63.991573 c 0,-4.678354 -3.50223,-8.723527 -8.56943,-10.656391 -0.77095,-7.480239 -4.0129,-14.675931 -9.46558,-20.928261 -1.96032,-2.248173 -5.89415,-2.83521 -8.78358,-1.307376 -2.89271,1.525272 -3.6439,4.586068 -1.68357,6.836805 3.72956,4.273323 6.12478,9.118302 7.044,14.178614 h -34.59071 v -3.819587 c 0,-2.719853 -2.83012,-4.921884 -6.32576,-4.921884 -3.49235,0 -6.32576,2.202031 -6.32576,4.921884 v 34.00714 c 0,3.422252 -3.57801,6.206188 -7.97639,6.206188 -4.39838,0 -7.97639,-2.783936 -7.97639,-6.206188 v -34.00714 c 0,-2.719853 -2.83341,-4.921884 -6.32576,-4.921884 -3.49564,0 -6.32576,2.202031 -6.32576,4.921884 v 3.819587 h -5.8645 c -3.49565,0 -6.32576,2.202031 -6.32576,4.921884 0,2.719854 2.83011,4.921884 6.32576,4.921884 h 5.8645 v 20.343785 c 0,8.849141 9.25472,16.049955 20.62791,16.049955 11.37319,0 20.62791,-7.200814 20.62791,-16.049955 V 61.958732 h 19.26392 V 115.19967 H 56.05491 V 61.958732 h 5.59434 c 3.49235,0 6.32577,-2.20203 6.32577,-4.921884 0,-2.719853 -2.83342,-4.921884 -6.32577,-4.921884 H 41.304688 C 43.91077,44.478354 51.53133,38.215769 61.47134,35.939398 64.2191,35.311345 66.08058,33.324647 66.0081,31.096982 65.65557,19.96122 76.5741,10.645529 90.86636,9.891866 c 10.67143,-0.5639658 20.71686,3.863166 25.57979,11.279317 1.26515,1.925174 3.99314,2.983892 6.73101,2.612187 7.49207,-1.027956 15.22136,-0.479371 22.35102,1.576541 3.27489,0.943361 6.9155,-0.35376 8.12794,-2.901861 1.21573,-2.550663 -0.45467,-5.38331 -3.72956,-6.326671 -7.83472,-2.260991 -16.22953,-3.112066 -24.52221,-2.507085 C 117.64871,4.5598251 104.20317,-0.67993043 90.00975,0.0711694 70.51191,1.0991252 55.27078,12.937281 53.51802,27.710623 40.009884,32.137755 30.231313,41.896928 28.106253,53.235206 22.897385,55.127055 19.269957,59.231188 19.269957,63.991573 V 143.3954 c 0,11.90481 4.00302,23.62761 11.574164,33.89947 14.242839,19.31584 21.767859,41.4515 21.767859,64.01269 v 3.77857 c 0,21.85112 -7.66669,44.0278 -22.169809,64.13061 l -0.322876,0.45374 c -3.923949,5.53456 -3.795457,12.09963 0.349234,17.55728 C 34.636283,332.72131 42.013041,336 50.20358,336 h 113.53751 c 8.19055,0 15.5673,-3.27869 19.73506,-8.77224 4.14469,-5.45765 4.27318,-12.02272 0.35253,-17.55472 z M 157.88647,125.04344 v 18.35196 c 0,6.69068 -2.17448,13.29421 -6.28952,19.09281 -17.69895,24.94523 -27.05251,52.56161 -27.05251,79.85756 v 2.74036 c 0,20.14897 5.15286,40.17745 15.3202,59.5266 0.44478,0.84595 0.0329,1.52527 -0.25039,1.85596 -0.29323,0.33838 -0.96534,0.90747 -2.18436,0.90747 h -60.9151 c -1.21902,0 -1.89114,-0.56909 -2.18436,-0.90747 -0.28334,-0.33069 -0.69518,-1.01001 -0.2504,-1.85596 10.16405,-19.34915 15.3202,-39.37507 15.3202,-59.5266 v -3.77857 c 0,-27.54973 -9.21518,-54.60983 -26.64397,-78.25283 -4.3819,-5.94471 -6.69805,-12.74306 -6.69805,-19.65933 v -18.35196 z m 0,0"
     id="path12"
     style="stroke-width:0.743979" />
  <path
     d="m 82.83396,147.46877 c 3.49564,0 6.32576,-2.20203 6.32576,-4.92188 v -0.0795 c 0,-2.71729 -2.83012,-4.92188 -6.32576,-4.92188 -3.49234,0 -6.32576,2.20459 -6.32576,4.92188 v 0.0795 c 0,2.71985 2.83342,4.92188 6.32576,4.92188 z m 0,0"
     id="path13"
     style="stroke-width:0.743979" />
  <path
     d="m 100.11778,164.16472 c 3.49235,0 6.32576,-2.20459 6.32576,-4.92188 v -0.082 c 0,-2.71729 -2.83341,-4.92188 -6.32576,-4.92188 -3.49234,0 -6.32576,2.20459 -6.32576,4.92188 v 0.082 c 0,2.71729 2.83342,4.92188 6.32576,4.92188 z m 0,0"
     id="path14"
     style="stroke-width:0.743979" />
  <path
     d="m 100.64493,285.725 v 0.082 c 0,2.71729 2.83341,4.92189 6.32576,4.92189 3.49235,0 6.32576,-2.2046 6.32576,-4.92189 v -0.082 c 0,-2.71729 -2.83341,-4.92188 -6.32576,-4.92188 -3.49235,0 -6.32576,2.20459 -6.32576,4.92188 z m 0,0"
     id="path15"
     style="stroke-width:0.743979" />
  <path
     d="m 274.20798,215.33438 c -16.04174,-4.42457 -28.71961,-14.59391 -33.9153,-27.20367 -1.16961,-2.83008 -4.5137,-4.73475 -8.32233,-4.73475 -3.80534,0 -7.14943,1.90467 -8.31574,4.73475 -5.19899,12.60976 -17.87686,22.7791 -33.9186,27.20367 -3.5187,0.97155 -5.79202,3.48376 -5.79202,6.401 0,2.91724 2.27332,5.42946 5.79202,6.40102 16.04174,4.42457 28.71961,14.5939 33.9186,27.20366 1.16631,2.83008 4.5104,4.73219 8.31574,4.73475 h 0.003 c 3.80534,0 7.14943,-1.9021 8.31904,-4.73475 5.19569,-12.60976 17.87356,-22.77909 33.9153,-27.20366 3.5187,-0.97156 5.79202,-3.48378 5.79202,-6.40102 0,-2.91724 -2.27332,-5.42945 -5.79202,-6.401 z m -42.23434,29.84148 c -6.36859,-10.01296 -16.76985,-18.27762 -29.51362,-23.44048 12.74377,-5.16285 23.14503,-13.42751 29.51362,-23.44303 6.36859,10.01552 16.76656,18.28018 29.51363,23.44303 -12.74707,5.16286 -23.14504,13.42752 -29.51363,23.44048 z m 0,0"
     id="path16"
     style="stroke-width:0.743979" />
  <path
     d="M 11.649392,26.941579 C 0.552955,23.880782 -8.217448,16.84659 -11.815224,8.1230637 -12.89258,5.5083129 -15.979683,3.7523284 -19.498387,3.7523284 c -3.518704,0 -6.609102,1.7585484 -7.683163,4.3707353 C -30.779326,16.84659 -39.549729,23.880782 -50.646167,26.941579 -53.848583,27.82598 -56,30.202327 -56,32.85553 c 0,2.653203 2.151417,5.02955 5.353833,5.913951 11.096438,3.060797 19.866841,10.097553 23.464617,18.818516 1.077356,2.61475 4.164459,4.370735 7.683163,4.370735 3.518704,0 6.605807,-1.755985 7.683163,-4.370735 3.597776,-8.720963 12.368179,-15.757719 23.464616,-18.818516 3.202416,-0.884401 5.353834,-3.260748 5.353834,-5.913951 0,-2.653203 -2.151418,-5.02955 -5.353834,-5.913951 z m -31.147779,20.002844 c -4.29954,-5.77296 -10.444094,-10.641011 -17.784611,-14.088893 7.343812,-3.447882 13.485071,-8.315933 17.784611,-14.086329 4.29954,5.770396 10.444093,10.638447 17.787906,14.086329 -7.343813,3.447882 -13.488366,8.315933 -17.787906,14.088893 z m 0,0"
     id="path17"
     style="stroke-width:0.743979" />
</svg>
