<?xml version="1.0" encoding="UTF-8" standalone="no"?>
<!-- icon666.com - MILLIONS vector ICONS FREE -->

<svg
   version="1.1"
   id="Capa_1"
   x="0px"
   y="0px"
   viewBox="0 0 336 336"
   xml:space="preserve"
   sodipodi:docname="coffee.svg"
   width="336"
   height="336"
   inkscape:version="1.3.1 (9b9bdc1480, 2023-11-25, custom)"
   xmlns:inkscape="http://www.inkscape.org/namespaces/inkscape"
   xmlns:sodipodi="http://sodipodi.sourceforge.net/DTD/sodipodi-0.dtd"
   xmlns="http://www.w3.org/2000/svg"
   xmlns:svg="http://www.w3.org/2000/svg"><defs
     id="defs9" /><sodipodi:namedview
     id="namedview9"
     pagecolor="#ffffff"
     bordercolor="#000000"
     borderopacity="0.25"
     inkscape:showpageshadow="2"
     inkscape:pageopacity="0.0"
     inkscape:pagecheckerboard="0"
     inkscape:deskcolor="#d1d1d1"
     inkscape:zoom="1.5781281"
     inkscape:cx="187.24716"
     inkscape:cy="197.70258"
     inkscape:window-width="1920"
     inkscape:window-height="1011"
     inkscape:window-x="0"
     inkscape:window-y="32"
     inkscape:window-maximized="1"
     inkscape:current-layer="Capa_1" /><g
     id="g2"
     transform="matrix(0.68187649,0,0,0.65625128,-6.759674,0)"><polygon
       style="fill:#f9a462"
       points="282.722,10 292.723,40.171 219.276,40.171 229.276,10 "
       id="polygon1" /><polygon
       style="fill:#f9a462"
       points="112.043,229.423 399.955,229.423 378.582,413.823 133.417,413.823 "
       id="polygon2" /></g><g
     id="g4"
     transform="matrix(0.68187649,0,0,0.65625128,-6.759674,0)"><polygon
       style="fill:#f7cd95"
       points="102.654,150.231 112.043,229.424 399.955,229.424 409.344,150.231 "
       id="polygon3" /><polygon
       style="fill:#f7cd95"
       points="378.582,413.823 133.417,413.823 143.641,502 368.358,502 "
       id="polygon4" /></g><polygon
     style="fill:#f7cd95"
     points="377.753,40.171 396.528,100.554 115.471,100.554 134.245,40.171 "
     id="polygon5"
     transform="matrix(0.68187649,0,0,0.65625128,-6.759674,0)" /><path
     style="fill:#b75548;stroke-width:0.668939"
     d="m 200.82944,186.69824 c -1.02487,-1.5166 -2.20798,-2.94591 -3.57154,-4.25776 -13.07649,-12.58493 -36.86442,-10.09577 -53.13127,5.56042 -16.26751,15.65619 -18.8539,38.54951 -5.77757,51.13444 1.29831,1.2495 2.705,2.34348 4.19632,3.29766"
     id="path5" /><path
     style="fill:#8e4238;stroke-width:0.668939"
     d="m 191.48028,233.57427 c 14.57089,-14.02343 18.15554,-33.84879 9.34916,-46.87603 -13.34292,9.37849 -21.57663,6.10773 -37.20663,21.15032 -15.12743,14.55894 -12.43334,22.45101 -21.07692,34.58379 13.53269,8.65727 34.28219,5.2441 48.93439,-8.85808 z"
     id="path6" /><rect
     x="46.821491"
     y="65.986069"
     style="fill:#b75548;stroke-width:0.668939"
     width="241.96359"
     height="32.600594"
     id="rect6" /><path
     d="m 138.74795,247.88186 c 0.01,0.005 0.0159,0.0105 0.0246,0.0157 6.16282,3.94276 13.3927,5.84785 20.90902,5.84785 12.63589,0 26.08045,-5.38519 36.62293,-15.53084 16.66103,-16.0355 20.97315,-39.18936 10.26015,-55.06867 -0.008,-0.009 -0.0116,-0.0177 -0.0176,-0.0263 -1.31122,-1.94053 -2.81335,-3.73013 -4.46551,-5.32023 -15.71312,-15.12265 -43.87399,-12.62824 -62.77494,5.56042 -18.89955,18.18997 -21.49136,45.29184 -5.77753,60.4158 1.57242,1.51332 3.32897,2.89473 5.21974,4.10617 z m 47.91072,-18.94794 c -10.07002,9.69086 -23.84593,13.69399 -34.49266,10.6457 1.40803,-2.73591 2.43491,-5.27757 3.38956,-7.63942 2.49903,-6.18648 4.65725,-11.52902 12.88884,-19.45063 8.23024,-7.92161 13.7814,-9.99799 20.20805,-12.40249 2.82432,-1.05657 5.87372,-2.19779 9.19716,-3.88107 2.8925,10.18305 -1.30174,23.21029 -11.19095,32.72791 z M 148.9495,192.6406 c 12.66593,-12.19053 30.48332,-15.18107 41.26102,-7.41696 -2.13559,0.99685 -4.23918,1.78435 -6.4976,2.6296 -6.86783,2.56923 -14.65143,5.48101 -24.91035,15.35431 -10.25947,9.87396 -13.28631,17.36572 -15.95655,23.97549 -0.63754,1.57763 -1.26006,3.1185 -1.97535,4.67185 -7.59544,-10.41668 -4.38721,-27.21737 8.07883,-39.21429 z"
     id="path7"
     style="stroke-width:0.668939" /><path
     d="m 288.78129,59.426179 h -20.1379 L 257.33243,24.41386 c -0.88641,-2.744443 -3.52538,-4.614103 -6.51118,-4.614103 H 197.76438 L 192.49411,4.4979463 C 191.56954,1.812566 188.96066,0 186.02174,0 h -36.44287 c -2.93953,0 -5.54769,1.812566 -6.47237,4.49729 l -5.27023,15.301811 H 84.77951 c -2.985937,0 -5.624804,1.86966 -6.511245,4.614103 L 66.957307,59.425522 H 46.818765 C 43.052759,59.425522 40,62.363559 40,65.988035 V 98.58863 c 0,3.62448 3.052759,6.56251 6.818765,6.56251 H 57.179191 L 84.411293,330.19349 C 84.810192,333.50296 87.723173,336 91.185054,336 H 244.41574 c 3.46175,0 6.37474,-2.49704 6.77376,-5.80651 l 27.23128,-225.04235 h 10.36051 c 3.76521,0 6.81871,-2.93803 6.81871,-6.56251 V 65.988035 c 0,-3.623819 -3.05279,-6.561856 -6.81871,-6.561856 z M 154.50204,13.125026 h 26.59592 l 2.29929,6.674731 h -31.1945 z M 89.79948,32.924783 h 156.00099 l 8.56234,26.501396 H 81.237836 Z M 258.30542,157.12231 245.3123,265.00936 H 90.287702 L 77.294536,157.12231 Z M 97.259206,322.87563 91.868991,278.13439 H 243.73167 l -1.90908,15.84978 h -88.69936 c -3.76588,0 -6.81855,2.93803 -6.81855,6.56251 0,3.62448 3.05267,6.56251 6.81855,6.56251 h 87.11803 l -1.89985,15.76644 z M 259.90241,143.99662 H 75.697587 L 74.15519,131.47273 h 133.77185 c 3.76537,0 6.81877,-2.93804 6.81877,-6.56252 0,-3.62447 -3.0534,-6.56251 -6.81877,-6.56251 H 72.538461 L 70.912866,105.15114 H 264.68713 Z M 281.9625,92.026117 H 53.637538 V 72.550548 H 281.9625 Z"
     id="path8"
     style="stroke-width:0.668939" /><ellipse
     cx="231.71205"
     cy="124.91087"
     id="circle8"
     rx="6.818768"
     ry="6.5625129"
     style="stroke-width:0.668939" /><ellipse
     cx="128.65353"
     cy="300.54996"
     id="circle9"
     rx="6.818768"
     ry="6.5625129"
     style="stroke-width:0.668939" /></svg>
