<?xml version="1.0" encoding="UTF-8" standalone="no"?>
<!-- icon666.com - MILLIONS vector ICONS FREE -->

<svg
   version="1.1"
   id="Capa_1"
   x="0px"
   y="0px"
   viewBox="0 0 335.99944 336.00002"
   xml:space="preserve"
   sodipodi:docname="cola.svg"
   width="335.99942"
   height="336"
   inkscape:version="1.3.1 (9b9bdc1480, 2023-11-25, custom)"
   xmlns:inkscape="http://www.inkscape.org/namespaces/inkscape"
   xmlns:sodipodi="http://sodipodi.sourceforge.net/DTD/sodipodi-0.dtd"
   xmlns="http://www.w3.org/2000/svg"
   xmlns:svg="http://www.w3.org/2000/svg"><defs
     id="defs13" /><sodipodi:namedview
     id="namedview13"
     pagecolor="#ffffff"
     bordercolor="#000000"
     borderopacity="0.25"
     inkscape:showpageshadow="2"
     inkscape:pageopacity="0.0"
     inkscape:pagecheckerboard="0"
     inkscape:deskcolor="#d1d1d1"
     inkscape:zoom="1.7770639"
     inkscape:cx="134.21014"
     inkscape:cy="180.63504"
     inkscape:window-width="1920"
     inkscape:window-height="1011"
     inkscape:window-x="0"
     inkscape:window-y="32"
     inkscape:window-maximized="1"
     inkscape:current-layer="Capa_1"
     showgrid="false" /><path
     style="fill:#a24223;stroke-width:0.611219"
     d="m 224.91964,167.33694 v 138.06817 c 0,14.14872 -9.95054,25.61995 -22.22972,25.61995 h -67.00199 c -12.27331,0 -22.22408,-11.47123 -22.22408,-25.61995 V 167.33694 c 0,-3.14343 1.10437,-5.99155 2.89192,-8.04561 1.78165,-2.06062 4.25213,-3.33374 6.97899,-3.33374 4.17846,0 7.56561,-3.90468 7.56561,-8.72155 v -10.09967 c 0,-2.40843 -0.84839,-4.58717 -2.21448,-6.16873 -1.37183,-1.575 -3.26192,-2.55281 -5.35113,-2.55281 -5.45334,0 -9.8766,-5.09249 -9.8766,-11.37935 l 0.008,-34.177443 c 0,-7.277798 2.64719,-14.227472 7.30369,-19.149338 l 23.8854,-25.239325 14.30005,-15.113408 h 20.47032 l 14.29994,15.113408 23.88628,25.239325 c 4.65656,4.921866 7.30926,11.87154 7.30356,19.155901 v 34.17088 c 0,6.28686 -4.41746,11.37935 -9.87095,11.37935 -4.17831,0 -7.56549,3.90468 -7.56549,8.72154 v 10.09967 c 0,2.40844 0.84828,4.58718 2.21446,6.16874 1.3718,1.575 3.26198,2.55281 5.35104,2.55281 5.45291,0 9.87664,5.09249 9.87664,11.37935 z"
     id="path1" /><g
     id="g3"
     transform="matrix(0.56926173,0,0,0.65624872,23.457875,-0.05242598)"><polygon
       style="fill:#8b381e"
       points="273.979,35.67 299.099,58.7 212.899,58.7 238.02,35.67 "
       id="polygon1" /><path
       style="fill:#8b381e"
       d="m 353.9,255.07 v 210.39 c 0,17.94 -12.1,33.05 -28.59,37.62 7.74,-7.12 12.59,-17.35 12.59,-28.71 V 263.99 c 0,-9.59 -7.77,-17.35 -17.35,-17.35 -3.67,0 -6.99,-1.49 -9.4,-3.89 -2.4,-2.4 -3.89,-5.73 -3.89,-9.39 v -15.4 c 0,-7.34 5.95,-13.28 13.29,-13.28 1.23,0 2.43,-0.13 3.59,-0.37 -0.57,1.47 -0.88,3.07 -0.88,4.74 v 15.39 c 0,3.67 1.49,6.99 3.89,9.4 2.41,2.4 5.73,3.89 9.4,3.89 9.579,0 17.35,7.76 17.35,17.34 z"
       id="path2" /><path
       style="fill:#8b381e"
       d="m 353.889,126.35 v 52.07 c 0,9.58 -7.76,17.34 -17.34,17.34 -0.29,0 -0.58,0.01 -0.86,0.03 1.4,-2.5 2.2,-5.39 2.2,-8.46 v -52.07 c 0.01,-11.09 -4.65,-21.69 -12.83,-29.19 L 257.979,44.58 H 228.3 l 9.72,-8.91 h 35.96 l 67.08,61.49 c 8.18,7.5 12.84,18.09 12.829,29.19 z"
       id="path3" /><rect
       x="158.11099"
       y="264"
       style="fill:#8b381e"
       width="195.78999"
       height="196.25999"
       id="rect3" /></g><rect
     x="113.46428"
     y="183.04097"
     style="fill:#e21717;stroke-width:0.611219"
     width="111.45608"
     height="109.10791"
     id="rect4" /><rect
     x="215.81221"
     y="183.04097"
     style="fill:#c4000a;stroke-width:0.611219"
     width="9.1081734"
     height="109.10791"
     id="rect5" /><path
     style="fill:#f9e8d4;stroke-width:0.611219"
     d="m 224.91964,211.00373 v 23.58558 c -8.03796,8.39342 -18.03422,14.00435 -30.45554,15.38903 -36.43268,4.05562 -61.9811,23.39527 -78.59231,42.17054 h -2.40794 V 246.5921 c 11.39654,-5.65687 24.96776,-9.6928 39.95637,-8.99717 38.37395,1.77843 59.80614,-12.59341 71.49942,-26.5912 z"
     id="path5" /><path
     style="fill:#e21717;stroke-width:0.611219"
     d="M 188.23892,28.624987 H 150.13865 V 14.093015 c 0,-5.0938024 3.58208,-9.2235756 8.00094,-9.2235756 h 22.09807 c 4.4185,0 8.00126,4.1297732 8.00126,9.2235756 z"
     id="path6" /><path
     d="m 229.18619,292.09179 v -81.11234 c 0,-0.0328 5e-4,-0.065 0,-0.0978 v -27.7836 c 0,-0.019 0.003,-0.0381 0.003,-0.0571 0,-0.019 -0.003,-0.0381 -0.003,-0.0571 v -15.64563 c 0,-8.98995 -6.34489,-16.30384 -14.14323,-16.30384 -1.81718,0 -3.29572,-1.70428 -3.29572,-3.79837 V 137.137 c 0,-2.09409 1.47854,-3.79837 3.29572,-3.79837 7.79834,0 14.14207,-7.31389 14.14207,-16.30318 v -7.75752 c 0,-2.71818 -1.9108,-4.92187 -4.26952,-4.92187 v 0 c -2.35763,0 -4.26929,2.20303 -4.26929,4.92187 v 7.75752 c 0,3.56211 -2.51401,6.45945 -5.60326,6.45945 -6.52545,0 -11.83453,6.11952 -11.83453,13.6421 v 10.09901 c 0,7.52258 5.30975,13.6421 11.83563,13.6421 3.08991,0 5.60325,2.898 5.60325,6.46011 v 10.78086 H 117.73097 v -10.78086 c 0,-3.56211 2.51461,-6.46011 5.60435,-6.46011 6.52543,0 11.83473,-6.11952 11.83473,-13.6421 V 137.137 c 0,-7.52258 -5.3093,-13.6421 -11.83704,-13.6421 -3.08976,0 -5.60319,-2.89799 -5.60319,-6.46011 l 0.002,-34.174814 c 0,-0.03478 0.004,-0.06891 0.004,-0.103031 h 102.90704 c 0,0.03609 0.003,0.07153 0.003,0.106968 v 5.066897 c 0,2.718838 1.91163,4.921865 4.26941,4.921865 2.35801,0 4.26927,-2.203027 4.26927,-4.921865 v -5.062303 c 0.01,-8.639514 -3.15985,-16.944998 -8.68792,-22.788237 l -28.2311,-29.831724 c 0.15452,-0.509249 0.24289,-1.054592 0.24289,-1.624872 V 14.093015 c 5.4e-4,-7.8001721 -5.50501,-14.14544098 -12.27043,-14.14544098 h -22.09814 c -6.76623,0 -12.27065,6.34526888 -12.27065,14.14544098 v 14.531972 c 0,0.57028 0.0877,1.115623 0.24308,1.624872 l -4.12117,4.355522 c -1.73886,1.83684 -1.85602,4.950084 -0.26215,6.954268 0.842,1.058529 1.99309,1.595997 3.14796,1.595997 1.03103,0 2.06426,-0.427218 2.8841,-1.294123 l 7.86757,-8.314671 h 27.12119 l 23.78471,25.134982 h -74.69086 l 1.98955,-2.102621 c 1.73801,-1.83684 1.85536,-4.950084 0.262,-6.954267 -1.5929,-2.003528 -4.29344,-2.139371 -6.03256,-0.301875 L 117.88399,60.0803 c -5.52393,5.837989 -8.69247,14.140848 -8.69301,22.780362 l -0.002,34.174818 c 0,8.98995 6.34442,16.30384 14.14498,16.30384 1.81727,0 3.29563,1.70428 3.29563,3.79837 v 10.09901 c 0,2.09409 -1.47894,3.79837 -3.29676,3.79837 -7.79827,0 -14.14212,7.31389 -14.14212,16.30384 v 138.06554 c 0,16.84131 11.88561,30.54313 26.49485,30.54313 h 8.87178 c 2.35775,0 4.26951,-2.20303 4.26951,-4.92187 0,-2.71883 -1.91174,-4.92186 -4.26951,-4.92186 h -8.87167 c -9.90154,0 -17.95593,-9.28526 -17.95593,-20.6994 v -8.3337 h 102.91661 v 8.33305 c 0,11.41413 -8.05521,20.69939 -17.95578,20.69939 h -39.61324 c -2.35767,0 -4.26952,2.20303 -4.26952,4.92187 0,2.71884 1.91185,4.92186 4.26952,4.92186 h 39.61323 c 14.60962,0 26.49459,-13.70181 26.49459,-30.54312 v -13.19782 c 0,-0.019 0.003,-0.0381 0.003,-0.0571 0,-0.019 -0.002,-0.0381 -0.003,-0.0571 z M 119.90795,72.9139 c 0.73992,-1.592715 1.65774,-3.07715 2.73765,-4.413272 0.14227,0.01641 0.28632,0.02494 0.43263,0.02494 h 92.67512 c 1.07127,1.32956 1.98206,2.805463 2.71705,4.388335 z M 154.4075,14.093015 c 0,-2.371683 1.67341,-4.3017102 3.73156,-4.3017102 h 22.098 c 2.05799,0 3.73144,1.9293712 3.73144,4.3017102 v 9.610106 H 154.40697 V 14.093015 Z M 117.73097,249.88319 c 11.8315,-5.43506 23.7662,-7.91699 35.51732,-7.37033 33.46088,1.55596 54.51709,-9.01424 67.39902,-20.51237 v 10.35298 c -7.54898,7.31914 -16.4858,11.59985 -26.59346,12.72663 -28.7267,3.19724 -54.97448,16.41541 -76.32232,38.33936 l -8.3e-4,-33.53627 z m 102.91634,-61.92035 v 21.01308 c -10.69479,12.06842 -30.81226,25.38698 -67.05548,23.70108 -11.90555,-0.55322 -23.94038,1.69903 -35.86086,6.68127 v -51.39543 z m -93.69589,99.26418 c 19.40228,-18.61778 42.2016,-29.48657 67.92337,-32.34978 9.50915,-1.0605 18.14342,-4.50777 25.77196,-10.26964 v 42.61942 z"
     id="path7"
     style="stroke-width:0.611219" /><path
     d="m 139.64232,104.99003 c 0,0.90497 -0.63883,1.64062 -1.42295,1.64062 -0.78458,0 -1.4234,-0.73565 -1.4234,-1.64062 0,-2.71884 -1.91133,-4.92187 -4.26935,-4.92187 -2.35768,0 -4.26939,2.20303 -4.26939,4.92187 0,6.33214 4.46936,11.48435 9.96214,11.48435 5.49267,0 9.96217,-5.15221 9.96217,-11.48435 0,-2.71884 -1.9115,-4.92187 -4.2698,-4.92187 -2.35752,0 -4.26942,2.20369 -4.26942,4.92187 z"
     id="path8"
     style="stroke-width:0.611219" /><path
     d="m 170.61121,104.99003 c 0,0.90497 -0.63847,1.64062 -1.42305,1.64062 -0.78442,0 -1.42288,-0.73565 -1.42288,-1.64062 0,-2.71884 -1.91147,-4.92187 -4.26979,-4.92187 -2.3575,0 -4.26933,2.20303 -4.26933,4.92187 0,6.33214 4.46945,11.48435 9.962,11.48435 5.49298,0 9.96239,-5.15221 9.96239,-11.48435 0,-2.71884 -1.91172,-4.92187 -4.26962,-4.92187 -2.35791,0 -4.26972,2.20369 -4.26972,4.92187 z"
     id="path9"
     style="stroke-width:0.611219" /><path
     d="m 201.57989,104.99003 c 0,0.90497 -0.63854,1.64062 -1.42324,1.64062 -0.78436,0 -1.42294,-0.73565 -1.42294,-1.64062 0,-2.71884 -1.91173,-4.92187 -4.26961,-4.92187 -2.35799,0 -4.26921,2.20303 -4.26921,4.92187 0,6.33214 4.46889,11.48435 9.96176,11.48435 5.49292,0 9.96214,-5.15221 9.96214,-11.48435 0,-2.71884 -1.91167,-4.92187 -4.26937,-4.92187 -2.35817,0 -4.26953,2.20369 -4.26953,4.92187 z"
     id="path10"
     style="stroke-width:0.611219" /><path
     d="m 127.25253,205.46302 h 16.65921 c 2.3583,0 4.2698,-2.20302 4.2698,-4.92186 0,-2.71884 -1.9115,-4.92187 -4.2698,-4.92187 h -16.65921 c -2.35797,0 -4.26938,2.20303 -4.26938,4.92187 0,2.71884 1.91141,4.92186 4.26938,4.92186 z"
     id="path11"
     style="stroke-width:0.611219" /><path
     d="m 132.52662,208.74427 h -5.27409 c -2.35797,0 -4.26938,2.20302 -4.26938,4.92186 0,2.71884 1.91141,4.92187 4.26938,4.92187 h 5.27409 c 2.35802,0 4.26935,-2.20303 4.26935,-4.92187 0,-2.71884 -1.91071,-4.92186 -4.26935,-4.92186 z"
     id="path12"
     style="stroke-width:0.611219" /><path
     d="m 211.6437,269.11915 h -13.27511 c -2.35773,0 -4.26946,2.20302 -4.26946,4.92186 0,2.71884 1.91173,4.92187 4.26946,4.92187 h 13.27511 c 2.35813,0 4.26955,-2.20303 4.26955,-4.92187 0,-2.71884 -1.91142,-4.92186 -4.26955,-4.92186 z"
     id="path13"
     style="stroke-width:0.611219" /></svg>
