<?xml version="1.0" encoding="UTF-8" standalone="no"?>
<!-- icon666.com - MILLIONS vector ICONS FREE -->

<svg
   version="1.1"
   id="Capa_1"
   x="0px"
   y="0px"
   viewBox="0 0 336 335.99994"
   xml:space="preserve"
   sodipodi:docname="juice.svg"
   width="336"
   height="335.99994"
   inkscape:version="1.3.1 (9b9bdc1480, 2023-11-25, custom)"
   xmlns:inkscape="http://www.inkscape.org/namespaces/inkscape"
   xmlns:sodipodi="http://sodipodi.sourceforge.net/DTD/sodipodi-0.dtd"
   xmlns="http://www.w3.org/2000/svg"
   xmlns:svg="http://www.w3.org/2000/svg"><defs
     id="defs10" /><sodipodi:namedview
     id="namedview10"
     pagecolor="#ffffff"
     bordercolor="#000000"
     borderopacity="0.25"
     inkscape:showpageshadow="2"
     inkscape:pageopacity="0.0"
     inkscape:pagecheckerboard="0"
     inkscape:deskcolor="#d1d1d1"
     inkscape:zoom="1.578125"
     inkscape:cx="255.68317"
     inkscape:cy="317.46535"
     inkscape:window-width="1920"
     inkscape:window-height="1011"
     inkscape:window-x="0"
     inkscape:window-y="32"
     inkscape:window-maximized="1"
     inkscape:current-layer="Capa_1" /><ellipse
     style="fill:#3bbc56;stroke-width:0.679136"
     cx="248.62885"
     cy="242.24785"
     id="circle1"
     rx="82.447311"
     ry="88.298035" /><path
     style="fill:#31ad45;stroke-width:0.679136"
     d="m 282.17044,161.56837 c -10.248,-4.89373 -21.59719,-7.61786 -33.54225,-7.61786 -45.53653,0 -82.44797,39.5329 -82.44797,88.29944 0,64.05075 61.719,106.59593 115.99022,80.68087 -65.12757,-31.10188 -65.05078,-130.29782 0,-161.36245 z"
     id="path1" /><path
     style="fill:#e0f7fc;stroke-width:0.679136"
     d="m 120.99806,242.24995 c 0,-41.85923 27.20419,-76.88846 63.70613,-85.98013 6.12347,-42.35121 10.85306,-91.675082 10.85306,-143.172075 0,-4.420032 -3.34556,-8.002303 -7.47272,-8.002303 H 12.395906 c -4.1278122,0 -7.4733748,3.582974 -7.4733748,8.002303 0,138.151125 33.9911248,260.871145 37.8616878,274.381445 v 35.06719 c 0,4.42003 3.344906,8.0023 7.472719,8.0023 h 99.965902 c 4.12782,0 7.47338,-3.58298 7.47338,-8.0023 v -6.83774 c -22.12416,-15.83593 -36.69816,-42.82209 -36.69816,-73.45869 z"
     id="path2" /><path
     style="fill:#beedf4;stroke-width:0.679136"
     d="M 55.909219,322.54567 V 287.47849 C 52.038656,273.96819 18.047531,151.24817 18.047531,13.097042 c 0,-4.420032 3.345563,-8.002303 7.473375,-8.002303 h -13.125 c -4.1278122,0 -7.4733748,3.582974 -7.4733748,8.002303 0,138.151128 33.9911248,260.871148 37.8616878,274.381448 v 35.06718 c 0,4.42003 3.344906,8.00231 7.472719,8.00231 h 13.125656 c -4.128469,0 -7.473375,-3.58228 -7.473375,-8.00231 z"
     id="path3" /><path
     style="fill:#ff8828;stroke-width:0.679136"
     d="m 120.99806,242.24995 c 0,-41.85923 27.20222,-76.88776 63.70416,-85.98013 2.41303,-16.68143 4.61081,-34.42832 6.38662,-52.98557 -26.544,5.16502 -64.17009,7.6769 -94.337246,-9.08956 C 63.685781,75.815252 29.041687,80.599344 7.9340625,86.65203 16.334063,192.41653 39.619781,276.43579 42.783563,287.47849 h 89.851127 c -7.38413,-13.22917 -11.63663,-28.69542 -11.63663,-45.22854 z"
     id="path4" /><path
     style="fill:#f47621;stroke-width:0.679136"
     d="M 7.9340625,86.65203 C 13.720219,159.50911 28.390031,237.15521 42.783563,287.47849 H 55.909219 C 52.71525,276.32826 29.005594,190.79231 20.818875,83.58773 16.132594,84.4768 11.803969,85.54227 7.9340625,86.65203 Z"
     id="path5" /><path
     style="fill:#ffb92e;stroke-width:0.679136"
     d="m 203.44669,153.5984 c -45.64285,0 -82.7761,39.76834 -82.7761,88.65084 0,48.88181 37.13325,88.65015 82.7761,88.65015 45.6435,0 82.7774,-39.76834 82.7774,-88.65015 0,-48.8825 -37.1339,-88.65084 -82.7774,-88.65084 z"
     id="path6" /><path
     style="fill:#ffa92c;stroke-width:0.679136"
     d="m 133.79559,242.24995 c 0,-46.51682 33.62691,-84.77831 76.2136,-88.37253 -48.32363,-4.08198 -89.33925,36.95003 -89.33925,88.37253 0,51.43866 41.02809,92.45239 89.33925,88.37182 -42.58669,-3.59492 -76.2136,-41.85571 -76.2136,-88.37182 z"
     id="path7" /><ellipse
     style="fill:#f2d422;stroke-width:0.679136"
     cx="203.4447"
     cy="242.24785"
     id="circle7"
     rx="57.916031"
     ry="62.025932" /><path
     style="fill:#edc915;stroke-width:0.679136"
     d="m 164.29416,242.24995 c 0,-30.83481 21.00984,-56.4083 48.53296,-61.20926 -35.38959,-6.17286 -67.29318,23.06373 -67.29318,61.20926 0,38.14834 31.9049,67.38141 67.29318,61.20925 -27.52378,-4.80166 -48.53296,-30.37656 -48.53296,-61.20925 z"
     id="path8" /><path
     d="m 266.28197,242.42635 c 0,-37.10676 -28.18791,-67.29497 -62.83528,-67.29497 -34.64738,0 -62.83463,30.18891 -62.83463,67.29497 0,37.10606 28.18725,67.29427 62.83463,67.29427 34.64803,0 62.83528,-30.18821 62.83528,-67.29427 z m -57.91341,-56.49896 c 11.0611,1.09711 21.14241,5.84676 29.18803,13.11391 l -29.18803,31.25861 z m -9.84375,44.37322 -29.18869,-31.25931 c 8.04497,-7.26645 18.1276,-12.01751 29.18869,-13.11461 z m 0,68.624 c -10.78284,-1.06899 -20.6384,-5.60639 -28.581,-12.56641 l 28.581,-30.6085 z m 9.84375,-43.1728 28.58035,30.60779 c -7.94194,6.95932 -17.79816,11.49673 -28.58035,12.56571 z M 243.957,278.9561 215.32941,248.29771 h 40.82531 c -1.11956,11.61058 -5.5276,22.18731 -12.19772,30.65839 z m 12.28697,-41.20068 h -40.91588 l 29.14144,-31.20871 c 6.60909,8.65312 10.87341,19.42734 11.77444,31.20871 z m -93.82013,-31.2073 29.14078,31.2073 h -40.9139 c 0.90037,-11.78067 5.16337,-22.55489 11.77312,-31.2073 z m -11.68518,41.74959 H 191.562 l -28.62694,30.65769 c -6.66947,-8.47108 -11.07684,-19.04711 -12.1964,-30.65769 z"
     id="path9"
     style="stroke-width:0.679136" /><path
     d="m 325.689,198.30194 c -1.28428,-2.566 -4.26431,-3.53097 -6.66291,-2.15766 -2.39597,1.37472 -3.29765,4.56973 -2.01403,7.13573 28.47863,56.9319 -12.53372,125.94526 -73.04194,122.02212 62.48091,-35.18174 62.29191,-130.67875 0,-165.75296 22.58813,-1.46467 44.35266,7.48152 60.27591,25.04076 1.89328,2.08878 5.00916,2.13727 6.95953,0.10894 1.94972,-2.02834 1.995,-5.36533 0.10106,-7.45341 -22.65637,-24.98523 -55.18603,-33.78734 -85.22981,-25.20029 -11.52769,-3.3138 -23.5994,-4.05668 -35.469,-2.17734 6.16678,-44.54751 9.87131,-91.184507 9.87131,-136.593677 C 200.47912,5.95499 194.91872,0 188.08387,0 H 12.395906 C 5.5604063,0 0,5.954287 0,13.27345 0,149.12776 32.637281,269.9579 37.760625,288.08292 c 0.0039,0.0134 0.0072,0.0253 0.0105,0.0379 0.02953,0.10402 0.063,0.22279 0.09056,0.32048 v 34.28073 c 0,7.31916 5.560407,13.27415 12.39525,13.27415 h 99.965905 c 6.10247,0 11.17791,-4.75106 12.19707,-10.97944 19.87322,11.36881 42.70218,13.81391 63.65756,7.78935 7.37559,2.10775 14.95331,3.18939 22.55072,3.18939 48.17728,0 87.37181,-41.97519 87.37181,-93.57058 0,-15.3805 -3.56475,-30.63872 -10.311,-44.12301 z M 12.395906,10.542293 H 188.08519 c 1.407,0 2.55084,1.225014 2.55084,2.731157 0,27.543497 -1.36631,56.205181 -4.07334,85.67511 -25.34175,4.50015 -59.89463,6.10961 -87.54244,-9.25684 C 86.757563,82.87648 73.277531,78.58155 58.95225,76.927112 56.254406,76.614358 53.823,78.70876 53.530969,81.602971 53.24025,84.49788 55.194563,87.09691 57.897,87.40896 c 13.105313,1.51317 25.41525,5.42928 36.587906,11.6401 29.038404,16.13955 64.425374,15.15419 91.016624,10.76157 -1.4654,14.32628 -3.26615,28.93087 -5.16862,42.3737 -44.30935,13.03238 -71.33569,60.47973 -62.62857,108.23491 0,0 1.63538,10.40805 6.73116,21.96381 H 46.445437 C 41.179687,263.24738 21.192938,186.13402 13.201781,90.83661 20.738813,88.91229 28.328344,87.643 35.814188,87.05615 38.525156,86.8439 40.5615,84.31796 40.363313,81.414615 40.165125,78.510565 37.809844,76.326904 35.095594,76.541967 27.563156,77.132336 19.940813,78.377732 12.365063,80.23177 10.784813,58.628503 9.84375,36.169905 9.84375,13.27345 c 6.563e-4,-1.506143 1.145156,-2.731157 2.552156,-2.731157 z M 152.77434,322.72278 c 0,1.50615 -1.1445,2.73116 -2.5515,2.73116 H 50.256937 c -1.407,0 -2.550843,-1.22501 -2.550843,-2.73116 v -29.79603 h 82.182186 c 5.94366,9.921 13.66181,18.68305 22.88606,25.72319 z M 132.70753,276.3887 c -26.83341,-63.85959 28.37428,-133.12737 91.98394,-113.80897 67.05759,20.42815 76.5765,118.68865 14.66128,153.41426 -39.62503,22.28078 -88.49794,3.77414 -106.64522,-39.60529 z"
     id="path10"
     style="stroke-width:0.679136" /></svg>
