<?xml version="1.0" encoding="UTF-8" standalone="no"?>
<!-- icon666.com - MILLIONS vector ICONS FREE -->

<svg
   viewBox="-6 0 336 336"
   version="1.1"
   id="svg16"
   sodipodi:docname="tea.svg"
   width="336"
   height="336"
   inkscape:version="1.3.1 (9b9bdc1480, 2023-11-25, custom)"
   xmlns:inkscape="http://www.inkscape.org/namespaces/inkscape"
   xmlns:sodipodi="http://sodipodi.sourceforge.net/DTD/sodipodi-0.dtd"
   xmlns="http://www.w3.org/2000/svg"
   xmlns:svg="http://www.w3.org/2000/svg">
  <defs
     id="defs16" />
  <sodipodi:namedview
     id="namedview16"
     pagecolor="#ffffff"
     bordercolor="#000000"
     borderopacity="0.25"
     inkscape:showpageshadow="2"
     inkscape:pageopacity="0.0"
     inkscape:pagecheckerboard="0"
     inkscape:deskcolor="#d1d1d1"
     inkscape:zoom="1.578125"
     inkscape:cx="236.67327"
     inkscape:cy="118.49505"
     inkscape:window-width="1920"
     inkscape:window-height="1011"
     inkscape:window-x="0"
     inkscape:window-y="32"
     inkscape:window-maximized="1"
     inkscape:current-layer="svg16" />
  <path
     d="m 207.44878,309.05017 h -90.89756 c -29.681051,0 -53.743715,-23.48401 -53.743715,-52.45129 V 121.83691 c 0,-3.53503 2.936585,-6.39843 6.558724,-6.39843 H 254.63377 c 3.62214,0 6.55873,2.8634 6.55873,6.39843 v 134.76197 c 0,28.96728 -24.06267,52.45129 -53.74372,52.45129 z m 0,0"
     fill="#678d98"
     style="fill:#f66151;stroke-width:0.664286"
     id="path1" />
  <path
     d="m 261.18987,121.83691 v 134.76453 c 0,28.96728 -24.06004,52.44873 -53.73846,52.44873 h -21.76436 c 29.67843,0 53.74635,-23.48145 53.74635,-52.44873 V 121.83691 c 0,-3.53246 -2.93922,-6.39843 -6.55873,-6.39843 h 21.7591 c 3.61951,0 6.5561,2.86597 6.5561,6.39843 z m 0,0"
     fill="#537983"
     style="fill:#ed333b;stroke-width:0.664286"
     id="path2" />
  <path
     d="m 81.08105,251.29761 c 13.47205,13.14807 19.95197,30.54382 19.42402,47.77295 -0.14447,4.70654 -4.00038,8.47229 -8.82552,8.61072 -17.648406,0.51269 -35.472796,-5.81141 -48.944841,-18.95948 -13.472045,-13.14807 -19.946717,-30.54126 -19.421388,-47.76526 0.144465,-4.70654 4.000375,-8.47229 8.822889,-8.61328 17.651032,-0.51526 35.472796,5.80628 48.94484,18.95435 z m 0,0"
     fill="#98d829"
     id="path3"
     style="stroke-width:0.664286" />
  <path
     d="m 100.50769,299.07056 c -0.14972,4.7091 -4.00037,8.46972 -8.825514,8.61328 -4.23152,0.12304 -8.468292,-0.15381 -12.655159,-0.81263 3.052157,-1.36889 5.174484,-4.32458 5.284803,-7.80065 0.527955,-17.23169 -5.95197,-34.62232 -19.421389,-47.77552 -10.251782,-10.00268 -23.017261,-16.0448 -36.300187,-18.13915 1.082176,-0.49219 2.277298,-0.77418 3.545966,-0.81007 17.651032,-0.51525 35.470169,5.80115 48.947467,18.94922 13.469423,13.1532 19.949343,30.54383 19.424013,47.77552 z m 0,0"
     fill="#8cc826"
     id="path4"
     style="stroke-width:0.664286" />
  <path
     d="m 132.27955,262.92297 c 0,18.59546 -8.02176,35.36573 -20.87655,47.18591 -3.51444,3.22742 -8.96735,3.22742 -12.4818,-0.003 -12.84953,-11.81763 -20.871294,-28.58789 -20.871294,-47.18335 0,-18.5929 8.021764,-35.3606 20.871294,-47.17822 3.51445,-3.22742 8.96736,-3.22999 12.4818,0 12.85479,11.81506 20.87655,28.58276 20.87655,47.17822 z m 0,0"
     fill="#a3e72d"
     id="path5"
     style="stroke-width:0.664286" />
  <path
     d="m 132.28218,262.92554 c 0,18.59033 -8.02177,35.36572 -20.87918,47.17822 -3.51707,3.23254 -8.96473,3.23254 -12.4818,0 -0.51745,-0.47168 -1.02702,-0.95874 -1.52608,-1.45093 11.95385,-11.71765 19.34522,-27.88549 19.34522,-45.72729 0,-17.84949 -7.39137,-34.00965 -19.34522,-45.7273 0.49906,-0.49475 1.00863,-0.97925 1.52608,-1.45349 3.51707,-3.22485 8.96473,-3.23255 12.4818,0 12.85741,11.81506 20.87918,28.58276 20.87918,47.18079 z m 0,0"
     fill="#98d829"
     id="path6"
     style="stroke-width:0.664286" />
  <path
     d="M 309.78799,331.07812 H 14.212008 c -8.376361,0 -15.168856,-6.62914 -15.168856,-14.80407 v -8.80042 c 0,-3.9093 3.2465291,-7.07776 7.249531,-7.07776 H 317.70732 c 4.00563,0 7.24953,3.16846 7.24953,7.07776 v 8.80042 c 0,8.17493 -6.78987,14.80407 -15.16886,14.80407 z m 0,0"
     fill="#f6a96c"
     id="path7"
     style="stroke-width:0.664286" />
  <path
     d="m 324.95685,307.47363 v 8.80042 c 0,8.17749 -6.7925,14.80151 -15.16623,14.80151 h -20.47467 c 8.37373,0 15.16885,-6.62402 15.16885,-14.80151 v -8.80042 c 0,-3.91186 -3.24653,-7.07776 -7.25478,-7.07776 h 20.47467 c 4.00563,0 7.25216,3.16846 7.25216,7.07776 z m 0,0"
     fill="#ea9b58"
     id="path8"
     style="stroke-width:0.664286" />
  <path
     d="m 238.03077,143.08044 v 47.77551 c 0,3.53248 -1.83602,6.82142 -4.86717,8.74146 l -8.79925,5.56787 -11.57298,7.32898 c -3.52233,2.23279 -8.07955,2.23279 -11.61501,0 l -20.36173,-12.89685 c -3.02851,-1.92004 -4.86454,-5.20898 -4.86454,-8.74402 v -47.77551 c 0,-5.76013 4.78049,-10.41797 10.66942,-10.41797 h 40.74184 c 5.88893,0 10.66942,4.6604 10.66942,10.42053 z m 0,0"
     fill="#fef1da"
     id="path9"
     style="stroke-width:0.664286" />
  <path
     d="m 238.03077,143.08044 v 47.77551 c 0,3.53248 -1.83602,6.82142 -4.86717,8.74146 l -8.79925,5.56787 v -62.08484 c 0,-5.76013 -4.78048,-10.42053 -10.66942,-10.42053 h 13.66642 c 5.88893,0 10.66942,4.6604 10.66942,10.42053 z m 0,0"
     fill="#fde6bf"
     id="path10"
     style="stroke-width:0.664286" />
  <path
     d="m 238.03077,143.07788 v 22.38428 h -62.0833 v -22.38428 c 0,-5.76013 4.78048,-10.41541 10.67204,-10.41541 h 40.73921 c 5.89156,0 10.67205,4.65528 10.67205,10.41541 z m 0,0"
     fill="#98d829"
     id="path11"
     style="stroke-width:0.664286" />
  <path
     d="m 238.03077,143.07788 v 22.38428 h -13.66379 v -22.38428 c 0,-5.76013 -4.78311,-10.41541 -10.67467,-10.41541 h 13.66641 c 5.89156,0 10.67205,4.65528 10.67205,10.41541 z m 0,0"
     fill="#8cc826"
     id="path12"
     style="stroke-width:0.664286" />
  <path
     d="m 317.70732,295.474 h -67.02927 c 9.89981,-10.48206 15.5576,-24.29407 15.5576,-38.87512 V 121.83691 c 0,-6.24206 -5.20338,-11.32287 -11.60188,-11.32287 h -42.82739 v -4.16822 c 0,-10.694817 -8.91482,-19.395261 -19.87317,-19.395261 -10.95835,0 -19.87317,8.700444 -19.87317,19.395261 v 4.16822 H 69.366229 c -6.395873,0 -11.601876,5.08081 -11.601876,11.32287 v 52.55384 c 0,2.71984 2.258912,4.92187 5.043152,4.92187 2.786866,0 5.043152,-2.20203 5.043152,-4.92187 v -52.55384 c 0,-0.81518 0.6803,-1.47912 1.515572,-1.47912 H 201.72007 v 7.37768 h -15.09793 c -8.66792,0 -15.7152,6.88038 -15.7152,15.33729 v 47.78833 c 0,5.21667 2.67655,10.02832 7.16285,12.86609 l 20.36698,12.89172 c 2.59775,1.64575 5.57374,2.46606 8.55235,2.46606 2.97598,0 5.95197,-0.82031 8.54972,-2.46606 l 20.3696,-12.89172 c 4.48368,-2.83777 7.16285,-7.64942 7.16285,-12.86609 v -47.78833 c 0,-8.45691 -7.0499,-15.33729 -15.71519,-15.33729 h -15.54972 v -7.37768 h 42.82739 c 0.83527,0 1.51557,0.66394 1.51557,1.47912 v 134.76197 c 0,15.50134 -7.71707,29.95935 -20.6848,38.87512 h -30.92608 c -2.78424,0 -5.04315,2.20459 -5.04315,4.92187 0,2.71986 2.25891,4.92188 5.04315,4.92188 h 113.16886 c 1.21876,0 2.20638,0.96643 2.20638,2.15332 v 8.80298 c 0,5.44739 -4.54147,9.8822 -10.12571,9.8822 H 14.212008 c -5.581614,0 -10.125704,-4.43481 -10.125704,-9.8822 v -8.80298 c 0,-1.18689 0.990244,-2.15332 2.206379,-2.15332 H 181.3242 c 2.78687,0 5.04315,-2.20202 5.04315,-4.92188 0,-2.71728 -2.25628,-4.92187 -5.04315,-4.92187 h -52.24915 c 5.41351,-9.98731 8.24765,-21.10254 8.24765,-32.55103 0,-5.73962 -0.7197,-11.45874 -2.14334,-16.99841 -0.67767,-2.63781 -3.41463,-4.23742 -6.11745,-3.57861 -2.70281,0.66394 -4.34446,3.33508 -3.66679,5.9729 1.22139,4.75781 1.84128,9.672 1.84128,14.60412 0,11.63306 -3.40938,22.85852 -9.85516,32.55359 H 92.937711 c -6.445779,-9.69507 -9.844653,-20.90258 -9.844653,-32.55359 0,-16.67541 6.850282,-32.15881 19.287432,-43.59448 1.56022,-1.43555 4.00563,-1.43555 5.56322,0 3.16511,2.90698 6.02552,6.1626 8.50507,9.67456 1.57861,2.23792 4.72008,2.80445 7.01313,1.26379 2.29569,-1.54321 2.87355,-4.60912 1.29231,-6.84704 -2.88405,-4.08618 -6.21201,-7.875 -9.89456,-11.25622 -5.43715,-5.00135 -13.95534,-5.00135 -19.39512,0 -8.694183,7.99548 -15.126829,17.98791 -18.827767,28.90319 -2.805253,-2.03283 -5.739212,-3.84778 -8.786116,-5.44225 v -38.57777 c 0,-2.71984 -2.256286,-4.92187 -5.043152,-4.92187 -2.78424,0 -5.043152,2.20203 -5.043152,4.92187 v 34.24805 c -8.171483,-2.78906 -16.881426,-4.12464 -25.777861,-3.87085 -7.467542,0.22046 -13.490432,6.09851 -13.713697,13.38648 -0.585741,19.12866 7.031521,37.85998 20.897561,51.39001 1.160976,1.13562 2.361351,2.2251 3.593246,3.27356 H 6.292683 C -0.486679,295.474 -6,300.8573 -6,307.47107 v 8.80298 C -6,327.15088 3.067167,336 14.212008,336 H 309.78799 C 320.93283,336 330,327.15088 330,316.27405 v -8.80298 C 330,300.8573 324.48668,295.474 317.70732,295.474 Z m -87.28856,-100.00379 -20.36698,12.89173 c -1.86229,1.17664 -4.26566,1.17664 -6.12795,0 l -20.36698,-12.89173 c -1.60488,-1.0177 -2.5636,-2.74035 -2.5636,-4.60912 v -20.47706 h 51.99174 v 20.47706 c 0,1.86877 -0.95872,3.59142 -2.56623,4.60912 z m 2.56623,-52.39746 v 17.46753 h -51.99174 v -17.46753 c 0,-3.03002 2.5242,-5.49353 5.62889,-5.49353 h 40.73396 c 3.10206,0 5.62889,2.46351 5.62889,5.49353 z m -50.83865,-32.55871 v -4.16822 c 0,-5.26538 4.38912,-9.551511 9.78687,-9.551511 5.39775,0 9.78686,4.286131 9.78686,9.551511 v 4.16822 z M 60.19925,295.43298 C 55.116698,292.71057 50.441276,289.2832 46.301689,285.2406 34.219137,273.44861 27.844278,257.77551 28.353846,241.10523 c 0.06304,-2.0918 1.79137,-3.77857 3.934709,-3.8401 15.365854,-0.45629 30.082928,4.63733 41.682177,14.33241 -0.633021,3.72473 -0.963978,7.51355 -0.963978,11.32543 0,11.47156 2.8394,22.56885 8.252908,32.55359 H 60.270169 c -0.02364,-0.0154 -0.04728,-0.0308 -0.07092,-0.0436 z m 0,0"
     fill="#000000"
     id="path13"
     style="stroke-width:0.664286" />
  <path
     d="m 127.44916,61.323486 c -3.48556,3.14795 -8.25817,7.459717 -8.25817,15.611576 0,2.719848 2.25892,4.921875 5.04316,4.921875 2.78686,0 5.04315,-2.202027 5.04315,-4.921875 0,-3.67859 1.72308,-5.406378 5.02476,-8.390261 3.48556,-3.14795 8.25554,-7.462281 8.25554,-15.611574 0,-8.151855 -4.76998,-12.466186 -8.25554,-15.614135 -3.30168,-2.983887 -5.02476,-4.71167 -5.02476,-8.392822 0,-3.678589 1.72308,-5.406372 5.02476,-8.390259 3.48556,-3.150513 8.25554,-7.462281 8.25554,-15.614136 C 142.5576,2.2020265 140.30131,0 137.51445,0 c -2.78424,0 -5.04316,2.2020265 -5.04316,4.921875 0,3.678589 -1.72307,5.408936 -5.02213,8.390259 -3.48556,3.150513 -8.25817,7.46228 -8.25817,15.614136 0,8.154418 4.77261,12.466186 8.25817,15.614135 3.29906,2.983887 5.02213,4.714234 5.02213,8.392822 0.003,3.678589 -1.72045,5.406373 -5.02213,8.390259 z m 0,0"
     fill="#000000"
     id="path14"
     style="stroke-width:0.664286" />
  <path
     d="m 158.57486,61.323486 c -3.48555,3.14795 -8.25816,7.459717 -8.25816,15.611576 0,2.719848 2.25891,4.921875 5.04315,4.921875 2.78424,0 5.04315,-2.202027 5.04315,-4.921875 0,-3.67859 1.72308,-5.406378 5.02477,-8.390261 3.48292,-3.14795 8.25553,-7.462281 8.25553,-15.611574 0,-8.151855 -4.77261,-12.466186 -8.25553,-15.614135 -3.30169,-2.983887 -5.02477,-4.71167 -5.02477,-8.392822 0,-3.678589 1.72308,-5.406372 5.02477,-8.390259 3.48292,-3.150513 8.25553,-7.462281 8.25553,-15.614136 C 173.6833,2.2020265 171.42702,0 168.64015,0 165.85328,0 163.597,2.2020265 163.597,4.921875 c 0,3.678589 -1.72308,5.408936 -5.02477,8.390259 -3.48292,3.150513 -8.25553,7.46228 -8.25553,15.614136 0,8.154418 4.77261,12.466186 8.25553,15.614135 3.30169,2.983887 5.02477,4.714234 5.02477,8.392822 0,3.678589 -1.72308,5.406373 -5.02214,8.390259 z m 0,0"
     fill="#000000"
     id="path15"
     style="stroke-width:0.664286" />
  <path
     d="m 189.69794,61.323486 c -3.48293,3.14795 -8.25554,7.459717 -8.25554,15.611576 0,2.719848 2.25629,4.921875 5.04315,4.921875 2.78424,0 5.04316,-2.202027 5.04316,-4.921875 0,-3.67859 1.72307,-5.406378 5.02476,-8.390261 3.48293,-3.14795 8.25554,-7.462281 8.25554,-15.611574 0,-8.151855 -4.77261,-12.466186 -8.25554,-15.614135 -3.30169,-2.983887 -5.02476,-4.71167 -5.02476,-8.392822 0,-3.678589 1.72307,-5.406372 5.02476,-8.390259 3.48293,-3.150513 8.25554,-7.462281 8.25554,-15.614136 C 204.80901,2.2020265 202.55272,0 199.76585,0 c -2.78686,0 -5.04315,2.2020265 -5.04315,4.921875 0,3.678589 -1.72308,5.408936 -5.02476,8.390259 -3.48293,3.150513 -8.25554,7.46228 -8.25554,15.614136 0,8.154418 4.77261,12.466186 8.25554,15.614135 3.30168,2.983887 5.02476,4.714234 5.02476,8.392822 0,3.678589 -1.72308,5.406373 -5.02476,8.390259 z m 0,0"
     fill="#000000"
     id="path16"
     style="stroke-width:0.664286" />
</svg>
