<?xml version="1.0" encoding="UTF-8" standalone="no"?>
<!-- icon666.com - MILLIONS vector ICONS FREE -->

<svg
   version="1.1"
   id="Layer_1"
   x="0px"
   y="0px"
   viewBox="0 0 336 336"
   xml:space="preserve"
   sodipodi:docname="wine.svg"
   width="336"
   height="336"
   inkscape:version="1.3.1 (9b9bdc1480, 2023-11-25, custom)"
   xmlns:inkscape="http://www.inkscape.org/namespaces/inkscape"
   xmlns:sodipodi="http://sodipodi.sourceforge.net/DTD/sodipodi-0.dtd"
   xmlns="http://www.w3.org/2000/svg"
   xmlns:svg="http://www.w3.org/2000/svg"><defs
     id="defs39" /><sodipodi:namedview
     id="namedview39"
     pagecolor="#ffffff"
     bordercolor="#000000"
     borderopacity="0.25"
     inkscape:showpageshadow="2"
     inkscape:pageopacity="0.0"
     inkscape:pagecheckerboard="0"
     inkscape:deskcolor="#d1d1d1"
     inkscape:zoom="1.5781281"
     inkscape:cx="227.16787"
     inkscape:cy="141.94031"
     inkscape:window-width="1920"
     inkscape:window-height="1011"
     inkscape:window-x="0"
     inkscape:window-y="32"
     inkscape:window-maximized="1"
     inkscape:current-layer="Layer_1" /><path
     style="fill:#d9f2fc;stroke-width:0.696375"
     d="M 154.55796,4.2872865 H 20.64541 c -2.287803,0 -4.304409,1.3354703 -4.956166,3.2819102 C 7.1705805,32.981196 4.0071175,62.996139 7.3457125,92.626519 H 167.85692 c 3.34968,-29.759661 0.14114,-59.745073 -8.34427,-85.0573223 -0.65102,-1.9470961 -2.66689,-3.2819102 -4.95469,-3.2819102 z"
     id="path1" /><path
     style="fill:#ebf8fc;stroke-width:0.696375"
     d="M 154.55796,4.2872865 H 94.368656 C 77.162106,32.025039 71.428556,63.058483 75.967956,92.627175 h 91.890434 c 3.34968,-29.759661 0.14114,-59.745072 -8.34427,-85.057322 -0.65249,-1.9477524 -2.66836,-3.2825665 -4.95616,-3.2825665 z"
     id="path2" /><path
     style="fill:#94d6ea;stroke-width:0.696375"
     d="m 25.504034,89.62614 h 0.01478 C 22.605116,59.86976 26.229687,31.217194 34.157926,7.5685405 34.809684,5.6221006 36.824812,4.2866302 39.114092,4.2866302 H 20.64541 c -2.287803,0 -4.304409,1.3354704 -4.956166,3.2819103 C 7.5932615,31.721195 4.1911165,60.37048 7.0501305,89.62614 v 0 c 0.09754,1.000127 0.183261,2.005503 0.295582,2.999723 2.312187,0 16.1550165,0 18.4679425,0 7.39e-4,6.56e-4 -0.294103,-2.843535 -0.309621,-2.999723 z"
     id="path3" /><path
     style="fill:#9ad14b;stroke-width:0.696375"
     d="m 215.63991,107.60413 c -13.96402,-11.309825 -32.60118,-6.42469 -33.24776,-4.43757 -7.27057,22.21278 17.43636,41.75724 41.27428,33.43336 1.99444,-0.69563 6.2183,-17.45431 -8.02652,-28.99579 z"
     id="path4" /><path
     style="fill:#81b22b;stroke-width:0.696375"
     d="m 204.72851,103.16722 c 0.18548,-0.56766 0.58895,-0.75206 1.12617,-0.93516 -7.1952,-2.460282 -15.2764,-2.472751 -22.5854,0.0807 -0.42563,0.14831 -0.75077,0.46397 -0.87787,0.85444 -7.22254,22.06578 17.16369,41.63714 41.02673,33.51473 -14.78942,-5.05379 -23.31843,-19.37121 -18.68963,-33.51473 z"
     id="path5" /><path
     style="fill:#9ad14b;stroke-width:0.696375"
     d="m 277.10095,111.0501 c -20.6715,4.06482 -36.62922,17.94978 -41.64376,36.23817 -0.10789,0.39507 -0.004,0.81244 0.28228,1.13072 5.57319,6.19107 12.8615,11.14774 21.07645,14.33186 0.6924,0.26775 1.50229,0.0295 1.87473,-0.55453 8.31323,-12.99704 29.73404,-12.57048 37.2322,0.98438 0.33549,0.60637 1.1306,0.88397 1.83113,0.65428 17.29744,-5.60701 30.2321,-18.46952 34.6008,-34.40723 0.10567,-0.38653 0.008,-0.79537 -0.26529,-1.11038 -13.02776,-15.06948 -36.71863,-20.83924 -54.98854,-17.26727 z"
     id="path6" /><path
     style="fill:#81b22b;stroke-width:0.696375"
     d="m 250.27396,158.4406 c 8.65463,-31.56763 48.73551,-47.34521 81.47561,-30.50582 -13.19033,-14.71774 -36.2723,-20.47699 -54.64788,-16.88468 -20.6715,4.06482 -36.62922,17.94978 -41.64376,36.23817 -0.10789,0.39507 -0.004,0.81244 0.28228,1.13072 4.24824,4.71779 9.49334,8.71633 15.38355,11.7633 -0.552,-0.59325 -1.05523,-0.99094 -0.8498,-1.74169 z"
     id="path7" /><path
     style="fill:#bee2ed;stroke-width:0.696375"
     d="m 75.902926,196.52415 v 115.23632 h 23.39751 c 0,-5.31497 0,-111.6952 0,-115.23632 -7.55285,1.806 -15.55573,1.87884 -23.39751,0 z"
     id="path8" /><g
     id="g10"
     transform="matrix(0.73895421,0,0,0.6562508,-21.172009,0)"><path
       style="fill:#82c8d8"
       d="m 147.2,301.581 c -5.304,0 -10.791,-0.756 -15.832,-2.116 V 475.063 H 147.2 Z"
       id="path9" /><path
       style="fill:#82c8d8"
       d="m 163.032,301.581 v -2.116 c -2.653,0.715 -5.245,1.22 -7.916,1.583 2.882,0.373 5.505,0.533 7.916,0.533 z"
       id="path10" /></g><path
     style="fill:#e5415c;stroke-width:0.696375"
     d="M 122.30187,89.62614 H 7.0360905 c 6.1274075,62.37533 39.8636235,110.08607 80.5659655,110.08607 40.703074,0 74.440034,-47.71074 80.565964,-110.08607 h -26.65999"
     id="path11" /><path
     style="fill:#c62a48;stroke-width:0.696375"
     d="M 96.830116,198.88271 C 60.986398,192.41536 32.181224,148.77402 25.821045,92.625863 h -0.0074 c 0,0 -0.294842,-2.844191 -0.31036,-2.999723 -2.31071,0 -16.1550165,0 -18.4679435,0 3.8440395,39.17686 23.0494595,93.87733 63.9949125,107.38757 8.549702,2.80744 17.261232,3.41053 25.799852,1.869 z"
     id="path12" /><path
     style="fill:#f25a78;stroke-width:0.696375"
     d="m 75.551926,89.62614 c 4.69753,36.32808 24.723934,68.51455 54.200814,91.32124 20.15646,-19.51034 34.61114,-52.58538 38.41602,-91.32124 -4.02139,0 -88.531154,0 -92.616834,0 z"
     id="path13" /><g
     id="g24"
     transform="matrix(0.73895421,0,0,0.6562508,-21.172009,0)"><circle
       style="fill:#8f9ed8"
       cx="342.52802"
       cy="261.20499"
       r="30.5"
       id="circle13" /><circle
       style="fill:#8f9ed8"
       cx="434.01901"
       cy="314.74399"
       r="30.499001"
       id="circle14" /><circle
       style="fill:#8f9ed8"
       cx="251.02699"
       cy="314.74399"
       r="30.5"
       id="circle15" /><circle
       style="fill:#8f9ed8"
       cx="373.021"
       cy="314.74399"
       r="30.5"
       id="circle16" /><circle
       style="fill:#8f9ed8"
       cx="312.02399"
       cy="314.74399"
       r="30.499001"
       id="circle17" /><circle
       style="fill:#8f9ed8"
       cx="373.021"
       cy="422.82101"
       r="30.5"
       id="circle18" /><circle
       style="fill:#8f9ed8"
       cx="312.02399"
       cy="422.82101"
       r="30.499001"
       id="circle19" /><circle
       style="fill:#8f9ed8"
       cx="281.521"
       cy="261.20499"
       r="30.499001"
       id="circle20" /><circle
       style="fill:#8f9ed8"
       cx="342.52802"
       cy="368.96201"
       r="30.5"
       id="circle21" /><circle
       style="fill:#8f9ed8"
       cx="403.52499"
       cy="368.96201"
       r="30.499001"
       id="circle22" /><circle
       style="fill:#8f9ed8"
       cx="281.521"
       cy="368.96201"
       r="30.499001"
       id="circle23" /><circle
       style="fill:#8f9ed8"
       cx="403.52499"
       cy="261.20499"
       r="30.499001"
       id="circle24" /></g><g
     id="g35"
     transform="matrix(0.73895421,0,0,0.6562508,-21.172009,0)"><path
       style="fill:#5b72bc"
       d="m 355.661,233.674 c -20.161,-9.635 -43.637,5.085 -43.637,27.531 0,16.843 13.656,30.499 30.499,30.499 4.705,0 9.16,-1.067 13.138,-2.968 -23.093,-11.043 -23.13,-44.005 0,-55.062 z"
       id="path24" /><path
       style="fill:#5b72bc"
       d="m 447.158,287.215 c -20.159,-9.637 -43.636,5.085 -43.636,27.531 0,22.436 23.468,37.169 43.636,27.529 -23.093,-11.04 -23.128,-44.001 0,-55.06 z"
       id="path25" /><path
       style="fill:#5b72bc"
       d="m 264.164,287.215 c -20.161,-9.636 -43.636,5.085 -43.636,27.531 0,22.438 23.468,37.168 43.636,27.529 -23.093,-11.039 -23.13,-44.001 0,-55.06 z"
       id="path26" /><path
       style="fill:#5b72bc"
       d="m 386.16,287.215 c -20.159,-9.637 -43.637,5.085 -43.637,27.531 0,22.436 23.47,37.169 43.637,27.529 -23.095,-11.04 -23.129,-44.001 0,-55.06 z"
       id="path27" /><path
       style="fill:#5b72bc"
       d="m 325.163,287.215 c -20.164,-9.635 -43.636,5.085 -43.636,27.531 0,22.438 23.467,37.166 43.636,27.529 -23.094,-11.039 -23.131,-44.001 0,-55.06 z"
       id="path28" /><path
       style="fill:#5b72bc"
       d="m 386.16,395.289 c -20.155,-9.639 -43.637,5.083 -43.637,27.53 0,22.436 23.47,37.169 43.637,27.529 -23.095,-11.042 -23.129,-44.003 0,-55.059 z"
       id="path29" /><path
       style="fill:#5b72bc"
       d="m 325.163,395.289 c -20.159,-9.637 -43.636,5.083 -43.636,27.53 0,22.438 23.467,37.166 43.636,27.529 -23.092,-11.041 -23.131,-44.002 0,-55.059 z"
       id="path30" /><path
       style="fill:#5b72bc"
       d="m 294.664,233.674 c -20.161,-9.635 -43.637,5.085 -43.637,27.531 0,22.442 23.476,37.169 43.637,27.529 -23.096,-11.041 -23.13,-43.999 0,-55.06 z"
       id="path31" /><path
       style="fill:#5b72bc"
       d="m 355.661,341.435 c -20.161,-9.635 -43.637,5.084 -43.637,27.53 0,22.443 23.474,37.168 43.637,27.531 -23.094,-11.042 -23.13,-44.003 0,-55.061 z"
       id="path32" /><path
       style="fill:#5b72bc"
       d="m 416.66,341.435 c -20.16,-9.637 -43.636,5.084 -43.636,27.53 0,22.443 23.473,37.17 43.636,27.531 -23.136,-11.063 -23.086,-44.024 0,-55.061 z"
       id="path33" /><path
       style="fill:#5b72bc"
       d="m 294.664,341.435 c -20.16,-9.635 -43.637,5.084 -43.637,27.53 0,22.438 23.468,37.17 43.637,27.531 -23.094,-11.044 -23.131,-44.001 0,-55.061 z"
       id="path34" /><path
       style="fill:#5b72bc"
       d="m 416.66,233.674 c -20.161,-9.637 -43.636,5.085 -43.636,27.531 0,22.443 23.477,37.171 43.636,27.529 -23.131,-11.057 -23.091,-44.019 0,-55.06 z"
       id="path35" /></g><path
     style="fill:#d9f2fc;stroke-width:0.696375"
     d="m 129.17266,309.53053 c -10.1584,0 -75.473089,0 -82.161364,0 -20.742445,0 -22.629734,17.26268 -22.798215,20.77887 H 151.97088 c -0.16996,-3.51619 -2.05873,-20.77887 -22.79822,-20.77887 z"
     id="path36" /><path
     style="fill:#aedeed;stroke-width:0.696375"
     d="m 71.564526,309.53053 c -11.267572,0 -12.946476,0 -24.551752,0 -20.742445,0 -22.629734,17.26268 -22.798215,20.77887 h 24.551753 c 0.169221,-3.51619 2.055032,-20.77887 22.798214,-20.77887 z"
     id="path37" /><g
     id="g39"
     transform="matrix(0.73895421,0,0,0.6562508,-21.172009,0)"><path
       style="fill:#231f20"
       d="m 483.135,199.516 c 0.55,-2.257 0.021,-4.641 -1.429,-6.455 -6.4,-8.007 -14.181,-14.639 -23.126,-19.711 -3.6,-2.041 -8.179,-0.777 -10.222,2.824 -2.043,3.603 -0.778,8.179 2.824,10.222 6.187,3.508 11.688,7.931 16.394,13.177 -5.352,17.588 -17.793,31.995 -34.283,39.817 -14.575,-19.54 -43.608,-20.305 -59.371,-1.771 -6.4,-3.533 -12.189,-8.127 -17.063,-13.546 9.533,-31.415 40.38,-50.065 71.718,-45.456 4.081,0.603 7.906,-2.229 8.51,-6.327 0.604,-4.097 -2.229,-7.907 -6.327,-8.51 -28.662,-4.222 -58.502,7.475 -76.309,31.915 5.481,-23.838 16.867,-55.377 40.51,-81.504 2.778,-3.07 2.541,-7.813 -0.529,-10.592 -3.07,-2.778 -7.811,-2.541 -10.592,0.529 -26.907,29.736 -39.176,65.182 -44.771,91.16 -0.444,-32.907 -33.96,-55.753 -65.073,-43.516 -2.162,0.851 -3.808,2.654 -4.456,4.885 -11.096,38.179 26.594,71.987 63.157,57.605 1.442,-0.567 2.645,-1.564 3.485,-2.822 -0.776,5.467 -1.217,10.036 -1.468,13.449 -9.507,1.822 -17.767,7.189 -23.339,14.678 -6.933,-9.317 -18.023,-15.365 -30.503,-15.365 -20.955,0 -38.002,17.047 -38.002,38.002 0,5.623 1.237,10.96 3.438,15.766 -19.052,2.034 -33.942,18.199 -33.942,37.782 0,19.683 15.043,35.915 34.235,37.813 -11.402,23.71 4.361,51.534 30.344,54.214 -11.785,25.16 6.736,54.063 34.429,54.063 12.479,0 23.571,-6.048 30.504,-15.365 6.933,9.317 18.024,15.365 30.504,15.365 27.678,0 46.221,-28.886 34.43,-54.063 25.957,-2.676 41.756,-30.479 30.343,-54.214 19.193,-1.898 34.235,-18.13 34.235,-37.813 0,-19.583 -14.89,-35.749 -33.942,-37.782 3.707,-8.094 4.33,-16.933 2.29,-25.04 21.664,-10.276 37.644,-29.779 43.397,-53.414 z m -159.527,1.973 c -22.864,6.057 -44.507,-13.564 -40.515,-36.941 22.934,-6.069 44.493,13.632 40.515,36.941 z m 77.865,37.76 c 13.294,-0.826 24.419,9.803 24.419,22.957 0,12.685 -10.319,23.005 -23.004,23.005 -12.685,0 -23.005,-10.32 -23.005,-23.005 0.001,-12.18 9.552,-22.228 21.59,-22.957 z m -59.592,153.736 c -12.685,0 -23.005,-10.32 -23.005,-23.005 0,-12.685 10.32,-23.005 23.005,-23.005 12.685,0 23.006,10.32 23.006,23.005 0,12.685 -10.32,23.005 -23.006,23.005 z M 311.377,292.749 c 12.685,0 23.005,10.32 23.005,23.005 0,12.685 -10.32,23.004 -23.005,23.004 -12.685,0 -23.004,-10.319 -23.004,-23.004 0,-12.685 10.32,-23.005 23.004,-23.005 z m 61.009,46.009 c -12.685,0 -23.006,-10.319 -23.006,-23.004 0,-12.685 10.32,-23.005 23.006,-23.005 12.685,0 23.005,10.32 23.005,23.005 0,12.685 -10.321,23.004 -23.005,23.004 z m -30.505,-99.557 c 12.685,0 23.006,10.32 23.006,23.005 0,12.685 -10.32,23.005 -23.006,23.005 -12.685,0 -23.005,-10.32 -23.005,-23.005 0,-12.686 10.321,-23.005 23.005,-23.005 z m -61.005,0 c 12.685,0 23.004,10.32 23.004,23.005 0,12.685 -10.319,23.005 -23.004,23.005 -12.685,0 -23.005,-10.32 -23.005,-23.005 0,-12.686 10.32,-23.005 23.005,-23.005 z m -53.509,76.552 c 0,-12.685 10.32,-23.005 23.005,-23.005 12.685,0 23.005,10.32 23.005,23.005 0,12.685 -10.32,23.004 -23.005,23.004 -12.685,10e-4 -23.005,-10.318 -23.005,-23.004 z m 30.504,54.228 c 0,-12.685 10.32,-23.005 23.005,-23.005 12.685,0 23.004,10.32 23.004,23.005 0,12.685 -10.319,23.005 -23.004,23.005 -12.685,0 -23.005,-10.321 -23.005,-23.005 z m 53.506,76.864 c -12.685,0 -23.004,-10.319 -23.004,-23.004 0,-12.685 10.319,-23.005 23.004,-23.005 12.685,0 23.005,10.32 23.005,23.005 10e-4,12.685 -10.319,23.004 -23.005,23.004 z m 61.009,0 c -12.685,0 -23.006,-10.319 -23.006,-23.004 0,-12.685 10.32,-23.005 23.006,-23.005 12.685,0 23.005,10.32 23.005,23.005 0,12.685 -10.321,23.004 -23.005,23.004 z m 30.503,-53.86 c -12.685,0 -23.005,-10.32 -23.005,-23.005 0,-12.685 10.32,-23.005 23.005,-23.005 12.685,0 23.004,10.32 23.004,23.005 0,12.685 -10.319,23.005 -23.004,23.005 z m 53.507,-77.232 c 0,12.685 -10.32,23.004 -23.005,23.004 -12.685,0 -23.004,-10.319 -23.004,-23.004 0,-12.685 10.319,-23.005 23.004,-23.005 12.685,0 23.005,10.321 23.005,23.005 z"
       id="path38" /><path
       style="fill:#231f20"
       d="M 202.795,465.196 H 169.864 V 365.24 c 0,-4.142 -3.356,-7.498 -7.498,-7.498 -4.142,0 -7.498,3.356 -7.498,7.498 v 99.956 H 138.197 V 312.328 c 5.421,0.65 11.107,0.667 16.671,0 v 26.585 c 0,4.142 3.356,7.498 7.498,7.498 4.142,0 7.498,-3.356 7.498,-7.498 V 308.886 C 250.072,281.37 287.536,124.63 249.464,5.221 248.472,2.111 245.583,0 242.319,0 H 50.742 c -3.264,0 -6.153,2.111 -7.144,5.221 -38.03,119.265 -0.605,276.15 79.6,303.666 V 465.196 H 91.594 c -27.077,0 -37.581,20.927 -38.349,38.845 -0.183,4.26 3.226,7.819 7.491,7.819 186.304,0 175.163,0.991 178.327,-2.312 1.414,-1.477 2.165,-3.466 2.077,-5.509 -0.766,-17.917 -11.268,-38.843 -38.345,-38.843 z M 56.281,14.997 H 236.78 c 10.879,36.731 14.384,77.167 11.861,115.062 H 219.49 c -4.142,0 -7.498,3.356 -7.498,7.498 0,4.142 3.356,7.498 7.498,7.498 h 27.803 C 238.19,226.437 195.562,306.601 137.427,297.059 92.87,289.506 54.954,227.172 45.77,145.055 h 147.726 c 4.142,0 7.498,-3.356 7.498,-7.498 0,-4.142 -3.356,-7.498 -7.498,-7.498 H 44.422 C 41.895,92.119 45.416,51.688 56.281,14.997 Z m 13.124,481.867 c 2.084,-7.736 7.641,-16.671 22.188,-16.671 21.29,0 89.109,0 111.202,0 14.546,0 20.103,8.934 22.186,16.671 z"
       id="path39" /></g></svg>
