<?xml version="1.0" encoding="UTF-8" standalone="no"?>
<!-- icon666.com - MILLIONS vector ICONS FREE -->

<svg
   id="Capa_1"
   enable-background="new 0 0 512.48 512.48"
   viewBox="0 0 336.00001 336.00001"
   version="1.1"
   sodipodi:docname="avocado.svg"
   width="336"
   height="336"
   inkscape:version="1.3.1 (9b9bdc1480, 2023-11-25, custom)"
   xmlns:inkscape="http://www.inkscape.org/namespaces/inkscape"
   xmlns:sodipodi="http://sodipodi.sourceforge.net/DTD/sodipodi-0.dtd"
   xmlns="http://www.w3.org/2000/svg"
   xmlns:svg="http://www.w3.org/2000/svg">
  <defs
     id="defs35" />
  <sodipodi:namedview
     id="namedview35"
     pagecolor="#ffffff"
     bordercolor="#000000"
     borderopacity="0.25"
     inkscape:showpageshadow="2"
     inkscape:pageopacity="0.0"
     inkscape:pagecheckerboard="0"
     inkscape:deskcolor="#d1d1d1"
     showgrid="false"
     inkscape:zoom="1.576647"
     inkscape:cx="217.86742"
     inkscape:cy="242.92058"
     inkscape:window-width="1920"
     inkscape:window-height="1011"
     inkscape:window-x="0"
     inkscape:window-y="32"
     inkscape:window-maximized="1"
     inkscape:current-layer="Capa_1" />
  <g
     id="g35"
     transform="matrix(0.77105039,0,0,0.65563566,-29.573841,-1.6390892e-4)">
    <path
       d="m 438.197,196.549 c -2.717,-9.301 -1.727,-19.273 2.734,-27.874 8.195,-15.799 16.487,-36.789 16.516,-36.863 5.577,-14.121 7.996,-29.899 5.982,-45.001 C 459.498,57.346 435.36,40.907 409.218,31.766 376.373,20.281 343.484,12.685 308.628,9.755 272.957,6.757 239.196,6.783 203.85,9.755 168.993,12.685 136.105,20.281 103.26,31.766 77.119,40.906 52.98,57.345 49.05,86.81 c -2.014,15.102 0.405,30.88 5.982,45.001 0.03,0.075 8.321,21.065 16.516,36.863 4.462,8.601 5.451,18.573 2.734,27.874 -10.526,36.034 -34.159,133.244 -27.154,260.366 0.911,16.527 12.992,30.277 29.273,33.257 34.389,6.296 68.862,9.948 103.732,12.168 84.792,5.399 172.209,3.162 255.945,-12.168 16.281,-2.981 28.363,-16.73 29.273,-33.257 7.005,-127.122 -16.628,-224.332 -27.154,-260.365 z"
       fill="#dc8758"
       id="path1" />
    <path
       d="m 465.355,456.912 c -0.914,16.526 -13,30.281 -29.278,33.26 -3.248,0.596 -6.773,1.212 -10.587,1.847 11.491,-5.77 19.366,-17.35 20.101,-30.698 7.161,-129.912 -16.993,-229.256 -27.748,-266.081 -2.781,-9.504 -1.768,-19.694 2.791,-28.483 8.382,-16.148 16.854,-37.6 16.883,-37.67 5.701,-14.43 8.174,-30.559 6.118,-45.992 -4.022,-30.112 -28.692,-46.916 -55.407,-56.251 -11.242,-3.933 -22.475,-7.419 -33.796,-10.428 18.492,3.843 36.647,9.008 54.791,15.344 26.139,9.147 50.273,25.583 54.205,55.05 2.016,15.106 -0.407,30.877 -5.979,44.999 -0.03,0.079 -8.322,21.064 -16.516,36.865 -4.459,8.601 -5.452,18.572 -2.741,27.877 10.528,36.032 34.165,133.24 27.163,260.361 z"
       fill="#d77f4a"
       id="path2" />
    <g
       id="g3">
      <path
         d="M 436.622,383.504 C 436.029,361.63 430.132,339.158 423.962,320 411.811,282.269 406.741,248.169 406.87,208.786 c 0.073,-22.312 1.599,-44.749 6.322,-66.598 2.635,-12.19 5.526,-24.378 4.359,-36.951 -1.151,-12.4 -5.908,-24.81 -14.998,-33.322 -32.333,-30.28 -78.855,-33.679 -121.024,-34.228 -14.783,-0.193 -29.572,0.199 -44.327,1.109 -29.437,1.816 -58.757,5.69 -87.667,11.517 C 124.795,55.3 99.852,67.54 94.592,94.6 c -3.839,19.747 5.029,36.538 11.528,54.681 13.496,37.675 -4.113,71.068 -13.478,107.288 -10.613,41.047 -16.705,86.045 -16.828,128.206 -0.1,34.433 9.444,68.756 46.666,78.338 23.637,6.085 48.027,8.935 72.372,10.128 38.29,1.875 76.736,2.744 115.01,0.07 31.674,-2.213 73.74,-5.361 100.449,-24.369 20.657,-14.7 26.969,-41.179 26.311,-65.438 z"
         fill="#c4e6d5"
         id="path3" />
    </g>
    <g
       id="g4">
      <path
         d="m 410.316,448.938 c -26.715,19.009 -68.775,22.157 -100.456,24.372 -20.627,1.44 -41.295,1.857 -61.972,1.629 14.043,-0.149 28.086,-0.655 42.109,-1.629 31.681,-2.215 73.74,-5.363 100.456,-24.372 20.647,-14.698 26.964,-41.175 26.308,-65.438 -0.596,-21.869 -6.495,-44.344 -12.663,-63.501 -12.146,-37.729 -17.221,-71.834 -17.092,-111.212 0.07,-22.316 1.599,-44.751 6.326,-66.6 2.632,-12.186 5.522,-24.381 4.36,-36.955 -1.152,-12.394 -5.909,-24.809 -15.006,-33.32 -31.711,-29.705 -77.097,-33.538 -118.62,-34.184 5.82,-0.099 11.64,-0.119 17.459,-0.04 42.169,0.546 88.697,3.943 121.024,34.224 9.097,8.511 13.854,20.925 15.006,33.32 1.162,12.573 -1.728,24.769 -4.36,36.955 -4.727,21.849 -6.257,44.284 -6.326,66.6 -0.129,39.378 4.946,73.482 17.092,111.212 6.167,19.158 12.067,41.632 12.662,63.501 0.657,24.263 -5.659,50.74 -26.307,65.438 z"
         fill="#aedec8"
         id="path4" />
    </g>
    <g
       id="g34">
      <g
         id="g15">
        <g
           id="g9">
          <g
             id="g5">
            <path
               d="m 246.49,305.468 c -11.239,-19.396 -26.264,-36.87 -46.035,-48.157 -8.38,-4.784 -17.554,-8.491 -27.194,-10.237 -9.607,-1.74 -19.595,-2.238 -28.557,1.56 -8.903,3.773 -16.02,10.786 -21.735,18.686 -16.054,22.195 -18.728,49.236 -15.545,75.094 4.811,39.079 25.408,79.61 66.161,92.279 8.898,2.766 18.232,3.208 27.246,2.173 21.052,-2.416 41.228,-14.689 51.895,-34.033 17.61,-31.934 10.951,-67.703 -6.236,-97.365 z"
               fill="#f3eae6"
               id="path5" />
          </g>
          <g
             id="g6">
            <path
               d="m 252.726,402.83 c -10.664,19.344 -30.847,31.624 -51.898,34.037 -6.482,0.746 -13.138,0.726 -19.682,-0.389 20.019,-3.129 38.903,-15.163 49.087,-33.648 17.606,-31.931 10.95,-67.695 -6.237,-97.366 -11.236,-19.395 -26.266,-36.869 -46.04,-48.156 -8.374,-4.785 -17.545,-8.486 -27.186,-10.235 -0.286,-0.051 -0.583,-0.102 -0.869,-0.153 7.535,-1.851 15.572,-1.258 23.362,0.153 9.642,1.748 18.813,5.45 27.186,10.235 19.774,11.288 34.803,28.761 46.04,48.156 17.188,29.671 23.844,65.435 6.237,97.366 z"
               fill="#efe2dd"
               id="path6" />
          </g>
          <g
             id="g7">
            <circle
               cx="190.99899"
               cy="363.51199"
               fill="#fed402"
               r="38.433998"
               id="circle6" />
          </g>
          <g
             id="g8">
            <path
               d="m 205.347,399.17 c -12.637,5.081 -26.389,2.975 -36.705,-4.397 5.204,0.184 10.531,-0.695 15.674,-2.76 19.692,-7.934 29.231,-30.315 21.297,-50.007 -2.842,-7.055 -7.535,-12.801 -13.292,-16.911 14.723,0.511 28.464,9.519 34.333,24.068 7.924,19.692 -1.615,42.073 -21.307,50.007 z"
               fill="#fac600"
               id="path7" />
          </g>
        </g>
        <g
           id="g14">
          <g
             id="g10">
            <path
               d="m 389.63,305.468 c -11.239,-19.396 -26.264,-36.87 -46.035,-48.157 -8.38,-4.784 -17.554,-8.491 -27.194,-10.237 -9.607,-1.74 -19.595,-2.238 -28.557,1.56 -8.903,3.773 -16.02,10.786 -21.735,18.686 -16.054,22.195 -18.728,49.236 -15.545,75.094 4.811,39.079 25.408,79.61 66.161,92.279 8.898,2.766 18.232,3.208 27.246,2.173 21.052,-2.416 41.228,-14.689 51.895,-34.033 17.61,-31.934 10.951,-67.703 -6.236,-97.365 z"
               fill="#f3eae6"
               id="path9" />
          </g>
          <g
             id="g11">
            <path
               d="m 395.866,402.83 c -10.664,19.344 -30.847,31.624 -51.898,34.037 -6.482,0.746 -13.138,0.726 -19.682,-0.389 20.019,-3.129 38.903,-15.163 49.087,-33.648 17.606,-31.931 10.95,-67.695 -6.237,-97.366 -11.236,-19.395 -26.266,-36.869 -46.04,-48.156 -8.374,-4.785 -17.545,-8.486 -27.186,-10.235 -0.286,-0.051 -0.583,-0.102 -0.869,-0.153 7.535,-1.851 15.572,-1.258 23.362,0.153 9.642,1.748 18.813,5.45 27.186,10.235 19.774,11.288 34.803,28.761 46.04,48.156 17.188,29.671 23.844,65.435 6.237,97.366 z"
               fill="#efe2dd"
               id="path10" />
          </g>
          <g
             id="g12">
            <circle
               cx="334.13901"
               cy="363.51199"
               fill="#fed402"
               r="38.433998"
               id="circle11" />
          </g>
          <g
             id="g13">
            <path
               d="m 348.487,399.17 c -12.637,5.081 -26.389,2.975 -36.705,-4.397 5.204,0.184 10.531,-0.695 15.674,-2.76 19.692,-7.934 29.231,-30.315 21.297,-50.007 -2.842,-7.055 -7.535,-12.801 -13.292,-16.911 14.723,0.511 28.464,9.519 34.333,24.068 7.924,19.692 -1.615,42.073 -21.307,50.007 z"
               fill="#fac600"
               id="path12" />
          </g>
        </g>
      </g>
      <g
         id="g33">
        <g
           id="g21">
          <g
             id="g20">
            <g
               id="g16">
              <path
                 d="m 255.479,83.846 -98.852,8.546 c -7.665,0.663 -11.987,9.185 -7.922,15.717 10.352,16.638 33.278,42.71 78.008,50.4 23.413,4.025 47.545,1.938 69.92,-6.045 42.746,-15.252 60.858,-44.873 68.2,-63.04 2.883,-7.133 -2.837,-14.787 -10.502,-14.124 z"
                 fill="#02905d"
                 style="fill:#57e389"
                 id="path15" />
            </g>
            <g
               id="g17">
              <path
                 d="m 364.834,89.422 c -7.344,18.17 -25.458,47.791 -68.206,63.041 -22.37,7.99 -46.5,10.077 -69.918,6.044 -16.102,-2.769 -29.378,-7.915 -40.259,-14.156 7.532,2.966 15.933,5.38 25.289,6.989 23.418,4.023 47.548,1.937 69.918,-6.044 42.748,-15.26 60.861,-44.881 68.206,-63.041 0.908,-2.236 0.964,-4.528 0.374,-6.596 l 4.089,-0.355 c 7.672,-0.665 13.389,6.988 10.507,14.118 z"
                 fill="#017b4e"
                 style="fill:#33d17a"
                 id="path16" />
            </g>
            <g
               id="g18">
              <path
                 d="m 310.235,79.379 c -8.362,20.972 -27.975,36.562 -52.002,38.64 -24.028,2.077 -46.027,-9.917 -57.864,-29.145 z"
                 fill="#57be92"
                 id="path17" />
            </g>
            <g
               id="g19">
              <path
                 d="m 310.232,79.382 c -8.355,20.967 -27.975,36.554 -52.001,38.631 -1.815,0.159 -3.611,0.234 -5.398,0.234 -14.006,0 -27.086,-4.753 -37.555,-12.846 7.326,3.069 15.325,4.744 23.661,4.744 1.778,0 3.574,-0.075 5.38,-0.234 20.134,-1.74 37.162,-12.977 47.07,-28.901 z"
                 fill="#22b27f"
                 id="path18" />
            </g>
          </g>
        </g>
        <g
           id="g32">
          <g
             id="g31">
            <g
               id="g22">
              <path
                 d="m 255.479,149.963 -98.852,8.546 c -7.665,0.663 -11.987,9.185 -7.922,15.717 10.352,16.638 33.278,42.71 78.008,50.4 23.413,4.025 47.545,1.938 69.92,-6.045 42.746,-15.252 60.858,-44.873 68.2,-63.04 2.883,-7.133 -2.837,-14.787 -10.502,-14.125 z"
                 fill="#02905d"
                 style="fill:#57e389"
                 id="path21" />
            </g>
            <g
               id="g23">
              <path
                 d="m 364.834,155.538 c -7.344,18.17 -25.458,47.791 -68.206,63.041 -22.37,7.99 -46.5,10.077 -69.918,6.044 -16.102,-2.769 -29.378,-7.915 -40.259,-14.156 7.532,2.966 15.933,5.38 25.289,6.989 23.418,4.023 47.548,1.937 69.918,-6.044 42.748,-15.26 60.861,-44.881 68.206,-63.041 0.908,-2.236 0.964,-4.528 0.374,-6.596 l 4.089,-0.355 c 7.672,-0.665 13.389,6.989 10.507,14.118 z"
                 fill="#017b4e"
                 style="fill:#33d17a"
                 id="path22" />
            </g>
            <g
               id="g24">
              <path
                 d="m 310.235,145.495 c -8.362,20.972 -27.975,36.562 -52.002,38.64 -24.028,2.077 -46.027,-9.917 -57.864,-29.145 z"
                 fill="#57be92"
                 id="path23" />
            </g>
            <g
               id="g25">
              <path
                 d="m 310.232,145.499 c -8.355,20.967 -27.975,36.554 -52.001,38.631 -1.815,0.159 -3.611,0.234 -5.398,0.234 -14.006,0 -27.086,-4.753 -37.555,-12.846 7.326,3.069 15.325,4.744 23.661,4.744 1.778,0 3.574,-0.075 5.38,-0.234 20.134,-1.74 37.162,-12.977 47.07,-28.901 z"
                 fill="#22b27f"
                 id="path24" />
            </g>
            <g
               id="g30">
              <path
                 d="m 445.396,194.446 c -2.18,-7.464 -1.401,-15.39 2.192,-22.317 8.319,-16.036 16.768,-37.389 16.835,-37.563 6.329,-16.025 8.557,-32.882 6.441,-48.747 C 467.162,58.065 446.701,36.926 411.694,24.685 376.748,12.465 343.24,5.137 309.256,2.281 273.079,-0.76 239.387,-0.76 203.222,2.281 169.237,5.137 135.729,12.467 100.784,24.685 65.777,36.926 45.316,58.065 41.614,85.819 c -2.115,15.865 0.112,32.722 6.429,48.715 0.08,0.206 8.531,21.565 16.848,37.594 3.594,6.929 4.372,14.854 2.192,22.317 -10.606,36.308 -34.512,134.605 -27.442,262.882 1.104,20.068 15.666,36.607 35.41,40.222 31.644,5.794 65.859,9.81 104.605,12.276 27.813,1.771 54.994,2.655 81.485,2.655 62.946,0 121.99,-4.99 176.287,-14.932 19.744,-3.614 34.307,-20.154 35.411,-40.221 7.069,-128.268 -16.836,-226.571 -27.443,-262.881 z m 12.467,262.056 c -0.723,13.118 -10.236,23.931 -23.136,26.292 -75.945,13.903 -161.44,17.96 -254.118,12.062 C 142.456,492.425 108.811,488.48 77.752,482.794 64.854,480.433 55.34,469.621 54.617,456.501 47.677,330.54 71.093,234.217 81.482,198.65 84.75,187.464 83.586,175.591 78.206,165.219 70.206,149.8 62.093,129.27 62.008,129.055 56.694,115.598 54.732,100.947 56.485,87.8 59.431,65.712 76.002,49.24 105.737,38.843 139.472,27.047 171.771,19.976 204.48,17.227 222.134,15.744 239.183,15 256.236,15 c 17.052,0 34.105,0.743 51.765,2.228 32.707,2.749 65.007,9.82 98.743,21.617 29.735,10.396 46.306,26.868 49.252,48.956 1.753,13.146 -0.209,27.798 -5.527,41.264 -0.081,0.206 -8.195,20.735 -16.194,36.156 -5.381,10.371 -6.544,22.244 -3.276,33.43 10.389,35.569 33.805,131.897 26.864,257.851 z"
                 fill="#000000"
                 id="path25" />
              <path
                 d="m 148.389,380.665 c 7.203,17.893 24.466,28.781 42.667,28.781 5.7,0 11.494,-1.068 17.097,-3.324 23.496,-9.458 34.916,-36.269 25.457,-59.764 -9.459,-23.496 -36.272,-34.916 -59.764,-25.457 -23.496,9.458 -34.916,36.269 -25.457,59.764 z m 42.572,-48.088 c 12.256,0 23.884,7.334 28.734,19.383 6.369,15.823 -1.321,33.878 -17.145,40.248 -15.82,6.366 -33.877,-1.32 -40.248,-17.145 -6.369,-15.823 1.321,-33.878 17.145,-40.248 3.775,-1.518 7.674,-2.238 11.514,-2.238 z"
                 fill="#000000"
                 id="path26" />
              <path
                 d="m 347.313,250.798 c -9.783,-5.585 -19.734,-9.321 -29.576,-11.104 -8.429,-1.526 -21.001,-2.976 -32.819,2.035 -9.143,3.873 -17.516,11.005 -24.886,21.195 -6.112,8.451 -10.66,17.895 -13.686,28.249 -11.196,-16.503 -24.313,-29.463 -39.127,-38.57 -3.527,-2.171 -8.147,-1.068 -10.316,2.461 -2.17,3.528 -1.068,8.147 2.461,10.316 15.701,9.654 29.374,24.406 40.638,43.847 0.818,1.412 1.584,2.808 2.325,4.195 -0.753,9.394 -0.502,19.365 0.796,29.909 1.676,13.615 5.047,26.604 9.92,38.461 -1.846,7.131 -4.44,12.993 -6.881,17.42 -9.043,16.398 -26.739,27.972 -46.183,30.204 -8.776,1.007 -16.906,0.373 -24.165,-1.884 -12.282,-3.818 -52.977,-21.308 -60.944,-86.033 -3.503,-28.455 1.268,-51.934 14.179,-69.783 5.744,-7.942 11.996,-13.385 18.584,-16.176 5.769,-2.445 12.761,-2.912 22.009,-1.472 4.088,0.643 7.927,-2.163 8.564,-6.256 0.637,-4.093 -2.163,-7.927 -6.256,-8.564 -12.13,-1.892 -21.718,-1.103 -30.17,2.481 -9.143,3.873 -17.516,11.005 -24.886,21.195 -15.203,21.018 -20.893,48.07 -16.911,80.406 2.723,22.119 9.903,42.6 20.767,59.229 12.636,19.343 30.137,32.931 50.611,39.297 6.478,2.013 13.414,3.023 20.713,3.023 3.141,0 6.348,-0.187 9.615,-0.562 24.187,-2.776 46.26,-17.285 57.607,-37.863 1.131,-2.051 2.157,-4.136 3.115,-6.241 0.488,0.787 0.975,1.575 1.478,2.345 12.636,19.343 30.137,32.932 50.612,39.297 6.478,2.014 13.413,3.023 20.713,3.023 3.14,0 6.349,-0.187 9.615,-0.562 24.186,-2.777 46.259,-17.285 57.606,-37.863 17.1,-31.01 14.856,-68.21 -6.314,-104.747 v -0.001 c -13.245,-22.851 -29.666,-39.979 -48.808,-50.907 z m 41.986,148.414 c -9.043,16.398 -26.739,27.972 -46.182,30.204 -8.776,1.007 -16.907,0.373 -24.166,-1.884 -12.282,-3.818 -52.975,-21.308 -60.944,-86.033 -3.502,-28.456 1.269,-51.935 14.179,-69.783 5.744,-7.942 11.996,-13.385 18.584,-16.176 3.585,-1.52 7.685,-2.274 12.521,-2.274 3.509,0 7.406,0.397 11.773,1.188 8.162,1.479 16.511,4.631 24.813,9.371 16.812,9.597 31.367,24.872 43.265,45.402 24.865,42.916 14.53,74.799 6.157,89.985 z"
                 fill="#000000"
                 id="path27" />
              <path
                 d="m 316.985,320.901 c -23.496,9.458 -34.916,36.269 -25.457,59.764 7.203,17.893 24.466,28.781 42.667,28.781 5.7,0 11.494,-1.068 17.097,-3.324 11.382,-4.581 20.298,-13.321 25.106,-24.609 4.808,-11.288 4.933,-23.772 0.351,-35.154 -9.459,-23.497 -36.271,-34.917 -59.764,-25.458 z m 45.614,54.734 c -3.238,7.602 -9.243,13.487 -16.908,16.573 -15.82,6.366 -33.877,-1.32 -40.248,-17.145 -6.369,-15.823 1.321,-33.878 17.145,-40.248 3.774,-1.519 7.674,-2.238 11.514,-2.238 12.256,0 23.884,7.334 28.734,19.383 3.084,7.665 3,16.072 -0.237,23.675 z"
                 fill="#000000"
                 id="path28" />
              <path
                 d="m 420.523,143.772 0.462,-2.13 c 2.576,-11.852 5.24,-24.107 4.034,-37.099 C 423.585,89.101 417.427,75.568 407.68,66.44 396.707,56.163 383.335,48.06 367.936,42.354 c -3.888,-1.439 -8.199,0.543 -9.639,4.428 -1.438,3.884 0.544,8.199 4.428,9.639 13.708,5.078 25.06,11.937 34.701,20.968 7.067,6.618 11.563,16.755 12.657,28.541 0.991,10.683 -1.314,21.293 -3.757,32.526 l -0.466,2.146 c -4.342,20.089 -6.404,41.746 -6.491,68.158 -0.133,40.626 5.25,75.642 17.453,113.537 4.986,15.483 11.687,38.695 12.302,61.408 0.424,15.624 -2.021,44.081 -23.161,59.125 -25.314,18.015 -66.529,20.895 -96.623,22.997 -41.089,2.871 -82.572,1.466 -114.12,-0.079 -26.936,-1.319 -50.116,-4.558 -70.869,-9.899 -27.731,-7.14 -41.155,-30.382 -41.037,-71.055 0.118,-40.561 6.01,-85.434 16.589,-126.35 2.009,-7.769 4.465,-15.593 6.841,-23.159 8.76,-27.905 17.818,-56.762 6.437,-88.536 -1.152,-3.219 -2.379,-6.396 -3.564,-9.471 -5.362,-13.9 -10.427,-27.03 -7.662,-41.25 2.628,-13.52 13.273,-31.15 49.063,-38.365 28.648,-5.774 57.801,-9.604 86.648,-11.384 14.793,-0.912 29.516,-1.276 43.768,-1.096 14.813,0.194 32.243,0.735 49.209,3.287 4.095,0.614 7.916,-2.206 8.532,-6.302 0.615,-4.096 -2.206,-7.916 -6.302,-8.532 -17.856,-2.685 -35.925,-3.251 -51.244,-3.451 -14.619,-0.194 -29.722,0.187 -44.887,1.123 -29.529,1.82 -59.369,5.74 -88.688,11.649 -34.769,7.01 -55.801,24.371 -60.823,50.208 -3.588,18.455 2.502,34.243 8.392,49.511 1.154,2.991 2.347,6.083 3.438,9.131 9.683,27.03 1.761,52.267 -6.627,78.985 -2.432,7.746 -4.946,15.757 -7.052,23.896 -10.884,42.095 -16.944,88.285 -17.066,130.063 -0.061,20.822 3.347,38.27 10.127,51.858 8.702,17.441 22.89,28.802 42.17,33.766 21.749,5.599 45.914,8.985 73.875,10.355 18.442,0.903 40.239,1.758 63.428,1.758 17.003,0 34.757,-0.46 52.472,-1.698 31.871,-2.227 75.521,-5.275 104.275,-25.739 26.808,-19.077 29.963,-53.144 29.458,-71.752 -0.668,-24.638 -7.749,-49.238 -13.019,-65.6 -11.698,-36.328 -16.858,-69.911 -16.73,-108.891 0.081,-25.332 2.036,-45.999 6.151,-65.036 z"
                 fill="#000000"
                 id="path29" />
              <path
                 d="m 141.285,94.729 c -2.79,5.576 -2.493,12.06 0.794,17.343 6.327,10.17 18.047,25.035 37.357,36.915 l -23.713,2.05 c -6.237,0.539 -11.635,4.206 -14.438,9.809 -2.79,5.576 -2.493,12.06 0.794,17.343 10.289,16.537 34.767,45.52 83.105,53.829 8.163,1.403 16.414,2.101 24.659,2.101 16.66,0 33.288,-2.849 49.052,-8.474 46.195,-16.483 65.336,-49.237 72.634,-67.294 2.332,-5.77 1.512,-12.208 -2.194,-17.222 -3.725,-5.038 -9.666,-7.724 -15.908,-7.185 l -12.341,1.067 c 16.981,-15.016 25.956,-31.673 30.444,-42.777 2.331,-5.77 1.511,-12.208 -2.195,-17.223 -3.725,-5.038 -9.666,-7.73 -15.908,-7.184 L 155.723,84.921 c -6.238,0.539 -11.635,4.206 -14.438,9.808 z m 213.435,54.159 c 1.384,-0.111 2.195,0.674 2.553,1.156 0.347,0.47 0.853,1.441 0.351,2.686 -6.355,15.726 -23.092,44.273 -63.769,58.788 -21.142,7.543 -44.008,9.52 -66.129,5.717 -42.563,-7.317 -63.95,-32.569 -72.91,-46.97 -0.709,-1.14 -0.377,-2.185 -0.116,-2.706 0.269,-0.538 0.928,-1.458 2.315,-1.578 l 39.379,-3.404 c 13.009,18.469 33.914,29.294 56.408,29.294 2.014,0 4.044,-0.087 6.078,-0.264 24.76,-2.141 46.06,-17.07 56.569,-39.323 z m -139.871,12.378 82.198,-7.103 c -9.078,12.786 -23.334,21.104 -39.459,22.5 -16.131,1.392 -31.601,-4.356 -42.739,-15.397 z m 82.198,-73.219 c -9.078,12.786 -23.334,21.104 -39.459,22.5 -16.131,1.393 -31.601,-4.356 -42.739,-15.397 z M 196.394,96.46 c 13.009,18.469 33.914,29.294 56.408,29.294 2.014,0 4.044,-0.087 6.078,-0.264 24.76,-2.141 46.06,-17.07 56.569,-39.323 l 39.271,-3.395 c 1.384,-0.107 2.195,0.672 2.553,1.156 0.347,0.47 0.854,1.442 0.351,2.687 -5.353,13.241 -18.068,35.574 -46.238,50.965 l -102.206,8.836 c -30.422,-10.321 -46.815,-30.135 -54.364,-42.267 -0.709,-1.14 -0.377,-2.185 -0.116,-2.706 0.269,-0.538 0.928,-1.458 2.315,-1.578 z"
                 fill="#000000"
                 id="path30" />
            </g>
          </g>
        </g>
      </g>
    </g>
  </g>
</svg>
