<?xml version="1.0" encoding="UTF-8" standalone="no"?>
<!-- icon666.com - MILLIONS vector ICONS FREE -->

<svg
   id="Layer_1"
   enable-background="new 0 0 480.033 480.033"
   viewBox="0 0 336.00001 336.00001"
   version="1.1"
   sodipodi:docname="bacon.svg"
   width="336"
   height="336"
   inkscape:version="1.3.1 (9b9bdc1480, 2023-11-25, custom)"
   xmlns:inkscape="http://www.inkscape.org/namespaces/inkscape"
   xmlns:sodipodi="http://sodipodi.sourceforge.net/DTD/sodipodi-0.dtd"
   xmlns="http://www.w3.org/2000/svg"
   xmlns:svg="http://www.w3.org/2000/svg">
  <defs
     id="defs14" />
  <sodipodi:namedview
     id="namedview14"
     pagecolor="#ffffff"
     bordercolor="#000000"
     borderopacity="0.25"
     inkscape:showpageshadow="2"
     inkscape:pageopacity="0.0"
     inkscape:pagecheckerboard="0"
     inkscape:deskcolor="#d1d1d1"
     inkscape:zoom="1.6832176"
     inkscape:cx="230.21384"
     inkscape:cy="202.58818"
     inkscape:window-width="1920"
     inkscape:window-height="1011"
     inkscape:window-x="0"
     inkscape:window-y="32"
     inkscape:window-maximized="1"
     inkscape:current-layer="Layer_1" />
  <path
     d="M 265.97241,14.308461 C 197.80734,2.9412189 126.74162,2.4932488 55.858107,14.357458 7.4873624,22.455917 -11.395959,81.419984 24.439351,114.97574 17.81452,175.94868 16.196574,237.0826 19.592802,298.06953 c 1.013038,18.12179 16.332506,32.33084 34.938881,32.33084 H 267.60493 c 18.60637,0 33.92584,-14.20905 34.93888,-32.33084 3.39623,-60.98693 1.77828,-122.12085 -4.84655,-183.09379 35.8426,-33.562056 17.08317,-92.526122 -31.72485,-100.667279 z"
     fill="#ffca8c"
     id="path1"
     style="stroke-width:0.714233" />
  <path
     d="m 159.11511,16.199035 c -9.05758,4.461502 -16.47025,10.178721 -22.30506,16.79258 -1.04,1.178721 -2.54498,1.878674 -4.15199,1.951469 -25.39009,1.146524 -50.474082,3.822445 -75.095279,7.94517 -21.026006,3.513766 -29.42912,29.426037 -13.665082,44.188053 25.435272,23.791413 -2.186413,43.677083 5.575353,203.364433 0.306098,6.32058 5.655522,11.27345 12.141881,11.27345 h 64.275447 c 2.37954,-7e-4 4.32327,1.82057 4.37355,4.10592 0.24561,11.13416 0.36878,16.22772 0.71788,19.99277 0.22884,2.46383 -1.77829,4.58819 -4.35388,4.58819 H 54.531683 c -18.606375,0 -33.925843,-14.20905 -34.938881,-32.33084 C 16.196574,237.0833 17.81452,175.94938 24.439351,114.97644 -11.395959,81.420684 7.4873624,22.456617 55.858107,14.358158 89.43048,8.7389321 123.0444,5.8824227 156.36971,5.6388389 c 6.10519,-0.044797 8.17864,7.8842741 2.7454,10.5601961 z"
     fill="#ffd9ad"
     id="path2"
     style="stroke-width:0.714233" />
  <path
     d="m 264.27429,42.845557 c 21.47058,3.569762 29.71336,29.482033 13.96389,44.23005 -25.20205,23.567423 1.96049,38.756413 -5.53162,203.259433 -0.29152,6.33458 -5.64823,11.37145 -12.14917,11.37845 H 61.615662 c -6.486359,0 -11.835783,-4.95287 -12.141881,-11.27345 C 41.712015,130.75269 69.3337,110.86702 43.898428,87.075607 28.134389,72.313591 36.537504,46.40132 57.563509,42.887554 124.14708,31.737298 194.1706,31.149337 264.27429,42.845557 Z"
     fill="#ffebd2"
     id="path3"
     style="stroke-width:0.714233" />
  <path
     d="m 133.50857,126.74476 c -3.38675,56.35744 -4.53754,112.85417 -3.45162,169.25641 0.0605,3.13229 -2.55883,5.71162 -5.82023,5.71232 H 61.615662 c -6.486359,0 -11.835783,-4.95287 -12.141881,-11.27345 C 41.712015,130.75269 69.3337,110.86702 43.898428,87.075607 28.134389,72.313591 36.537504,46.40132 57.563509,42.887554 c 21.703794,-3.634157 43.768351,-6.14419 66.084341,-7.473401 4.59365,-0.273682 7.71148,4.404806 5.493,8.277648 -13.37502,23.349042 -11.48888,53.740315 3.63309,80.005359 0.53567,0.93234 0.79877,1.98577 0.73463,3.0476 z"
     fill="#fff3e4"
     id="path4"
     style="stroke-width:0.714233" />
  <path
     d="m 183.36972,261.27298 c -0.68362,-12.19108 -0.77253,-20.02146 -3.95012,-32.04386 -4.80063,-18.18129 -10.07062,-21.46337 -14.88947,-39.69435 -4.83125,-18.29608 -1.80817,-23.46874 -6.62483,-41.71022 -4.81813,-18.15539 -10.10342,-21.57956 -14.88948,-39.68735 -1.80014,-6.81755 -2.91521,-13.803078 -3.31606,-20.851607 -1.3184,-23.418338 -9.30901,-37.764581 -15.75675,-50.830609 -2.639,-5.347644 -8.85497,-8.154456 -14.83117,-6.698554 l -35.470906,8.651423 c -7.878376,1.917872 -11.967697,10.269015 -8.483283,17.316845 4.133049,8.360942 7.378415,14.627624 10.268853,25.562295 4.821041,18.257582 1.817638,23.512127 6.624832,41.717217 4.818854,18.15749 10.114351,21.60196 14.889471,39.68735 4.813753,18.21279 1.81837,23.48903 6.632123,41.70322 1.80015,6.81754 4.29266,13.4671 7.44109,19.85067 6.30416,12.76715 9.95547,26.59123 10.75716,40.69529 l 0.35711,6.32758 c 0.44457,7.79048 8.18447,13.25011 16.05556,11.33224 l 35.47091,-8.64442 c 5.97619,-1.46221 10.04584,-6.77555 9.71496,-12.68316 z"
     fill="#ff8c95"
     id="path5"
     style="stroke-width:0.714233" />
  <path
     d="m 153.20451,278.9398 -15.02066,3.66076 c -7.87109,1.91787 -15.61099,-3.54176 -16.05556,-11.33224 l -0.35711,-6.32758 c -0.80169,-14.10406 -4.453,-27.92814 -10.75716,-40.69529 -5.39971,-10.94727 -8.85205,-22.64209 -10.22439,-34.60079 -0.19168,-1.66869 0.65738,-3.29118 2.17767,-4.11992 6.08624,-3.31498 13.15346,-8.04317 19.84315,-14.63253 2.61204,-2.57303 7.18528,-0.98413 7.47826,2.59823 0.0729,0.89524 0.13483,1.79188 0.18439,2.68922 0.79294,13.94377 4.3772,27.77485 10.76444,40.69529 6.30416,12.76714 9.95547,26.59122 10.75715,40.70228 z"
     fill="#ff6d7a"
     id="path6"
     style="stroke-width:0.714233" />
  <path
     d="m 183.36972,261.27298 c 0.33161,5.90761 -3.73877,11.22026 -9.71496,12.68316 l -20.45025,4.98366 -1.20982,-21.36257 C 151.19301,243.46617 147.5417,229.64209 141.23754,216.87495 134.8503,203.95521 131.26604,190.12343 130.4731,176.17966 129.71077,162.51237 126.21834,148.661 119.71595,135.47738 113.5284,122.93211 109.77506,109.14023 108.9588,94.775093 108.20084,81.205098 104.74776,67.352322 98.201637,54.079808 L 88.654303,34.747097 109.11184,29.75643 c 5.9762,-1.455902 12.19217,1.35091 14.83117,6.698554 6.57163,13.317311 14.44345,27.496965 15.75675,50.830609 0.40085,7.048529 1.51592,14.034057 3.31606,20.851607 4.79189,18.12879 10.06552,21.51166 14.88948,39.68735 4.82104,18.25898 1.78921,23.39594 6.62483,41.71022 4.81302,18.20858 10.09467,21.53546 14.88947,39.69435 3.17905,12.0273 3.26796,19.88217 3.95012,32.04386 z"
     fill="#ff6d7a"
     id="path7"
     style="stroke-width:0.714233" />
  <path
     d="m 173.65476,273.95614 -20.45025,4.98366 -1.20982,-21.36257 c -0.80168,-14.11106 -4.45299,-27.93514 -10.75715,-40.70228 -3.15572,-6.38358 -5.64823,-13.03314 -7.44838,-19.84368 -3.8889,-14.72772 -2.64483,-19.94447 -4.43332,-31.30681 -0.17564,-1.11783 0.13337,-2.25315 0.83303,-3.16169 6.65252,-8.63883 11.46045,-18.52987 14.02146,-29.33014 0.94381,-3.97994 6.66128,-4.43701 8.29307,-0.66776 3.88453,8.9692 7.81861,20.13696 8.70994,36.11899 0.77763,13.69249 4.26642,27.53476 10.75715,40.69529 10.3687,20.9741 10.55965,36.94213 11.3985,51.89453 0.33234,5.90691 -3.73804,11.22025 -9.71423,12.68246 z"
     fill="#fe4f60"
     id="path8"
     style="stroke-width:0.714233" />
  <path
     d="m 312.04013,198.45987 c -2.97352,-32.02286 8.7165,-43.30611 11.48596,-60.09799 6.38432,-38.59542 -31.17097,-69.960328 -75.82481,-53.182447 -23.13225,8.686421 -17.38927,29.279047 -44.67571,42.907137 -20.0494,10.01633 -70.3369,12.42417 -59.09874,58.11012 2.72573,11.10126 1.83659,22.79048 -3.08284,33.17079 -5.61909,11.83621 -4.72266,18.66075 -2.14998,22.85347 11.92324,19.47271 65.91307,-7.81147 100.96856,20.59963 13.33712,10.80728 14.75829,23.30145 33.95499,31.74988 21.61634,9.51937 45.01825,3.19179 53.61085,-17.16285 10.83732,-25.67499 -11.71917,-41.55693 -15.18828,-78.94774 z"
     fill="#cbe3fa"
     id="path9"
     style="stroke-width:0.714233" />
  <path
     d="m 318.2787,106.46151 c 3.8663,7.00863 -0.77691,15.57606 -8.98762,16.42581 -5.75683,0.59566 -11.7425,1.99066 -17.86154,4.28931 -23.13225,8.68642 -17.38927,29.27905 -44.6757,42.90714 -20.04941,10.01633 -70.33691,12.42417 -59.09875,58.11012 0.75358,3.07 1.23168,6.18689 1.42336,9.30938 0.38116,6.19039 -4.62573,11.47503 -11.07492,11.78091 -18.27768,0.86655 -33.60808,2.25385 -39.30952,-7.06323 -2.57268,-4.19272 -3.46911,-11.01726 2.14998,-22.85347 4.91943,-10.38031 5.80857,-22.06953 3.08284,-33.17079 -11.23816,-45.68595 39.04934,-48.09379 59.09874,-58.11012 27.28644,-13.62809 21.54346,-34.220716 44.67571,-42.907137 31.15201,-11.703219 58.84731,0.0196 70.57742,21.282077 z"
     fill="#eef7ff"
     id="path10"
     style="stroke-width:0.714233" />
  <ellipse
     cx="241.96559"
     cy="187.61058"
     fill="#ffe773"
     id="circle10"
     rx="44.457066"
     ry="42.697151"
     style="stroke-width:0.714233" />
  <path
     d="m 262.29996,149.63183 c 4.74743,2.35044 3.8991,9.21419 -1.30237,10.38171 -27.10351,6.08539 -41.69709,34.36841 -30.63821,58.67218 2.16892,4.76669 -2.96405,9.60966 -7.83392,7.33272 -14.92882,-6.97924 -25.17727,-21.75245 -25.01548,-38.80752 0.301,-31.65678 35.57003,-52.04572 64.78998,-37.57909 z"
     fill="#fff0a6"
     id="path11"
     style="stroke-width:0.714233" />
  <g
     id="g14"
     transform="matrix(0.72880436,0,0,0.6999533,-6.9247438,1.5127593e-5)">
    <path
       d="M 75.319,118.678 C 63.548,107.197 64.776,90.748 72.072,80.433 c 2.552,-3.607 1.695,-8.6 -1.911,-11.151 -3.607,-2.552 -8.601,-1.696 -11.151,1.911 -13.079,18.491 -10.919,43.278 5.143,58.944 30.712,29.901 -5.249,60.508 5.238,285.18 0.622,13.318 11.448,23.712 24.65,23.712 h 226.951 c 4.418,-10e-4 7.998,-3.619 7.997,-8.038 -10e-4,-4.417 -3.583,-7.962 -8,-7.962 H 94.041 c -4.638,0 -8.445,-3.695 -8.668,-8.458 C 74.595,183.63 114.254,156.585 75.319,118.678 Z"
       id="path12" />
    <path
       d="m 445.623,282.818 c -3.929,-44.07 11.615,-58.188 15.698,-83.889 C 467.665,158.97 445.35,122.82 408.558,111.042 416.065,86.413 401.334,58.155 373.485,53.327 310.548,42.397 246.341,38.714 182.572,42.373 176.28,35.501 166.506,32.411 157.246,34.76 L 108.575,47.115 C 92.871,51.102 84.748,68.43 91.677,83.041 l 3.877,8.173 c 8.245,17.384 12.956,35.94 14.001,55.152 1.159,21.298 6.381,41.868 15.521,61.139 8.245,17.384 12.956,35.94 14.001,55.152 1.159,21.297 6.381,41.867 15.521,61.139 8.245,17.384 12.956,35.94 14.001,55.152 l 0.491,9.034 c 0.591,10.835 7.984,20.184 18.399,23.264 4.236,1.255 8.688,-1.167 9.94,-5.402 1.253,-4.237 -1.166,-8.688 -5.403,-9.94 -3.939,-1.166 -6.737,-4.699 -6.96,-8.792 -0.939,-17.256 -1.89,-40.395 -16.012,-70.172 -8.245,-17.384 -12.956,-35.94 -14.001,-55.152 -1.159,-21.298 -6.381,-41.868 -15.521,-61.14 -8.245,-17.384 -12.956,-35.94 -14.001,-55.152 -1.159,-21.298 -6.381,-41.868 -15.521,-61.14 l -3.877,-8.172 c -2.621,-5.526 0.463,-12.059 6.379,-13.562 l 14.225,-3.611 10.281,21.676 c 8.245,17.384 12.956,35.94 14.001,55.152 1.159,21.298 6.381,41.868 15.521,61.14 4.257,8.973 7.613,18.413 9.978,28.056 1.053,4.299 5.392,6.916 9.674,5.865 4.292,-1.052 6.918,-5.384 5.865,-9.675 -2.62,-10.691 -6.342,-21.156 -11.06,-31.103 -8.245,-17.384 -12.956,-35.94 -14.001,-55.152 C 165.03,98.853 153.177,77.42 142.543,55 l 18.64,-4.732 c 4.135,-1.046 8.544,0.773 10.722,4.436 1.534,2.579 4.403,4.079 7.375,3.895 63.938,-3.999 128.354,-0.47 191.469,10.492 20.369,3.532 29.615,26.674 19.858,43.33 -2.782,4.753 -0.035,10.851 5.386,11.898 33.727,6.514 55.018,37.51 49.525,72.1 -3.537,22.273 -20.055,40.447 -15.833,87.818 4.825,54.144 34.588,76.547 21.397,109.079 -10.244,25.265 -37.868,31.692 -62.814,20.255 -24.2,-11.093 -25.184,-27.681 -44.764,-44.205 -28.905,-24.395 -65.39,-22.502 -94.705,-20.982 -19.97,1.034 -37.214,1.929 -42.102,-6.384 -3.813,-6.484 -0.292,-17.327 3.332,-25.282 7.282,-15.979 8.964,-34.638 4.736,-52.541 -9.669,-40.948 16.111,-52.833 53.589,-65.152 8.705,-2.862 16.928,-5.564 23.412,-8.937 39.306,-20.438 32.847,-50.123 60.524,-60.949 1.396,-0.546 2.812,-1.063 4.205,-1.535 4.185,-1.418 6.427,-5.96 5.008,-10.145 -1.417,-4.185 -5.958,-6.425 -10.145,-5.009 -19.635,6.659 -26.822,15.231 -37.084,32.665 -6.646,11.29 -12.923,21.953 -29.89,30.776 -12.121,6.302 -35.216,10.913 -54.13,21.006 -2.025,-5.961 -4.39,-11.813 -7.08,-17.485 -8.246,-17.383 -12.957,-35.938 -14.002,-55.151 -0.754,-13.855 -3.274,-27.583 -7.493,-40.8 -1.344,-4.209 -5.841,-6.535 -10.054,-5.189 -4.209,1.343 -6.532,5.844 -5.188,10.053 3.805,11.923 6.079,24.306 6.759,36.805 1.159,21.299 6.381,41.869 15.521,61.139 3.033,6.394 5.606,13.043 7.693,19.823 -19.099,15.974 -22.896,37.716 -17.218,61.761 3.417,14.466 2.095,29.463 -3.724,42.229 -7.667,16.828 -8.507,29.92 -2.565,40.026 10.447,17.764 34.988,15.37 59.69,14.1 l 0.516,9.493 c 0.252,4.616 -2.818,8.793 -7.3,9.931 l -18.641,4.732 -0.068,-1.257 c -0.24,-4.412 -4.029,-7.787 -8.423,-7.554 -4.412,0.24 -7.794,4.011 -7.554,8.423 l 0.597,10.97 c 0.272,5.011 5.058,8.563 9.957,7.319 l 28.069,-7.125 c 11.872,-3.014 20.005,-14.079 19.339,-26.308 l -0.501,-9.218 c 22.558,-0.346 45.86,2.164 64.599,17.979 17.162,14.485 19.855,33.428 48.415,46.522 10.391,4.763 21.781,7.409 33.385,6.899 -4.989,16.863 -20.32,29.017 -38.301,29.017 H 84.325 c -21.243,0 -38.792,-16.961 -39.952,-38.614 -4.623,-86.359 -2.396,-173.947 6.619,-260.329 0.254,-2.434 -0.62,-4.851 -2.373,-6.559 C 3.79,114.829 27.863,38.789 87.52,28.392 182.206,11.891 278.278,11.87 373.076,28.328 c 38.91,6.756 59.216,39.013 62.079,67.984 0.435,4.398 4.358,7.606 8.748,7.175 4.396,-0.435 7.608,-4.351 7.174,-8.748 C 446.921,52.682 416.675,19.659 375.812,12.564 279.199,-4.21 181.278,-4.188 84.774,12.63 13.653,25.024 -15.587,113.874 34.691,167.182 25.913,253.18 23.795,340.328 28.396,426.274 c 1.614,30.145 26.182,53.758 55.929,53.758 h 292.359 c 27.9,0 51.243,-20.772 55.366,-48.22 15.967,-5.482 27.736,-17.38 33.861,-32.483 16.369,-40.373 -15.665,-64.632 -20.288,-116.511 z"
       id="path13" />
    <path
       d="m 341.505,215.032 c 10.622,0 20.867,3.128 29.627,9.047 3.659,2.472 8.633,1.512 11.107,-2.15 2.474,-3.661 1.511,-8.634 -2.15,-11.107 -11.415,-7.712 -24.757,-11.789 -38.584,-11.789 -38.047,0 -69,30.953 -69,69 0,38.047 30.953,69 69,69 38.047,0 69,-30.953 69,-69 0,-4.418 -3.582,-8 -8,-8 -4.418,0 -8,3.582 -8,8 0,29.224 -23.775,53 -53,53 -29.225,0 -53,-23.776 -53,-53 0,-29.224 23.775,-53.001 53,-53.001 z"
       id="path14" />
  </g>
</svg>
