<?xml version="1.0" encoding="UTF-8" standalone="no"?>
<!-- icon666.com - MILLIONS vector ICONS FREE -->

<svg
   id="Layer_1"
   enable-background="new 0 0 480.087 480.087"
   viewBox="0 0 336 336.00003"
   version="1.1"
   sodipodi:docname="omlet.svg"
   width="336"
   height="336.00003"
   inkscape:version="1.3.1 (9b9bdc1480, 2023-11-25, custom)"
   xmlns:inkscape="http://www.inkscape.org/namespaces/inkscape"
   xmlns:sodipodi="http://sodipodi.sourceforge.net/DTD/sodipodi-0.dtd"
   xmlns="http://www.w3.org/2000/svg"
   xmlns:svg="http://www.w3.org/2000/svg">
  <defs
     id="defs11" />
  <sodipodi:namedview
     id="namedview11"
     pagecolor="#ffffff"
     bordercolor="#000000"
     borderopacity="0.25"
     inkscape:showpageshadow="2"
     inkscape:pageopacity="0.0"
     inkscape:pagecheckerboard="0"
     inkscape:deskcolor="#d1d1d1"
     inkscape:zoom="1.6830283"
     inkscape:cx="239.74641"
     inkscape:cy="158.64261"
     inkscape:window-width="1920"
     inkscape:window-height="1011"
     inkscape:window-x="0"
     inkscape:window-y="32"
     inkscape:window-maximized="1"
     inkscape:current-layer="Layer_1" />
  <path
     d="m 323.08543,85.582504 c -8.02968,-2.088132 -16.12938,-1.541653 -23.37802,1.08602 0.43743,-7.635408 -1.38361,-15.47538 -5.72984,-22.487337 -2.8275,-4.570147 -8.86047,-5.998752 -13.47263,-3.190092 -18.44878,11.220796 -24.21576,35.132567 -12.89174,53.413165 l 5.12316,8.27339 9.48329,2.46881 c 20.93333,5.444 42.36356,-6.96265 47.85759,-27.705152 1.37169,-5.187367 -1.75667,-10.492614 -6.99181,-11.858804 z"
     fill="#befa91"
     id="path1"
     style="stroke-width:0.696682" />
  <path
     d="m 330.07724,97.441308 c -0.46962,1.778115 -2.34463,2.579802 -3.95148,1.993801 -11.56059,-4.212312 -38.61994,0.206653 -47.2166,24.851441 l -6.1728,-1.6089 2.4915,-9.38996 c 5.49402,-20.742487 26.92425,-33.149141 47.85757,-27.705186 5.23514,1.36619 8.3608,6.670731 6.99181,11.858804 z"
     fill="#daffbf"
     id="path2"
     style="stroke-width:0.696682" />
  <path
     d="m 292.47278,68.881715 c -11.25329,4.938394 -27.26715,27.555403 -15.22928,51.056635 l -4.50714,2.7393 -5.12316,-8.27339 c -11.32402,-18.280598 -5.55704,-42.192369 12.89174,-53.413165 4.52754,-2.757342 10.58637,-1.478531 13.49502,3.226834 1.03788,1.677592 0.28902,3.866958 -1.52718,4.663786 z"
     fill="#daffbf"
     id="path3"
     style="stroke-width:0.696682" />
  <path
     d="m 318.6832,194.35744 h -25.43351 c 19.59652,0 18.89671,-122.166364 -125.27792,-122.166364 -144.174713,0 -144.874589,122.166364 -125.278034,122.166364 H 17.2602 c -8.8044524,0 -14.4594588,10.23617 -10.2252018,18.6204 10.7494098,21.30211 27.4057858,39.4766 48.8934078,51.38121 4.885138,2.70472 10.302194,4.09156 15.789219,4.09156 H 264.22574 c 5.4871,0 10.90416,-1.38684 15.78926,-4.09156 21.48622,-11.90382 38.14331,-30.07766 48.89341,-51.38121 4.23426,-8.38423 -1.42075,-18.6204 -10.22521,-18.6204 z"
     fill="#cbe3fa"
     id="path4"
     style="stroke-width:0.696682" />
  <path
     d="m 97.305127,260.1218 c 2.180123,3.68941 -0.526301,8.32881 -4.841042,8.32881 H 71.718333 c -5.487038,0 -10.904081,-1.38684 -15.789232,-4.09156 C 39.593972,255.30901 25.729408,242.45296 15.16827,226.82831 h 64.055535 c 2.45867,-0.002 4.619192,1.57586 5.345672,3.90375 3.161339,10.13261 7.341697,20.26137 12.73565,29.38974 z"
     fill="#eef7ff"
     id="path5"
     style="stroke-width:0.696682" />
  <path
     d="m 318.6832,194.35744 c 8.80446,0 14.45947,10.23617 10.22521,18.6204 -2.43551,4.82677 -5.1511,9.44688 -8.1326,13.85047 H 15.167574 c -2.981483,-4.40359 -5.6970044,-9.0237 -8.1325758,-13.85047 -4.234257,-8.38423 1.4207494,-18.6204 10.2252018,-18.6204 z"
     fill="#ff6d7a"
     id="path6"
     style="stroke-width:0.696682" />
  <path
     d="M 318.72169,208.22754 H 96.220322 c -10.888685,0 -14.05563,6.21296 -13.779882,12.92313 0.128082,3.1175 -2.445363,5.67764 -5.594114,5.67764 H 15.167574 c -2.981483,-4.40359 -5.6970044,-9.0237 -8.1325758,-13.85047 -4.234257,-8.38423 1.4207494,-18.6204 10.2252018,-18.6204 h 301.423 c 9.68487,0 9.10752,13.8701 0.0389,13.8701 z"
     fill="#ff8c95"
     id="path7"
     style="stroke-width:0.696682" />
  <path
     d="m 167.97177,72.191076 c 144.17463,0 144.87444,122.166364 125.27792,122.166364 H 42.693736 c -19.596555,0 -18.896679,-122.166364 125.278034,-122.166364 z"
     fill="#ffe773"
     id="path8"
     style="stroke-width:0.696682" />
  <path
     d="m 211.52226,87.572154 c -79.653,9.684681 -109.51681,63.700666 -107.8846,100.979166 0.13849,3.16317 -2.39224,5.80612 -5.587853,5.80612 H 42.693736 c -19.596555,0 -18.896679,-122.166364 125.278034,-122.166364 16.53805,0 31.19,1.608219 44.13972,4.455732 6.15196,1.352308 5.66632,10.164569 -0.58923,10.925346 z"
     fill="#fff0a6"
     id="path9"
     style="stroke-width:0.696682" />
  <g
     id="g11"
     transform="matrix(0.699877,0,0,0.69349667,-1.6602018e-4,-2.470118)">
    <path
       d="M 455.338,275.823 H 117.777 c -4.418,0 -8,3.582 -8,8 0,4.418 3.582,8 8,8 h 337.562 c 6.717,0 10.77,8.651 7.462,15.266 -15.184,30.368 -38.217,54.81 -66.609,70.685 -5.715,3.196 -12.169,4.885 -18.663,4.885 H 102.476 c -6.494,0 -12.948,-1.689 -18.664,-4.885 -17.728,-9.912 -33.365,-23.165 -46.308,-39.115 h 372.143 c 4.418,0 8,-3.582 8,-8 0,-4.418 -3.582,-8 -8,-8 H 26.019 c -3.172,-4.997 -6.123,-10.185 -8.815,-15.57 -3.332,-6.667 0.803,-15.266 7.462,-15.266 h 36.336 c 4.418,0 8,-3.582 8,-8 0,-4.288 -3.374,-7.788 -7.612,-7.991 -3.208,-2.345 -9.323,-20.931 -1.417,-50.695 7.531,-28.351 25.046,-54.096 49.317,-72.494 32.378,-24.542 76.355,-36.985 130.711,-36.985 55.474,0 100.099,12.943 132.635,38.469 32.741,25.687 44.264,57.575 48.219,74.297 1.017,4.3 5.326,6.96 9.626,5.944 4.3,-1.017 6.961,-5.327 5.944,-9.626 -2.562,-10.832 -6.415,-21.344 -11.415,-31.337 26,-3.104 47.638,-21.747 54.347,-47.306 3.087,-11.761 -3.932,-23.777 -15.693,-26.864 -9.246,-2.427 -18.665,-2.752 -27.749,-1.087 -1.047,-9.243 -4.101,-18.158 -9.054,-26.224 -6.362,-10.362 -19.897,-13.6 -30.259,-7.236 -7.36,4.519 -13.616,10.347 -18.596,17.323 -2.567,3.596 -1.733,8.592 1.863,11.159 3.596,2.567 8.592,1.733 11.159,-1.863 3.729,-5.223 8.421,-9.592 13.946,-12.984 2.819,-1.731 6.513,-0.859 8.252,1.974 4.288,6.984 6.683,14.812 7.048,22.885 -2.219,1.046 -4.4,2.211 -6.522,3.524 -3.758,2.324 -4.921,7.253 -2.598,11.012 2.324,3.757 7.253,4.922 11.012,2.598 11.593,-7.167 24.379,-9.031 37.436,-5.604 3.208,0.842 5.121,4.12 4.28,7.327 -5.672,21.609 -25.873,36.459 -47.879,35.79 -38.316,-57.975 -106.512,-78.168 -176.002,-78.168 -58.577,0 -117.713,14.229 -158.322,56.101 -38.558,39.757 -41.554,84.403 -41.554,97.139 0,8.973 1.18,16.739 3.337,22.925 H 24.666 c -18.604,0 -30.438,21.092 -21.773,38.421 16.117,32.232 41.133,59.615 73.111,77.494 8.096,4.527 17.25,6.92 26.472,6.92 h 275.053 c 9.222,0 18.376,-2.393 26.472,-6.92 31.204,-17.447 56.485,-44.245 73.11,-77.494 8.658,-17.318 -3.15,-38.424 -21.773,-38.424 z"
       id="path10" />
    <path
       d="m 366.165,191.72 c -2.016,-0.041 -4.298,-3.547 -7.55,-8.892 -4.159,-6.835 -9.335,-15.341 -19.036,-20.775 -11.552,-6.472 -20.981,-3.762 -29.298,-1.372 -7.614,2.188 -14.805,4.255 -25.844,0.73 -15.095,-4.821 -25.069,-15.154 -44.434,-15.154 -19.349,0 -29.36,10.34 -44.434,15.154 -11.038,3.525 -18.23,1.458 -25.844,-0.73 -8.317,-2.39 -17.746,-5.1 -29.298,1.372 -9.701,5.434 -14.877,13.94 -19.036,20.775 -3.252,5.345 -5.535,8.851 -7.55,8.892 -4.417,0.09 -7.926,3.744 -7.836,8.161 0.089,4.362 3.652,7.838 7.995,7.837 18.389,0 20.098,-23.781 34.247,-31.707 5.497,-3.08 9.202,-2.21 17.059,0.047 8.674,2.493 19.471,5.596 35.132,0.594 16.796,-5.364 24.89,-14.396 39.566,-14.396 14.686,0 22.704,9.01 39.566,14.396 15.661,5.002 26.457,1.899 35.132,-0.594 7.857,-2.258 11.563,-3.126 17.059,-0.047 14.205,7.958 15.827,31.707 34.247,31.707 4.342,0 7.906,-3.476 7.995,-7.837 0.088,-4.417 -3.421,-8.071 -7.838,-8.161 z"
       id="path11" />
  </g>
</svg>
