<?xml version="1.0" encoding="UTF-8" standalone="no"?>
<!-- icon666.com - MILLIONS vector ICONS FREE -->

<svg
   version="1.1"
   id="Layer_1"
   x="0px"
   y="0px"
   viewBox="0 0 336.00001 335.99998"
   xml:space="preserve"
   sodipodi:docname="salad.svg"
   width="336"
   height="335.99997"
   inkscape:version="1.3.1 (9b9bdc1480, 2023-11-25, custom)"
   xmlns:inkscape="http://www.inkscape.org/namespaces/inkscape"
   xmlns:sodipodi="http://sodipodi.sourceforge.net/DTD/sodipodi-0.dtd"
   xmlns="http://www.w3.org/2000/svg"
   xmlns:svg="http://www.w3.org/2000/svg"><defs
     id="defs30" /><sodipodi:namedview
     id="namedview30"
     pagecolor="#ffffff"
     bordercolor="#000000"
     borderopacity="0.25"
     inkscape:showpageshadow="2"
     inkscape:pageopacity="0.0"
     inkscape:pagecheckerboard="0"
     inkscape:deskcolor="#d1d1d1"
     inkscape:zoom="1.5781312"
     inkscape:cx="246.81091"
     inkscape:cy="136.23709"
     inkscape:window-width="1920"
     inkscape:window-height="1011"
     inkscape:window-x="0"
     inkscape:window-y="32"
     inkscape:window-maximized="1"
     inkscape:current-layer="Layer_1" /><path
     style="fill:#f9ebcf;stroke-width:0.668203"
     d="m 92.225077,169.80798 c -15.98324,-15.33734 -15.98324,-40.29537 0,-55.63337 3.63793,-3.49259 9.536743,-3.49259 13.175353,0 l 44.79893,42.98799 c 3.63862,3.49325 3.63793,9.15411 0,12.64473 -15.98324,15.33865 -41.99104,15.33996 -57.974283,6.5e-4 z"
     id="path1" /><path
     style="fill:#ffcc60;stroke-width:0.668203"
     d="m 112.64841,124.28881 c -7.46025,7.15975 -7.45889,18.76365 0,25.92143 7.45753,7.15777 19.55178,7.15777 27.00999,0 0.55858,-0.53616 1.06137,-1.10383 1.53695,-1.68724 l -26.79023,-25.70748 c -0.60689,0.4561 -1.19949,0.93845 -1.75671,1.47329 z"
     id="path2" /><path
     style="fill:#78b591;stroke-width:0.668203"
     d="m 100.76031,169.76861 c -5.020443,-4.8681 -13.318912,-5.56373 -22.4311,-2.73921 2.915383,-8.83451 2.196913,-16.8802 -2.824894,-21.75092 -5.646386,-5.47317 -15.438943,-5.67267 -25.871728,-1.51661 -9.606817,-6.47067 -22.899195,-5.56045 -31.462325,2.74184 -8.5638096,8.30294 -9.5013586,21.19179 -2.828976,30.50799 -4.286328,10.11551 -4.082217,19.61087 1.56485,25.08666 5.021126,4.86876 13.320273,5.56439 22.432461,2.73855 -2.913342,8.83582 -2.196233,16.88282 2.824894,21.75092 5.021126,4.86942 13.319592,5.56439 22.432461,2.73921 -2.914703,8.83582 -2.196233,16.88151 2.826935,21.75158 9.345555,9.06157 30.038989,3.69012 46.219542,-12.0016 16.18191,-15.68974 21.72351,-35.7554 12.37728,-44.815 -5.02113,-4.87007 -13.31959,-5.56701 -22.43246,-2.74052 2.91402,-8.83714 2.19487,-16.88282 -2.82694,-21.75289 z"
     id="path3" /><g
     id="g4"
     transform="matrix(0.68036945,0,0,0.65625513,-6.1740357,0)"><path
       style="fill:#ef645e"
       d="m 190.06,295.415 c -13.489,26.238 -45.751,36.504 -71.92,22.879 -5.956,-3.102 -8.296,-10.458 -5.226,-16.431 l 37.801,-73.546 c 3.071,-5.975 10.389,-8.301 16.346,-5.2 26.169,13.624 36.487,46.058 22.999,72.298 z"
       id="path4" /><ellipse
       style="fill:#ef645e"
       cx="370.81201"
       cy="240.076"
       rx="36.451"
       ry="36.264"
       id="ellipse4" /></g><path
     style="fill:#78b591;stroke-width:0.668203"
     d="m 299.94731,238.38402 c 4.94017,-4.74013 5.64707,-12.57516 2.78067,-21.17932 8.96455,2.75299 17.12899,2.07376 22.06915,-2.66702 5.55589,-5.33076 5.75728,-14.57543 1.54035,-24.42582 6.56421,-9.0701 5.64163,-21.62032 -2.78271,-29.70473 -8.42433,-8.0831 -21.50239,-8.96904 -30.95408,-2.6703 -10.26542,-4.04647 -19.89877,-3.85288 -25.45399,1.47723 -4.94084,4.74078 -5.64774,12.57581 -2.77999,21.17997 -8.9659,-2.75167 -17.13034,-2.07376 -22.0705,2.66703 -4.94016,4.74078 -5.64707,12.57581 -2.77999,21.17932 -8.96455,-2.75168 -17.12898,-2.07311 -22.06982,2.66833 -9.1952,8.82401 -3.7434,28.36072 12.17657,43.63768 15.91928,15.27566 36.27934,20.50929 45.47385,11.68528 4.94084,-4.74078 5.64707,-12.57516 2.77931,-21.17932 8.96591,2.75102 17.13034,2.07246 22.07118,-2.66833 z"
     id="path5" /><ellipse
     style="fill:#ffab5f;stroke-width:0.668203"
     cx="71.919449"
     cy="215.65855"
     rx="24.800146"
     ry="23.798435"
     id="ellipse5" /><path
     style="fill:#a5bc79;stroke-width:0.668203"
     d="m 233.39698,149.54282 c -5.30961,-5.09647 -14.08705,-5.82426 -23.72313,-2.86783 3.08344,-9.24729 2.32415,-17.66967 -2.98818,-22.76483 -5.97092,-5.72977 -16.32546,-5.93846 -27.35969,-1.58814 -10.15996,-6.7719 -24.21639,-5.81967 -33.27211,2.87111 -9.05572,8.68882 -10.04634,22.17946 -2.99091,31.92944 -4.53262,10.58802 -4.31694,20.52504 1.65534,26.25546 5.31029,5.09582 14.08637,5.8236 23.72244,2.86652 -3.08207,9.24729 -2.32278,17.67032 2.98751,22.76549 5.31028,5.09582 14.08705,5.82426 23.7238,2.86718 -3.08275,9.2486 -2.32346,17.67098 2.98818,22.76549 9.88237,9.48485 31.76713,3.8614 48.87842,-12.5581 17.11198,-16.42278 22.97268,-37.4236 13.08963,-46.90649 -5.31028,-5.09713 -14.08637,-5.82492 -23.72312,-2.86784 3.08207,-9.25057 2.32142,-17.67163 -2.98818,-22.76746 z"
     id="path6" /><path
     style="fill:#ef645e;stroke-width:0.668203"
     d="m 149.74691,82.020078 c -14.23128,13.655357 -37.38494,13.655357 -51.615543,-6.56e-4 -3.23924,-3.108681 -3.23924,-8.14872 0,-11.255432 L 138.0153,32.489879 c 3.2406,-3.109337 8.49169,-3.108681 11.73093,0 14.22993,13.655357 14.23129,35.874186 6.8e-4,49.530199 z"
     id="path7" /><ellipse
     style="fill:#ffab5f;stroke-width:0.668203"
     cx="208.78461"
     cy="82.560829"
     rx="17.505905"
     ry="16.798819"
     id="ellipse7" /><path
     style="fill:#c14616;stroke-width:0.668203"
     d="m 248.35762,16.995695 c 2.42348,2.326425 2.42348,6.097267 0,8.425004 l -10.53416,10.108954 c -2.42416,2.325768 -6.35397,2.325111 -8.77881,0 L 218.51117,25.420699 c -2.42415,-2.327081 -2.42415,-6.097923 0,-8.425004 L 229.04465,6.8873976 c 2.42484,-2.3257682 6.35465,-2.3257682 8.77881,0 z"
     id="path8" /><path
     style="fill:#a5bc79;stroke-width:0.668203"
     d="m 65.391305,93.319479 c 1.959464,1.880171 1.959464,4.929789 0,6.809301 l -8.514144,8.17038 c -1.958783,1.88017 -5.134748,1.87886 -7.094212,0 l -8.513463,-8.17038 c -1.959464,-1.879512 -1.959464,-4.92913 0,-6.809301 l 8.514144,-8.168408 c 1.959464,-1.88017 5.135428,-1.879514 7.094212,0 z"
     id="path9" /><g
     id="g11"
     transform="matrix(0.68036945,0,0,0.65625513,-6.1740357,0)"><path
       style="fill:#c14616"
       d="m 430.925,165.683 c 2.88,2.865 2.88,7.511 0,10.375 l -12.513,12.45 c -2.879,2.865 -7.547,2.863 -10.427,0 l -12.513,-12.45 c -2.88,-2.864 -2.88,-7.51 0,-10.375 l 12.513,-12.448 c 2.881,-2.865 7.549,-2.864 10.427,0 z"
       id="path10" /><path
       style="fill:#c14616"
       d="m 216.984,339.322 c -20.916,20.808 -54.947,20.808 -75.864,-10e-4 -4.761,-4.736 -4.761,-12.415 0,-17.151 l 58.621,-58.322 c 4.763,-4.737 12.482,-4.735 17.242,0 20.915,20.808 20.918,54.667 0.001,75.474 z"
       id="path11" /></g><path
     style="fill:#ef645e;stroke-width:0.668203"
     d="m 51.837665,215.60934 c 3.041251,2.91837 3.041251,7.64931 0,10.56833 l -13.214816,12.68016 c -3.041251,2.91837 -7.971208,2.91706 -11.011779,0 L 14.395573,226.17767 c -3.040571,-2.91902 -3.040571,-7.64996 0,-10.56833 l 13.214816,-12.68082 c 3.041932,-2.91968 7.970528,-2.91705 11.01178,0 z"
     id="path12" /><g
     id="g13"
     transform="matrix(0.68036945,0,0,0.65625513,-6.1740357,0)"><ellipse
       style="fill:#ffab5f"
       cx="314.20999"
       cy="299.12299"
       rx="31.298"
       ry="31.136999"
       id="ellipse12" /><ellipse
       style="fill:#ffab5f"
       cx="421.991"
       cy="328.95499"
       rx="25.73"
       ry="25.597"
       id="ellipse13" /></g><path
     style="fill:#ef645e;stroke-width:0.668203"
     d="m 254.08157,210.69727 c 3.63998,3.49325 3.63998,9.15673 0,12.64997 l -15.81859,15.17919 c -3.63998,3.49455 -9.5415,3.49324 -13.18216,0 l -15.81791,-15.17919 c -3.63997,-3.4939 -3.63997,-9.15804 0,-12.64997 l 15.81791,-15.18049 c 3.64134,-3.49325 9.54218,-3.49194 13.18216,0 z"
     id="path13" /><path
     style="fill:#ffffff;stroke-width:0.668203"
     d="m 155.40146,232.08069 c -15.98323,-15.338 -15.98323,-40.29472 0,-55.63403 3.63794,-3.49193 9.53742,-3.49193 13.17536,0 l 44.79892,42.98865 c 3.63862,3.49324 3.63794,9.1541 0,12.64472 -15.98323,15.338 -41.99172,15.33931 -57.97428,6.6e-4 z"
     id="path14" /><path
     style="fill:#ffcc60;stroke-width:0.668203"
     d="m 175.82479,186.56086 c -7.45957,7.15909 -7.45889,18.76365 0,25.92143 7.45753,7.15777 19.55178,7.15777 27.01067,0 0.5579,-0.53617 1.06138,-1.10383 1.53696,-1.68855 l -26.79023,-25.70683 c -0.60825,0.45741 -1.19949,0.93911 -1.7574,1.47395 z"
     id="path15" /><path
     style="fill:#f9ebcf;stroke-width:0.668203"
     d="m 99.719347,311.88984 c -22.906,0 -45.051345,-7.89409 -62.355862,-22.2267 C 20.173271,275.42503 8.8315124,255.75903 5.4262634,234.28439 c -0.364678,-2.29295 0.333381,-4.62528 1.909117,-6.38536 1.576416,-1.76008 3.8733426,-2.77268 6.2906956,-2.77268 H 318.52956 c 2.41804,0 4.71496,1.01195 6.2907,2.77268 1.57574,1.75942 2.27311,4.09241 1.90912,6.38536 -3.40525,21.47398 -14.74701,41.14064 -31.93723,55.37875 -17.30451,14.33261 -39.45122,22.2267 -62.35654,22.2267 z"
     id="path16" /><path
     style="opacity:0.1;stroke-width:0.668203;enable-background:new"
     d="m 35.193787,234.28439 c -0.364678,-2.29295 0.333381,-4.62528 1.909117,-6.38536 1.576416,-1.76008 3.873343,-2.77268 6.290696,-2.77268 H 13.626756 c -2.418033,0 -4.7149596,1.01195 -6.2906956,2.77268 -1.576416,1.75942 -2.273795,4.09241 -1.909117,6.38536 3.405249,21.47398 14.7470076,41.14064 31.9372226,55.37875 17.304516,14.33261 39.449861,22.2267 62.355861,22.2267 h 29.767523 c -22.906,0 -45.051344,-7.89409 -62.35586,-22.2267 C 49.941475,275.42503 38.599036,255.75837 35.193787,234.28439 Z"
     id="path17" /><g
     id="g19"
     transform="matrix(0.68036945,0,0,0.65625513,-6.1740357,0)"><path
       style="fill:#ddb690"
       d="M 136.22,369.189 H 22.671 c -1.075,0 -2.098,0.217 -3.03,0.61 1.285,5.107 2.862,10.125 4.712,15.032 H 136.22 c 4.32,0 7.821,-3.502 7.821,-7.82 0,-4.32 -3.501,-7.822 -7.821,-7.822 z"
       id="path18" /><path
       style="fill:#ddb690"
       d="M 109.439,405.576 H 39.696 c -1.721,0 -3.308,0.563 -4.6,1.506 2.927,4.895 6.149,9.619 9.666,14.135 h 64.675 c 4.319,0 7.82,-3.5 7.82,-7.82 0.002,-4.318 -3.499,-7.821 -7.818,-7.821 z"
       id="path19" /></g><path
     style="fill:#a5bc79;stroke-width:0.668203"
     d="m 256.54927,324.06666 c 0,3.75181 -3.15215,6.79289 -7.04046,6.79289 H 82.646835 c -3.888312,0 -7.040463,-3.04108 -7.040463,-6.79289 v -6.11302 c 0,-3.75181 3.152151,-6.7929 7.040463,-6.7929 H 249.50881 c 3.88831,0 7.04046,3.04175 7.04046,6.7929 z"
     id="path20" /><path
     style="opacity:0.1;stroke-width:0.668203;enable-background:new"
     d="m 105.26844,324.06666 v -6.11302 c 0,-3.75181 3.15215,-6.7929 7.04046,-6.7929 H 82.647515 c -3.888311,0 -7.040463,3.04175 -7.040463,6.7929 v 6.11302 c 0,3.75181 3.152152,6.79289 7.040463,6.79289 H 112.3089 c -3.88831,0 -7.04046,-3.04108 -7.04046,-6.79289 z"
     id="path21" /><path
     d="m 208.78801,104.50272 c 12.59228,0 22.83797,-9.842512 22.83797,-21.941887 0,-12.099376 -10.24501,-21.942547 -22.83797,-21.942547 -12.59227,0 -22.83728,9.842514 -22.83728,21.942547 0,12.099375 10.24433,21.941887 22.83728,21.941887 z m 0,-33.597635 c 6.71253,0 12.17453,5.229041 12.17453,11.656404 0,6.427362 -5.46132,11.655747 -12.17453,11.655747 -6.71252,0 -12.17385,-5.228385 -12.17385,-11.655747 6.8e-4,-6.427363 5.46133,-11.656404 12.17385,-11.656404 z"
     id="path22"
     style="stroke-width:0.668203" /><path
     d="m 225.28561,39.177119 c 2.17923,2.08886 5.07216,3.239275 8.14947,3.239275 3.07663,0 5.97092,-1.150415 8.14946,-3.240588 l 10.53484,-10.10961 c 2.18467,-2.098048 3.38824,-4.888445 3.38824,-7.856687 0,-2.968898 -1.20357,-5.759295 -3.38892,-7.859311 L 241.58318,3.2412441 C 239.40464,1.1510715 236.51035,0 233.43372,0 c -3.07663,0 -5.97093,1.1510715 -8.15015,3.2412441 L 214.74941,13.350198 c -2.18535,2.097391 -3.38892,4.888444 -3.38892,7.858655 0,2.968898 1.20357,5.759295 3.3896,7.857343 z m -3.01471,-18.53527 10.53279,-10.107642 c 0.21296,-0.204751 0.45993,-0.247408 0.62935,-0.247408 0.16941,0 0.4157,0.04331 0.62934,0.247408 l 10.5328,10.106986 c 0.20479,0.19622 0.24765,0.416722 0.24765,0.56766 0,0.150283 -0.0435,0.370784 -0.24697,0.566348 l -10.53348,10.108298 c -0.21296,0.204095 -0.45925,0.246752 -0.62866,0.246752 -0.1701,0 -0.41639,-0.04331 -0.62935,-0.246096 L 222.27158,21.775201 c -0.2048,-0.19622 -0.24766,-0.416065 -0.24766,-0.566348 6.8e-4,-0.150938 0.0435,-0.37144 0.24698,-0.567004 z"
     id="path23"
     style="stroke-width:0.668203" /><path
     d="m 46.024588,111.94597 c 1.953341,1.87361 4.54827,2.90524 7.307849,2.90524 2.759578,0 5.354507,-1.03295 7.306487,-2.90655 l 8.512783,-8.16907 c 1.961505,-1.88148 3.041251,-4.385751 3.041931,-7.050147 0,-2.665708 -1.079746,-5.169321 -3.041251,-7.052117 l -8.513463,-8.167752 c -1.953341,-1.874921 -4.54827,-2.90721 -7.307848,-2.90721 -2.759579,0 -5.354508,1.032946 -7.307848,2.906554 l -8.514144,8.168408 c -1.961505,1.882139 -3.041251,4.386409 -3.041251,7.052117 0,2.664396 1.080427,5.168007 3.040571,7.048837 z m 7.306488,-22.94465 8.04809,7.722811 -8.04877,7.724779 -8.048091,-7.724779 z"
     id="path24"
     style="stroke-width:0.668203" /><path
     d="m 267.64746,127.35681 c 1.95402,1.87426 4.54895,2.90458 7.30648,2.90458 2.75958,0 5.35451,-1.03294 7.30717,-2.90655 l 8.51278,-8.16907 c 1.96151,-1.88148 3.04125,-4.38509 3.04193,-7.05014 0,-2.66571 -1.07974,-5.16867 -3.04125,-7.05147 l -8.51346,-8.168403 c -1.95266,-1.874921 -4.54827,-2.90721 -7.30853,-2.90721 -2.75822,0 -5.35383,1.032946 -7.30717,2.906554 l -8.51346,8.169059 c -1.9615,1.88214 -3.04125,4.38576 -3.04125,7.05147 6.8e-4,2.66439 1.08043,5.16801 3.04057,7.04883 z m 7.3058,-22.94465 8.04809,7.72347 -8.04809,7.72412 -8.04809,-7.72412 z"
     id="path25"
     style="stroke-width:0.668203" /><path
     d="m 105.72905,181.02666 0.73344,0.36751 c 0.78583,0.39375 1.62676,0.58078 2.45409,0.58078 1.92681,0 3.78626,-1.01063 4.73605,-2.77333 1.35802,-2.52002 0.34087,-5.62476 -2.27311,-6.93465 l -0.73344,-0.3675 c -2.61466,-1.30989 -5.83213,-0.32747 -7.19014,2.19255 -1.35666,2.52002 -0.33951,5.62476 2.27311,6.93464 z"
     id="path26"
     style="stroke-width:0.668203" /><path
     d="m 123.93982,97.400073 c 10.70697,-0.0013 21.41735,-3.911936 29.5675,-11.733841 7.89568,-7.576466 12.24392,-17.666388 12.24324,-28.410597 0,-10.744865 -4.34892,-20.834132 -12.24392,-28.411253 -5.30689,-5.094509 -13.9435,-5.094509 -19.25242,0 L 113.9622,48.318096 c -2.08737,2.002891 -2.09554,5.259229 -0.0191,7.27262 2.07649,2.01339 5.45248,2.020609 7.54054,0.01772 l 20.29065,-19.473058 c 1.16071,-1.114321 3.04942,-1.114321 4.21013,0 0.95728,0.918757 1.837,1.891984 2.6514,2.903273 -3.27462,0.842631 -5.49875,4.557692 -4.07609,7.627653 0.7865,1.697732 2.51464,2.876366 4.43601,3.025992 1.79889,0.139783 3.29026,-0.614254 4.53126,-1.806014 1.01987,2.98268 1.55872,6.134017 1.55872,9.368042 0,7.985969 -3.23175,15.486309 -9.10062,21.11829 -8.47808,8.136251 -20.66214,10.589989 -31.38408,7.378277 2.11323,-2.566614 1.04369,-5.899078 -1.43966,-7.775967 -2.98614,-2.256862 -7.55006,-0.826226 -8.48829,2.75824 -0.96272,-0.727131 -1.89483,-1.508731 -2.78271,-2.36055 -0.55314,-0.53091 -0.85795,-1.235728 -0.85795,-1.983203 6.8e-4,-0.747474 0.30481,-1.450324 0.85795,-1.981234 l 4.66257,-4.474347 c 2.08737,-2.003547 2.09622,-5.259885 0.019,-7.273932 -2.07717,-2.013391 -5.45248,-2.02061 -7.540543,-0.01838 l -4.66257,4.474347 c -2.57928,2.474738 -4.000569,5.767826 -4.00125,9.271573 -6.8e-4,3.504402 1.42061,6.798803 4.00125,9.274853 8.154913,7.827155 18.861203,11.738436 29.570903,11.737779 10.70629,-0.0013 -10.7097,6.57e-4 0,0 10.70629,-0.0013 -10.7097,6.57e-4 0,0 z"
     id="path27"
     style="stroke-width:0.668203" /><path
     d="m 126.84704,79.82228 c 1.37026,0 2.73985,-0.505973 3.78149,-1.517262 2.07581,-2.014703 2.0656,-5.270385 -0.0218,-7.272619 l -0.58648,-0.562411 c -2.08873,-2.001578 -5.46473,-1.991734 -7.53985,0.02166 -2.07581,2.014704 -2.0656,5.270385 0.0218,7.273276 l 0.58648,0.562411 c 1.0396,0.997507 2.39898,1.494949 3.75836,1.494949 z"
     id="path28"
     style="stroke-width:0.668203" /><path
     d="m 141.51036,66.877647 c 1.36754,0 2.73577,-0.504003 3.77741,-1.512668 2.07853,-2.012078 2.07241,-5.268416 -0.0136,-7.272619 l -0.58648,-0.563723 c -2.08602,-2.005516 -5.46269,-1.999609 -7.53986,0.01312 -2.07853,2.012735 -2.0724,5.268416 0.0136,7.272619 l 0.58648,0.563724 c 1.0396,1.000132 2.40102,1.499542 3.76244,1.499542 z"
     id="path29"
     style="stroke-width:0.668203" /><path
     d="m 327.3145,156.76097 c -5.5838,-5.35766 -13.00459,-8.30753 -20.89755,-8.30753 -5.08576,0 -10.00688,1.23048 -14.38846,3.57856 -4.43737,-1.49036 -8.70872,-2.24308 -12.73107,-2.24308 -1.41721,0 -2.78407,0.10172 -4.10195,0.29138 -1.7778,-6.37093 -5.78382,-12.07444 -11.46626,-16.01394 -2.39218,-1.6577 -5.72327,-1.13138 -7.4412,1.17535 -1.7193,2.30674 -1.17296,5.51976 1.21786,7.17812 4.04616,2.80484 6.78192,6.98781 7.71539,11.60587 -0.64295,0.4771 -1.25801,0.98832 -1.83564,1.54286 -3.21406,3.0844 -5.15244,7.15646 -5.78382,11.86312 -3.11065,-1.32169 -6.66762,-2.0042 -10.55933,-2.0042 -1.2165,0 -2.45886,0.0663 -3.72503,0.19753 0.88789,-8.04175 -1.22262,-14.98821 -6.16074,-19.72768 -1.05866,-1.01589 -2.22549,-1.90839 -3.48826,-2.67621 3.37668,-2.69852 7.71267,-4.328 12.4426,-4.328 2.94464,0 5.33206,-2.30215 5.33206,-5.14308 0,-2.84092 -2.38742,-5.14307 -5.33206,-5.14307 -9.68506,0 -18.31623,4.41201 -23.83198,11.25281 -0.64023,-0.04 -1.28794,-0.065 -1.9479,-0.065 -1.2165,0 -2.45817,0.0663 -3.72366,0.19753 0.88856,-8.04306 -1.22194,-14.98886 -6.16143,-19.72768 -4.15977,-3.99135 -9.97625,-6.10186 -16.82213,-6.10186 -4.32919,0 -8.93461,0.82229 -13.72237,2.44652 -4.68979,-2.54759 -9.96878,-3.88241 -15.42738,-3.88241 -8.37739,0 -16.25539,3.13231 -22.18072,8.81876 -3.90668,3.74853 -6.5887,8.27209 -8.01408,13.08441 L 109.1622,110.52843 c -2.76571,-2.65455 -6.44106,-4.11669 -10.349103,-4.11669 -3.90873,0 -7.5834,1.46214 -10.348423,4.11537 -7.892966,7.5745 -12.571186,17.41964 -13.409402,28.01554 -3.377354,-1.84671 -7.408543,-2.80746 -11.903063,-2.80746 -4.089701,0 -8.433179,0.77503 -12.943349,2.30673 -4.450296,-2.41436 -9.450331,-3.67896 -14.620459,-3.67896 -8.009309,0 -15.536916,3.02271 -21.19759,8.51097 -9.5653136,9.27354 -11.4635446,23.46309 -4.9646556,34.68965 -4.1244,11.45887 -2.802442,21.85264 3.7005286,28.15859 0.670164,0.64969 1.389315,1.2436 2.146566,1.78895 l -4.637398,4.44941 c -2.4840286,2.38352 -3.8515716,5.5552 -3.8515716,8.92967 0,0.28678 0.01157,0.57028 0.0313,0.85378 -1.310391,0.72845 -2.503759,1.6623 -3.514108,2.79106 -2.60037183,2.90327 -3.74611403,6.73974 -3.14466743,10.52436 3.59779343,22.68805 15.57841903,43.46509 33.73407803,58.50318 10.95803,9.07535 23.75646,15.69171 37.459781,19.54459 -0.685813,1.48182 -1.075664,3.11852 -1.075664,4.84382 v 6.11301 c 0,6.58158 5.550454,11.93597 12.371838,11.93597 H 249.50881 c 6.82206,0 12.37183,-5.35504 12.37183,-11.93597 v -6.11301 c 0,-1.7253 -0.38985,-3.36134 -1.07498,-4.84382 6.44038,-1.80733 12.69501,-4.22432 18.63804,-7.22931 2.60854,-1.31842 3.61412,-4.4271 2.24726,-6.94318 -1.36686,-2.51543 -4.59045,-3.48668 -7.19831,-2.16695 -9.48367,4.7946 -19.84978,7.92231 -30.47375,9.24729 H 88.056452 C 66.168967,303.27912 44.273317,292.4811 30.523051,275.57793 22.190566,265.33445 16.817689,254.58105 12.587832,242.27955 c -0.785147,-2.88293 -1.420612,-5.81048 -1.890747,-8.77741 -0.270107,-1.69905 1.167514,-3.23534 2.929671,-3.23534 H 318.53025 c 1.76419,0 3.19909,1.53695 2.92967,3.23731 -3.01948,19.03664 -12.78687,36.78769 -27.50394,49.98235 -2.15677,1.93333 -2.27992,5.1877 -0.27555,7.26869 2.00437,2.07836 5.37832,2.19911 7.53577,0.26512 16.47107,-14.76639 27.4046,-34.64042 30.78468,-55.95953 0.60077,-3.78593 -0.54498,-7.62109 -3.14399,-10.52436 -1.26276,-1.41029 -2.80652,-2.52133 -4.51425,-3.29637 1.5492,-0.83541 2.96097,-1.85523 4.21353,-3.05749 6.42881,-6.1688 7.75213,-16.32041 3.70393,-27.5135 6.38731,-10.98505 4.49928,-24.84319 -4.9456,-33.90805 -5.58312,-5.35701 9.44488,9.06486 0,0 z M 80.938427,317.95364 c 0,-0.91023 0.766096,-1.64983 1.708408,-1.64983 H 249.50881 c 0.94163,0 1.7084,0.7396 1.7084,1.64983 v 6.11302 c 0,0.91022 -0.76609,1.64982 -1.7084,1.64982 H 82.646835 c -0.941632,0 -1.708408,-0.7396 -1.708408,-1.64982 z M 136.91242,158.32286 c -0.88243,2.5233 -1.50633,4.99213 -1.87373,7.37893 -1.46348,0.0591 -2.88613,0.33338 -4.22714,0.81507 -0.60621,-2.02192 -1.37979,-3.99725 -2.30169,-5.90826 2.95008,-0.27038 5.78586,-1.04935 8.40256,-2.28574 z m -22.38959,-28.13891 18.98503,18.21765 c -2.17991,1.32498 -4.7102,2.03373 -7.35616,2.03373 -7.10782,0 -13.76727,-6.31383 -13.76727,-13.18548 6.8e-4,-2.54167 0.74636,-4.97375 2.1384,-7.0659 z M 95.986837,117.82011 c 0.75385,-0.7232 1.7574,-1.12154 2.82694,-1.12154 1.06954,0 2.072403,0.39834 2.827613,1.12219 l 5.23068,5.0197 c -3.33517,4.10291 -5.14971,9.11998 -5.14971,14.40874 0,1.09332 0.0789,2.17417 0.23268,3.23862 -4.399953,0.54075 -8.260363,3.11524 -10.327333,6.99502 l -3.660383,6.87033 c -1.568932,-3.88831 -2.396261,-8.06143 -2.396261,-12.36122 -0.0014,-9.14229 3.697127,-17.72545 10.415774,-24.17184 z m -78.34386,102.16448 c 0.106818,-0.24084 0.266705,-0.49219 0.513679,-0.7291 l 13.214816,-12.68081 c 0.6273,-0.60113 1.361419,-0.69104 1.744467,-0.69104 0.383048,0 1.119208,0.0899 1.746508,0.69169 l 13.214816,12.68082 c 0.246974,0.23691 0.407541,0.48825 0.513679,0.7291 H 17.642977 Z m 27.671306,-17.88951 -2.932393,-2.81337 c -2.477225,-2.3763 -5.768172,-3.68421 -9.266632,-3.68421 -3.498459,0 -6.789406,1.30857 -9.265271,3.68553 l -0.834133,0.79997 c -0.876315,-0.43116 -1.660101,-0.96273 -2.329585,-1.61307 -3.850891,-3.73475 -4.003974,-11.02968 -0.409582,-19.51375 0.68105,-1.60848 0.475578,-3.44009 -0.549058,-4.86941 -5.34022,-7.45572 -4.406073,-17.53186 2.221406,-23.95857 3.644059,-3.53262 8.487609,-5.47907 13.638006,-5.47907 3.959069,0 7.760294,1.15042 10.991368,3.32787 1.490009,1.00407 3.407971,1.2062 5.087803,0.53616 4.092422,-1.63014 8.063739,-2.4918 11.484636,-2.4918 3.714817,0 6.598903,0.96929 8.570614,2.88227 3.365788,3.26422 3.92165,9.30111 1.524708,16.56454 -0.605529,1.83489 -0.09729,3.84237 1.315835,5.20148 1.04981,1.00932 2.46906,1.53301 3.908722,1.49691 l -7.763696,14.57084 c -1.087911,0.042 -2.15473,0.15422 -3.210663,0.30384 l -26.57455,-25.76786 c -2.076488,-2.01339 -5.451801,-2.02126 -7.540535,-0.019 -2.088054,2.00355 -2.096218,5.25923 -0.01973,7.27262 l 23.044794,22.3448 c -4.666654,2.70902 -8.520267,6.58684 -11.092064,11.22328 z m 40.765696,5.68514 c -2.579961,2.47539 -4.001253,5.76914 -4.001253,9.27354 0,0.99947 0.126549,1.97992 0.353112,2.93018 H 59.404054 c -0.223162,-3.03125 -1.547161,-5.85249 -3.805987,-8.02075 l -2.181265,-2.09346 c 2.547304,-7.46293 9.877604,-12.86982 18.504689,-12.86982 6.885339,0 12.931782,3.45191 16.392141,8.63567 z M 81.843318,188.3426 101.11002,152.18556 c 0.72664,-1.36238 2.50512,-1.91035 3.91621,-1.20226 1.22875,0.61623 2.39286,1.30661 3.49846,2.05343 -2.8072,1.71545 -3.79986,5.82492 -1.61112,8.34887 2.58609,2.98137 7.35276,2.07508 9.0115,-1.28888 3.00859,4.0445 4.92791,8.74985 5.61577,13.65142 l -17.85018,17.12957 c -1.31583,-2.14464 -4.446213,-3.40793 -6.924123,-2.65258 -3.27121,0.9975 -4.7306,4.84513 -2.89497,7.65062 -3.287542,-3.36659 -7.399695,-5.97586 -12.028249,-7.53315 z m 38.996062,31.64199 c 5.47289,-2.50164 2.66092,-10.35439 -2.88273,-10.34061 -6.30498,0.0151 -6.72273,8.03781 -1.68459,10.34061 h -10.01164 c -0.2912,-0.34584 -0.61914,-0.6661 -0.95388,-0.97257 -2.08873,-2.00157 -5.464733,-1.99173 -7.539853,0.0217 -0.71371,0.69301 -0.53545,0.77504 -1.36618,0.95026 -0.38305,0.0807 -1.3274,0.12337 -1.70433,0 -2.00369,-0.6556 -2.49627,-3.56741 -1.09403,-4.91273 L 133.4854,176.7978 c 1.14507,-1.09923 3.06507,-1.09989 4.21013,0 0.95728,0.91875 1.83768,1.89132 2.6514,2.90261 -2.19691,0.56504 -4.19924,2.68277 -4.49452,4.86023 -0.3742,2.76349 1.68119,5.37407 4.54963,5.75667 -1.13962,3.33181 -1.86761,6.80602 -2.15949,10.36752 -1.85265,-5.06761 -10.28583,-5.38458 -10.90769,0.63722 -0.58171,5.62083 8.14811,8.81351 10.75188,3.16381 0.0272,5.38129 1.04097,10.61099 2.95757,15.49877 h -20.20425 v 0 z m 31.88415,0 c -2.59357,-4.79591 -3.97744,-10.15226 -3.97744,-15.71993 0,-9.14032 3.69917,-17.72545 10.41646,-24.17185 0.75385,-0.72319 1.75739,-1.12088 2.82761,-1.12088 1.06954,0 2.07309,0.39769 2.82762,1.12154 l 5.23136,5.02035 c -3.33585,4.10225 -5.14972,9.11998 -5.14972,14.40874 0,6.2738 2.54526,12.17156 7.16565,16.60588 1.59615,1.53104 3.37668,2.81861 5.28988,3.8555 h -24.63142 z m 36.60592,-7.27721 c -3.68352,0 -7.1432,-1.37485 -9.74425,-3.87059 -2.59425,-2.48983 -4.02303,-5.79802 -4.02303,-9.31489 0,-2.54102 0.74569,-4.97376 2.13772,-7.06721 l 18.98503,18.2183 c -2.17922,1.32563 -4.70952,2.03439 -7.35547,2.03439 z m 11.97586,7.27721 c 1.05934,-0.57422 2.07649,-1.22654 3.04465,-1.95498 l 2.03771,1.95498 z m -9.00265,-28.02537 c 1.95879,-6.32302 8.07599,-10.94962 15.30287,-10.94962 6.79689,0 12.61133,4.09372 14.90962,9.84055 -0.41299,0.31894 -0.81372,0.65625 -1.19405,1.02113 l -14.55378,13.96642 z m 58.01851,27.74187 -0.29528,0.2835 h -29.88183 c -0.71711,-1.54285 -1.72474,-2.96364 -3.00723,-4.19478 l -2.81129,-2.69721 14.515,-13.92967 c 1.53968,-1.47789 4.121,-1.47854 5.66204,-10e-4 l 15.81859,15.18115 c 1.52198,1.46017 1.52198,3.8975 0,5.35832 z m 4.29925,-15.74159 -12.59772,-12.08953 c -2.52009,-2.41765 -5.79879,-3.83253 -9.3163,-4.06747 -3.65494,-9.93702 -13.52098,-17.07904 -25.10087,-17.07904 -2.02206,0 -3.99037,0.22247 -5.88383,0.6346 l -31.84197,-30.55655 c -2.08806,-2.00355 -5.46337,-1.99502 -7.53986,0.0177 -2.07649,2.01404 -2.06832,5.27038 0.019,7.27261 l 29.07695,27.90332 c -2.9773,2.19451 -5.4552,4.98163 -7.25206,8.17234 l -2.8419,-2.72739 c -0.001,-0.001 -0.003,-0.003 -0.004,-0.004 l -8.99993,-8.63501 c -2.7657,-2.65455 -6.44106,-4.11537 -10.34842,-4.11537 -3.90804,0 -7.5834,1.46148 -10.34842,4.11537 -0.64431,0.61754 -1.26004,1.25542 -1.86149,1.90314 -1.33624,-1.80798 -2.83238,-3.52606 -4.49384,-5.12798 0.1905,-3.15199 1.08519,-6.70889 2.70447,-10.4922 0.69398,-1.61964 0.48442,-3.46962 -0.55586,-4.90617 -5.70626,-7.88424 -4.70544,-18.54117 2.37925,-25.33932 3.91417,-3.75706 9.12035,-5.82492 14.65992,-5.82492 4.25911,0 8.34609,1.22392 11.82142,3.53984 1.48252,0.98767 3.38144,1.18782 5.04834,0.5296 4.37069,-1.72333 8.61688,-2.63355 12.28135,-2.63355 4.02302,0 7.15272,1.04476 9.30133,3.10737 3.62161,3.47421 4.23122,9.86876 1.67235,17.54432 -0.61165,1.83292 -0.10954,3.84172 1.2995,5.20542 1.40905,1.36304 3.48962,1.85392 5.39261,1.27051 3.2338,-0.99292 6.27573,-1.49627 9.04143,-1.49627 4.02507,0 7.15613,1.04542 9.30473,3.10737 3.62093,3.47553 4.23054,9.87008 1.67235,17.54564 -0.61097,1.83358 -0.10954,3.84237 1.30019,5.20541 1.40836,1.36305 3.49029,1.85524 5.39261,1.26986 3.23447,-0.99226 6.27641,-1.49626 9.04211,-1.49626 4.02438,0 7.15476,1.04541 9.30473,3.10933 2.14316,2.05671 3.23039,5.04923 3.23039,8.89489 -6.8e-4,4.9416 -1.78256,10.58605 -4.95853,16.24231 z m 37.70199,16.02509 h -22.774 c -0.50688,-1.27707 -0.78651,-2.66045 -0.78651,-4.10618 0,-6.42737 5.46133,-11.65641 12.17385,-11.65641 6.71253,0 12.17385,5.22904 12.17385,11.65641 -6.8e-4,1.44507 -0.28099,2.82845 -0.78719,4.10618 z m 29.64166,-32.81603 c -1.04029,1.43719 -1.24984,3.28587 -0.55654,4.9055 3.5073,8.19466 3.36783,15.22906 -0.37353,18.81812 -1.92748,1.84867 -4.75033,2.78646 -8.39235,2.78646 -2.53438,0 -5.32593,-0.46266 -8.29779,-1.37551 -0.3014,-0.0932 -0.60757,-0.14963 -0.9151,-0.18835 -1.14234,-6.32498 -5.10821,-11.7299 -10.60559,-14.96458 l 15.82199,-15.18378 c 2.08737,-2.00289 2.09622,-5.25923 0.019,-7.27262 -2.07785,-2.01339 -5.45316,-2.02192 -7.53986,-0.0177 l -20.07226,19.26175 c -0.0401,0 -0.0789,-0.003 -0.11838,-0.003 -4.42921,0 -8.56449,1.22129 -12.06907,3.32722 0.90081,-3.26684 1.37638,-6.47396 1.3757,-9.54589 0,-2.14596 -0.49122,-7.9735 -0.79875,-8.89685 -2.33707,-7.00815 -1.80298,-12.82454 1.46347,-15.95881 1.92681,-1.84867 4.74966,-2.78646 8.391,-2.78646 3.36035,0 7.26294,0.83869 11.28529,2.42355 1.6669,0.65822 3.56581,0.45806 5.04834,-0.5296 3.16916,-2.11183 6.89963,-3.22878 10.7859,-3.22878 5.05446,0 9.8048,1.88739 13.37606,5.3137 6.46419,6.20227 7.37793,15.92338 2.17242,23.11528 z"
     id="path30"
     style="stroke-width:0.668203" /></svg>
