<?xml version="1.0" encoding="UTF-8" standalone="no"?>
<!-- icon666.com - MILLIONS vector ICONS FREE -->

<svg
   id="Capa_1"
   enable-background="new 0 0 511.996 511.996"
   viewBox="0 0 336 336"
   version="1.1"
   sodipodi:docname="tost.svg"
   width="336"
   height="336"
   inkscape:version="1.3.1 (9b9bdc1480, 2023-11-25, custom)"
   xmlns:inkscape="http://www.inkscape.org/namespaces/inkscape"
   xmlns:sodipodi="http://sodipodi.sourceforge.net/DTD/sodipodi-0.dtd"
   xmlns="http://www.w3.org/2000/svg"
   xmlns:svg="http://www.w3.org/2000/svg">
  <defs
     id="defs12" />
  <sodipodi:namedview
     id="namedview12"
     pagecolor="#ffffff"
     bordercolor="#000000"
     borderopacity="0.25"
     inkscape:showpageshadow="2"
     inkscape:pageopacity="0.0"
     inkscape:pagecheckerboard="0"
     inkscape:deskcolor="#d1d1d1"
     inkscape:zoom="1.5781373"
     inkscape:cx="173.93924"
     inkscape:cy="366.25457"
     inkscape:window-width="1920"
     inkscape:window-height="1011"
     inkscape:window-x="0"
     inkscape:window-y="32"
     inkscape:window-maximized="1"
     inkscape:current-layer="Capa_1" />
  <g
     id="g12"
     transform="matrix(0.82677572,0,0,0.65625769,-43.652931,0)">
    <g
       id="g8">
      <path
         d="m 297.334,10.511 h -21.898 l -49.614,13.558 -26.136,15.75 -3.784,10.138 -22.966,12.362 c 0,0 -21,28.75 -21.25,30.25 -0.25,1.5 -15,43.25 -15,43.25 l 2.5,29.5 9.75,32.25 9.5,44 v 221.5 l 7.969,6.427 -1.969,5.74 8.625,16.708 9.375,8.75 16.727,3.802 h 188.261 c 22.821,0 41.321,-18.5 41.321,-41.321 V 224.486 c 0,-16.321 4.326,-32.466 13.177,-46.179 6.344,-9.828 9.779,-21.839 9.779,-36.515 C 451.7,77.357 385.563,23.531 297.334,10.511 Z"
         fill="#ffd086"
         id="path1" />
      <path
         d="M 165.924,463.175 V 224.486 c 0,-16.321 -4.326,-32.466 -13.177,-46.179 -6.344,-9.828 -9.779,-21.839 -9.779,-36.515 0,-64.435 66.137,-118.262 154.366,-131.281 C 284.008,8.545 270.183,7.5 256.001,7.5 c -108.082,0 -195.7,60.125 -195.7,134.292 0,14.676 3.435,26.687 9.779,36.515 8.851,13.712 13.177,29.858 13.177,46.179 v 238.689 c 0,22.821 18.5,41.321 41.321,41.321 h 82.667 c -22.821,0 -41.321,-18.5 -41.321,-41.321 z"
         fill="#ffc365"
         id="path2" />
      <path
         d="m 256.001,42.5 c -21.306,0 -41.575,2.678 -60.099,7.457 l -22.966,12.362 c 0,0 -21,28.75 -21.25,30.25 -0.25,1.5 -15,43.25 -15,43.25 l 2.5,29.5 9.75,32.25 9.5,44 v 221.5 l 7.969,6.427 h 221.019 c 3.485,0 6.32,-2.835 6.32,-6.321 V 224.486 c 0,-23.603 6.49,-46.135 18.771,-65.159 2.816,-4.364 4.186,-10.1 4.186,-17.535 C 416.7,89.922 345.988,42.5 256.001,42.5 Z"
         fill="#ffeac8"
         id="path3" />
      <path
         d="M 165.924,463.175 V 224.486 c 0,-16.321 -4.326,-32.466 -13.177,-46.179 -6.344,-9.828 -9.779,-21.839 -9.779,-36.515 0,-35.525 20.109,-67.821 52.934,-91.835 -59.245,15.283 -100.6,52.092 -100.6,91.836 0,7.436 1.369,13.172 4.185,17.535 12.28,19.023 18.771,41.555 18.771,65.159 v 238.689 c 0,3.485 2.835,6.321 6.32,6.321 h 41.827 c -0.316,-2.062 -0.481,-4.173 -0.481,-6.322 z"
         fill="#ffdda8"
         id="path4" />
      <path
         d="m 298.533,120.236 h -23.597 l -30.25,14.334 -48.784,43.216 -8.8,57.255 -8.285,48.196 -28.382,38 c 0,0 -2.667,43.333 0,46 2.667,2.667 18.667,28 18.667,28 l 26.8,25.083 8.284,3 12.769,2.113 c 19.323,-4.729 36.292,-16.6 47.342,-33.147 12.722,-19.052 30.59,-34.241 52.025,-42.324 37.919,-14.298 67.733,-47.477 75.714,-90.399 11.875,-63.875 -29.896,-126.102 -93.503,-139.327 z"
         fill="#c9f0fe"
         id="path5" />
      <path
         d="m 165.92,333.523 c 2.215,-11.82 6.928,-22.522 13.487,-31.674 13.681,-19.091 20.408,-42.187 20.724,-65.672 0.099,-7.293 0.866,-14.682 2.353,-22.093 9.838,-49.051 48.299,-85.063 94.514,-94.149 -64.714,-12.595 -127.532,29.423 -140.514,94.149 -1.486,7.411 -2.254,14.8 -2.353,22.093 -0.316,23.485 -7.042,46.581 -20.724,65.672 -6.558,9.151 -11.272,19.854 -13.487,31.674 -7.922,42.276 19.695,83.599 61.785,92.455 13.605,2.863 27.081,2.062 39.446,-1.695 -38.353,-11.56 -62.734,-50.722 -55.231,-90.76 z"
         fill="#9be8fd"
         id="path6" />
      <path
         d="m 297.317,183.418 h -15.881 l -35.75,34.151 c 0,0 0.5,35.619 2,39.934 1.5,4.315 22.25,28.816 22.25,28.816 l 27.357,0.343 c 15.652,-7.515 27.711,-22.03 31.389,-40.365 5.257,-26.217 -8.304,-51.837 -31.365,-62.879 z"
         fill="#ffb640"
         id="path7" />
      <path
         d="m 265.928,223.783 c 3.677,-18.335 15.737,-32.85 31.389,-40.365 -4.206,-2.014 -8.725,-3.546 -13.505,-4.505 -30.998,-6.217 -61.166,13.872 -67.383,44.87 -6.217,30.998 13.872,61.166 44.87,67.383 12.663,2.54 25.185,0.686 35.995,-4.505 C 274.231,275.62 260.67,250 265.928,223.783 Z"
         fill="#ff9b00"
         id="path8" />
    </g>
    <g
       id="g11">
      <path
         d="m 124.576,476.996 h 262.845 c 7.621,0 13.821,-6.2 13.821,-13.821 V 239.376 c 0.015,-1.107 0.014,-2.213 0,-3.318 v -11.572 c 0,-22.158 6.076,-43.284 17.573,-61.094 3.621,-5.612 5.382,-12.678 5.382,-21.6 C 424.197,86.277 351.704,35 255.998,35 160.867,35 87.799,85.93 87.799,141.792 c 0,8.922 1.761,15.988 5.384,21.601 11.496,17.81 17.572,38.936 17.572,61.092 v 238.689 c 0,7.621 6.2,13.822 13.821,13.822 z m 261.666,-15 H 125.755 v -65.339 c 12.249,18.193 31.24,31.852 54.097,36.661 34.859,7.334 70.403,-6.965 90.371,-36.867 12.384,-18.543 29.132,-32.192 48.435,-39.471 20.143,-7.595 38.173,-20.256 52.141,-36.613 5.973,-6.995 11.137,-14.625 15.444,-22.717 V 461.996 Z M 126.981,334.905 c 1.96,-10.464 6.068,-20.115 12.211,-28.686 14.125,-19.71 21.776,-43.895 22.127,-69.94 0.485,-36.098 18.134,-71.059 50.471,-92.427 25.185,-16.643 55.341,-22.422 84.905,-16.274 59.427,12.357 98.749,70.949 87.655,130.612 -7.26,39.046 -33.797,70.73 -70.986,84.753 -22.25,8.39 -41.482,24.012 -55.616,45.176 -16.453,24.639 -45.812,36.619 -74.809,30.519 -38.009,-7.996 -63.111,-45.559 -55.958,-83.733 z M 105.786,155.259 c -2.011,-3.114 -2.987,-7.519 -2.987,-13.466 0,-46.314 66.023,-91.793 153.199,-91.793 87.122,0 153.199,45.445 153.199,91.792 0,5.948 -0.977,10.354 -2.984,13.465 -6.594,10.214 -11.613,21.372 -14.973,33.138 -15.833,-37.39 -48.902,-66.648 -91.491,-75.503 -33.512,-6.969 -67.685,-0.417 -96.229,18.445 -36.49,24.112 -56.651,63.646 -57.199,104.74 -0.31,22.964 -6.991,44.198 -19.322,61.404 -0.423,0.591 -0.837,1.187 -1.244,1.787 v -74.782 c 0,-25.049 -6.906,-48.987 -19.969,-69.227 z"
         id="path9" />
      <path
         d="m 259.821,298.52 c 35.082,7.038 69.174,-15.661 76.211,-50.748 6.376,-31.792 -11.948,-63.61 -42.626,-74.013 -3.917,-1.329 -8.18,0.771 -9.511,4.694 -1.33,3.923 0.771,8.181 4.694,9.511 23.561,7.99 37.634,32.434 32.735,56.858 -5.408,26.961 -31.596,44.395 -58.555,38.991 -26.894,-5.394 -44.385,-31.661 -38.991,-58.555 3.611,-18.008 16.791,-32.509 34.394,-37.843 3.964,-1.201 6.204,-5.389 5.003,-9.353 -1.202,-3.965 -5.394,-6.205 -9.353,-5.003 -22.903,6.94 -40.051,25.812 -44.751,49.25 -7.035,35.086 15.662,69.174 50.75,76.211 z"
         id="path10" />
      <path
         d="m 428.741,294.935 c 4.143,0 7.5,-3.358 7.5,-7.5 v -62.949 c 0,-15.409 4.143,-29.971 11.979,-42.111 7.283,-11.285 10.977,-24.938 10.977,-40.582 C 459.197,61.685 366.197,0 255.998,0 145.631,0 52.799,61.802 52.799,141.792 c 0,15.642 3.693,29.295 10.978,40.582 7.836,12.14 11.979,26.702 11.979,42.111 v 238.689 c 0,26.919 21.9,48.82 48.82,48.82 h 262.846 c 26.92,0 48.82,-21.901 48.82,-48.82 V 322.435 c 0,-4.142 -3.357,-7.5 -7.5,-7.5 -4.143,0 -7.5,3.358 -7.5,7.5 v 140.741 c 0,18.648 -15.172,33.82 -33.82,33.82 H 124.575 c -18.648,0 -33.82,-15.172 -33.82,-33.82 v -238.69 c 0,-18.301 -4.972,-35.676 -14.376,-50.246 -5.773,-8.946 -8.58,-19.56 -8.58,-32.448 C 67.799,71.879 152.224,15 255.998,15 c 103.774,0 188.199,56.879 188.199,126.792 0,12.89 -2.807,23.503 -8.579,32.447 -9.405,14.57 -14.377,31.945 -14.377,50.246 v 62.949 c 0,4.143 3.357,7.501 7.5,7.501 z"
         id="path11" />
    </g>
  </g>
</svg>
