<?xml version="1.0" encoding="UTF-8" standalone="no"?>
<!-- icon666.com - MILLIONS vector ICONS FREE -->

<svg
   id="Capa_1"
   enable-background="new 0 0 512 512"
   viewBox="0 0 336 336"
   version="1.1"
   sodipodi:docname="borscht.svg"
   width="336"
   height="336"
   inkscape:version="1.3.1 (9b9bdc1480, 2023-11-25, custom)"
   xmlns:inkscape="http://www.inkscape.org/namespaces/inkscape"
   xmlns:sodipodi="http://sodipodi.sourceforge.net/DTD/sodipodi-0.dtd"
   xmlns="http://www.w3.org/2000/svg"
   xmlns:svg="http://www.w3.org/2000/svg">
  <defs
     id="defs29" />
  <sodipodi:namedview
     id="namedview29"
     pagecolor="#ffffff"
     bordercolor="#000000"
     borderopacity="0.25"
     inkscape:showpageshadow="2"
     inkscape:pageopacity="0.0"
     inkscape:pagecheckerboard="0"
     inkscape:deskcolor="#d1d1d1"
     showgrid="false"
     inkscape:zoom="1.578125"
     inkscape:cx="255.68317"
     inkscape:cy="139.40594"
     inkscape:window-width="1920"
     inkscape:window-height="1011"
     inkscape:window-x="0"
     inkscape:window-y="32"
     inkscape:window-maximized="1"
     inkscape:current-layer="Capa_1" />
  <path
     d="M 315.29662,113.78262 H 168 v 79.90544 h 147.29662 c 8.71632,0 15.7815,-7.66615 15.7815,-17.12229 v -45.66015 c 0,-9.45684 -7.06584,-17.123 -15.7815,-17.123 z"
     fill="#ffe09f"
     id="path1"
     style="stroke-width:0.683559" />
  <path
     d="M 20.703375,193.68806 H 168 V 113.78262 H 20.703375 c -8.716312,0 -15.7815,7.66616 -15.7815,17.12229 v 45.66015 c 0,9.45685 7.065844,17.123 15.7815,17.123 z"
     fill="#ecbd83"
     id="path2"
     style="stroke-width:0.683559" />
  <ellipse
     cx="168"
     cy="153.73534"
     fill="#f6d190"
     id="circle2"
     rx="136.77498"
     ry="148.39531"
     style="stroke-width:0.683559" />
  <ellipse
     cx="168"
     cy="153.73534"
     fill="#f9eac7"
     id="circle3"
     rx="115.73296"
     ry="125.56558"
     style="stroke-width:0.683559" />
  <ellipse
     cx="168"
     cy="153.73534"
     fill="#fff5d7"
     id="circle4"
     rx="99.950813"
     ry="108.44259"
     style="stroke-width:0.683559" />
  <ellipse
     cx="168"
     cy="153.73534"
     fill="#ff8086"
     style="fill:#e01b24;stroke-width:0.683559"
     id="circle5"
     rx="89.429817"
     ry="97.027733" />
  <path
     d="m 312.72019,294.60761 -67.94353,-73.71599 c -2.5246,-2.73908 -3.96244,-6.34681 -4.51763,-10.17312 -1.76334,-12.15178 -10.08459,-28.34063 -19.20122,-39.554 l -37.38262,39.76191 c 10.4009,10.09338 25.52943,19.29176 36.86156,21.21275 3.52341,0.59737 6.84009,2.16023 9.36141,4.89646 l 68.3399,74.14603 c 4.51828,4.90215 12.12356,4.41372 16.02694,-1.46602 3.06337,-4.61379 2.16103,-11.08733 -1.54481,-15.10802 z"
     fill="#b57f5f"
     id="path5"
     style="stroke-width:0.683559" />
  <path
     d="m 212.8665,179.87659 -20.96653,22.3007 c 0.77372,0.98542 1.52906,1.97795 2.40253,2.92563 10.16859,11.03251 23.12231,14.86523 28.93341,8.56115 5.81043,-6.30481 2.27784,-20.35907 -7.89075,-31.39158 -0.8026,-0.87007 -1.64588,-1.61554 -2.47866,-2.3959 z"
     fill="#966a5b"
     style="fill:#ffbe6f;stroke-width:0.683559"
     id="path6" />
  <path
     d="m 231.12731,153.73534 c 0,5.86621 -6.10706,10.7826 -7.4399,16.19312 -1.37879,5.59779 1.60321,13.15999 -1.01063,18.06072 -2.65125,4.97121 -10.20337,5.93171 -13.92169,9.96593 -3.71831,4.03421 -4.60425,12.22725 -9.18553,15.10375 -4.51631,2.8352 -11.48634,-0.40086 -16.64512,1.09578 -4.98619,1.44608 -9.51825,8.07199 -14.92444,8.07199 -5.40684,0 -9.93825,-6.62591 -14.92509,-8.07199 -5.15944,-1.49593 -12.12947,1.73942 -16.64644,-1.09649 -4.58194,-2.8765 -5.46722,-11.07025 -9.18553,-15.10447 -3.71832,-4.03422 -11.26978,-4.99542 -13.92103,-9.96593 -2.61319,-4.90001 0.36946,-12.46222 -1.00997,-18.05929 -1.33285,-5.40981 -7.43991,-10.32691 -7.43991,-16.19241 0,-5.8662 6.10706,-10.7826 7.43991,-16.19312 1.37878,-5.59778 -1.60322,-13.15998 1.01062,-18.06071 2.65125,-4.97122 10.20338,-5.93171 13.92169,-9.96593 3.71831,-4.03422 4.60425,-12.22726 9.18553,-15.10376 4.51631,-2.8352 11.48635,0.40086 16.64513,-1.09577 4.98618,-1.44608 9.51825,-8.072 14.92443,-8.072 5.40685,0 9.93825,6.62592 14.9251,8.072 5.15944,1.49592 12.12947,-1.73943 16.64643,1.09649 4.58194,2.8765 5.46722,11.07025 9.18554,15.10446 3.71831,4.03422 11.26978,4.99543 13.92103,9.96593 2.61319,4.90002 -0.36947,12.46222 1.00997,18.05929 1.33284,5.40981 7.4399,10.32692 7.4399,16.19241 z"
     fill="#e5646e"
     style="fill:#c01c28;stroke-width:0.683559"
     id="path7" />
  <ellipse
     cx="320.55713"
     cy="319.25366"
     fill="#b57f5f"
     id="circle7"
     rx="10.521"
     ry="11.414859"
     style="stroke-width:0.683559" />
  <ellipse
     cx="125.91534"
     cy="176.56577"
     fill="#ff967d"
     id="circle8"
     rx="10.521"
     ry="11.414859"
     style="stroke-width:0.683559" />
  <ellipse
     cx="204.82416"
     cy="125.19819"
     fill="#ff967d"
     id="circle9"
     rx="10.521"
     ry="11.414859"
     style="stroke-width:0.683559" />
  <path
     d="m 154.99575,132.43857 -19.97231,7.18697 c -2.75757,0.99254 -5.73431,-0.6287 -6.64913,-3.62054 l -3.31209,-10.83457 c -0.91481,-2.99185 0.57947,-6.2215 3.33703,-7.21404 l 19.97231,-7.18697 c 2.75756,-0.99254 5.73431,0.6287 6.64913,3.62054 l 3.31209,10.83458 c 0.91416,2.99184 -0.57947,6.22221 -3.33703,7.21403 z"
     fill="#966a5b"
     style="fill:#ffbe6f;stroke-width:0.683559"
     id="path9" />
  <path
     d="m 181.33828,191.03727 -14.87916,-16.14328 c -2.05406,-2.22858 -2.05406,-5.84272 0,-8.072 l 7.43991,-8.072 c 2.05406,-2.22857 5.38519,-2.22857 7.43991,0 l 14.87915,16.14328 c 2.05407,2.22858 2.05407,5.84271 0,8.072 l -7.4399,8.072 c -2.05472,2.22857 -5.38519,2.22857 -7.43991,0 z"
     fill="#966a5b"
     style="fill:#ffbe6f;stroke-width:0.683559"
     id="path10" />
  <path
     d="m 312.72019,294.60761 -52.06163,-56.48547 c -4.52025,5.83701 -9.49922,11.23828 -14.87981,16.14328 l 52.45931,56.91623 c 4.51828,4.90215 12.12422,4.41372 16.02694,-1.46602 3.06338,-4.61379 2.16169,-11.08804 -1.54481,-15.10802 z"
     fill="#785353"
     id="path11"
     style="stroke-width:0.683559" />
  <path
     d="M 245.20191,53.149015 C 223.58372,33.597366 196.16625,22.829719 168,22.829719 c -66.52931,0 -120.654844,58.724011 -120.654844,130.905621 0,30.55924 9.924469,60.30609 27.945094,83.76095 0.973219,1.26736 2.373,1.92099 3.783281,1.92099 1.111031,0 2.228625,-0.40656 3.148688,-1.23818 2.088187,-1.88824 2.369719,-5.25602 0.628687,-7.52091 -16.548656,-21.53885 -25.662,-48.85705 -25.662,-76.92214 0,-66.29333 49.709624,-120.226261 110.811094,-120.226261 25.86741,0 51.04706,9.887609 70.89862,27.842232 2.08819,1.888236 5.19225,1.583498 6.93197,-0.682813 1.74038,-2.264887 1.45885,-5.631957 -0.62868,-7.520193 z"
     fill="#000000"
     id="path12"
     style="stroke-width:0.683559" />
  <path
     d="M 90.798094,254.32238 C 112.41563,273.87332 139.83375,284.64097 168,284.64097 c 21.29466,0 42.22903,-6.10188 60.53906,-17.64633 2.35003,-1.48168 3.14803,-4.75049 1.78238,-7.30018 -1.36632,-2.5504 -4.37916,-3.41549 -6.72853,-1.93381 -16.80985,10.59819 -36.03338,16.20024 -55.59291,16.20024 -25.86741,0 -51.04706,-9.8876 -70.898625,-27.84223 -2.087531,-1.88823 -5.191594,-1.58278 -6.931969,0.68282 -1.740375,2.26488 -1.458844,5.63195 0.628688,7.5209 z"
     fill="#000000"
     id="path13"
     style="stroke-width:0.683559" />
  <path
     d="M 315.29662,199.0281 C 326.71275,199.0281 336,188.95109 336,176.56577 v -45.66015 c 0,-12.38603 -9.28725,-22.46303 -20.70338,-22.46303 H 303.47428 C 296.77594,84.75277 284.80331,63.046592 268.19494,45.027889 241.43175,15.990913 205.84856,0 168,0 130.15144,0 94.56825,15.990913 67.805063,45.027889 51.197344,63.046592 39.224063,84.75277 32.525719,108.44259 H 20.703375 C 9.28725,108.44259 0,118.51959 0,130.90562 v 45.66015 c 0,12.38604 9.28725,22.46233 20.703375,22.46233 h 11.822344 c 6.698344,23.68982 18.670969,45.39599 35.279344,63.41469 C 94.56825,291.47977 130.15144,307.47068 168,307.47068 c 32.29997,0 63.59259,-11.98232 88.67513,-33.83161 l 38.08284,41.31834 c 2.79169,3.02887 6.46341,4.7505 10.38975,4.89361 0.13322,4.08904 1.61897,8.13537 4.48941,11.24968 3.01021,3.26667 6.96543,4.8993 10.91999,4.8993 3.95457,0 7.90913,-1.63263 10.92,-4.8993 6.0211,-6.53265 6.0211,-17.16217 0,-23.69552 -2.87568,-3.12001 -6.61303,-4.7327 -10.38843,-4.87225 -0.12928,-4.09616 -1.61503,-8.15103 -4.49072,-11.27103 l -38.08219,-41.31764 c 11.22713,-15.16783 19.63894,-32.49091 24.87581,-50.91688 h 11.90503 z m 0,-79.90544 c 5.98829,0 10.85963,5.28592 10.85963,11.78296 v 45.66015 c 0,6.49705 -4.87134,11.78226 -10.85963,11.78226 h -9.25837 c 2.40909,-11.29169 3.65859,-22.90448 3.65859,-34.61269 0,-11.7972 -1.22259,-23.39006 -3.59165,-34.61268 z M 20.703375,188.34803 c -5.988281,0 -10.859625,-5.28593 -10.859625,-11.78226 v -45.66015 c 0,-6.49704 4.871344,-11.78296 10.859625,-11.78296 h 9.190781 c -2.368406,11.22262 -3.591656,22.81548 -3.591656,34.61268 0,11.79721 1.222594,23.38936 3.591656,34.61269 z M 324.51628,323.54917 c -2.18334,2.36813 -5.73497,2.36813 -7.91831,0 -2.18335,-2.36884 -2.18335,-6.22292 0,-8.59176 1.092,-1.18406 2.52525,-1.77645 3.95915,-1.77645 1.43391,0 2.86782,0.59239 3.95916,1.77645 2.18335,2.36884 2.18335,6.22364 0,8.59176 z m -14.87916,-16.14328 c -2.18334,2.36884 -5.73562,2.36813 -7.91896,0 l -66.3856,-72.02639 c 1.67672,-0.99539 3.19725,-2.21861 4.53535,-3.67039 1.36696,-1.4831 2.48062,-3.13851 3.38493,-4.91924 l 66.38494,72.02497 c 2.18269,2.36813 2.18269,6.22221 -6.6e-4,8.59105 z m -76.902,-130.87287 c 1.01325,-3.39769 1.8165,-6.90004 2.373,-10.49708 0.45019,-2.90854 -1.35843,-5.66187 -4.03921,-6.1503 -2.68078,-0.48915 -5.2185,1.47456 -5.66869,4.38239 -4.09959,26.50295 -23.26603,47.29705 -47.69297,51.74351 -2.68078,0.48844 -4.48941,3.24105 -4.03987,6.1503 0.40359,2.6095 2.48784,4.45715 4.84837,4.45715 0.27037,0 0.54469,-0.0242 0.82031,-0.074 3.31603,-0.60378 6.54478,-1.47527 9.67706,-2.57461 3.55819,3.1549 7.47863,5.9132 11.54672,8.15958 -10.17778,4.97833 -21.25921,7.58641 -32.55918,7.58641 -43.69707,0 -79.247441,-38.57072 -79.247441,-85.98027 0,-47.40954 35.549721,-85.980971 79.246781,-85.980971 43.69706,0 79.24744,38.570721 79.24744,85.980261 0,12.24363 -2.40647,24.28791 -6.99497,35.33537 -2.08425,-4.45003 -4.63509,-8.70853 -7.51735,-12.53769 z M 199.57087,219.17 c 12.27122,-6.96626 22.31644,-17.8642 28.73785,-31.17726 8.29762,13.57437 10.65422,29.59376 4.59834,36.16414 -6.09853,6.61737 -20.81297,4.05202 -33.33619,-4.98688 z m 63.96338,14.52133 c 16.43841,-23.06539 25.12059,-50.66411 25.12059,-79.95599 0,-30.55924 -9.92446,-60.30608 -27.94509,-83.760943 -1.74037,-2.265598 -4.84444,-2.571048 -6.93197,-0.682812 -2.08819,1.888236 -2.36972,5.256019 -0.62869,7.520906 16.54866,21.538849 25.662,48.857049 25.662,76.922139 0,26.44243 -7.70175,51.37968 -22.29871,72.33754 l -10.36154,-11.24184 c 0.16079,-3.94024 -0.28153,-8.10475 -1.23243,-12.31341 7.96031,-14.74847 12.17278,-31.5945 12.17278,-48.78229 0,-53.29854 -39.96628,-96.660334 -89.09119,-96.660334 -49.12491,0 -89.091188,43.361794 -89.091188,96.660334 0,53.29854 39.966278,96.66105 89.091188,96.66105 15.86484,0 31.35431,-4.56538 44.95641,-13.20556 0.43312,0.11464 0.8669,0.22998 1.29806,0.33037 2.98266,0.69492 5.838,1.03882 8.52994,1.03882 0.51318,0 1.0185,-0.0164 1.51987,-0.0413 l 25.36997,27.52539 C 226.47975,285.91189 197.69597,296.79061 168,296.79061 95.295375,296.79061 36.146906,232.61621 36.146906,153.73534 36.146906,74.854478 95.296031,10.68007 168,10.68007 c 72.70397,0 131.85309,64.174408 131.85309,143.05527 0,32.12067 -10.04915,63.4802 -28.34015,88.61255 z"
     fill="#000000"
     id="path14"
     style="stroke-width:0.683559" />
  <path
     d="m 125.91534,159.81017 c -8.5155,0 -15.44287,7.51663 -15.44287,16.75489 0,9.23826 6.92803,16.75489 15.44287,16.75489 8.51485,0 15.44288,-7.51663 15.44288,-16.75489 0,-9.23826 -6.92738,-16.75489 -15.44288,-16.75489 z m 0,22.83043 c -3.08765,0 -5.59912,-2.72556 -5.59912,-6.07483 0,-3.34927 2.51212,-6.07482 5.59912,-6.07482 3.087,0 5.59913,2.72555 5.59913,6.07482 0,3.34927 -2.51147,6.07483 -5.59913,6.07483 z"
     fill="#000000"
     id="path15"
     style="stroke-width:0.683559" />
  <path
     d="m 204.82416,108.44259 c -8.5155,0 -15.44288,7.51663 -15.44288,16.75489 0,9.23826 6.92803,16.7549 15.44288,16.7549 8.51484,0 15.44287,-7.51593 15.44287,-16.7549 0,-9.23897 -6.92803,-16.75489 -15.44287,-16.75489 z m 0,22.83043 c -3.08766,0 -5.59913,-2.72556 -5.59913,-6.07483 0,-3.34998 2.51213,-6.07482 5.59913,-6.07482 3.087,0 5.59912,2.72555 5.59912,6.07482 0,3.34927 -2.51212,6.07483 -5.59912,6.07483 z"
     fill="#000000"
     id="path16"
     style="stroke-width:0.683559" />
  <path
     d="m 123.70247,137.68676 c 1.41619,4.63159 5.4029,7.57003 9.67312,7.57003 1.05985,0 2.13807,-0.18156 3.19725,-0.56248 l 19.97232,-7.18698 c 5.32875,-1.91743 8.22675,-8.18165 6.45881,-13.96384 l -3.3121,-10.83457 c -1.76728,-5.78219 -7.53965,-8.9264 -12.87037,-7.00826 l -19.97231,7.18697 c -2.58169,0.92917 -4.67513,2.89288 -5.8951,5.53085 -1.21996,2.63727 -1.42078,5.63267 -0.56371,8.43299 z m 6.04931,-14.4772 c 0.063,-0.13599 0.16341,-0.1723 0.19622,-0.1844 l 19.97231,-7.18698 c 0.0354,-0.0128 0.0709,-0.0185 0.10631,-0.0185 0.14175,0 0.27432,0.0975 0.32157,0.25205 l 3.31209,10.83457 c 0.0584,0.19224 -0.0374,0.40086 -0.21459,0.46494 l -19.97232,7.18698 c -0.17849,0.0634 -0.36946,-0.0413 -0.42853,-0.23283 l -3.31209,-10.83529 c -0.0105,-0.0363 -0.0433,-0.14524 0.019,-0.28053 z"
     fill="#000000"
     id="path17"
     style="stroke-width:0.683559" />
  <path
     d="m 184.81837,154.97423 c -1.92346,-2.08689 -4.48021,-3.23606 -7.20037,-3.23606 -2.72016,0 -5.27691,1.14917 -7.19972,3.23606 l -7.43925,8.07129 c -1.92347,2.08688 -2.98266,4.86085 -2.98266,7.81211 0,2.95126 1.05919,5.72523 2.98266,7.8114 l 14.87916,16.14329 c 1.92347,2.08688 4.48022,3.23606 7.20037,3.23606 2.72016,0 5.27691,-1.14918 7.19972,-3.23606 l 7.43925,-8.07129 c 1.92347,-2.08688 2.98266,-4.86085 2.98266,-7.81211 0,-2.95126 -1.05919,-5.72523 -2.98266,-7.81141 z m 7.91897,24.21528 -7.43925,8.07129 c -0.1319,0.14311 -0.3465,0.14382 -0.47906,0 l -14.87916,-16.144 c -0.0243,-0.0263 -0.0991,-0.10751 -0.0991,-0.25988 0,-0.15237 0.0748,-0.23283 0.0991,-0.25988 l 7.43925,-8.072 c 0.13191,-0.14311 0.34716,-0.14311 0.47907,0 l 14.87915,16.14328 c 0.0249,0.0264 0.0991,0.10752 0.0991,0.25988 0,0.1538 -0.0748,0.23497 -0.0991,0.26131 z"
     fill="#000000"
     id="path18"
     style="stroke-width:0.683559" />
  <path
     d="m 168.85837,99.0484 c 0.86232,1.87115 2.60007,2.95339 4.40607,2.95339 0.73959,0 1.49034,-0.18156 2.19712,-0.56462 2.43141,-1.31934 3.4171,-4.52621 2.20106,-7.16419 l -5.2605,-11.41486 c -1.21537,-2.63797 -4.17112,-3.707406 -6.60318,-2.38806 -2.43141,1.31934 -3.4171,4.52621 -2.20107,7.16419 z"
     fill="#000000"
     id="path19"
     style="stroke-width:0.683559" />
  <path
     d="m 160.12762,191.77562 c -1.21603,-2.63798 -4.17243,-3.70741 -6.60318,-2.38807 l -10.521,5.70743 c -2.43141,1.31935 -3.4171,4.52693 -2.20107,7.16491 0.86232,1.87114 2.60007,2.95268 4.40607,2.95268 0.73959,0 1.491,-0.18156 2.19712,-0.56462 l 10.521,-5.70743 c 2.43141,-1.31934 3.41644,-4.52693 2.20106,-7.1649 z"
     fill="#000000"
     id="path20"
     style="stroke-width:0.683559" />
  <path
     d="m 159.97931,214.04784 c -2.4675,-1.23604 -5.3924,-0.0669 -6.531,2.61092 l -2.63025,6.18305 c -1.13925,2.67785 -0.0617,5.85054 2.40647,7.08658 0.66806,0.33464 1.36894,0.49271 2.05931,0.49271 1.86047,0 3.64153,-1.1506 4.47169,-3.10363 l 2.63025,-6.18305 c 1.13925,-2.67856 0.0623,-5.85126 -2.40647,-7.08658 z"
     fill="#000000"
     id="path21"
     style="stroke-width:0.683559" />
  <path
     d="m 113.57391,154.1597 c 0.70021,-2.84945 -0.861,-5.77579 -3.48732,-6.53549 l -6.57562,-1.90248 c -2.62763,-0.75971 -5.323501,0.93415 -6.02372,3.78359 -0.700219,2.84944 0.861,5.77578 3.48731,6.53549 l 6.57563,1.90248 c 0.42525,0.12318 0.85115,0.18156 1.27181,0.18156 2.17481,7.1e-4 4.16456,-1.57638 4.75191,-3.96515 z"
     fill="#000000"
     id="path22"
     style="stroke-width:0.683559" />
  <path
     d="m 138.18919,97.72122 c 0.51581,0 1.04081,-0.089 1.55728,-0.27555 l 5.2605,-1.90247 c 2.57906,-0.93273 3.97228,-3.95661 3.11325,-6.75479 -0.86035,-2.79818 -3.64744,-4.31119 -6.22585,-3.37704 l -5.26049,1.90248 c -2.57907,0.93272 -3.97229,3.95661 -3.11326,6.75479 0.68776,2.23783 2.60794,3.65258 4.66857,3.65258 z"
     fill="#000000"
     id="path23"
     style="stroke-width:0.683559" />
  <path
     d="m 217.16034,156.40251 c -0.33731,-2.92634 -2.79825,-5.00183 -5.49412,-4.63657 -2.69719,0.36597 -4.61081,3.03456 -4.2735,5.9609 l 1.31512,11.41486 c 0.31107,2.70206 2.43141,4.67858 4.87791,4.67858 0.20344,0 0.4095,-0.0135 0.61622,-0.042 2.69719,-0.36597 4.61081,-3.03456 4.2735,-5.9609 z"
     fill="#000000"
     id="path24"
     style="stroke-width:0.683559" />
  <path
     d="m 175.57444,120.01765 c -2.63747,0.71556 -4.24069,3.61485 -3.58116,6.47568 l 0.87675,3.80495 c 0.55913,2.42652 2.56594,4.04633 4.77094,4.04633 0.39506,0 0.79669,-0.052 1.19765,-0.16092 2.63747,-0.71556 4.24069,-3.61484 3.58116,-6.47568 l -0.87675,-3.80495 c -0.65953,-2.86155 -3.33309,-4.60098 -5.96859,-3.88541 z"
     fill="#000000"
     id="path25"
     style="stroke-width:0.683559" />
  <path
     d="m 236.14172,140.23431 -2.20303,-3.67751 c -1.48182,-2.47279 -4.5301,-3.17482 -6.8086,-1.56783 -2.27915,1.60699 -2.92622,4.91426 -1.44506,7.38705 l 2.20303,3.6775 c 0.94303,1.57425 2.52131,2.43079 4.1311,2.43079 0.9194,0 1.84931,-0.27911 2.6775,-0.86295 2.27915,-1.60628 2.92621,-4.91426 1.44506,-7.38705 z"
     fill="#000000"
     id="path26"
     style="stroke-width:0.683559" />
  <path
     d="m 130.41591,203.43185 c -1.69772,-2.30334 -4.79588,-2.67643 -6.91819,-0.83447 -2.12231,1.84266 -2.46684,5.20261 -0.76847,7.50595 l 2.63025,3.56714 c 0.97191,1.31864 2.40253,2.0043 3.84628,2.0043 1.07822,0 2.16366,-0.38306 3.07125,-1.17054 2.12231,-1.84267 2.46684,-5.20262 0.76847,-7.50595 z"
     fill="#000000"
     id="path27"
     style="stroke-width:0.683559" />
  <path
     d="m 106.65375,135.87043 c 0.96141,1.04238 2.22075,1.56428 3.48009,1.56428 1.25935,0 2.51935,-0.52119 3.48075,-1.56428 1.92216,-2.08546 1.9215,-5.46677 0,-7.55223 l -2.19187,-2.3781 c -1.92281,-2.08546 -5.03803,-2.08546 -6.96084,0 -1.92216,2.08546 -1.9215,5.46677 0,7.55152 z"
     fill="#000000"
     id="path28"
     style="stroke-width:0.683559" />
  <path
     d="m 190.36238,101.28765 c 0.90365,0 1.81846,-0.26985 2.63746,-0.83589 l 3.6166,-2.497 c 2.29359,-1.5835 2.96953,-4.88364 1.51003,-7.3721 -1.4595,-2.48774 -4.50122,-3.22253 -6.79481,-1.63832 l -3.6166,2.497 c -2.29359,1.5835 -2.96953,4.88364 -1.51003,7.3721 0.93778,1.59987 2.5305,2.47421 4.15735,2.47421 z"
     fill="#000000"
     id="path29"
     style="stroke-width:0.683559" />
</svg>
