<?xml version="1.0" encoding="UTF-8" standalone="no"?>
<!-- icon666.com - MILLIONS vector ICONS FREE -->

<svg
   viewBox="0 0 336 336"
   version="1.1"
   id="svg26"
   sodipodi:docname="macaroni.svg"
   width="336"
   height="336"
   inkscape:version="1.3.1 (9b9bdc1480, 2023-11-25, custom)"
   xmlns:inkscape="http://www.inkscape.org/namespaces/inkscape"
   xmlns:sodipodi="http://sodipodi.sourceforge.net/DTD/sodipodi-0.dtd"
   xmlns="http://www.w3.org/2000/svg"
   xmlns:svg="http://www.w3.org/2000/svg">
  <defs
     id="defs26" />
  <sodipodi:namedview
     id="namedview26"
     pagecolor="#ffffff"
     bordercolor="#000000"
     borderopacity="0.25"
     inkscape:showpageshadow="2"
     inkscape:pageopacity="0.0"
     inkscape:pagecheckerboard="0"
     inkscape:deskcolor="#d1d1d1"
     showgrid="false"
     inkscape:zoom="12.625"
     inkscape:cx="29.980198"
     inkscape:cy="30.019802"
     inkscape:window-width="1920"
     inkscape:window-height="1011"
     inkscape:window-x="0"
     inkscape:window-y="32"
     inkscape:window-maximized="1"
     inkscape:current-layer="svg26" />
  <g
     id="FILL_OUTLINE"
     data-name="FILL OUTLINE"
     transform="matrix(5.6,0,0,5.6,-11.2,-11.2)">
    <circle
       cx="32"
       cy="32"
       fill="#bcbcbc"
       r="29"
       id="circle1" />
    <circle
       cx="34"
       cy="34"
       fill="#91979d"
       r="22"
       id="circle2" />
    <circle
       cx="32"
       cy="32"
       fill="#ff9801"
       r="22"
       id="circle3" />
    <path
       d="M 46.52032,15.47968 A 21.994,21.994 0 0 1 15.47968,46.52032 21.995,21.995 0 1 0 46.52032,15.47968 Z"
       fill="#e57e25"
       id="path3" />
    <g
       fill="#fdd834"
       id="g19">
      <path
         d="m 28,52 v 4 a 7.99782,7.99782 0 0 1 -8,-8 h 4 a 3.99891,3.99891 0 0 0 4,4 z"
         id="path4" />
      <path
         d="m 28,52 v 4 a 7.99782,7.99782 0 0 1 -8,-8 h 4 a 3.99891,3.99891 0 0 0 4,4 z"
         id="path5" />
      <path
         d="m 42,35 a 4.02508,4.02508 0 0 0 1.17,2.83 l -2.83,2.83 a 8.01514,8.01514 0 0 1 0,-11.32 l 2.83,2.83 A 4.02512,4.02512 0 0 0 42,35 Z"
         id="path6" />
      <path
         d="m 24,22 a 4.02508,4.02508 0 0 0 2.83,-1.17 l 2.83,2.83 a 8.01514,8.01514 0 0 1 -11.32,0 l 2.83,-2.83 A 4.02512,4.02512 0 0 0 24,22 Z"
         id="path7" />
      <path
         d="m 36,47 a 4.02508,4.02508 0 0 0 1.17,2.83 l -2.83,2.83 a 8.01514,8.01514 0 0 1 0,-11.32 l 2.83,2.83 A 4.02512,4.02512 0 0 0 36,47 Z"
         id="path8" />
      <path
         d="m 28,31 a 4.02508,4.02508 0 0 0 2.83,-1.17 l 2.83,2.83 a 8.01514,8.01514 0 0 1 -11.32,0 l 2.83,-2.83 A 4.02512,4.02512 0 0 0 28,31 Z"
         id="path9" />
      <path
         d="M 16.824,13.82843 A 4.02505,4.02505 0 0 0 17.99779,11 H 22 a 8.01516,8.01516 0 0 1 -8.00445,8.00445 v -4.0022 A 4.02516,4.02516 0 0 0 16.824,13.82843 Z"
         id="path10" />
      <path
         d="M 50.82847,36.82838 A 4.02508,4.02508 0 0 0 52.00225,34 h 4.0022 A 8.01515,8.01515 0 0 1 48,42.00441 v -4.0022 a 4.02511,4.02511 0 0 0 2.82847,-1.17383 z"
         id="path11" />
      <path
         d="M 43.82847,48.82838 A 4.02508,4.02508 0 0 0 45.00225,46 h 4.0022 A 8.01515,8.01515 0 0 1 41,54.00441 v -4.0022 a 4.02511,4.02511 0 0 0 2.82847,-1.17383 z"
         id="path12" />
      <path
         d="m 51,24 a 4.02508,4.02508 0 0 0 -1.17,-2.83 l 2.83,-2.83 a 8.01514,8.01514 0 0 1 0,11.32 L 49.83,26.83 A 4.02512,4.02512 0 0 0 51,24 Z"
         id="path13" />
      <path
         d="m 40,25 a 4.02508,4.02508 0 0 0 -2.83,1.17 L 34.34,23.34 A 8.12707,8.12707 0 0 1 34.9998,22.75242 8.01263,8.01263 0 0 1 45.66,23.34 l -2.83,2.83 A 4.02512,4.02512 0 0 0 40,25 Z"
         id="path14" />
      <path
         d="m 24,43 a 4.02508,4.02508 0 0 0 -2.83,1.17 L 18.34,41.34 A 8.12707,8.12707 0 0 1 18.9998,40.75242 8.01263,8.01263 0 0 1 29.66,41.34 l -2.83,2.83 A 4.02512,4.02512 0 0 0 24,43 Z"
         id="path15" />
      <path
         d="M 41.82838,14.17153 A 4.02508,4.02508 0 0 0 39,12.99775 V 8.99555 A 8.01515,8.01515 0 0 1 47.00441,17 h -4.0022 a 4.02511,4.02511 0 0 0 -1.17383,-2.82847 z"
         id="path16" />
      <path
         d="m 13,31 a 4.02508,4.02508 0 0 0 -2.83,1.17 L 7.34,29.34 A 8.12639,8.12639 0 0 1 7.99963,28.75256 8.01262,8.01262 0 0 1 18.66,29.34 l -2.83,2.83 A 4.02512,4.02512 0 0 0 13,31 Z"
         id="path17" />
      <path
         d="m 14,41 a 4.02508,4.02508 0 0 0 1.17,2.83 l -2.83,2.83 a 8.01514,8.01514 0 0 1 0,-11.32 l 2.83,2.83 A 4.02512,4.02512 0 0 0 14,41 Z"
         id="path18" />
      <path
         d="m 32,13 a 4.02508,4.02508 0 0 0 1.17,2.83 l -2.83,2.83 a 8.01514,8.01514 0 0 1 0,-11.32 l 2.83,2.83 A 4.02512,4.02512 0 0 0 32,13 Z"
         id="path19" />
    </g>
    <path
       d="M 32,2 A 30,30 0 1 0 62,32 30.03406,30.03406 0 0 0 32,2 Z m 0,58 A 28,28 0 1 1 60,32 28.03146,28.03146 0 0 1 32,60 Z"
       fill="#231f20"
       id="path20" />
    <path
       d="M 47.84381,15.34 A 9.00525,9.00525 0 0 0 39.00342,7.99564 H 39 a 0.99942,0.99942 0 0 0 -1,1 V 9.79782 A 22.96655,22.96655 0 0 0 33.4715,9.05746 L 31.04688,6.63281 a 1.00014,1.00014 0 0 0 -0.707,-0.293 h -0.002 A 0.9999,0.9999 0 0 0 29.63041,6.63522 9.05534,9.05534 0 0 0 27.75077,9.40775 22.79118,22.79118 0 0 0 22.96922,10.84586 0.98774,0.98774 0 0 0 22.70854,10.29392 1.00242,1.00242 0 0 0 22,10 h -4.00244 a 1.00018,1.00018 0 0 0 -1,0.99316 3.00661,3.00661 0 0 1 -3.00928,3.00928 1.00008,1.00008 0 0 0 -0.99267,1 v 4.002 c 0,0.01325 0.0071,0.02509 0.0076,0.03827 a 22.70689,22.70689 0 0 0 -3.37286,7.62275 9.037,9.037 0 0 0 -2.25488,1.30578 9.1922,9.1922 0 0 0 -0.73926,0.6582 0.99966,0.99966 0 0 0 -0.00342,1.41749 l 2.381,2.381 a 23.0697,23.0697 0 0 0 0.66974,5.12231 9.026,9.026 0 0 0 1.94684,9.81458 0.9999,0.9999 0 0 0 0.70752,0.29541 h 0.002 a 1.00014,1.00014 0 0 0 0.707,-0.293 l 1.0147,-1.01471 A 22.94,22.94 0 0 0 19.67343,51.40428 9.011,9.011 0 0 0 28,57 1,1 0 0 0 29,56 V 54.7821 A 23.214,23.214 0 0 0 32,55 22.84623,22.84623 0 0 0 40,53.56451 v 0.43988 a 0.99942,0.99942 0 0 0 1,1 h 0.0034 a 8.997,8.997 0 0 0 8.98468,-8.68585 22.985,22.985 0 0 0 2.941,-4.78949 9.00611,9.00611 0 0 0 4.07525,-7.52563 0.99944,0.99944 0 0 0 -1,-1.00342 H 54.95514 C 54.96948,32.66577 55,32.33386 55,32 A 23.25651,23.25651 0 0 0 54.73541,28.58661 8.98938,8.98938 0 0 0 53.36963,17.63525 0.9999,0.9999 0 0 0 52.66211,17.33984 h -0.002 a 1.00012,1.00012 0 0 0 -0.707,0.293 l -1.14252,1.14252 A 23.12371,23.12371 0 0 0 47.84381,15.34 Z M 40,10.06885 A 7.01489,7.01489 0 0 1 45.93115,16 H 43.89941 A 5.00179,5.00179 0 0 0 40,12.10059 Z m -9.60791,-1.2627 1.43652,1.43653 a 5.002,5.002 0 0 0 0,5.51464 l -1.43652,1.43653 a 7.0133,7.0133 0 0 1 0,-8.3877 z M 14.99561,15.89941 A 5.00034,5.00034 0 0 0 18.89453,12 h 2.03223 a 7.01491,7.01491 0 0 1 -5.93115,5.93115 z M 13,28 a 6.97528,6.97528 0 0 1 4.19385,1.39209 l -1.43653,1.43652 a 5.002,5.002 0 0 0 -5.51464,0 l -1.436,-1.436 A 6.9466,6.9466 0 0 1 13,28 Z m -0.60791,17.19385 a 7.0133,7.0133 0 0 1 0,-8.3877 l 1.43652,1.43653 a 5.002,5.002 0 0 0 0,5.51464 z M 27,54.92871 A 7.01668,7.01668 0 0 1 21.07129,49 h 2.0293 A 5.01485,5.01485 0 0 0 27,52.89941 Z m 8.82861,-5.17139 -1.43652,1.43653 a 7.0133,7.0133 0 0 1 0,-8.3877 l 1.43652,1.43653 a 5.002,5.002 0 0 0 0,5.51464 z m 10.1211,1.19239 A 6.97108,6.97108 0 0 1 42,52.93115 V 50.89941 A 5.00179,5.00179 0 0 0 45.89941,47 h 2.03174 a 6.97108,6.97108 0 0 1 -1.98144,3.94971 z m 7,-12 A 6.97108,6.97108 0 0 1 49,40.93115 V 38.89941 A 5.00179,5.00179 0 0 0 52.89941,35 h 2.03174 a 6.97108,6.97108 0 0 1 -1.98144,3.94971 z M 52.00244,33 a 1.00009,1.00009 0 0 0 -1,0.99268 3.00745,3.00745 0 0 1 -3.00976,3.00976 1.00009,1.00009 0 0 0 -0.99268,1 v 4.002 a 0.99942,0.99942 0 0 0 1,1 h 0.0034 A 9.13344,9.13344 0 0 0 50.0271,42.76311 21.03633,21.03633 0 0 1 48.48029,45 h -3.47785 a 1.00009,1.00009 0 0 0 -1,0.99268 3.00745,3.00745 0 0 1 -3.00976,3.00976 1.00009,1.00009 0 0 0 -0.99268,1 v 1.413 a 20.75093,20.75093 0 0 1 -4.24628,1.24487 l 2.12328,-2.1232 a 0.9995,0.9995 0 0 0 0.0049,-1.40918 3.00833,3.00833 0 0 1 0,-4.25586 0.9995,0.9995 0 0 0 -0.0049,-1.40918 l -2.83007,-2.83008 a 1.00014,1.00014 0 0 0 -0.707,-0.293 h -0.002 a 0.9999,0.9999 0 0 0 -0.70752,0.29541 8.99493,8.99493 0 0 0 -0.36523,12.32434 C 32.84546,52.98431 32.42407,53 32,53 A 21.226,21.226 0 0 1 29,52.76575 V 52 a 1,1 0 0 0 -1,-1 3.00328,3.00328 0 0 1 -3,-3 1,1 0 0 0 -1,-1 h -4 a 1,1 0 0 0 -1,1 c 0,0.16791 0.016,0.33179 0.02521,0.4975 a 20.94445,20.94445 0 0 1 -3.5423,-3.56635 l 0.394,-0.394 a 0.9995,0.9995 0 0 0 0.0049,-1.40918 3.00833,3.00833 0 0 1 0,-4.25586 0.9995,0.9995 0 0 0 -0.0049,-1.40918 l -2.83007,-2.83008 a 1.00014,1.00014 0 0 0 -0.707,-0.293 h -0.002 a 0.9999,0.9999 0 0 0 -0.70752,0.29541 c -0.14056,0.14154 -0.26776,0.29236 -0.39777,0.44123 a 21.1495,21.1495 0 0 1 -0.20819,-2.31641 3.07709,3.07709 0 0 1 4.10352,0.12177 0.99968,0.99968 0 0 0 1.40918,-0.0049 l 2.83008,-2.83007 A 0.99965,0.99965 0 0 0 19.3647,28.63038 8.8683,8.8683 0 0 0 11.8694,26.08021 20.72605,20.72605 0 0 1 14.813,19.96228 8.97848,8.97848 0 0 0 22.72327,13.168 20.81637,20.81637 0 0 1 27.12244,11.57364 9.07059,9.07059 0 0 0 27,13 a 8.98017,8.98017 0 0 0 2.63037,6.36475 0.9999,0.9999 0 0 0 0.70752,0.29541 h 0.0019 a 1.00014,1.00014 0 0 0 0.707,-0.293 L 33.877,16.53711 A 0.9995,0.9995 0 0 0 33.88189,15.12793 2.97734,2.97734 0 0 1 33.71135,11.0816 20.91606,20.91606 0 0 1 38,11.88293 v 1.11463 a 1.00008,1.00008 0 0 0 0.99268,1 3.00745,3.00745 0 0 1 3.00976,3.00976 1.00009,1.00009 0 0 0 1,0.99268 h 4.002 a 0.98457,0.98457 0 0 0 0.49738,-0.15277 21.075,21.075 0 0 1 1.86865,2.36829 l -0.24737,0.24737 a 0.99951,0.99951 0 0 0 -0.0049,1.40918 3.00833,3.00833 0 0 1 0,4.25586 0.99951,0.99951 0 0 0 0.0049,1.40918 l 2.83008,2.83008 a 1.00012,1.00012 0 0 0 0.707,0.293 h 0.002 a 0.9876,0.9876 0 0 0 0.28064,-0.05652 C 52.97333,31.0686 53,31.53424 53,32 c 0,0.33411 -0.02924,0.666 -0.045,1 z m 0.60547,-13.19385 a 7.0133,7.0133 0 0 1 0,8.3877 l -1.43652,-1.43653 a 5.002,5.002 0 0 0 0,-5.51464 z"
       fill="#231f20"
       id="path21" />
    <path
       d="m 43.877,31.46289 -2.83007,-2.83008 a 1.00014,1.00014 0 0 0 -0.707,-0.293 h -0.002 a 0.9999,0.9999 0 0 0 -0.70752,0.29541 9.01563,9.01563 0 0 0 0,12.7295 0.9999,0.9999 0 0 0 0.70752,0.29541 h 0.002 a 1.00014,1.00014 0 0 0 0.707,-0.293 L 43.877,38.53711 a 0.9995,0.9995 0 0 0 0.0049,-1.40918 3.00833,3.00833 0 0 1 0,-4.25586 0.9995,0.9995 0 0 0 -0.0049,-1.40918 z m -2.04834,6.29443 -1.43652,1.43653 a 7.0133,7.0133 0 0 1 0,-8.3877 l 1.43652,1.43653 a 5.002,5.002 0 0 0 0,5.51464 z"
       fill="#231f20"
       id="path22" />
    <path
       d="m 30.36475,24.36963 a 0.99964,0.99964 0 0 0 0.0024,-1.4165 l -2.83008,-2.83008 a 0.99907,0.99907 0 0 0 -1.40918,-0.0049 3.08191,3.08191 0 0 1 -4.25586,0 0.99818,0.99818 0 0 0 -1.40918,0.0049 l -2.83008,2.83008 a 0.99964,0.99964 0 0 0 0.0024,1.4165 9.01563,9.01563 0 0 0 12.7295,0 z m -9.12207,-2.19824 a 5.10557,5.10557 0 0 0 5.51464,0 l 1.43653,1.43652 a 7.0133,7.0133 0 0 1 -8.3877,0 z"
       fill="#231f20"
       id="path23" />
    <path
       d="m 31.53711,29.12305 a 0.99908,0.99908 0 0 0 -1.40918,-0.0049 3.08191,3.08191 0 0 1 -4.25586,0 0.99818,0.99818 0 0 0 -1.40918,0.0049 l -2.83008,2.83008 a 0.99964,0.99964 0 0 0 0.0024,1.4165 9.01563,9.01563 0 0 0 12.7295,0 0.99964,0.99964 0 0 0 0.0024,-1.4165 z M 28,34 a 6.97528,6.97528 0 0 1 -4.19385,-1.39209 l 1.43653,-1.43652 a 5.10557,5.10557 0 0 0 5.51464,0 l 1.43653,1.43652 A 6.97528,6.97528 0 0 1 28,34 Z"
       fill="#231f20"
       id="path24" />
    <path
       d="m 40,20 a 9.051,9.051 0 0 0 -6.36377,2.62939 0.99966,0.99966 0 0 0 -0.0034,1.41749 l 2.83008,2.83012 a 0.99906,0.99906 0 0 0 1.40918,0.0049 3.08191,3.08191 0 0 1 4.25586,0 0.99968,0.99968 0 0 0 1.40918,-0.0049 l 2.83008,-2.83007 A 0.99965,0.99965 0 0 0 46.36475,22.63042 8.98017,8.98017 0 0 0 40,20 Z m 2.75732,4.82861 a 5.002,5.002 0 0 0 -5.51464,0 l -1.43555,-1.436 a 7.01084,7.01084 0 0 1 8.38672,-4.9e-4 z"
       fill="#231f20"
       id="path25" />
    <path
       d="m 24,38 a 9.051,9.051 0 0 0 -6.36377,2.62939 0.99966,0.99966 0 0 0 -0.0034,1.41749 l 2.83008,2.83012 a 0.99907,0.99907 0 0 0 1.40918,0.0049 3.08191,3.08191 0 0 1 4.25586,0 0.99968,0.99968 0 0 0 1.40918,-0.0049 l 2.83008,-2.83007 A 0.99965,0.99965 0 0 0 30.36475,40.63042 8.98017,8.98017 0 0 0 24,38 Z m 2.75732,4.82861 a 5.002,5.002 0 0 0 -5.51464,0 l -1.43555,-1.436 a 7.01084,7.01084 0 0 1 8.38672,-4.9e-4 z"
       fill="#231f20"
       id="path26" />
  </g>
</svg>
