<?xml version="1.0" encoding="UTF-8" standalone="no"?>
<!-- icon666.com - MILLIONS vector ICONS FREE -->

<svg
   id="Layer_1"
   enable-background="new 0 0 479.995 479.995"
   viewBox="0 0 336 336"
   version="1.1"
   sodipodi:docname="pasta.svg"
   width="336"
   height="336"
   inkscape:version="1.3.1 (9b9bdc1480, 2023-11-25, custom)"
   xmlns:inkscape="http://www.inkscape.org/namespaces/inkscape"
   xmlns:sodipodi="http://sodipodi.sourceforge.net/DTD/sodipodi-0.dtd"
   xmlns="http://www.w3.org/2000/svg"
   xmlns:svg="http://www.w3.org/2000/svg">
  <defs
     id="defs12" />
  <sodipodi:namedview
     id="namedview12"
     pagecolor="#ffffff"
     bordercolor="#000000"
     borderopacity="0.25"
     inkscape:showpageshadow="2"
     inkscape:pageopacity="0.0"
     inkscape:pagecheckerboard="0"
     inkscape:deskcolor="#d1d1d1"
     inkscape:zoom="1.6833509"
     inkscape:cx="240.29452"
     inkscape:cy="181.18623"
     inkscape:window-width="1920"
     inkscape:window-height="1011"
     inkscape:window-x="0"
     inkscape:window-y="32"
     inkscape:window-maximized="1"
     inkscape:current-layer="Layer_1" />
  <path
     d="m 258.96749,10.976224 c 30.50631,37.739308 25.94226,85.126398 -10.75211,111.532806 -3.76603,2.71286 -8.45608,1.91659 -11.58511,-1.95363 C 206.12396,82.816092 210.68801,35.429 247.37538,9.0225951 c 3.77303,-2.71286 8.46308,-1.925853 11.59211,1.9536289 z"
     fill="#befa91"
     id="path1"
     style="stroke-width:0.805065" />
  <path
     d="m 243.29784,113.50289 c 2.39612,5.60812 -2.96803,11.62826 -6.66757,7.05251 C 206.12396,82.816092 210.68801,35.429 247.37538,9.0225951 c 3.77303,-2.71286 8.46308,-1.925853 11.59211,1.9536289 1.50642,1.861966 2.92603,3.748006 4.26025,5.653489 1.89771,2.711008 1.38181,7.07288 -1.06332,8.858923 -26.28036,19.192786 -33.62343,53.479456 -18.86658,88.014254 z"
     fill="#daffbf"
     id="path2"
     style="stroke-width:0.805065" />
  <path
     d="m 317.47408,63.437192 c 4.01804,1.98141 6.63607,7.18492 6.47506,12.86063 -1.55401,55.201608 -31.60531,81.700598 -70.72871,62.349478 -4.01804,-1.9814 -6.64306,-7.18491 -6.48206,-12.86062 1.55402,-55.201608 31.60532,-81.700598 70.73571,-62.349488 z"
     fill="#befa91"
     id="path3"
     style="stroke-width:0.805065" />
  <path
     d="m 323.94914,76.297822 c -0.1288,4.50909 -0.4452,8.82837 -0.94291,12.94673 -0.5873,4.86833 -4.56124,7.6173 -7.92688,5.49886 -29.09299,-18.30856 -54.11544,5.297948 -63.72303,32.527468 -1.10042,3.11933 -4.70125,2.05641 -4.62075,-1.38328 1.26631,-54.470148 31.16781,-82.019108 70.73851,-62.450408 4.01804,1.98141 6.63607,7.18492 6.47506,12.86063 z"
     fill="#daffbf"
     id="path4"
     style="stroke-width:0.805065" />
  <path
     d="M 318.46109,261.00377 C 329.3602,198.30245 297.99988,137.91585 251.98142,126.74035 251.23241,66.233382 213.91504,17.494495 167.99458,17.494495 c -45.92046,0 -83.237836,48.738887 -83.986844,109.245855 -46.018461,11.1755 -77.3787761,71.5621 -66.479667,134.26342 -9.0356904,0 -14.0512407,11.04403 -11.0671107,20.43441 4.7810477,15.04572 9.8770987,27.67488 18.9701907,36.96156 6.615066,6.74974 14.819148,10.19406 23.170232,10.19406 H 287.35978 c 8.76408,0 17.32517,-3.84245 24.12224,-11.16625 8.51208,-9.18483 13.42613,-21.46214 18.04618,-35.98937 2.98483,-9.39409 -2.03352,-20.43441 -11.06711,-20.43441 z"
     fill="#ff6d7a"
     id="path5"
     style="stroke-width:0.805065" />
  <path
     d="M 314.66845,274.89213 H 84.679743 c -6.454065,0 -10.836109,10.67552 -8.407085,20.43441 2.049621,8.22006 4.172742,15.71792 6.840469,22.3436 1.99292,4.95074 -0.683907,10.92366 -4.924549,10.92366 H 48.601381 c -8.351084,0 -16.555166,-3.44432 -23.170232,-10.19406 C 16.338057,309.11306 11.242006,296.4839 6.4609583,281.43818 3.3599272,271.67929 8.9459832,261.00377 17.171066,261.00377 H 314.66845 c 7.04067,0 6.89367,13.88836 0,13.88836 z"
     fill="#ff8c95"
     id="path6"
     style="stroke-width:0.805065" />
  <path
     d="M 251.98142,126.74035 C 251.23241,66.233382 213.91504,17.494495 167.99458,17.494495 c -45.92046,0 -83.237836,48.738887 -83.986844,109.245855 -46.018461,11.1755 -77.3787761,71.5621 -66.479667,134.26342 H 318.46109 C 329.3602,198.30245 297.99988,137.91585 251.98142,126.74035 Z"
     fill="#ffe773"
     id="path7"
     style="stroke-width:0.805065" />
  <g
     fill="#fff0a6"
     id="g10"
     transform="matrix(0.70000702,0,0,0.92589079,-1.0656785e-4,-54.211116)">
    <path
       d="m 392.677,223.484 c -60.039,2.523 -109.329,50.174 -114.311,109.631 -0.347,4.143 -3.805,7.329 -7.963,7.329 H 221.04 c -11.4,-49.554 9.522,-98.087 47.91,-125.18 37.796,-26.69 87.62,-28.888 127.361,-6.76 7.071,3.938 4.452,14.64 -3.634,14.98 z"
       id="path8" />
    <path
       d="m 197.127,223.711 c -62.623,2.492 -109.765,51.39 -114.745,109.405 -0.356,4.142 -3.806,7.329 -7.963,7.329 H 25.04 c -15.57,-67.72 29.23,-132.94 94.97,-145.01 27.822,-5.134 56.408,-0.321 80.754,13.361 6.969,3.916 4.351,14.597 -3.637,14.915 z"
       id="path9" />
    <path
       d="m 271.324,97.706 c -50.574,3.677 -94.976,39.437 -107.717,90.432 -0.966,3.866 -4.624,6.438 -8.586,6.009 -11.662,-1.261 -23.585,-0.821 -35.012,1.288 1.288,-78.68 77.004,-135.039 152.918,-113.413 8.641,2.461 7.357,15.032 -1.603,15.684 z"
       id="path10" />
  </g>
  <g
     id="g12"
     transform="matrix(0.70000702,0,0,0.92589079,-1.0656785e-4,-54.211116)">
    <path
       d="m 132.554,143.334 c 3.835,2.268 8.728,0.958 10.958,-2.813 37.172,-62.854 123.263,-73.89 175.062,-22.88 3.147,3.1 8.213,3.061 11.313,-0.087 3.1,-3.148 3.061,-8.213 -0.087,-11.313 -59.345,-58.443 -157.688,-45.513 -200.06,26.136 -2.249,3.802 -0.989,8.708 2.814,10.957 z"
       id="path11" />
    <path
       d="m 455.453,332.445 h -33.578 c 11.755,-52.054 -26.972,-105 -83.885,-105 -41.461,0 -77.024,29.546 -84.561,70.255 -0.804,4.345 2.065,8.519 6.41,9.323 4.346,0.802 8.519,-2.065 9.323,-6.41 6.133,-33.125 35.079,-57.168 68.828,-57.168 47.617,0 79.749,45.674 67.396,89 h -85.135 c -5.275,-4.91 -8.261,-11.7 -8.261,-19 0,-14.336 11.664,-26 26,-26 11.32,0 21.264,7.229 24.744,17.988 1.36,4.204 5.87,6.512 10.074,5.15 4.204,-1.36 6.51,-5.87 5.15,-10.074 -5.623,-17.384 -21.685,-29.064 -39.968,-29.064 -31.533,0 -51.463,33.437 -37.482,61 H 179.472 c 13.995,-27.591 -5.971,-61 -37.482,-61 -14.583,0 -27.908,7.392 -35.642,19.773 -2.341,3.747 -1.201,8.683 2.547,11.023 3.749,2.34 8.683,1.2 11.023,-2.547 4.792,-7.67 13.042,-12.25 22.072,-12.25 14.336,0 26,11.664 26,26 0,7.3 -2.987,14.09 -8.261,19 H 74.586 c -5.767,-20.227 -2.22,-41.471 10.033,-59.052 23.649,-33.933 69.136,-38.809 99.537,-15.829 3.525,2.665 8.542,1.967 11.206,-1.558 2.664,-3.525 1.967,-8.542 -1.558,-11.206 -37.374,-28.251 -93.259,-22.243 -122.312,19.444 -16.108,23.114 -19.924,52.635 -10.208,78.97 1.16,3.144 4.155,5.231 7.505,5.231 h 386.664 c 6.175,0 10.084,5.822 7.921,10.966 -6.394,15.207 -12.831,27.109 -23.462,35.774 -8.117,6.616 -18.559,10.259 -29.404,10.259 H 69.432 c -10.385,0 -20.405,-3.32 -28.214,-9.347 -11.287,-8.712 -18.002,-20.966 -24.612,-36.687 -2.085,-4.958 1.352,-10.966 8.435,-10.966 5.138,0 8.949,-4.784 7.796,-9.792 -16.115,-70.084 37.005,-137.206 109.153,-137.206 34.456,0 67.023,15.976 88.198,42.982 -10.591,16.509 -17.373,35.375 -19.52,55.236 -0.513,4.742 3.205,8.86 7.963,8.86 4.033,0 7.5,-3.04 7.944,-7.141 3.415,-31.587 20.218,-60.32 46.158,-78.995 1.585,-0.793 3.604,-2.646 6.186,-9.123 11.205,-28.107 -9.539,-57.82 -38.93,-57.82 -11.218,0 -21.766,4.369 -29.698,12.302 -3.125,3.124 -3.125,8.189 0,11.313 3.124,3.124 8.189,3.124 11.313,0 4.911,-4.911 11.44,-7.615 18.385,-7.615 19.675,0 32.11,21.071 22.988,38.252 -8.591,6.235 -16.289,13.447 -22.99,21.421 -18.015,-21.406 -42.495,-36.231 -69.456,-42.422 4.27,-34.84 33.592,-61.251 69.458,-61.251 38.116,0 68.85,29.825 69.969,67.9 0.15,5.158 5.084,8.816 10.049,7.498 10.395,-1.841 24.649,-2.016 38.108,0.386 0.205,0.049 0.412,0.088 0.622,0.121 43.713,8.054 78.911,41.287 88.75,86.301 0.947,4.333 5.227,7.048 9.523,6.107 4.316,-0.943 7.051,-5.207 6.107,-9.523 -5.699,-26.076 -19.653,-50.006 -39.513,-67.952 28.112,-10.77 45.748,-38.88 47.171,-77.032 0.358,-9.604 -5.449,-18.317 -14.451,-21.682 -4.964,-1.856 -9.944,-3.381 -14.803,-4.532 -4.3,-1.021 -8.61,1.641 -9.629,5.94 -1.019,4.299 1.641,8.61 5.94,9.629 4.211,0.998 8.547,2.326 12.889,3.95 2.493,0.932 4.164,3.439 4.064,6.098 -1.349,36.179 -18.824,60.409 -46.943,65.457 -12.358,-8.109 -25.867,-13.908 -40.143,-17.26 -0.451,-6.773 -1.432,-13.496 -2.937,-20.075 6.249,-19.551 18.703,-32.656 36.118,-37.961 3.592,-1.094 5.939,-4.54 5.644,-8.284 -1.614,-20.398 -12.371,-40.443 -31.109,-57.969 -7.018,-6.564 -17.406,-7.89 -25.848,-3.295 -4.997,2.719 -9.709,5.698 -14.007,8.853 -3.562,2.615 -4.33,7.622 -1.715,11.183 2.615,3.562 7.621,4.329 11.183,1.715 3.72,-2.731 7.821,-5.321 12.188,-7.697 2.336,-1.27 5.327,-0.89 7.27,0.927 13.856,12.959 22.501,27.222 25.276,41.582 -19.759,8.234 -34.177,25.2 -40.963,48.446 -1.167,4.001 1.183,5.502 2.623,19.853 -9.136,-0.931 -17.585,-0.868 -26.177,-0.058 -2.513,-19.075 -11.316,-36.677 -25.297,-50.276 -33.384,-32.474 -86.514,-32.492 -119.918,0 -13.986,13.605 -22.781,31.218 -25.29,50.303 C 70.537,177.629 2.129,251.624 15.642,334.098 2.87,338.867 -3.385,353.147 1.856,365.613 c 7.591,18.053 15.527,32.3 29.585,43.15 10.595,8.178 24.087,12.681 37.991,12.681 h 341.076 c 14.517,0 28.55,-4.921 39.513,-13.857 13.199,-10.758 20.781,-24.561 28.103,-41.975 6.636,-15.783 -5.189,-33.167 -22.671,-33.167 z M 325.948,194.951 c 0.009,0.421 -0.009,0.834 -0.064,1.236 0.054,-0.403 0.073,-0.817 0.064,-1.236 z m -3.67,6.892 c -0.626,0.411 -1.298,0.724 -1.988,0.92 0.712,-0.217 1.38,-0.529 1.988,-0.92 z"
       id="path12" />
  </g>
</svg>
