<?xml version="1.0" encoding="UTF-8" standalone="no"?>
<!-- icon666.com - MILLIONS vector ICONS FREE -->

<svg
   viewBox="0 0 336 336"
   version="1.1"
   id="svg51"
   sodipodi:docname="potato.svg"
   width="336"
   height="336"
   inkscape:version="1.3.1 (9b9bdc1480, 2023-11-25, custom)"
   xmlns:inkscape="http://www.inkscape.org/namespaces/inkscape"
   xmlns:sodipodi="http://sodipodi.sourceforge.net/DTD/sodipodi-0.dtd"
   xmlns="http://www.w3.org/2000/svg"
   xmlns:svg="http://www.w3.org/2000/svg">
  <defs
     id="defs51" />
  <sodipodi:namedview
     id="namedview51"
     pagecolor="#ffffff"
     bordercolor="#000000"
     borderopacity="0.25"
     inkscape:showpageshadow="2"
     inkscape:pageopacity="0.0"
     inkscape:pagecheckerboard="0"
     inkscape:deskcolor="#d1d1d1"
     inkscape:zoom="12.625"
     inkscape:cx="30.930693"
     inkscape:cy="30.019802"
     inkscape:window-width="1920"
     inkscape:window-height="1011"
     inkscape:window-x="0"
     inkscape:window-y="32"
     inkscape:window-maximized="1"
     inkscape:current-layer="svg51" />
  <g
     id="Artboard_01"
     data-name="Artboard 01"
     transform="matrix(5.4193548,0,0,5.5081947,-5.4193548,-11.016389)">
    <path
       d="m 23,20.674 8,1 2.526,-7.544 A 7.491,7.491 0 0 0 34,11.5 v -2 A 1.5,1.5 0 0 0 32.5,8 h -2 A 7.5,7.5 0 0 0 23,15.5 Z"
       fill="#8dbf57"
       id="path1" />
    <path
       d="m 34,11.5 v -2 A 1.5,1.5 0 0 0 33.561,8.439 L 23,19 v 1 h 8.56 l 1.966,-5.87 A 7.491,7.491 0 0 0 34,11.5 Z"
       fill="#6eab50"
       id="path2" />
    <path
       d="M 17.128,18.617 A 7.5,7.5 0 0 1 12,11.5 v -2 A 1.5,1.5 0 0 1 13.5,8 h 2 a 7.5,7.5 0 0 1 7.5,7.5 v 3.174 z"
       fill="#8dbf57"
       id="path3" />
    <path
       d="M 17.128,18.617 22.671,18.671 12.439,8.439 A 1.5,1.5 0 0 0 12,9.5 v 2 a 7.5,7.5 0 0 0 5.128,7.117 z"
       fill="#6eab50"
       id="path4" />
    <path
       d="M 5,38 A 24,24 0 0 0 29,62 H 43 L 54.694,57.749 58.438,43.185 A 24.073,24.073 0 0 0 59,38 Z"
       fill="#b1874e"
       id="path5" />
    <path
       d="m 5,34 v -5 a 7,7 0 0 1 8.591,-6.818 7,7 0 0 1 10.268,-3.022 9,9 0 0 1 16.283,0 A 7,7 0 0 1 50.41,22.182 7.008,7.008 0 0 1 59,29 v 5 z"
       fill="#fbe385"
       id="path6" />
    <rect
       fill="#7f6942"
       height="4"
       rx="2"
       width="60"
       x="2"
       y="34"
       style="fill:#865e3c"
       id="rect6" />
    <path
       d="M 40.142,19.159 H 40.141 Z"
       fill="#fbe385"
       id="path7" />
    <path
       d="M 39.151,38 H 5 A 24,24 0 0 0 20.011,60.253 27.47,27.47 0 0 0 39.151,38 Z"
       fill="#b1874e"
       id="path8" />
    <path
       d="M 23.859,19.159 A 7,7 0 0 0 13.591,22.181 7,7 0 0 0 5,29 v 5 H 39.444 A 27.359,27.359 0 0 0 30.87,14.083 9,9 0 0 0 23.859,19.159 Z"
       fill="#fbe385"
       id="path9" />
    <path
       d="m 4,34 a 2,2 0 0 0 0,4 h 35.151 a 27.622,27.622 0 0 0 0.293,-4 z"
       fill="#7f6942"
       style="fill:#865e3c"
       id="path10" />
    <g
       opacity="0.05"
       id="g11">
      <path
         d="m 54.694,57.749 3.744,-14.564 c 0.151,-0.684 0.265,-1.381 0.355,-2.085 A 9.716,9.716 0 0 0 50.928,40.608 25.241,25.241 0 0 1 42.062,42 H 38 A 11.063,11.063 0 0 0 27,53.1 10.849,10.849 0 0 0 32.275,62 H 43 Z"
         fill="#000000"
         id="path11" />
    </g>
    <path
       d="M 47.958,62 H 39 C 34.029,62 29,58.015 29,53.1 A 9.12,9.12 0 0 1 38,44 h 4.062 A 27.327,27.327 0 0 0 51.624,42.484 7.753,7.753 0 0 1 58.131,43 7.58,7.58 0 0 1 62,49.6 11.579,11.579 0 0 1 55.133,60.147 L 53.769,60.76 A 14.164,14.164 0 0 1 47.958,62 Z"
       fill="#7f6942"
       style="fill:#865e3c"
       id="path12" />
    <path
       d="m 55.133,58.142 -1.364,0.613 A 14.164,14.164 0 0 1 47.958,60 H 39 c -4.644,0 -9.336,-3.479 -9.933,-7.944 A 8.8,8.8 0 0 0 29,53.1 c 0,4.916 5.029,8.9 10,8.9 h 8.958 a 14.164,14.164 0 0 0 5.811,-1.245 l 1.364,-0.613 A 11.579,11.579 0 0 0 62,49.6 7.534,7.534 0 0 0 61.94,48.708 11.587,11.587 0 0 1 55.133,58.142 Z"
       fill="#605542"
       style="fill:#63452c"
       id="path13" />
    <path
       d="m 55,53 v -2 a 1,1 0 0 0 0,-2 v -2 a 3,3 0 0 1 0,6 z"
       fill="#605542"
       style="fill:#63452c"
       id="path14" />
    <path
       d="m 41,53 v -2 a 1,1 0 0 0 0,-2 v -2 a 3,3 0 0 1 0,6 z"
       fill="#605542"
       style="fill:#63452c"
       id="path15" />
    <path
       d="m 48,58 v -2 a 1,1 0 0 0 0,-2 v -2 a 3,3 0 0 1 0,6 z"
       fill="#605542"
       style="fill:#63452c"
       id="path16" />
    <path
       d="m 35,58 v -2 a 1,1 0 0 0 0,-2 v -2 a 3,3 0 0 1 0,6 z"
       fill="#605542"
       style="fill:#63452c"
       id="path17" />
    <path
       d="m 54,13 h -2 v -1.1 a 3.772,3.772 0 0 1 0.967,-2.55 l 0.586,-0.645 a 1.849,1.849 0 0 0 0,-2.411 L 52.967,5.651 A 3.776,3.776 0 0 1 52,3.1 V 2 h 2 v 1.1 a 1.807,1.807 0 0 0 0.447,1.206 l 0.586,0.643 a 3.847,3.847 0 0 1 0,5.1 l -0.586,0.645 A 1.8,1.8 0 0 0 54,11.9 Z"
       fill="#929286"
       id="path18" />
    <path
       d="m 42,13 h -2 v -1.1 a 3.772,3.772 0 0 1 0.967,-2.55 l 0.586,-0.645 a 1.849,1.849 0 0 0 0,-2.411 L 40.967,5.651 A 3.776,3.776 0 0 1 40,3.1 V 2 h 2 v 1.1 a 1.807,1.807 0 0 0 0.447,1.206 l 0.586,0.643 a 3.847,3.847 0 0 1 0,5.1 l -0.586,0.645 A 1.8,1.8 0 0 0 42,11.9 Z"
       fill="#929286"
       id="path19" />
    <path
       d="m 48,13 h -2 v -1.1 a 3.772,3.772 0 0 1 0.967,-2.55 l 0.586,-0.645 a 1.849,1.849 0 0 0 0,-2.411 L 46.967,5.651 A 3.776,3.776 0 0 1 46,3.1 V 2 h 2 v 1.1 a 1.807,1.807 0 0 0 0.447,1.206 l 0.586,0.643 a 3.847,3.847 0 0 1 0,5.1 l -0.586,0.645 A 1.8,1.8 0 0 0 48,11.9 Z"
       fill="#929286"
       id="path20" />
    <path
       d="m 58.793,41.1 v 10e-4 z"
       fill="#be8a33"
       id="path21" />
    <path
       d="m 58.793,41.1 v 10e-4 z"
       opacity="0.05"
       fill="#000000"
       id="path22" />
    <path
       d="M 40.142,19.159 H 40.141 Z"
       fill="#fbe385"
       id="path23" />
    <g
       fill="#f9d161"
       id="g29">
      <path
         d="m 52,29 a 1,1 0 0 1 1,1 h 2 a 3,3 0 0 0 -6,0 h 2 a 1,1 0 0 1 1,-1 z"
         fill="#f9d161"
         id="path24" />
      <path
         d="m 44,25 a 1,1 0 0 1 1,1 h 2 a 3,3 0 0 0 -6,0 h 2 a 1,1 0 0 1 1,-1 z"
         fill="#f9d161"
         id="path25" />
      <path
         d="m 12,27 a 3,3 0 0 0 -3,3 h 2 a 1,1 0 0 1 2,0 h 2 a 3,3 0 0 0 -3,-3 z"
         fill="#f9d161"
         id="path26" />
      <path
         d="m 32,29 a 1,1 0 0 1 1,1 h 2 a 3,3 0 0 0 -6,0 h 2 a 1,1 0 0 1 1,-1 z"
         fill="#f9d161"
         id="path27" />
      <path
         d="m 32,20 a 1,1 0 0 1 1,1 h 2 a 3,3 0 0 0 -6,0 h 2 a 1,1 0 0 1 1,-1 z"
         fill="#f9d161"
         id="path28" />
      <path
         d="m 20,23 a 3,3 0 0 0 -3,3 h 2 a 1,1 0 0 1 2,0 h 2 a 3,3 0 0 0 -3,-3 z"
         fill="#f9d161"
         id="path29" />
    </g>
    <ellipse
       cx="27.919001"
       cy="10.366"
       fill="#ffffff"
       rx="1.13"
       ry="0.83600003"
       transform="matrix(0.749,-0.663,0.663,0.749,0.143,21.109)"
       id="ellipse29" />
    <ellipse
       cx="16.108"
       cy="9.5389996"
       fill="#ffffff"
       rx="1.015"
       ry="1.372"
       transform="matrix(0.458,-0.889,0.889,0.458,0.255,19.496)"
       id="ellipse30" />
    <ellipse
       cx="19.351999"
       cy="10.399"
       fill="#ffffff"
       rx="0.61000001"
       ry="0.824"
       transform="matrix(0.663,-0.749,0.749,0.663,-1.261,17.997)"
       id="ellipse31" />
    <path
       d=""
       fill="#89714c"
       id="path31" />
    <path
       d="m 29.4,55.448 c -0.009,-0.027 -0.017,-0.055 -0.026,-0.082 0.011,0.027 0.019,0.055 0.026,0.082 z"
       fill="#89714c"
       id="path32" />
    <path
       d="m 12,27 a 3,3 0 0 0 -3,3 h 2 a 1,1 0 0 1 2,0 h 2 a 3,3 0 0 0 -3,-3 z"
       fill="#ffffff"
       opacity="0.15"
       id="path33" />
    <path
       d="m 32,29 a 1,1 0 0 1 1,1 h 2 a 3,3 0 0 0 -6,0 h 2 a 1,1 0 0 1 1,-1 z"
       fill="#ffffff"
       opacity="0.15"
       id="path34" />
    <path
       d="m 32,20 a 1,1 0 0 1 1,1 h 2 a 3,3 0 0 0 -6,0 h 2 a 1,1 0 0 1 1,-1 z"
       fill="#ffffff"
       opacity="0.15"
       id="path35" />
    <path
       d="m 20,23 a 3,3 0 0 0 -3,3 h 2 a 1,1 0 0 1 2,0 h 2 a 3,3 0 0 0 -3,-3 z"
       fill="#ffffff"
       opacity="0.15"
       id="path36" />
    <path
       d="M 30.87,14.083 A 9,9 0 0 0 23.859,19.159 7,7 0 0 0 13.591,22.181 7,7 0 0 0 5,29 v 5 H 4 a 2,2 0 0 0 0,4 H 5 A 24,24 0 0 0 20.011,60.253 27.47,27.47 0 0 0 39.151,38 27.622,27.622 0 0 0 39.444,34 27.359,27.359 0 0 0 30.87,14.083 Z"
       fill="#ffffff"
       opacity="0.15"
       id="path37" />
  </g>
  <g
     id="Layer_33"
     data-name="Layer 33"
     transform="matrix(5.4193548,0,0,5.5081947,-5.4193548,-11.016389)">
    <path
       d="m 54,11.9 a 1.8,1.8 0 0 1 0.447,-1.2 l 0.586,-0.645 a 3.847,3.847 0 0 0 0,-5.1 L 54.447,4.312 A 1.807,1.807 0 0 1 54,3.1 V 2 h -2 v 1.1 a 3.776,3.776 0 0 0 0.967,2.551 l 0.586,0.643 a 1.849,1.849 0 0 1 0,2.411 L 52.967,9.35 A 3.772,3.772 0 0 0 52,11.9 V 13 h 2 z"
       fill="#000000"
       id="path38" />
    <path
       d="m 42,11.9 a 1.8,1.8 0 0 1 0.447,-1.2 l 0.586,-0.645 a 3.847,3.847 0 0 0 0,-5.1 L 42.447,4.312 A 1.807,1.807 0 0 1 42,3.1 V 2 h -2 v 1.1 a 3.776,3.776 0 0 0 0.967,2.551 l 0.586,0.643 a 1.849,1.849 0 0 1 0,2.411 L 40.967,9.35 A 3.772,3.772 0 0 0 40,11.9 V 13 h 2 z"
       fill="#000000"
       id="path39" />
    <path
       d="m 48,11.9 a 1.8,1.8 0 0 1 0.447,-1.2 l 0.586,-0.645 a 3.847,3.847 0 0 0 0,-5.1 L 48.447,4.312 A 1.807,1.807 0 0 1 48,3.1 V 2 h -2 v 1.1 a 3.776,3.776 0 0 0 0.967,2.551 l 0.586,0.643 a 1.849,1.849 0 0 1 0,2.411 L 46.967,9.35 A 3.772,3.772 0 0 0 46,11.9 V 13 h 2 z"
       fill="#000000"
       id="path40" />
    <path
       d="m 12,27 a 3,3 0 0 0 -3,3 h 2 a 1,1 0 0 1 2,0 h 2 a 3,3 0 0 0 -3,-3 z"
       fill="#000000"
       id="path41" />
    <path
       d="m 20,23 a 3,3 0 0 0 -3,3 h 2 a 1,1 0 0 1 2,0 h 2 a 3,3 0 0 0 -3,-3 z"
       fill="#000000"
       id="path42" />
    <path
       d="m 52,27 a 3,3 0 0 0 -3,3 h 2 a 1,1 0 0 1 2,0 h 2 a 3,3 0 0 0 -3,-3 z"
       fill="#000000"
       id="path43" />
    <path
       d="m 44,23 a 3,3 0 0 0 -3,3 h 2 a 1,1 0 0 1 2,0 h 2 a 3,3 0 0 0 -3,-3 z"
       fill="#000000"
       id="path44" />
    <path
       d="m 55,47 v 2 a 1,1 0 0 1 0,2 v 2 a 3,3 0 0 0 0,-6 z"
       fill="#000000"
       id="path45" />
    <path
       d="m 48,52 v 2 a 1,1 0 0 1 0,2 v 2 a 3,3 0 0 0 0,-6 z"
       fill="#000000"
       id="path46" />
    <path
       d="m 41,47 v 2 a 1,1 0 0 1 0,2 v 2 a 3,3 0 0 0 0,-6 z"
       fill="#000000"
       id="path47" />
    <path
       d="m 35,52 v 2 a 1,1 0 0 1 0,2 v 2 a 3,3 0 0 0 0,-6 z"
       fill="#000000"
       id="path48" />
    <path
       d="m 32,27 a 3,3 0 0 0 -3,3 h 2 a 1,1 0 0 1 2,0 h 2 a 3,3 0 0 0 -3,-3 z"
       fill="#000000"
       id="path49" />
    <path
       d="m 32,18 a 3,3 0 0 0 -3,3 h 2 a 1,1 0 0 1 2,0 h 2 a 3,3 0 0 0 -3,-3 z"
       fill="#000000"
       id="path50" />
    <path
       d="m 60,39 a 3,3 0 0 0 0,-6 V 29 A 8.009,8.009 0 0 0 52,21 8.091,8.091 0 0 0 50.968,21.066 8.006,8.006 0 0 0 40.535,17.788 10.07,10.07 0 0 0 34.776,13.41 8.532,8.532 0 0 0 35,11.5 v -2 A 2.5,2.5 0 0 0 32.5,7 h -2 A 8.506,8.506 0 0 0 23,11.508 8.506,8.506 0 0 0 15.5,7 h -2 A 2.5,2.5 0 0 0 11,9.5 v 2 a 8.468,8.468 0 0 0 4.052,7.217 8,8 0 0 0 -2.02,2.349 A 8.091,8.091 0 0 0 12,21 8.009,8.009 0 0 0 4,29 v 4 a 3,3 0 0 0 0,6 H 4.025 A 25.027,25.027 0 0 0 29,63 h 18.958 a 15.062,15.062 0 0 0 6.221,-1.333 l 1.364,-0.613 A 12.6,12.6 0 0 0 63,49.6 8.588,8.588 0 0 0 59.543,42.739 25.2,25.2 0 0 0 59.973,39 Z M 30.5,9 h 2 A 0.5,0.5 0 0 1 33,9.5 v 2 a 6.458,6.458 0 0 1 -0.211,1.552 C 32.527,13.031 32.266,13 32,13 a 10.042,10.042 0 0 0 -8,4.03 V 15.5 A 6.508,6.508 0 0 1 30.5,9 Z M 13,11.5 v -2 A 0.5,0.5 0 0 1 13.5,9 h 2 a 6.508,6.508 0 0 1 6.5,6.5 v 1.762 A 7.791,7.791 0 0 0 17.144,17.541 6.48,6.48 0 0 1 13,11.5 Z M 6,29 a 6.005,6.005 0 0 1 7.365,-5.844 1,1 0 0 0 1.141,-0.572 6,6 0 0 1 8.8,-2.591 1,1 0 0 0 1.457,-0.407 8,8 0 0 1 14.474,0 1,1 0 0 0 1.456,0.407 6,6 0 0 1 8.8,2.591 1,1 0 0 0 1.141,0.572 A 6,6 0 0 1 58,29 v 4 H 6 Z m -3,7 a 1,1 0 0 1 1,-1 h 56 a 1,1 0 0 1 0,2 H 4 A 1,1 0 0 1 3,36 Z m 58,13.6 a 10.6,10.6 0 0 1 -6.277,9.635 l -1.364,0.613 A 13.077,13.077 0 0 1 47.958,61 H 39 c -4.249,0 -9,-3.379 -9,-7.9 A 8.158,8.158 0 0 1 38,45 h 4.062 a 28.189,28.189 0 0 0 9.91,-1.579 6.741,6.741 0 0 1 5.666,0.45 A 6.6,6.6 0 0 1 61,49.6 Z M 57.7,41.688 A 8.732,8.732 0 0 0 51.271,41.551 26.232,26.232 0 0 1 42.062,43 H 38 A 10.061,10.061 0 0 0 28,53.1 9.659,9.659 0 0 0 32.676,61 H 29 A 23.026,23.026 0 0 1 6.025,39 h 51.948 a 23.326,23.326 0 0 1 -0.268,2.683 z"
       fill="#000000"
       id="path51" />
  </g>
</svg>
