<?xml version="1.0" encoding="UTF-8" standalone="no"?>
<!-- icon666.com - MILLIONS vector ICONS FREE -->

<svg
   viewBox="0 -1 336 336"
   version="1.1"
   id="svg28"
   sodipodi:docname="rice.svg"
   width="336"
   height="336"
   inkscape:version="1.3.1 (9b9bdc1480, 2023-11-25, custom)"
   xmlns:inkscape="http://www.inkscape.org/namespaces/inkscape"
   xmlns:sodipodi="http://sodipodi.sourceforge.net/DTD/sodipodi-0.dtd"
   xmlns="http://www.w3.org/2000/svg"
   xmlns:svg="http://www.w3.org/2000/svg">
  <defs
     id="defs28" />
  <sodipodi:namedview
     id="namedview28"
     pagecolor="#ffffff"
     bordercolor="#000000"
     borderopacity="0.25"
     inkscape:showpageshadow="2"
     inkscape:pageopacity="0.0"
     inkscape:pagecheckerboard="0"
     inkscape:deskcolor="#d1d1d1"
     inkscape:zoom="1.6323232"
     inkscape:cx="247.80631"
     inkscape:cy="245.0495"
     inkscape:window-width="1920"
     inkscape:window-height="1011"
     inkscape:window-x="0"
     inkscape:window-y="32"
     inkscape:window-maximized="1"
     inkscape:current-layer="svg28" />
  <path
     d="M 32.516129,302.32949 H 303.48387 v 27.22543 H 32.516129 Z m 0,0"
     fill="#dfb28b"
     id="path1"
     style="stroke-width:0.679026" />
  <path
     d="M 32.516129,302.32949 H 303.48387 v 16.33526 H 32.516129 Z m 0,0"
     fill="#cf9e76"
     id="path2"
     style="stroke-width:0.679026" />
  <path
     d="M 260.12903,307.77458 H 37.935484 c -17.959552,0 -32.5161292,-14.62569 -32.5161292,-32.67051 H 330.58065 c 0,18.04482 -14.55658,32.67051 -32.51613,32.67051 z m 0,0"
     fill="#dfb28b"
     id="path3"
     style="stroke-width:0.679026" />
  <path
     d="m 292.64516,275.10407 c 14.96409,0 27.09678,-12.19295 27.09678,-27.22542 0,-15.03513 -12.13269,-27.22542 -27.09678,-27.22542 0,-9.71502 -5.06741,-18.24157 -12.68573,-23.0592 l -16.15487,-13.7935 c -3.87134,-10.28663 -13.76008,-17.59815 -25.35295,-17.59815 0,-13.18731 -9.33833,-24.18117 -21.73034,-26.68038 0.005,-0.18612 0.0529,-0.35893 0.0529,-0.54504 0,-13.34152 -9.5659,-24.39387 -22.1749,-26.72559 C 192.2786,99.58251 181.27848,89.971197 168,89.971197 c -13.27848,0 -24.2786,9.611313 -26.59929,22.280173 -12.609,2.33172 -22.1749,13.38407 -22.1749,26.72559 0,0.18611 0.0476,0.35892 0.0529,0.54504 -7.41721,1.49686 -13.74156,6.03798 -17.62349,12.26739 L 85.203987,169.18548 C 76.445166,173.7 70.451593,182.85934 70.451593,193.4278 c -14.964088,0 -27.096774,12.19029 -27.096774,27.22543 -14.964088,0 -27.096774,12.19029 -27.096774,27.22542 0,15.03247 12.132686,27.22542 27.096774,27.22542 z m 0,0"
     fill="#ffeaa7"
     id="path4"
     style="stroke-width:0.679026" />
  <path
     d="M 314.19821,264.2139 H 21.801789 c 4.943045,6.5777 12.720137,10.89017 21.55305,10.89017 H 292.64516 c 8.83291,0 16.61001,-4.31247 21.55305,-10.89017 z m 0,0"
     fill="#fcd770"
     id="path5"
     style="stroke-width:0.679026" />
  <g
     fill="#ff826e"
     id="g8"
     transform="matrix(0.67741935,0,0,0.68063556,0,-1.3403178)">
    <path
       d="m 352,326.15625 c 0,8.83594 -7.16406,16 -16,16 -8.83594,0 -16,-7.16406 -16,-16 0,-8.83594 7.16406,-16 16,-16 8.83594,0 16,7.16406 16,16 z m 0,0"
       fill="#ff826e"
       style="fill:#986a44"
       id="path6" />
    <path
       d="m 272,238.15625 c 0,8.83594 -7.16406,16 -16,16 -8.83594,0 -16,-7.16406 -16,-16 0,-8.83594 7.16406,-16 16,-16 8.83594,0 16,7.16406 16,16 z m 0,0"
       fill="#ff826e"
       style="fill:#986a44"
       id="path7" />
    <path
       d="m 272,390.15625 c 0,8.83594 -7.16406,16 -16,16 -8.83594,0 -16,-7.16406 -16,-16 0,-8.83594 7.16406,-16 16,-16 8.83594,0 16,7.16406 16,16 z m 0,0"
       fill="#ff826e"
       style="fill:#986a44"
       id="path8" />
  </g>
  <path
     d="m 279.95943,197.59403 -16.14958,-13.7935 c -1.43687,-3.81262 -3.70199,-7.20783 -6.57043,-9.98088 -4.99068,7.09616 -7.9491,15.7264 -7.9491,25.05324 v 10.89017 h 21.67742 c 6.19468,0 12.07447,-1.33469 17.4065,-3.69298 -2.16192,-3.4085 -5.01184,-6.32513 -8.41481,-8.47605 z m 0,0"
     fill="#fcd770"
     id="path9"
     style="stroke-width:0.679026" />
  <path
     d="m 303.48387,166.20238 h -10.83871 c -17.95955,0 -32.51613,14.62569 -32.51613,32.67051 h 10.83871 c 17.95955,0 32.51613,-14.62569 32.51613,-32.67051 z m 0,0"
     fill="#a0d468"
     id="path10"
     style="stroke-width:0.679026" />
  <path
     d="m 97.548387,182.53763 h 21.677423 v -10.89017 c 0,-10.56314 -3.7655,-20.25688 -10.01575,-27.80768 -3.01664,2.10572 -5.59665,4.80699 -7.55482,7.9443 l -16.451233,17.39608 c -3.561744,1.83452 -6.628654,4.46667 -9.06313,7.62259 6.324345,3.63183 13.619834,5.73488 21.40751,5.73488 z m 0,0"
     fill="#fcd770"
     id="path11"
     style="stroke-width:0.679026" />
  <path
     d="m 65.032258,138.97696 h 10.83871 c 17.959551,0 32.516132,14.62569 32.516132,32.6705 H 97.548387 c -17.959551,0 -32.516129,-14.62568 -32.516129,-32.6705 z m 0,0"
     fill="#a0d468"
     id="path12"
     style="stroke-width:0.679026" />
  <path
     d="m 140.90323,209.76306 c -12.953,0 -24.56704,5.76679 -32.51613,14.8437 -7.9491,-9.07691 -19.563133,-14.8437 -32.516132,-14.8437 h -21.67742 v 10.89017 c 0,24.01898 19.449345,43.56067 43.354839,43.56067 h 21.677423 c 23.90549,0 43.35484,-19.54169 43.35484,-43.56067 v -10.89017 z m 0,0"
     fill="#fcd770"
     id="path13"
     style="stroke-width:0.679026" />
  <path
     d="m 151.74194,220.65323 h -10.83871 c -17.95956,0 -32.51613,14.62568 -32.51613,32.6705 h 10.83871 c 17.95955,0 32.51613,-14.62569 32.51613,-32.6705 z m 0,0"
     fill="#a0d468"
     id="path14"
     style="stroke-width:0.679026" />
  <path
     d="m 65.032258,220.65323 h 10.83871 c 17.959551,0 32.516132,14.62568 32.516132,32.6705 H 97.548387 c -17.959551,0 -32.516129,-14.62569 -32.516129,-32.6705 z m 0,0"
     fill="#a0d468"
     id="path15"
     style="stroke-width:0.679026" />
  <path
     d="m 184.25806,264.2139 h -21.67741 c 0,6.01671 4.85042,10.89017 10.8387,10.89017 5.98829,0 10.83871,-4.87346 10.83871,-10.89017 z m 0,0"
     fill="#fc6e51"
     style="fill:#986a44;stroke-width:0.679026"
     id="path16" />
  <path
     d="m 316.81527,269.65899 c 5.17062,-5.78807 8.34602,-13.40533 8.34602,-21.78034 0,-16.29272 -11.93422,-29.83896 -27.48047,-32.27967 -0.94997,-6.16826 -3.64907,-11.83669 -7.703,-16.47085 11.29915,-6.6043 18.92541,-18.87701 18.92541,-32.92575 v -5.44508 h -16.25807 c -11.28856,0 -21.41809,5.00904 -28.36958,12.90016 -5.05683,-6.62822 -12.50844,-11.18528 -20.7936,-12.50401 -1.86026,-11.8739 -10.16129,-21.88138 -21.48954,-25.82428 -1.44216,-12.94802 -10.47619,-23.82756 -22.91318,-27.57903 C 194.99357,94.09755 182.44808,84.526113 168,84.526113 c -14.44808,0 -26.99357,9.571437 -31.07926,23.224027 -12.43699,3.75147 -21.47102,14.63633 -22.91318,27.58436 -4.7975,1.67234 -9.09488,4.53048 -12.62752,8.18357 -6.747732,-6.18155 -15.683846,-9.9862 -25.509072,-9.9862 H 59.612903 v 5.44509 c 0,12.62632 6.168221,23.8116 15.612399,30.74824 -5.207661,4.93992 -8.697958,11.45116 -9.80935,18.64835 -13.90562,2.18016 -24.921622,13.24847 -27.096774,27.22011 -15.540952,2.44603 -27.480468,15.98696 -27.480468,32.28499 0,8.37501 3.175403,15.99227 8.346017,21.78034 H 0 v 5.44508 c 0,17.22859 11.444682,31.80907 27.096774,36.50971 V 335 H 308.90323 V 311.61378 C 324.55532,306.91314 336,292.33266 336,275.10407 v -5.44508 z m -24.17011,-98.01153 h 4.8716 c -2.51386,12.40831 -13.46636,21.78034 -26.54902,21.78034 h -4.8716 c 2.51386,-12.4083 13.46107,-21.78034 26.54902,-21.78034 z M 75.870968,144.42204 c 13.087953,0 24.035156,9.37203 26.549012,21.78034 h -4.871593 c -13.087953,0 -24.035156,-9.37203 -26.549017,-21.78034 z M 21.677419,247.87865 c 0,-12.01216 9.722026,-21.78034 21.67742,-21.78034 h 5.419355 v -5.44508 c 0,-12.01216 9.722025,-21.78034 21.677419,-21.78034 h 5.419355 v -5.44509 c 0,-7.45509 3.754914,-14.24017 9.896673,-18.24156 3.712576,1.22567 7.668599,1.90631 11.780746,1.90631 h 16.258063 v -5.44509 c 0,-7.18655 -2.02696,-13.89719 -5.48551,-19.64005 3.12777,-3.61588 7.32725,-6.19751 12.03213,-7.14934 l 4.47732,-0.90396 -0.13231,-4.59163 c -0.005,-0.22334 -0.0265,-0.44135 -0.0529,-0.65671 0.12437,-10.36906 7.54423,-19.21732 17.73198,-21.09971 l 3.67553,-0.67532 0.67742,-3.69829 C 148.61946,102.90859 157.5688,95.416282 168,95.416282 c 10.4312,0 19.38054,7.492308 21.26991,17.816168 l 0.67742,3.69829 3.67553,0.67532 c 10.18775,1.88239 17.60761,10.73597 17.73198,21.10502 l -0.17994,5.24303 4.47732,0.90396 c 10.06867,2.03659 17.38004,11.01513 17.38004,21.34431 v 5.44508 h 5.41935 c 8.24282,0 15.74736,4.81231 19.37525,12.1318 -2.0005,4.63417 -3.11718,9.73628 -3.11718,15.09363 v 5.44508 h 16.25806 c 2.69909,0 5.33203,-0.29512 7.875,-0.8375 5.27117,4.1104 8.38307,10.37172 8.38307,17.17276 v 5.44508 h 5.41935 c 11.95539,0 21.67742,9.76818 21.67742,21.78034 0,12.01215 -9.72203,21.78034 -21.67742,21.78034 H 188.67981 c 0.60862,-1.70957 0.99761,-3.52814 0.99761,-5.44509 0,-9.00513 -7.29549,-16.33525 -16.25807,-16.33525 -8.96257,0 -16.25806,7.33012 -16.25806,16.33525 0,1.91695 0.38899,3.73552 0.99761,5.44509 H 43.354839 c -11.955394,0 -21.67742,-9.76819 -21.67742,-21.78034 z M 168,264.2139 c 0,-3.00703 2.43448,-5.44508 5.41935,-5.44508 2.98488,0 5.41936,2.43805 5.41936,5.44508 0,3.00437 -2.43448,5.44509 -5.41936,5.44509 -2.98487,0 -5.41935,-2.44072 -5.41935,-5.44509 z m 130.06452,38.11559 h -27.09678 v 10.89017 h 27.09678 v 10.89017 H 37.935484 V 313.21966 H 260.12903 V 302.32949 H 37.935484 c -13.087953,0 -24.035157,-9.37203 -26.549017,-21.78034 H 324.61883 c -2.51916,12.40831 -13.46636,21.78034 -26.55431,21.78034 z m 0,0"
     fill="#000000"
     id="path17"
     style="stroke-width:0.679026" />
  <path
     d="m 227.6129,236.98848 c 8.96258,0 16.25807,-7.33013 16.25807,-16.33525 0,-9.00513 -7.29549,-16.33526 -16.25807,-16.33526 -8.96257,0 -16.25806,7.33013 -16.25806,16.33526 0,9.00512 7.29549,16.33525 16.25806,16.33525 z m 0,-21.78034 c 2.98488,0 5.41936,2.43806 5.41936,5.44509 0,3.00436 -2.43448,5.44508 -5.41936,5.44508 -2.98488,0 -5.41935,-2.44072 -5.41935,-5.44508 0,-3.00703 2.43447,-5.44509 5.41935,-5.44509 z m 0,0"
     fill="#000000"
     id="path18"
     style="stroke-width:0.679026" />
  <path
     d="m 173.41935,177.09255 c 8.96258,0 16.25807,-7.33013 16.25807,-16.33525 0,-9.00513 -7.29549,-16.33526 -16.25807,-16.33526 -8.96257,0 -16.25806,7.33013 -16.25806,16.33526 0,9.00512 7.29549,16.33525 16.25806,16.33525 z m 0,-21.78034 c 2.98488,0 5.41936,2.43806 5.41936,5.44509 0,3.00436 -2.43448,5.44508 -5.41936,5.44508 -2.98487,0 -5.41935,-2.44072 -5.41935,-5.44508 0,-3.00703 2.43448,-5.44509 5.41935,-5.44509 z m 0,0"
     fill="#000000"
     id="path19"
     style="stroke-width:0.679026" />
  <path
     d="m 157.16129,215.20814 h -16.25806 c -13.80772,0 -25.87689,7.47635 -32.51613,18.58454 -6.63924,-11.10819 -18.708421,-18.58454 -32.516132,-18.58454 H 59.612903 v 5.44509 c 0,21.01196 17.017516,38.11559 37.935484,38.11559 h 21.677423 c 20.91797,0 37.93548,-17.10363 37.93548,-38.11559 z m -59.612903,32.67051 c -13.087953,0 -24.035156,-9.37203 -26.549017,-21.78034 h 4.871598 c 13.087953,0 24.035156,9.37203 26.549012,21.78034 z m 21.677423,0 h -4.8716 c 2.51386,-12.40831 13.46635,-21.78034 26.54902,-21.78034 h 4.87159 c -2.51386,12.40831 -13.46106,21.78034 -26.54901,21.78034 z m 0,0"
     fill="#000000"
     id="path20"
     style="stroke-width:0.679026" />
  <path
     d="m 32.516129,242.43356 h 10.83871 v 10.89017 h -10.83871 z m 0,0"
     fill="#000000"
     id="path21"
     style="stroke-width:0.679026" />
  <path
     d="m 178.83871,198.87289 h 10.83871 v 10.89017 h -10.83871 z m 0,0"
     fill="#000000"
     id="path22"
     style="stroke-width:0.679026" />
  <path
     d="m 276.3871,242.43356 h 10.83871 v 10.89017 H 276.3871 Z m 0,0"
     fill="#000000"
     id="path23"
     style="stroke-width:0.679026" />
  <path
     d="m 162.58065,106.30645 h 10.8387 v 10.89017 h -10.8387 z m 0,0"
     fill="#000000"
     id="path24"
     style="stroke-width:0.679026" />
  <path
     d="m 92.129032,187.98272 h 10.838708 v 10.89017 H 92.129032 Z m 0,0"
     fill="#000000"
     id="path25"
     style="stroke-width:0.679026" />
  <path
     d="m 169.5877,72.040704 7.66331,-7.69969 -5.41936,-5.445084 C 169.36013,56.412673 168,53.107869 168,49.601 v -0.935874 c 0,-3.512185 1.36013,-6.811672 3.83695,-9.294929 4.51436,-4.541116 7.00176,-10.57378 7.00176,-16.994619 v -0.935874 c 0,-6.42084 -2.4874,-12.453504 -7.00706,-16.9946195 L 166.4123,-1 l -7.66331,7.6996898 5.41936,5.4450842 C 166.63987,14.628031 168,17.932835 168,21.439704 v 0.935874 c 0,3.512185 -1.36013,6.811672 -3.83695,9.294929 -4.51436,4.541115 -7.00176,10.57378 -7.00176,16.994619 V 49.601 c 0,6.42084 2.4874,12.453504 7.00706,16.994619 z m 0,0"
     fill="#000000"
     id="path26"
     style="stroke-width:0.679026" />
  <path
     d="m 131.65222,88.375957 7.6633,-7.699689 -5.41935,-5.445085 c -2.47152,-2.483258 -3.83165,-5.788063 -3.83165,-9.294929 V 65.00038 c 0,-3.512186 1.36013,-6.811673 3.83694,-9.29493 4.51437,-4.541115 7.00177,-10.573779 7.00177,-16.994619 v -0.935874 c 0,-6.420839 -2.4874,-12.453504 -7.00706,-16.994619 l -5.41936,-5.445084 -7.6633,7.699689 5.41935,5.445085 c 2.47153,2.483257 3.83166,5.788061 3.83166,9.294929 v 0.935874 c 0,3.512186 -1.36013,6.811673 -3.83695,9.29493 -4.51436,4.541115 -7.00176,10.573779 -7.00176,16.994619 v 0.935874 c 0,6.420837 2.4874,12.453507 7.00705,16.994619 z m 0,0"
     fill="#000000"
     id="path27"
     style="stroke-width:0.679026" />
  <path
     d="m 207.52319,88.375957 7.6633,-7.699689 -5.41935,-5.445085 c -2.47153,-2.483258 -3.83166,-5.788063 -3.83166,-9.294929 V 65.00038 c 0,-3.512186 1.36013,-6.811673 3.83695,-9.29493 4.51436,-4.541115 7.00176,-10.573779 7.00176,-16.994619 v -0.935874 c 0,-6.420839 -2.4874,-12.453504 -7.00705,-16.994619 l -5.41936,-5.445084 -7.6633,7.699689 5.41935,5.445085 c 2.47152,2.483257 3.83165,5.788061 3.83165,9.294929 v 0.935874 c 0,3.512186 -1.36013,6.811673 -3.83694,9.29493 -4.51437,4.541115 -7.00177,10.573779 -7.00177,16.994619 v 0.935874 c 0,6.420837 2.4874,12.453507 7.00706,16.994619 z m 0,0"
     fill="#000000"
     id="path28"
     style="stroke-width:0.679026" />
</svg>
