<?xml version="1.0" encoding="UTF-8" standalone="no"?>
<!-- icon666.com - MILLIONS vector ICONS FREE -->

<svg
   id="Capa_1"
   enable-background="new 0 0 512 512"
   viewBox="0 0 336 336"
   version="1.1"
   sodipodi:docname="salad.svg"
   width="336"
   height="336"
   inkscape:version="1.3.1 (9b9bdc1480, 2023-11-25, custom)"
   xmlns:inkscape="http://www.inkscape.org/namespaces/inkscape"
   xmlns:sodipodi="http://sodipodi.sourceforge.net/DTD/sodipodi-0.dtd"
   xmlns="http://www.w3.org/2000/svg"
   xmlns:svg="http://www.w3.org/2000/svg">
  <defs
     id="defs19" />
  <sodipodi:namedview
     id="namedview19"
     pagecolor="#ffffff"
     bordercolor="#000000"
     borderopacity="0.25"
     inkscape:showpageshadow="2"
     inkscape:pageopacity="0.0"
     inkscape:pagecheckerboard="0"
     inkscape:deskcolor="#d1d1d1"
     inkscape:zoom="1.578125"
     inkscape:cx="244.91089"
     inkscape:cy="256"
     inkscape:window-width="1920"
     inkscape:window-height="1011"
     inkscape:window-x="0"
     inkscape:window-y="32"
     inkscape:window-maximized="1"
     inkscape:current-layer="Capa_1" />
  <g
     id="g19"
     transform="matrix(0.68498859,0,0,0.65625256,-7.356695,0)">
    <g
       id="g16">
      <path
         d="m 288.603,121.636 c 0,-17.484 -9.986,-32.628 -24.564,-40.056 -7.818,-3.983 -12.661,-12.1 -12.661,-20.874 v -8.26 C 251.378,27.623 231.255,7.5 206.432,7.5 c -24.823,0 -44.946,20.123 -44.946,44.946 v 13.111 c 0,6.433 -3.894,12.185 -9.817,14.697 -16.108,6.832 -27.408,22.783 -27.408,41.382 l 4.264,84.607 h 156.903 z"
         fill="#02905d"
         id="path1" />
      <path
         d="m 264.039,81.58 c -7.818,-3.983 -12.661,-12.1 -12.661,-20.874 v -8.26 C 251.378,27.623 231.255,7.5 206.432,7.5 c -4.931,0 -9.671,0.805 -14.11,2.272 17.908,5.919 30.836,22.781 30.836,42.674 v 8.26 c 0,8.774 4.843,16.89 12.661,20.874 14.578,7.428 24.564,22.572 24.564,40.056 l -3.174,84.607 h 28.219 l 3.174,-84.607 c 0.001,-17.484 -9.985,-32.628 -24.563,-40.056 z"
         fill="#017b4e"
         id="path2" />
      <path
         d="m 381.727,180.485 c 0,-17.484 -9.986,-32.628 -24.564,-40.057 -7.818,-3.983 -12.66,-12.1 -12.66,-20.874 v -8.26 c 0,-24.823 -20.123,-44.946 -44.946,-44.946 -24.823,0 -44.946,20.123 -44.946,44.946 v 13.111 c 0,6.433 -3.894,12.185 -9.817,14.697 -16.108,6.831 -27.408,22.783 -27.408,41.382 l 4.264,56.387 h 156.903 z"
         fill="#22b27f"
         id="path3" />
      <path
         d="m 357.163,140.428 c -7.818,-3.983 -12.661,-12.1 -12.661,-20.874 v -8.26 c 0,-24.823 -20.123,-44.946 -44.946,-44.946 -4.931,0 -9.671,0.805 -14.11,2.272 17.908,5.919 30.837,22.781 30.837,42.674 v 8.26 c 0,8.774 4.843,16.89 12.661,20.874 14.578,7.428 24.564,22.572 24.564,40.056 l -3.174,56.387 h 28.219 l 3.174,-56.387 c 0,-17.483 -9.986,-32.628 -24.564,-40.056 z"
         fill="#09a76d"
         id="path4" />
      <path
         d="m 195.479,180.485 c 0,-17.484 -9.986,-32.628 -24.564,-40.057 -7.818,-3.983 -12.661,-12.1 -12.661,-20.874 v -8.26 c 0,-24.823 -20.123,-44.946 -44.946,-44.946 -24.823,0 -44.946,20.123 -44.946,44.946 v 13.111 c 0,6.433 -3.894,12.185 -9.817,14.697 -16.108,6.831 -27.408,22.783 -27.408,41.382 l 4.264,56.387 h 156.903 z"
         fill="#7acaa6"
         id="path5" />
      <circle
         cx="314.54401"
         cy="220.03101"
         fill="#e94444"
         r="50.025002"
         id="circle5" />
      <path
         d="m 18.246,270.056 3.735,34.503 c 7.947,73.409 54.07,134.246 117.313,163.639 4.812,2.237 9.724,4.291 14.725,6.155 v 20.807 c 0,5.158 4.182,9.341 9.341,9.341 h 152.299 30.746 c 5.159,0 9.341,-4.182 9.341,-9.341 v -20.807 c 70.728,-26.362 123.487,-90.8 132.038,-169.794 l 3.735,-34.503 z"
         fill="#ac5e2e"
         id="path6" />
      <path
         d="m 363.434,230.63 c 1.859,2.201 3.832,4.275 5.888,6.242 h 97.584 c 16.42,-15.712 26.854,-39.195 26.854,-65.451 0,-61.26 -33.873,-110.921 -75.657,-110.921 -41.784,0 -75.657,49.661 -75.657,110.921 0,2.456 0.111,4.882 0.29,7.287 16.879,11.536 24.999,31.987 20.698,51.922 z"
         fill="#dff6fd"
         id="path7" />
      <ellipse
         cx="418.10199"
         cy="167.25101"
         fill="#fec165"
         rx="40.397999"
         ry="43.074001"
         id="ellipse7" />
      <path
         d="m 452.012,270.056 -3.735,34.503 c -8.551,78.994 -61.31,143.432 -132.038,169.794 v 20.807 c 0,5.158 -4.182,9.341 -9.341,9.341 h 8.761 30.746 c 5.159,0 9.341,-4.182 9.341,-9.341 v -20.807 c 70.728,-26.362 123.487,-90.8 132.038,-169.794 l 3.735,-34.503 z"
         fill="#9e5528"
         id="path8" />
      <path
         d="m 452.525,399.128 c 9.754,-14.051 17.806,-29.408 23.839,-45.794 H 33.422 c 6.034,16.386 14.079,31.744 23.834,45.794 z"
         fill="#dc8758"
         id="path9" />
      <path
         d="m 413.018,399.128 h 39.507 c 1.219,-1.756 2.412,-3.533 3.577,-5.33 7.993,-12.321 14.878,-25.844 20.262,-40.464 h -39.507 c -6.033,16.386 -14.084,31.743 -23.839,45.794 z"
         fill="#d77f4a"
         id="path10" />
      <path
         d="m 418.102,60.499 c -4.823,0 -9.538,0.669 -14.11,1.934 35.04,9.692 61.548,54.797 61.548,108.987 0,26.257 -10.434,49.739 -26.854,65.451 h 28.219 c 16.42,-15.712 26.854,-39.195 26.854,-65.451 0,-61.259 -33.872,-110.921 -75.657,-110.921 z"
         fill="#c8effe"
         id="path11" />
      <path
         d="m 300.435,172.038 c 20.755,6.093 35.915,25.267 35.915,47.993 0,22.726 -15.16,41.901 -35.915,47.993 32.107,9.424 64.135,-14.695 64.135,-47.993 -10e-4,-33.32 -32.052,-57.41 -64.135,-47.993 z"
         fill="#d83131"
         id="path12" />
      <path
         d="m 170.915,140.428 c -7.818,-3.983 -12.661,-12.1 -12.661,-20.874 v -8.26 c 0,-24.823 -20.123,-44.946 -44.946,-44.946 -4.931,0 -9.671,0.805 -14.11,2.272 17.908,5.919 30.837,22.781 30.837,42.674 v 8.26 c 0,8.774 4.843,16.89 12.661,20.874 14.578,7.428 24.564,22.572 24.564,40.056 l -3.174,56.387 h 28.219 l 3.174,-56.387 c 0,-17.483 -9.986,-32.628 -24.564,-40.056 z"
         fill="#57be92"
         id="path13" />
      <circle
         cx="239.92999"
         cy="220.03101"
         fill="#f47c7c"
         r="50.025002"
         id="circle13" />
      <path
         d="m 239.93,170.006 c -4.902,0 -9.633,0.717 -14.11,2.031 20.755,6.093 35.915,25.267 35.915,47.993 0,22.726 -15.16,41.901 -35.915,47.993 4.476,1.314 9.208,2.031 14.11,2.031 27.628,0 50.025,-22.397 50.025,-50.025 0,-27.628 -22.397,-50.023 -50.025,-50.023 z"
         fill="#ee6161"
         id="path14" />
      <path
         d="m 18.246,270.056 v -29.202 c 0,-2.199 1.783,-3.982 3.982,-3.982 h 465.309 c 2.199,0 3.982,1.783 3.982,3.982 v 29.202 z"
         fill="#dc8758"
         id="path15" />
      <path
         d="M 487.537,236.872 H 448.03 c 2.199,0 3.982,1.783 3.982,3.982 v 29.202 h 39.507 v -29.202 c 0,-2.199 -1.783,-3.982 -3.982,-3.982 z"
         fill="#d77f4a"
         id="path16" />
    </g>
    <g
       id="g18">
      <path
         d="m 418.102,217.825 c 26.411,0 47.898,-22.688 47.898,-50.574 0,-27.887 -21.487,-50.574 -47.898,-50.574 -26.411,0 -47.898,22.688 -47.898,50.574 0,27.886 21.487,50.574 47.898,50.574 z m 0,-86.148 c 18.14,0 32.898,15.958 32.898,35.574 0,19.615 -14.758,35.574 -32.898,35.574 -18.14,0 -32.898,-15.958 -32.898,-35.574 0,-19.616 14.758,-35.574 32.898,-35.574 z"
         id="path17" />
      <path
         d="m 499.019,240.854 c 0,-6.331 -5.151,-11.482 -11.482,-11.482 h -4.317 c 11.596,-16.346 18.039,-36.703 18.039,-57.952 0,-31.121 -8.333,-60.476 -23.464,-82.659 C 462.066,65.7 440.867,53 418.102,53 c -18.456,0 -35.714,8.081 -49.907,23.37 -6.558,7.064 -12.322,15.593 -17.138,25.048 -4.635,-24.212 -25.958,-42.569 -51.501,-42.569 -13.633,0 -26.065,5.232 -35.401,13.79 -3.317,-2.959 -5.276,-7.257 -5.276,-11.932 v -8.26 C 258.879,23.527 235.351,0 206.432,0 177.513,0 153.986,23.527 153.986,52.446 v 13.111 c 0,3.21 -1.869,6.11 -4.78,7.554 -9.391,-8.834 -22.018,-14.263 -35.898,-14.263 -15.311,0 -29.818,6.667 -39.801,18.292 -2.699,3.142 -2.339,7.877 0.803,10.576 3.142,2.699 7.877,2.34 10.576,-0.803 7.131,-8.302 17.49,-13.064 28.422,-13.064 11.603,0 21.99,5.305 28.864,13.617 0.021,0.026 0.042,0.052 0.063,0.078 9.645,11.725 8.519,23.184 8.519,32.012 0,11.731 6.42,22.29 16.756,27.556 1.571,0.8 3.067,1.699 4.484,2.686 9.917,6.912 15.919,18.172 15.984,30.485 l -0.941,16.714 c -4.431,10.353 -5.586,21.941 -3.871,32.375 h -62.358 v -16.366 l 40.323,-49.196 c 2.625,-3.204 2.157,-7.929 -1.046,-10.555 -3.204,-2.626 -7.929,-2.157 -10.555,1.046 l -28.721,35.042 v -71.601 c 0,-4.142 -3.358,-7.5 -7.5,-7.5 -4.142,0 -7.5,3.358 -7.5,7.5 v 71.631 L 77.006,154.296 c -2.628,-3.201 -7.354,-3.664 -10.556,-1.037 -3.201,2.629 -3.665,7.355 -1.037,10.556 l 40.396,49.194 v 16.362 H 42.355 l -3.717,-49.158 c 0.106,-14.952 9.046,-28.358 22.835,-34.207 8.741,-3.707 14.389,-12.186 14.389,-21.602 v -9.998 c 0,-4.142 -3.358,-7.5 -7.5,-7.5 -4.142,0 -7.5,3.358 -7.5,7.5 v 9.998 c 0,3.382 -2.059,6.441 -5.245,7.792 -19.427,8.239 -31.979,27.193 -31.979,48.287 0,0.188 0.007,0.377 0.021,0.565 l 3.654,48.322 h -5.086 c -6.331,0 -11.482,5.151 -11.482,11.482 0,30.298 -0.027,29.336 0.043,29.995 0,0.005 0,0.009 10e-4,0.014 4.113,37.996 5.472,84.826 43.049,136.436 21.204,29.123 49.661,52.534 82.295,67.7 3.408,1.584 6.886,3.088 10.386,4.493 v 15.668 c 0,9.286 7.555,16.84 16.841,16.84 h 183.045 c 9.286,0 16.841,-7.555 16.841,-16.84 v -15.667 c 18.528,-7.431 35.895,-17.436 51.689,-29.783 3.263,-2.551 3.841,-7.265 1.29,-10.528 -2.55,-3.263 -7.265,-3.84 -10.528,-1.29 -15.962,12.478 -33.649,22.381 -52.571,29.433 -2.935,1.094 -4.88,3.896 -4.88,7.028 v 20.807 c 0,1.015 -0.826,1.84 -1.841,1.84 H 163.36 c -1.015,0 -1.841,-0.826 -1.841,-1.84 v -20.807 c 0,-3.132 -1.946,-5.935 -4.882,-7.028 -4.775,-1.779 -9.547,-3.773 -14.182,-5.928 C 114.924,448.6 91.113,429.661 72.461,406.626 h 365.067 c -2.303,2.835 -4.686,5.618 -7.157,8.341 -2.784,3.067 -2.555,7.811 0.512,10.594 3.067,2.785 7.811,2.554 10.594,-0.513 30.312,-33.394 48.903,-74.78 53.764,-119.685 4.846,-44.771 3.778,-24.44 3.778,-64.509 z M 356.036,229.372 h -82.974 c -6.466,-28.624 17.407,-54.833 46.283,-51.587 24.833,2.804 42.29,26.685 36.691,51.587 z M 211.227,188.654 c 16.152,-14.089 39.11,-15.172 55.918,-1.207 -8.636,12.545 -11.704,27.704 -9.364,41.924 h -59.33 c -3.27,-14.531 0.982,-30.231 12.776,-40.717 z M 379.188,86.575 C 390.63,74.249 403.723,68 418.102,68 c 17.653,0 34.452,10.375 47.302,29.214 13.449,19.717 20.855,46.071 20.855,74.207 0,22.17 -8.148,43.114 -22.451,57.951 H 372.41 c -0.322,-0.332 -0.639,-0.666 -0.951,-1 3.037,-20.701 -5.46,-41.096 -21.45,-53.628 -0.974,-21.35 4.794,-41.302 4.961,-42.302 4.973,-17.861 13.369,-34.181 24.218,-45.867 z M 299.556,73.849 c 20.648,0 37.446,16.798 37.446,37.446 v 8.26 c 0,4.299 0.899,8.56 2.618,12.487 -0.071,0.29 -0.133,0.584 -0.203,0.874 -2.455,9.911 -3.955,20.15 -4.388,30.318 -4.876,-0.795 -9.834,-0.945 -14.825,-0.447 -4.596,-0.451 -8.797,-0.347 -13.149,0.222 v -45.268 c 0,-4.142 -3.358,-7.5 -7.5,-7.5 -4.142,0 -7.5,3.358 -7.5,7.5 v 49.346 c -5.144,2.193 -10.017,5.202 -14.202,8.675 -0.196,0.162 -0.399,0.315 -0.593,0.48 -13.089,-11.331 -30.14,-16.206 -48.318,-12.676 4.174,-8.215 10.98,-14.252 18.778,-17.56 8.741,-3.707 14.389,-12.186 14.389,-21.602 0,-13.442 -0.837,-20.351 4.037,-29.991 6.454,-12.72 19.389,-20.564 33.41,-20.564 z m -133.802,45.706 c 0,-9.052 0.926,-20.779 -7.102,-34.598 6.393,-4.323 10.334,-11.535 10.334,-19.399 V 52.446 C 168.986,31.798 185.784,15 206.432,15 c 20.648,0 37.446,16.798 37.446,37.446 v 8.26 c 0,9.25 3.992,17.772 10.75,23.545 -8.643,14.358 -7.519,26.063 -7.519,40.154 0,11.708 -20.964,6.689 -33.178,35.891 V 56.02 c 0,-4.142 -3.358,-7.5 -7.5,-7.5 -4.142,0 -7.5,3.358 -7.5,7.5 v 104.2 c -4.764,-11.415 -13.443,-20.782 -24.612,-26.474 -5.283,-2.692 -8.565,-8.13 -8.565,-14.191 z M 25.745,244.372 h 458.273 v 18.184 H 25.745 Z m 18.901,116.462 h 420.643 c -4.643,10.729 -10.245,21.04 -16.734,30.794 H 61.427 C 54.948,381.896 49.332,371.586 44.646,360.834 Z m -5.827,-15 c -4.625,-13.527 -7.817,-27.625 -9.382,-42.082 l -2.836,-26.196 h 456.562 c -2.941,27.165 -3.835,43.868 -12.072,68.278 z"
         id="path18" />
    </g>
  </g>
</svg>
