<?xml version="1.0" encoding="UTF-8" standalone="no"?>
<!-- icon666.com - MILLIONS vector ICONS FREE -->

<svg
   id="Capa_1"
   enable-background="new 0 0 512 512"
   viewBox="0 0 336 336"
   version="1.1"
   sodipodi:docname="soup.svg"
   width="336"
   height="336"
   inkscape:version="1.3.1 (9b9bdc1480, 2023-11-25, custom)"
   xmlns:inkscape="http://www.inkscape.org/namespaces/inkscape"
   xmlns:sodipodi="http://sodipodi.sourceforge.net/DTD/sodipodi-0.dtd"
   xmlns="http://www.w3.org/2000/svg"
   xmlns:svg="http://www.w3.org/2000/svg">
  <defs
     id="defs39" />
  <sodipodi:namedview
     id="namedview39"
     pagecolor="#ffffff"
     bordercolor="#000000"
     borderopacity="0.25"
     inkscape:showpageshadow="2"
     inkscape:pageopacity="0.0"
     inkscape:pagecheckerboard="0"
     inkscape:deskcolor="#d1d1d1"
     inkscape:zoom="1.578125"
     inkscape:cx="255.68317"
     inkscape:cy="223.68317"
     inkscape:window-width="1920"
     inkscape:window-height="1011"
     inkscape:window-x="0"
     inkscape:window-y="32"
     inkscape:window-maximized="1"
     inkscape:current-layer="Capa_1" />
  <g
     id="g39"
     transform="scale(0.65625)">
    <g
       id="g23">
      <circle
         cx="256"
         cy="256"
         fill="#e6f7fe"
         r="248.5"
         id="circle1" />
      <path
         d="M 449.88,411.45 C 404.34,468.18 334.41,504.5 256,504.5 118.76,504.5 7.5,393.24 7.5,256 7.5,189.54 33.59,129.18 76.08,84.59 41.93,127.15 21.5,181.19 21.5,240 c 0,137.24 111.26,248.5 248.5,248.5 70.76,0 134.62,-29.58 179.88,-77.05 z"
         fill="#d3effd"
         id="path1" />
      <circle
         cx="256"
         cy="256"
         fill="#ffe07d"
         r="208.5"
         id="circle2" />
      <path
         d="M 419.86,384.78 C 381.66,433.3 322.41,464.5 256,464.5 141.03,464.5 47.5,370.97 47.5,256 47.5,200.34 69.42,149.7 105.1,112.27 77.17,147.74 60.5,192.46 60.5,241 c 0,114.97 93.53,208.5 208.5,208.5 59.28,0 112.86,-24.87 150.86,-64.72 z"
         fill="#ffde5c"
         id="path2" />
      <path
         d="m 231.729,392.495 c 15.545,2.673 25.874,19.285 28.67,24.305 0.468,0.84 0.276,1.886 -0.458,2.508 -4.435,3.752 -20.233,15.916 -35.801,13.238 -15.545,-2.673 -25.874,-19.285 -28.67,-24.305 -0.468,-0.84 -0.276,-1.886 0.458,-2.508 4.434,-3.751 20.233,-15.915 35.801,-13.238 z"
         fill="#b7e546"
         id="path3" />
      <path
         d="M 135.576,362.164 C 99.226,337.049 75.843,285.013 93.737,259.113 c 17.894,-25.9 74.838,-22.437 111.188,2.679 36.35,25.116 38.342,62.372 20.448,88.272 -17.895,25.898 -53.447,37.215 -89.797,12.1 z"
         fill="#fff9df"
         id="path4" />
      <path
         d="m 223.62,352.47 c -18.39,24.17 -52.84,34.02 -88.04,9.69 -36.35,-25.11 -59.74,-77.15 -41.84,-103.05 2.71,-3.91 6.3,-7.16 10.59,-9.76 -15.17,26.55 7.92,76.4 43.25,100.81 28.57,19.74 56.65,16.98 76.04,2.31 z"
         fill="#fff3bf"
         id="path5" />
      <circle
         cx="169.01601"
         cy="311.125"
         fill="#ffde5c"
         r="30.5"
         id="circle5" />
      <path
         d="m 198.13,320.23 c -0.9,2.86 -2.23,5.64 -4.02,8.23 -9.58,13.86 -28.57,17.33 -42.43,7.76 -13.86,-9.58 -17.33,-28.57 -7.76,-42.43 4.02,-5.82 9.71,-9.81 15.98,-11.77 -3.89,12.41 0.51,26.41 11.78,34.2 8.04,5.55 17.8,6.71 26.45,4.01 z"
         fill="#ffc736"
         id="path6" />
      <path
         d="m 150.887,153.994 c -7.567,-13.839 -0.973,-32.256 1.222,-37.566 0.367,-0.889 1.306,-1.389 2.249,-1.2 5.695,1.142 25.043,5.959 32.622,19.819 7.567,13.839 0.973,32.256 -1.222,37.566 -0.367,0.889 -1.306,1.389 -2.249,1.2 -5.695,-1.142 -25.043,-5.959 -32.622,-19.819 z"
         fill="#b7e546"
         id="path7" />
      <path
         d="m 189.28,161.24 c -1.1,5.11 -2.66,9.27 -3.52,11.37 -0.37,0.89 -1.31,1.39 -2.25,1.2 -5.7,-1.14 -25.04,-5.96 -32.62,-19.82 -7.57,-13.83 -0.98,-32.25 1.22,-37.56 0.37,-0.89 1.31,-1.39 2.25,-1.2 1.39,0.28 3.58,0.77 6.23,1.57 -1.68,7.8 -2.27,17.83 2.3,26.19 5.73,10.48 18.19,15.79 26.39,18.25 z"
         fill="#abd641"
         id="path8" />
      <path
         d="m 400.156,241.484 c 10.667,-11.619 30.226,-11.303 35.96,-10.935 0.96,0.062 1.735,0.79 1.86,1.744 0.752,5.76 2.42,25.629 -8.263,37.265 -10.667,11.619 -30.226,11.303 -35.96,10.935 -0.96,-0.062 -1.735,-0.79 -1.86,-1.744 -0.752,-5.76 -2.42,-25.629 8.263,-37.265 z"
         fill="#b7e546"
         id="path9" />
      <path
         d="m 435.13,260.88 c -1.3,3.13 -3.06,6.11 -5.42,8.68 -10.66,11.62 -30.22,11.3 -35.96,10.93 -0.96,-0.06 -1.73,-0.79 -1.86,-1.74 -0.75,-5.76 -2.42,-25.63 8.27,-37.27 2.48,-2.7 5.43,-4.75 8.58,-6.31 -4.58,11.05 -3.43,24.09 -2.85,28.58 0.13,0.95 0.9,1.68 1.86,1.74 4.41,0.28 16.96,0.54 27.38,-4.61 z"
         fill="#abd641"
         id="path10" />
      <path
         d="m 259.94,419.31 c -4.43,3.75 -20.23,15.91 -35.8,13.24 -15.55,-2.68 -25.87,-19.29 -28.67,-24.31 -0.47,-0.84 -0.28,-1.89 0.46,-2.51 2.4,-2.03 8.15,-6.54 15.4,-9.81 0.04,0.11 0.08,0.22 0.14,0.32 2.8,5.02 13.12,21.63 28.67,24.31 7.12,1.22 14.29,-0.66 20.4,-3.42 0.27,0.77 0.04,1.64 -0.6,2.18 z"
         fill="#abd641"
         id="path11" />
      <g
         fill="#ffde5c"
         id="g14">
        <circle
           cx="376.70599"
           cy="336.14301"
           r="25"
           id="circle11" />
        <circle
           cx="295.57901"
           cy="314.87"
           r="20"
           id="circle12" />
        <circle
           cx="114.5"
           cy="191.5"
           r="20"
           id="circle13" />
        <circle
           cx="313.08401"
           cy="392.38901"
           r="28.5"
           id="circle14" />
      </g>
      <path
         d="m 401.37,340.25 c -0.19,1.14 -0.46,2.28 -0.82,3.41 -4.15,13.16 -18.19,20.48 -31.36,16.33 -13.17,-4.15 -20.48,-18.19 -16.33,-31.36 2.06,-6.54 6.56,-11.63 12.18,-14.6 -2.03,12.11 5.11,24.17 17.15,27.96 6.63,2.09 13.48,1.27 19.18,-1.74 z"
         fill="#ffc736"
         id="path14" />
      <path
         d="m 315.57,315.61 c -0.07,1.75 -0.37,3.52 -0.92,5.27 -3.31,10.53 -14.55,16.38 -25.08,13.07 -10.54,-3.32 -16.39,-14.55 -13.07,-25.09 1.93,-6.11 6.51,-10.65 12.08,-12.73 -0.33,8.78 5.2,17.05 13.99,19.82 4.42,1.39 8.97,1.16 13,-0.34 z"
         fill="#ffc736"
         id="path15" />
      <path
         d="m 134.48,192.25 c -0.39,10.7 -9.18,19.25 -19.98,19.25 -11.05,0 -20,-8.95 -20,-20 0,-8.59 5.41,-15.92 13.02,-18.75 -0.02,0.25 -0.02,0.5 -0.02,0.75 0,11.05 8.95,20 20,20 2.45,0 4.81,-0.44 6.98,-1.25 z"
         fill="#ffc736"
         id="path16" />
      <path
         d="m 340.87,398.76 c -0.17,0.73 -0.37,1.46 -0.6,2.19 -4.73,15.02 -20.74,23.35 -35.75,18.62 -15.01,-4.73 -23.35,-20.73 -18.62,-35.74 2.16,-6.87 6.69,-12.35 12.4,-15.81 -3.3,14.35 4.94,29.05 19.22,33.55 8.14,2.57 16.58,1.29 23.35,-2.81 z"
         fill="#ffc736"
         id="path17" />
      <circle
         cx="301.375"
         cy="180.25"
         fill="#df646e"
         r="85.875"
         id="circle17" />
      <path
         d="m 375.72,223.25 c -14.86,25.63 -42.59,42.87 -74.35,42.87 -47.42,0 -85.87,-38.44 -85.87,-85.87 0,-19.54 6.53,-37.57 17.53,-52 -7.33,12.64 -11.53,27.33 -11.53,43 0,47.43 38.45,85.87 85.87,85.87 27.88,0 52.66,-13.28 68.35,-33.87 z"
         fill="#dc4955"
         id="path18" />
      <g
         id="g19">
        <path
           d="m 304.223,246.431 c -3.889,0 -7.561,-1.818 -9.929,-4.948 -2.517,-3.328 -3.213,-7.669 -1.862,-11.612 l 9.591,-27.99 c 2.236,-6.521 9.359,-10.007 15.878,-7.772 l 28.05,9.612 c 3.95,1.354 6.953,4.571 8.034,8.606 1.076,4.017 0.091,8.282 -2.635,11.409 -11.714,13.439 -28.643,21.705 -46.446,22.677 -0.227,0.011 -0.455,0.018 -0.681,0.018 z"
           fill="#dc4955"
           id="path19" />
      </g>
      <g
         id="g20">
        <path
           d="m 266.368,233.558 c -2.942,0 -5.823,-1.042 -8.109,-3.005 -13.616,-11.69 -22.012,-28.678 -23.034,-46.605 -0.237,-4.144 1.601,-8.118 4.916,-10.632 3.329,-2.524 7.674,-3.227 11.625,-1.871 l 28.295,9.696 c 3.158,1.081 5.707,3.329 7.175,6.328 1.468,2.999 1.681,6.391 0.598,9.549 l -9.622,28.081 c -1.348,3.931 -4.547,6.929 -8.56,8.02 -1.085,0.294 -2.189,0.439 -3.284,0.439 z"
           fill="#dc4955"
           id="path20" />
      </g>
      <g
         id="g21">
        <path
           d="m 288.963,167.626 c -1.34,0 -2.702,-0.217 -4.039,-0.675 l -28.492,-9.765 c -3.924,-1.344 -6.92,-4.538 -8.015,-8.544 -1.091,-3.994 -0.139,-8.253 2.547,-11.394 11.824,-13.821 29.026,-22.266 47.198,-23.169 4.132,-0.199 8.086,1.649 10.579,4.961 2.5,3.323 3.189,7.654 1.843,11.585 v 0.001 l -9.784,28.551 c -1.776,5.182 -6.641,8.449 -11.837,8.449 z"
           fill="#dc4955"
           id="path21" />
      </g>
      <g
         id="g22">
        <path
           d="m 355.064,190.272 c -1.362,0 -2.731,-0.223 -4.056,-0.676 0,-0.001 0,-0.001 0,-0.001 l -28.245,-9.679 c -6.521,-2.235 -10.007,-9.357 -7.772,-15.877 l 9.752,-28.461 c 1.352,-3.943 4.563,-6.944 8.592,-8.028 4.014,-1.083 8.278,-0.103 11.41,2.616 13.643,11.849 21.957,28.992 22.81,47.038 0.195,4.126 -1.665,8.072 -4.974,10.557 -2.201,1.653 -4.842,2.511 -7.517,2.511 z m 0.804,-14.867 0.002,0.001 v -0.001 c -10e-4,0 -10e-4,0 -0.002,0 z"
           fill="#dc4955"
           id="path22" />
      </g>
    </g>
    <g
       id="g38">
      <path
         d="M 437.02,74.98 C 388.667,26.629 324.38,0 256,0 196.157,0 137.938,21.083 92.067,59.365 c -3.18,2.653 -3.606,7.383 -0.953,10.563 2.653,3.18 7.382,3.607 10.564,0.952 C 144.857,34.846 199.664,15 256,15 388.888,15 497,123.112 497,256 497,388.888 388.888,497 256,497 123.112,497 15,388.888 15,256 15,196.15 37.088,138.764 77.195,94.411 79.973,91.339 79.735,86.596 76.662,83.818 73.589,81.039 68.846,81.277 66.069,84.35 23.464,131.466 0,192.426 0,256 0,324.38 26.629,388.668 74.98,437.02 123.333,485.371 187.62,512 256,512 324.38,512 388.667,485.371 437.02,437.02 485.371,388.668 512,324.38 512,256 512,187.62 485.371,123.332 437.02,74.98 Z"
         id="path23" />
      <path
         d="m 446.628,340.779 c 3.84,1.553 8.212,-0.305 9.763,-4.146 C 466.748,310.98 472,283.852 472,256 472,136.897 375.103,40 256,40 136.897,40 40,136.897 40,256 c 0,119.103 96.897,216 216,216 37.473,0 74.417,-9.792 106.838,-28.317 31.428,-17.958 58.094,-43.742 77.115,-74.566 2.175,-3.524 1.081,-8.146 -2.444,-10.321 -3.524,-2.176 -8.146,-1.081 -10.321,2.444 C 390.186,421.201 326.19,457 256,457 145.168,457 55,366.832 55,256 55,145.168 145.168,55 256,55 c 110.832,0 201,90.168 201,201 0,25.918 -4.885,51.157 -14.519,75.018 -1.55,3.84 0.306,8.211 4.147,9.761 z"
         id="path24" />
      <path
         d="m 131.313,368.335 c 14.773,10.207 30.551,15.312 45.688,15.312 14.991,0 29.354,-5.01 41.475,-15.032 3.192,-2.64 3.64,-7.367 1,-10.56 -2.639,-3.191 -7.366,-3.64 -10.559,-1.001 -19.251,15.92 -45.076,15.524 -69.078,-1.061 -34.185,-23.619 -54.711,-71.227 -39.932,-92.617 14.779,-21.39 66.569,-19.034 100.755,4.586 23.453,16.203 33.119,39.726 25.858,62.922 -1.237,3.953 0.964,8.16 4.917,9.397 3.951,1.235 8.16,-0.964 9.398,-4.917 9.327,-29.797 -2.504,-59.607 -31.647,-79.744 -37.451,-25.874 -100.052,-31.987 -121.622,-0.771 -21.568,31.218 6.296,87.61 43.747,113.486 z"
         id="path25" />
      <path
         d="m 190.617,279.86 c -17.238,-11.91 -40.953,-7.576 -52.864,9.664 -11.91,17.238 -7.576,40.953 9.663,52.864 6.578,4.545 14.097,6.724 21.545,6.724 12.071,0 23.953,-5.727 31.319,-16.387 5.77,-8.352 7.942,-18.449 6.117,-28.434 -1.825,-9.984 -7.429,-18.66 -15.78,-24.431 z m -2.678,44.338 c -7.209,10.435 -21.563,13.059 -31.997,5.849 -10.434,-7.208 -13.057,-21.563 -5.848,-31.996 7.208,-10.434 21.562,-13.06 31.997,-5.849 5.055,3.492 8.446,8.743 9.551,14.787 1.104,6.043 -0.211,12.156 -3.703,17.209 z"
         id="path26" />
      <path
         d="m 184.003,181.522 c 3.21,0.492 6.471,-1.206 7.879,-4.197 0.508,-1.068 12.327,-26.401 1.679,-45.875 -10.599,-19.387 -38.513,-23.754 -39.696,-23.931 -3.265,-0.491 -6.463,1.216 -7.879,4.197 -0.508,1.068 -12.327,26.401 -1.679,45.875 10.599,19.388 38.513,23.755 39.696,23.931 z M 157.419,123.7 c 6.955,1.97 18.294,6.374 22.98,14.946 4.391,8.029 2.37,19.384 0.039,26.726 -7.598,-2.168 -18.527,-6.848 -22.971,-14.976 -4.384,-8.018 -2.374,-19.353 -0.048,-26.696 z"
         id="path27" />
      <path
         d="m 435.237,274.63 c 14.941,-16.275 10.092,-44.109 9.878,-45.286 -0.59,-3.247 -3.232,-5.727 -6.51,-6.109 -1.175,-0.14 -28.964,-3.173 -43.975,13.178 -14.942,16.275 -10.092,44.108 -9.878,45.286 2.007,6.488 5.452,6.253 12.969,6.416 9.373,-0.001 26.739,-1.747 37.516,-13.485 z m -11.049,-10.145 c -6.189,6.741 -17.59,8.482 -25.291,8.64 -0.393,-7.892 0.52,-19.745 6.784,-26.568 6.189,-6.742 17.589,-8.483 25.291,-8.641 0.392,7.892 -0.52,19.746 -6.784,26.569 z"
         id="path28" />
      <path
         d="m 222.868,439.938 c 17.375,4.637 43.632,-15.17 43.418,-16.226 2.41,-2.255 3.063,-5.819 1.609,-8.781 -0.521,-1.063 -13.021,-26.065 -34.896,-29.828 -21.775,-3.747 -42.545,15.408 -43.418,16.227 -2.41,2.254 -3.063,5.818 -1.609,8.78 0.522,1.063 13.021,26.066 34.896,29.828 z m 7.589,-40.051 c 0.001,0 0.001,0 0,0 9.02,1.551 16.659,10.191 20.962,16.58 -6.42,4.604 -16.875,10.259 -26.009,8.688 -9.019,-1.551 -16.658,-10.191 -20.961,-16.58 6.42,-4.605 16.879,-10.26 26.008,-8.688 z"
         id="path29" />
      <path
         d="m 366.94,367.142 c 16.642,5.379 35.421,-3.989 40.764,-21.231 5.385,-17.092 -4.14,-35.379 -21.232,-40.765 -17.093,-5.387 -35.378,4.14 -40.764,21.231 -5.385,17.092 4.14,35.379 21.232,40.765 z m -6.925,-36.257 c 2.877,-9.285 12.988,-14.329 21.95,-11.433 9.204,2.9 14.332,12.747 11.433,21.95 -2.9,9.202 -12.746,14.33 -21.95,11.433 -9.204,-2.9 -14.333,-12.747 -11.433,-21.95 z"
         id="path30" />
      <path
         d="m 287.315,341.099 c 13.971,4.736 30.356,-3.775 34.493,-17.965 4.734,-14.006 -3.775,-30.343 -17.965,-34.493 -14.008,-4.731 -30.342,3.774 -34.493,17.965 -4.557,14.462 3.503,29.936 17.965,34.493 z m -3.658,-29.986 c 1.881,-6.45 9.328,-10.319 15.678,-8.166 6.45,1.887 10.318,9.312 8.167,15.679 -1.887,6.45 -9.312,10.318 -15.678,8.166 -6.575,-2.071 -10.238,-9.104 -8.167,-15.679 z"
         id="path31" />
      <path
         d="M 114.5,164 C 99.336,164 87,176.337 87,191.5 87,206.663 99.336,219 114.5,219 129.664,219 142,206.663 142,191.5 142,176.337 129.664,164 114.5,164 Z m 0,40 c -6.893,0 -12.5,-5.607 -12.5,-12.5 0,-6.893 5.607,-12.5 12.5,-12.5 6.893,0 12.5,5.607 12.5,12.5 0,6.893 -5.607,12.5 -12.5,12.5 z"
         id="path32" />
      <path
         d="m 302.267,426.726 c 18.435,5.959 39.236,-4.419 45.154,-23.519 5.965,-18.933 -4.585,-39.188 -23.519,-45.154 -18.931,-5.964 -39.188,4.586 -45.154,23.519 -5.964,18.932 4.586,39.188 23.519,45.154 z m -9.212,-40.647 c 3.453,-11.143 15.586,-17.196 26.34,-13.72 11.044,3.48 17.199,15.296 13.719,26.34 -3.48,11.045 -15.296,17.199 -26.34,13.72 -11.044,-3.48 -17.198,-15.296 -13.719,-26.34 z"
         id="path33" />
      <path
         d="M 243.787,106.743 C 221.044,124.584 208,151.376 208,180.25 c 0,51.487 41.888,93.375 93.375,93.375 51.487,0 93.375,-41.888 93.375,-93.375 0,-51.487 -41.888,-93.375 -93.375,-93.375 -7.984,0 -15.917,1.011 -23.579,3.004 -4.009,1.044 -6.413,5.139 -5.37,9.147 1.043,4.008 5.14,6.41 9.147,5.37 6.429,-1.673 13.091,-2.521 19.802,-2.521 43.216,0 78.375,35.159 78.375,78.375 0,43.216 -35.159,78.375 -78.375,78.375 -43.216,0 -78.375,-35.159 -78.375,-78.375 0,-24.235 10.951,-46.727 30.045,-61.704 3.259,-2.557 3.829,-7.271 1.272,-10.53 -2.557,-3.261 -7.271,-3.828 -10.53,-1.273 z"
         id="path34" />
      <path
         d="m 302.023,201.88 -9.591,27.99 c -1.351,3.943 -0.655,8.284 1.862,11.612 2.368,3.13 6.04,4.948 9.929,4.948 0.226,0 0.454,-0.007 0.681,-0.019 17.803,-0.972 34.732,-9.237 46.446,-22.677 2.726,-3.127 3.711,-7.393 2.635,-11.409 -1.082,-4.035 -4.084,-7.253 -8.034,-8.606 l -28.05,-9.612 c -6.519,-2.234 -13.642,1.251 -15.878,7.773 z m 35.409,14.776 c -7.981,7.872 -18.443,12.978 -29.56,14.428 l 7.531,-21.977 z"
         id="path35" />
      <path
         d="m 280.061,181.141 -28.295,-9.696 c -3.95,-1.355 -8.295,-0.653 -11.625,1.871 -3.314,2.514 -5.152,6.488 -4.916,10.632 1.021,17.928 9.417,34.915 23.034,46.605 2.286,1.963 5.167,3.005 8.109,3.005 1.095,0 2.199,-0.145 3.283,-0.439 4.013,-1.091 7.212,-4.089 8.56,-8.02 l 9.622,-28.081 c 1.083,-3.158 0.871,-6.55 -0.598,-9.549 -1.469,-2.999 -4.017,-5.247 -7.174,-6.328 z m -14.798,35.469 c -8.007,-7.984 -13.211,-18.507 -14.702,-29.723 l 22.272,7.632 z"
         id="path36" />
      <path
         d="m 298.163,114.08 c -18.171,0.903 -35.374,9.348 -47.198,23.169 -2.686,3.141 -3.638,7.399 -2.547,11.394 1.094,4.006 4.091,7.2 8.015,8.544 l 28.492,9.765 c 1.337,0.458 2.699,0.675 4.039,0.675 5.195,0 10.061,-3.267 11.837,-8.448 l 9.784,-28.551 c 0,-10e-4 0,-10e-4 0,-10e-4 1.347,-3.931 0.658,-8.262 -1.843,-11.585 -2.492,-3.313 -6.447,-5.161 -10.579,-4.962 z m -10.742,37.87 -22.51,-7.714 c 8.107,-8.168 18.818,-13.427 30.241,-14.848 z"
         id="path37" />
      <path
         d="m 351.008,189.596 c 1.325,0.454 2.695,0.677 4.057,0.677 2.674,0 5.316,-0.858 7.517,-2.511 3.309,-2.484 5.168,-6.431 4.974,-10.557 -0.853,-18.046 -9.167,-35.189 -22.81,-47.038 -3.131,-2.719 -7.396,-3.699 -11.41,-2.616 -4.029,1.084 -7.241,4.085 -8.592,8.028 l -9.752,28.461 c -2.235,6.52 1.251,13.642 7.772,15.877 z M 337.684,144.09 c 8.03,8.104 13.19,18.754 14.571,30.077 l -22.264,-7.629 z"
         id="path38" />
    </g>
  </g>
</svg>
