<?xml version="1.0" encoding="UTF-8" standalone="no"?>
<!-- icon666.com - MILLIONS vector ICONS FREE -->

<svg
   version="1.1"
   id="Layer_1"
   x="0px"
   y="0px"
   viewBox="0 0 335.99999 335.99999"
   xml:space="preserve"
   sodipodi:docname="uha.svg"
   width="336"
   height="336"
   inkscape:version="1.3.1 (9b9bdc1480, 2023-11-25, custom)"
   xmlns:inkscape="http://www.inkscape.org/namespaces/inkscape"
   xmlns:sodipodi="http://sodipodi.sourceforge.net/DTD/sodipodi-0.dtd"
   xmlns="http://www.w3.org/2000/svg"
   xmlns:svg="http://www.w3.org/2000/svg"><defs
     id="defs47" /><sodipodi:namedview
     id="namedview47"
     pagecolor="#ffffff"
     bordercolor="#000000"
     borderopacity="0.25"
     inkscape:showpageshadow="2"
     inkscape:pageopacity="0.0"
     inkscape:pagecheckerboard="0"
     inkscape:deskcolor="#d1d1d1"
     inkscape:zoom="1.5795163"
     inkscape:cx="225.70201"
     inkscape:cy="255.77451"
     inkscape:window-width="1920"
     inkscape:window-height="1011"
     inkscape:window-x="0"
     inkscape:window-y="32"
     inkscape:window-maximized="1"
     inkscape:current-layer="Layer_1" /><g
     id="g47"
     transform="matrix(0.74442182,0,0,0.65682766,-22.404119,-1.9104705e-4)"><g
       id="g39"><g
         id="g1"><path
           style="fill:#ec2831"
           d="m 461.994,67.306 c -14.7,-27.11 -35.9,-47.64 -45.17,-55.88 -2.81,-2.5 -6.68,-3.43 -10.33,-2.48 l -36.41,9.48 -0.2,0.42 -1.606,2.562 1.867,14.69 56.975,129.571 22.615,-13.733 0.18,0.01 c 22.209,-22.48 27.139,-56.86 12.079,-84.64 z"
           id="path1" /></g><path
         style="fill:#fcb630"
         d="m 449.714,137.506 c -0.14,-3.06 -0.4,-6.08 -0.75,-9.08 v -0.01 c -5.71,-48.63 -36.5,-89.58 -79.08,-109.57 -2.52,-1.19 -5.08,-2.3 -7.68,-3.33 -28.88,-11.48 -61.37,-10.63 -89.66,2.23 -2.34,1.07 -5.027,2.478 -7.157,3.678 l -6.893,119.672 c 4.94,11.12 16.05,27.46 40.74,40.91 -10.64,-0.06 -20.18,-0.44 -27.89,-0.86 -6.54,-0.37 -9.93,7.66 -5.11,12.09 l 50.75,46.72 -8.28,46.69 c -0.88,4.99 3.69,9.24 8.6,7.98 20.64,-5.28 38.12,-12.97 52.78,-21.64 v -0.01 c 48.21,-28.52 66.05,-67.77 66.05,-67.77 7.85,-16.25 12.64,-34.26 13.6,-53.27 0.12,-2.37 0.18,-4.75 0.18,-7.15 0,-2.44 -0.06,-4.87 -0.2,-7.28 z"
         id="path2" /><path
         style="fill:#f58a1f"
         d="m 436.134,205.206 c 2.516,-5.209 4.714,-10.601 6.576,-16.147 C 426.066,164.646 398.151,129.315 362.834,105.706 324.803,80.283 285.372,77.569 262.09,78.66 l -3.596,62.436 c 4.94,11.12 16.05,27.46 40.74,40.91 -10.64,-0.06 -20.18,-0.44 -27.89,-0.86 -6.54,-0.37 -9.93,7.66 -5.11,12.09 l 50.75,46.72 -8.28,46.69 c -0.88,4.99 3.69,9.24 8.6,7.98 20.64,-5.28 38.12,-12.97 52.78,-21.64 v -0.01 c 48.21,-28.52 66.05,-67.77 66.05,-67.77 z"
         id="path3" /><g
         id="XMLID_2_"><g
           id="g5"><g
             id="g4"><path
               style="fill:#6cc8c8"
               d="m 336.954,459.776 v 27.53 c 0,9.25 -7.5,16.74 -16.75,16.74 h -95.65 c -9.25,0 -16.75,-7.49 -16.75,-16.74 v -27.53 z"
               id="path4" /></g></g></g><path
         style="fill:#5aa8a6"
         d="m 272.379,487.306 v -27.53 h -64.575 v 27.53 c 0,9.25 7.5,16.74 16.75,16.74 h 64.575 c -9.25,0 -16.75,-7.49 -16.75,-16.74 z"
         id="path5" /><g
         id="XMLID_6_"><g
           id="g6"><path
             style="fill:#ec2831"
             d="m 219.174,270.036 c -8.74,0 -16.48,5.64 -19.16,13.96 l -10.51,32.63 v 9.848 h 42.417 l -0.127,-9.848 6.53,-20.29 c 4.19,-12.99 -5.5,-26.3 -19.15,-26.3 z"
             id="path6" /></g></g><g
         id="XMLID_1_"><g
           id="g8"><g
             id="g7"><path
               style="fill:#afdfe2"
               d="m 408.074,334.436 v 31.64 c 0,59.78 -48.46,108.23 -108.23,108.23 h -54.93 c -59.77,0 -108.23,-48.45 -108.23,-108.23 v -31.64 z"
               id="path7" /></g></g></g><path
         style="fill:#6cc8c8"
         d="m 238.516,366.076 v -31.64 H 136.684 v 31.64 c 0,59.78 48.46,108.23 108.23,108.23 h 54.93 c 8.054,0 15.899,-0.887 23.451,-2.556 C 274.8,461.036 238.516,417.801 238.516,366.076 Z"
         id="path8" /><g
         id="XMLID_3_"><g
           id="g10"><g
             id="g9"><path
               style="fill:#6cc8c8"
               d="m 405.634,316.626 c 7.68,0 13.9,6.23 13.9,13.91 0,3.84 -1.55,7.31 -4.07,9.83 -2.52,2.52 -5.99,4.07 -9.83,4.07 h -265.9 c -7.68,0 -13.9,-6.22 -13.9,-13.9 0,-3.84 1.55,-7.32 4.07,-9.83 2.52,-2.52 5.99,-4.08 9.83,-4.08 z"
               id="path9" /></g></g></g><path
         style="fill:#5aa8a6"
         d="m 227.361,330.536 c 0,-3.84 1.55,-7.32 4.07,-9.83 2.52,-2.52 5.99,-4.08 9.83,-4.08 H 139.734 c -3.84,0 -7.31,1.56 -9.83,4.08 -2.52,2.51 -4.07,5.99 -4.07,9.83 0,7.68 6.22,13.9 13.9,13.9 h 101.527 c -7.68,0 -13.9,-6.22 -13.9,-13.9 z"
         id="path10" /><g
         id="XMLID_8_"><g
           id="g12"><g
             id="g11"><path
               style="fill:#9cb43b"
               d="m 153.834,70.416 c 18.713,18.713 16.867,52.346 15.335,65.292 -0.376,3.174 -2.869,5.667 -6.043,6.043 -12.946,1.532 -46.579,3.378 -65.292,-15.335 C 79.121,107.703 80.967,74.07 82.499,61.124 c 0.376,-3.174 2.869,-5.667 6.043,-6.043 12.946,-1.532 46.579,-3.378 65.292,15.335 z"
               id="path11" /></g></g></g><path
         style="fill:#33ae4a"
         d="m 135.276,121.268 c -18.713,-18.713 -16.867,-52.346 -15.335,-65.292 0.027,-0.227 0.088,-0.443 0.136,-0.663 -12.753,-1.883 -24.879,-1.02 -31.535,-0.232 -3.174,0.376 -5.667,2.869 -6.043,6.043 -1.532,12.946 -3.378,46.579 15.335,65.292 18.713,18.713 52.346,16.867 65.292,15.335 2.946,-0.349 5.283,-2.531 5.907,-5.38 -12.052,-1.78 -24.665,-6.011 -33.757,-15.103 z"
         id="path12" /><g
         id="XMLID_7_"><g
           id="g14"><g
             id="g13"><circle
               style="fill:#ffc966"
               cx="91.293999"
               cy="223.34599"
               r="53.700001"
               id="circle12" /></g></g></g><path
         style="fill:#fcb630"
         d="m 78.034,223.346 c 0,-22.505 13.846,-41.762 33.48,-49.75 -6.242,-2.54 -13.065,-3.95 -20.22,-3.95 -29.66,0 -53.7,24.04 -53.7,53.7 0,29.66 24.04,53.7 53.7,53.7 7.155,0 13.978,-1.411 20.22,-3.95 -19.634,-7.987 -33.48,-27.245 -33.48,-49.75 z"
         id="path14" /><g
         id="XMLID_322_"><g
           id="g16"><g
             id="g15"><circle
               style="fill:#f48131"
               cx="91.293999"
               cy="223.34599"
               r="24.507"
               id="circle14" /></g></g></g><g
         id="XMLID_12_"><g
           id="g18"><g
             id="g17"><path
               style="fill:#6cc8c8"
               d="m 207.514,152.776 c 7.8,0 14.13,6.32 14.13,14.13 0,7.81 -6.33,14.13 -14.13,14.13 -7.81,0 -14.13,-6.32 -14.13,-14.13 0,-7.81 6.32,-14.13 14.13,-14.13 z"
               id="path16" /></g></g></g><g
         id="XMLID_4_"><g
           id="g25"><g
             id="XMLID_9_"><g
               id="g21"><g
                 id="g20"><g
                   id="g19"><path
                     style="fill:#c29375"
                     d="m 459.824,230.606 c 7.8,0 14.13,6.33 14.13,14.14 0,7.8 -6.33,14.13 -14.13,14.13 -7.81,0 -14.14,-6.33 -14.14,-14.13 0,-7.81 6.33,-14.14 14.14,-14.14 z"
                     id="path18" /></g></g></g><g
               id="g24"><g
                 id="XMLID_11_"><g
                   id="g23"><g
                     id="g22"><path
                       style="fill:#6cc8c8"
                       d="m 459.824,230.606 c 7.8,0 14.13,6.33 14.13,14.14 0,7.8 -6.33,14.13 -14.13,14.13 -7.81,0 -14.14,-6.33 -14.14,-14.13 0,-7.81 6.33,-14.14 14.14,-14.14 z"
                       id="path21" /></g></g></g></g></g></g></g><g
         id="XMLID_5_"><g
           id="g27"><g
             id="g26"><path
               style="fill:#ec2831"
               d="m 404.774,125.386 c -2.24,13.41 -10.09,21.03 -23.57,22.84 -9.84,-8.54 -15.32,-23.68 -18.37,-42.52 16.88,2.76 32.04,7.77 41.94,19.68 z"
               id="path25" /></g></g></g><g
         id="g28"><path
           style="fill:#801c1e"
           d="M 250.414,118.924 304.666,86.531 245.965,34.078 v 6.688 l 13.841,39.784 c 0.644,1.851 0.65,3.864 0.016,5.718 l -9.407,27.548 v 5.108 z"
           id="path27" /></g><g
         id="g30"><g
           id="g29"><path
             style="fill:#ec2831"
             d="m 328.034,79.546 c 3.16,2.97 4.75,7.27 4.27,11.59 -0.49,4.32 -2.97,8.16 -6.72,10.36 l -67.14,39.49 c 0.02,0.04 0.03,0.07 0.05,0.11 l -0.23,0.13 c -2.19,1.29 -4.6,1.9 -6.98,1.9 -4.73,0 -9.33,-2.43 -11.9,-6.8 -3.86,-6.57 -1.67,-15.02 4.89,-18.88 l 6.14,-3.63 0.7,-0.41 44.3,-26.01 -0.11,-0.1 0.41,-0.24 -36.64,-33.93 -13.11,-12.36 c -4.18,-5.27 -3.97,-12.94 0.77,-17.99 5.21,-5.55 13.94,-5.83 19.5,-0.62 z"
             id="path28" /></g></g><g
         id="g32"><g
           id="g31"><path
             style="fill:#ef5232"
             d="m 370.084,272.976 v 0.01 c -14.66,8.67 -32.14,16.36 -52.78,21.64 -4.91,1.26 -9.48,-2.99 -8.6,-7.98 l 8.28,-46.69 -50.75,-46.72 c -4.82,-4.43 -1.43,-12.46 5.11,-12.09 7.71,0.42 17.25,0.8 27.89,0.86 12.04,0.08 25.48,-0.23 39.26,-1.27 0,0 0,0 0.01,0 0.62,0.32 20.95,10.9 30.65,35.88 5.45,14.01 7.54,32.56 0.93,56.36 z"
             id="path30" /></g></g><g
         id="g34"><g
           id="g33"><path
             style="fill:#ef5232"
             d="m 369.154,216.616 0.93,-0.37 c 49.69,-12.74 79.18,-77.72 79.63,-78.74 0.14,2.41 0.2,4.84 0.2,7.28 0,2.4 -0.06,4.78 -0.18,7.15 -0.96,19.01 -5.75,37.02 -13.6,53.27 0,0 -17.84,39.25 -66.05,67.77 6.61,-23.8 4.52,-42.35 -0.93,-56.36 z"
             id="path32" /></g></g><g
         id="g36"><g
           id="g35"><path
             style="fill:#f48131"
             d="m 370.084,216.246 -0.93,0.37 c -9.7,-24.98 -30.03,-35.56 -30.65,-35.88 47.87,-3.63 99.72,-16.15 110.46,-52.31 0.35,3 0.61,6.02 0.75,9.08 -0.45,1.02 -29.94,66 -79.63,78.74 z"
             id="path34" /></g></g><g
         id="XMLID_10_"><g
           id="g38"><g
             id="g37"><circle
               style="fill:#ec2831"
               cx="334.20401"
               cy="40.765999"
               r="15.21"
               id="circle36" /></g></g></g></g><g
       id="g46"><path
         d="m 240.476,110.979 c -10.121,5.954 -13.511,19.031 -7.558,29.151 3.81,6.477 10.848,10.5 18.367,10.5 0,0 0,0 0.001,0 1.164,0 2.322,-0.108 3.464,-0.298 4.016,7.151 10.127,15.366 19.385,23.448 -0.824,-0.042 -1.627,-0.084 -2.38,-0.125 -6.176,-0.345 -11.728,3.118 -14.135,8.818 -2.409,5.701 -1.022,12.094 3.533,16.287 l 47.729,43.931 -7.56,42.645 c -0.863,4.867 0.786,9.78 4.412,13.143 2.718,2.521 6.221,3.87 9.822,3.87 1.201,0 2.413,-0.15 3.609,-0.457 21.216,-5.429 39.143,-13.36 54.073,-22.124 0.493,-0.229 0.965,-0.497 1.398,-0.827 17.752,-10.614 31.163,-22.362 40.692,-32.34 17.678,-18.511 25.872,-34.616 27.382,-37.758 0.16,-0.288 0.299,-0.589 0.421,-0.898 7.955,-16.627 12.61,-34.275 13.9,-52.598 11.008,-11.876 18.025,-26.57 20.327,-42.669 2.426,-16.967 -0.605,-33.892 -8.766,-48.946 C 453.178,35.299 430.74,13.76 421.808,5.819 417.12,1.652 410.691,0.107 404.61,1.691 l -34.551,8.992 c -1.679,-0.741 -3.374,-1.454 -5.085,-2.134 -30.629,-12.175 -65.448,-11.311 -95.529,2.372 -1.362,0.619 -2.674,1.25 -3.932,1.888 -2.914,-1.311 -6.103,-1.973 -9.396,-1.871 -5.686,0.181 -10.96,2.564 -14.852,6.711 -3.893,4.147 -5.937,9.563 -5.756,15.248 0.131,4.121 1.434,8.019 3.727,11.351 l 13.757,39.178 -8.764,25.339 z m 27.91,32.981 61.002,-36.001 c 3.144,-1.85 5.721,-4.478 7.538,-7.562 4.777,1.732 11.757,4.766 19.057,9.669 3.764,20.878 10.416,35.245 20.305,43.828 1.372,1.191 3.121,1.836 4.916,1.836 0.333,0 0.667,-0.022 1.001,-0.067 5.413,-0.729 10.147,-2.275 14.185,-4.58 0.222,0.254 0.439,0.503 0.67,0.767 1.809,2.071 4.611,5.28 7.109,8.254 -30.45,11.877 -72.466,14.403 -103.03,14.367 -17.561,-9.931 -27.341,-21.256 -32.753,-30.511 z m 115.278,-3.823 c -4.849,-5.424 -8.577,-13.622 -11.279,-24.82 10.821,2.769 18.593,6.716 24.227,12.258 -1.953,6.813 -6.082,10.819 -12.948,12.562 z m -16.247,57.358 c -3.051,-4.388 -6.295,-8.102 -9.413,-11.195 4.97,-0.632 9.923,-1.375 14.806,-2.249 19.765,-3.539 36.155,-8.752 49.138,-15.587 -11.88,15.544 -28.434,32.014 -48.664,38.988 -1.846,-3.737 -3.851,-7.057 -5.867,-9.957 z m -51.184,89.662 8.136,-45.894 c 0.447,-2.52 -0.422,-5.094 -2.306,-6.828 L 272.385,188.71 c 7.105,0.375 16.174,0.713 26.433,0.781 0.249,0.014 0.497,0.015 0.745,0.004 11.316,0.06 24.042,-0.213 37.189,-1.13 7.914,4.812 39.86,27.854 26.887,79.653 -13.371,7.631 -29.084,14.375 -47.406,19.139 z m 64.711,-30.359 c 1.635,-13.738 0.392,-25.48 -2.323,-35.311 19.968,-6.98 38.793,-22.055 56.046,-44.911 1.983,-2.627 3.833,-5.216 5.556,-7.731 -2.106,11.424 -5.719,22.494 -10.841,33.094 -0.013,0.026 -0.021,0.054 -0.034,0.08 -0.013,0.027 -0.029,0.052 -0.041,0.08 -0.195,0.429 -13.73,29.342 -48.363,54.699 z M 408.386,16.207 c 1.227,-0.319 2.517,-0.012 3.454,0.822 8.341,7.415 29.282,27.506 43.563,53.851 10.182,18.783 10.279,40.614 1.232,58.918 -0.071,-0.699 -0.132,-1.4 -0.212,-2.098 -0.013,-0.135 -0.033,-0.269 -0.053,-0.403 -2.8,-23.586 -11.25,-46.043 -24.874,-65.75 C 420.234,45.254 405.984,31.574 389.541,21.111 Z m -48.955,6.281 c 24.203,9.62 44.856,26.076 59.727,47.588 11.958,17.299 19.463,36.965 22.137,57.632 -3.694,10.862 -12.011,19.271 -23.158,25.755 -2.565,-3.188 -5.941,-7.085 -9.78,-11.48 -0.383,-0.438 -0.786,-0.9 -1.187,-1.36 2.42,-3.959 4.106,-8.634 5,-14.009 0.358,-2.15 -0.237,-4.35 -1.63,-6.026 -12.045,-14.488 -29.997,-19.444 -44.761,-21.995 -10.345,-7.212 -20.371,-11.22 -26.33,-13.189 -0.871,-4.288 -3.041,-8.28 -6.287,-11.327 l -0.023,-0.022 c -0.002,-0.002 -0.004,-0.004 -0.005,-0.005 L 333.103,74.021 278.906,23.16 c 25.62,-10.63 54.766,-10.911 80.525,-0.672 z m -107.23,5.425 c 1.15,-1.226 2.709,-1.931 4.39,-1.984 0.068,-0.002 0.136,-0.003 0.205,-0.003 1.605,0 3.127,0.602 4.331,1.732 l 61.771,57.358 c 1.438,1.35 2.167,3.326 1.949,5.285 -0.027,0.245 -0.069,0.487 -0.125,0.725 -0.39,1.666 -1.454,3.13 -2.949,4.01 l -0.045,0.026 -67.088,39.463 c -0.279,0.164 -0.537,0.348 -0.787,0.541 -0.81,0.368 -1.67,0.563 -2.568,0.563 0,0 0,0 0,0 -2.261,0 -4.294,-1.161 -5.438,-3.105 -1.76,-2.992 -0.757,-6.857 2.247,-8.624 l 6.252,-3.693 44.867,-26.341 c 0.797,-0.468 1.485,-1.076 2.049,-1.779 1.054,-1.163 1.74,-2.634 1.912,-4.233 0.252,-2.356 -0.624,-4.692 -2.362,-6.302 L 264.346,47.79 251.597,35.768 c -0.673,-0.981 -1.058,-2.132 -1.097,-3.35 -0.054,-1.679 0.55,-3.279 1.701,-4.505 z m 15.809,53.008 -4.754,-13.54 19.652,18.532 -18.733,11.067 3.847,-11.122 c 0.552,-1.601 0.548,-3.34 -0.012,-4.937 z"
         id="path39" /><path
         d="m 334.205,63.471 c 12.521,0 22.708,-10.187 22.708,-22.708 0,-12.521 -10.187,-22.708 -22.708,-22.708 -12.521,0 -22.708,10.187 -22.708,22.708 0,12.521 10.187,22.708 22.708,22.708 z m 0,-30.415 c 4.25,0 7.708,3.458 7.708,7.708 0,4.25 -3.458,7.708 -7.708,7.708 -4.25,0 -7.708,-3.458 -7.708,-7.708 0,-4.25 3.458,-7.708 7.708,-7.708 z"
         id="path40" /><path
         d="M 405.63,309.127 H 242.09 l 3.378,-10.492 c 2.737,-8.501 1.291,-17.517 -3.969,-24.736 -3.122,-4.285 -7.263,-7.474 -11.977,-9.367 -0.004,-0.657 -0.006,-1.405 -0.004,-2.276 0.023,-15.041 -6.064,-29.768 -16.701,-40.404 -2.929,-2.929 -7.678,-2.929 -10.606,0 -2.929,2.929 -2.929,7.678 0,10.606 7.838,7.838 12.324,18.691 12.307,29.774 0,0.246 0,0.47 -0.001,0.706 -10.04,1.698 -18.437,8.808 -21.643,18.762 l -8.831,27.427 h -44.304 c -11.803,0 -21.405,9.603 -21.405,21.405 0,7.965 4.382,14.915 10.854,18.601 v 16.947 c 0,48.033 29.417,89.321 71.18,106.805 -0.035,0.293 -0.058,0.589 -0.058,0.891 v 13.527 c 0,13.37 10.877,24.247 24.247,24.247 h 95.65 c 13.37,0 24.247,-10.877 24.247,-24.247 v -13.527 c 0,-0.295 -0.022,-0.585 -0.055,-0.872 4.566,-1.902 9.015,-4.096 13.312,-6.582 16.982,-9.824 31.3,-23.909 41.406,-40.733 2.133,-3.551 0.983,-8.158 -2.567,-10.291 -3.551,-2.135 -8.158,-0.983 -10.291,2.567 -16.599,27.633 -44.494,45.218 -75.987,48.411 H 234.54 C 183.856,461.065 144.19,418.118 144.19,366.08 v -14.142 h 165.998 c 4.142,0 7.5,-3.358 7.5,-7.5 0,-4.142 -3.358,-7.5 -7.5,-7.5 h -170.45 c -3.532,0 -6.405,-2.874 -6.405,-6.405 0,-3.531 2.874,-6.405 6.405,-6.405 v 0 0 H 405.63 c 3.532,0 6.405,2.874 6.405,6.405 0,3.531 -2.874,6.405 -6.405,6.405 h -65.446 c -4.142,0 -7.5,3.358 -7.5,7.5 0,4.142 3.358,7.5 7.5,7.5 h 60.39 v 14.142 c 0,8.051 -0.96,16.084 -2.854,23.875 -0.978,4.025 1.492,8.081 5.517,9.059 0.595,0.145 1.191,0.214 1.777,0.214 3.38,0 6.449,-2.301 7.282,-5.731 2.175,-8.95 3.277,-18.175 3.277,-27.417 v -16.608 c 6.806,-3.588 11.461,-10.726 11.461,-18.939 0.001,-11.803 -9.601,-21.406 -21.404,-21.406 z m -76.178,172.149 v 6.027 c 0,5.099 -4.148,9.247 -9.247,9.247 h -95.65 c -5.099,0 -9.247,-4.148 -9.247,-9.247 v -6.027 h 114.144 m -129.651,-172.149 7.351,-22.829 c 1.687,-5.238 6.517,-8.757 12.019,-8.757 4.082,0 7.801,1.892 10.205,5.191 2.403,3.299 3.064,7.42 1.813,11.305 l -4.858,15.09 z"
         id="path41" /><path
         d="m 147.821,150.173 c 12.104,0 21.119,-1.65 21.984,-1.815 3.026,-0.575 5.394,-2.942 5.968,-5.968 0.396,-2.081 9.381,-51.257 -16.637,-77.275 C 133.117,39.096 83.941,48.083 81.861,48.479 c -0.003,0 -0.005,0.002 -0.008,0.002 -0.336,0.064 -0.666,0.158 -0.992,0.268 -0.064,0.022 -0.128,0.044 -0.191,0.067 -0.317,0.117 -0.629,0.249 -0.931,0.41 -0.011,0.006 -0.02,0.012 -0.031,0.018 -0.278,0.15 -0.546,0.323 -0.808,0.511 -0.065,0.047 -0.129,0.093 -0.193,0.142 -0.257,0.197 -0.507,0.406 -0.742,0.64 -0.005,0.005 -0.01,0.01 -0.016,0.016 -0.235,0.235 -0.444,0.486 -0.641,0.743 -0.048,0.063 -0.094,0.126 -0.14,0.191 -0.189,0.264 -0.364,0.534 -0.515,0.815 -0.004,0.008 -0.01,0.015 -0.014,0.023 -0.162,0.303 -0.295,0.617 -0.412,0.935 -0.023,0.061 -0.044,0.123 -0.065,0.185 -0.111,0.328 -0.205,0.661 -0.269,0.998 0,0.002 -0.001,0.003 -0.001,0.005 -0.396,2.081 -9.382,51.257 16.637,77.275 15.198,15.196 38.293,18.45 55.292,18.45 z M 89.174,72.365 130.75,113.941 c 1.464,1.464 3.384,2.197 5.303,2.197 1.919,0 3.839,-0.732 5.303,-2.197 2.929,-2.929 2.929,-7.678 0,-10.606 L 99.781,61.76 c 14.512,-0.502 36.036,1.247 48.749,13.961 16.136,16.136 14.614,46.471 13.238,58.632 -12.167,1.376 -42.499,2.896 -58.632,-13.238 C 90.421,108.4 88.672,86.874 89.174,72.365 Z"
         id="path42" /><path
         d="m 152.496,223.346 c 0,-33.746 -27.454,-61.2 -61.2,-61.2 -33.746,0 -61.2,27.454 -61.2,61.2 0,33.746 27.454,61.2 61.2,61.2 33.746,0.001 61.2,-27.454 61.2,-61.2 z m -61.2,46.201 c -25.475,0 -46.2,-20.725 -46.2,-46.2 0,-25.475 20.725,-46.2 46.2,-46.2 25.475,0 46.2,20.725 46.2,46.2 0,25.474 -20.725,46.2 -46.2,46.2 z"
         id="path43" /><path
         d="m 114.956,215.846 c -4.142,0 -7.5,3.358 -7.5,7.5 0,8.911 -7.25,16.16 -16.16,16.16 -8.91,0 -16.16,-7.25 -16.16,-16.16 0,-8.91 7.249,-16.16 16.16,-16.16 4.142,0 7.5,-3.358 7.5,-7.5 0,-4.142 -3.358,-7.5 -7.5,-7.5 -17.182,0 -31.16,13.978 -31.16,31.16 0,17.182 13.978,31.16 31.16,31.16 17.182,0 31.16,-13.979 31.16,-31.16 0,-4.142 -3.358,-7.5 -7.5,-7.5 z"
         id="path44" /><path
         d="m 207.513,188.539 c 11.928,0 21.633,-9.705 21.633,-21.633 0,-11.928 -9.705,-21.632 -21.633,-21.632 -11.928,0 -21.632,9.704 -21.632,21.632 0,11.928 9.704,21.633 21.632,21.633 z m 0,-28.265 c 3.657,0 6.633,2.975 6.633,6.632 0,3.657 -2.976,6.633 -6.633,6.633 -3.657,0 -6.632,-2.976 -6.632,-6.633 0,-3.657 2.975,-6.632 6.632,-6.632 z"
         id="path45" /><path
         d="m 459.82,223.11 c -11.928,0 -21.632,9.705 -21.632,21.633 0,11.928 9.704,21.632 21.632,21.632 11.928,0 21.633,-9.704 21.633,-21.632 0,-11.928 -9.705,-21.633 -21.633,-21.633 z m 0,28.265 c -3.657,0 -6.632,-2.975 -6.632,-6.632 0,-3.657 2.975,-6.633 6.632,-6.633 3.657,0 6.633,2.976 6.633,6.633 0,3.657 -2.976,6.632 -6.633,6.632 z"
         id="path46" /></g></g></svg>
