<?xml version="1.0" encoding="UTF-8" standalone="no"?>
<!-- icon666.com - MILLIONS vector ICONS FREE -->

<svg
   version="1.1"
   id="Capa_1"
   x="0px"
   y="0px"
   viewBox="0 0 336.00002 336.00002"
   xml:space="preserve"
   sodipodi:docname="burrito.svg"
   width="336"
   height="336"
   inkscape:version="1.3.1 (9b9bdc1480, 2023-11-25, custom)"
   xmlns:inkscape="http://www.inkscape.org/namespaces/inkscape"
   xmlns:sodipodi="http://sodipodi.sourceforge.net/DTD/sodipodi-0.dtd"
   xmlns="http://www.w3.org/2000/svg"
   xmlns:svg="http://www.w3.org/2000/svg"><defs
     id="defs24" /><sodipodi:namedview
     id="namedview24"
     pagecolor="#ffffff"
     bordercolor="#000000"
     borderopacity="0.25"
     inkscape:showpageshadow="2"
     inkscape:pageopacity="0.0"
     inkscape:pagecheckerboard="0"
     inkscape:deskcolor="#d1d1d1"
     showgrid="false"
     inkscape:zoom="1.578122"
     inkscape:cx="128.95074"
     inkscape:cy="177.42608"
     inkscape:window-width="1920"
     inkscape:window-height="1011"
     inkscape:window-x="0"
     inkscape:window-y="32"
     inkscape:window-maximized="1"
     inkscape:current-layer="Capa_1" /><path
     style="fill:#eea33e;stroke-width:0.671244"
     d="m 164.8991,41.268201 c 0,0 -60.30569,-0.898405 -83.494447,39.56786 v 97.036219 16.58603 97.03621 c 23.188757,40.46561 83.494447,39.56786 83.494447,39.56786 0,0 60.30623,0.89841 83.49475,-39.56786 V 194.45831 177.87228 80.836061 C 225.20533,40.369796 164.8991,41.268201 164.8991,41.268201 Z"
     id="path1" /><path
     style="fill:#42aa55;stroke-width:0.671244"
     d="m 248.39385,75.838727 c 0,-6.56e-4 0,-6.56e-4 0,0 v -2.198433 h -0.129 c -0.71264,-6.645831 -4.6048,-12.388007 -10.208,-15.809032 1.98586,-3.191337 3.12939,-6.916861 3.12939,-10.899635 0,-11.796071 -10.00392,-21.358271 -22.34472,-21.358271 -4.21772,0 -8.16134,1.118248 -11.52721,3.058776 C 203.6135,15.001189 190.65492,4.9356466 175.23699,4.9356466 c -15.04125,0 -27.73472,9.5812314 -31.78334,22.7048934 -2.90816,-1.32431 -6.16251,-2.06784 -9.59877,-2.06784 -12.34101,0 -22.345,9.5622 -22.345,21.358271 0,0.515155 0.0262,1.024404 0.0631,1.530372 -2.56845,-0.983717 -5.36897,-1.530372 -8.30539,-1.530372 -12.341025,0 -22.344992,9.562856 -22.344992,21.358271 0,1.84734 0,5.350395 0,5.350395 V 120.75436 H 248.3944 V 75.840039 c -4.5e-4,0 -4.5e-4,-6.56e-4 -4.5e-4,-0.0013 z"
     id="path2" /><path
     style="fill:#14802b;stroke-width:0.671244"
     d="m 248.26949,73.642262 c -0.71665,-6.645174 -4.60944,-12.388007 -10.21117,-15.812969 2.23964,-3.597555 3.40823,-7.882859 3.07123,-12.448382 -0.77965,-10.541979 -9.7548,-19.0719 -20.78708,-19.762274 -4.78149,-0.299249 -9.26198,0.843936 -13.02816,3.015463 -3.6994,-13.632911 -16.65998,-23.6964846 -32.07413,-23.6964846 -12.25122,0 -22.94407,6.3557686 -28.677,15.7998436 2.90767,-0.803248 5.98076,-1.231778 9.1574,-1.231778 14.10524,0 26.15619,8.432796 30.93586,20.307616 0.68668,1.705591 2.725,2.468152 4.50482,1.800747 2.93265,-1.099873 6.1659,-1.622903 9.55149,-1.427341 11.0242,0.635905 20.03537,9.104794 20.88587,19.630368 0.29497,3.646774 -0.37559,7.122267 -1.7891,10.218448 -0.62971,1.379435 -0.24394,2.969526 0.96859,3.930274 4.38695,3.475493 7.35548,8.525983 7.9726,14.245191 h 0.1243 V 120.75239 H 248.3944 V 75.842664 c 0,0 0,0 0,-0.0066 v -2.193183 z"
     id="path3" /><ellipse
     style="fill:#e03233;stroke-width:0.671244"
     cx="162.38664"
     cy="92.399818"
     id="circle3"
     rx="26.031879"
     ry="24.882326" /><path
     style="fill:#c31610;stroke-width:0.671244"
     d="m 188.41156,91.968664 c 0.25067,13.741196 -11.19891,25.072636 -25.57491,25.312166 -10.66619,0.17785 -19.94028,-5.79927 -24.12022,-14.50572 3.75755,1.90509 8.06156,2.95115 12.61355,2.87568 14.37617,-0.23953 25.82471,-11.574911 25.57456,-25.312166 -0.0653,-3.545711 -0.901,-6.909642 -2.361,-9.938886 8.10714,4.095648 13.69705,12.178007 13.86802,21.568926 z"
     id="path4" /><ellipse
     style="fill:#e03233;stroke-width:0.671244"
     cx="202.80447"
     cy="67.521431"
     id="circle4"
     rx="22.219305"
     ry="21.238176" /><path
     style="fill:#c31610;stroke-width:0.671244"
     d="m 225.02205,67.149338 c 0.21352,11.729133 -9.55866,21.400927 -21.82887,21.60502 -9.1047,0.151593 -17.02045,-4.950084 -20.58811,-12.381445 3.20777,1.626185 6.88082,2.519339 10.76618,2.454371 12.27129,-0.204094 22.04292,-9.879825 21.82897,-21.605021 -0.0561,-3.025963 -0.76999,-5.897707 -2.0162,-8.483327 6.92124,3.496493 11.69173,10.39498 11.83803,18.410402 z"
     id="path5" /><path
     style="fill:#eea33e;stroke-width:0.671244"
     d="m 81.404653,290.92096 c 60.692967,0 109.895177,-47.02875 109.895177,-105.04245 0,-58.0137 -49.20147,-105.042449 -109.895177,-105.042449 z"
     id="path6" /><path
     style="fill:#df862a;stroke-width:0.671244"
     d="m 191.30038,185.88048 c 0,58.00911 -49.20323,105.03983 -109.899168,105.03983 v -11.25532 c 48.865728,-8.43018 85.797398,-47.21513 85.797398,-93.78451 0,-46.57594 -36.93167,-85.35433 -85.797398,-93.783847 V 80.834748 C 142.09715,80.834092 191.30038,127.86481 191.30038,185.88048 Z"
     id="path7" /><path
     style="fill:#eea33e;stroke-width:0.671244"
     d="m 248.39385,290.92096 c -60.69295,0 -109.89493,-47.02875 -109.89493,-105.04245 0,-58.0137 49.20137,-105.042449 109.89493,-105.042449 z"
     id="path8" /><path
     style="fill:#df862a;stroke-width:0.671244"
     d="M 248.39195,80.834092 V 290.92031 c -8.01292,0 -15.83358,-0.82294 -23.3576,-2.37759 V 83.211681 c 7.52483,-1.553997 15.34546,-2.377589 23.3576,-2.377589 z"
     id="path9" /><path
     d="m 253.48696,71.946516 c -0.93941,-6.063738 -4.02196,-11.532259 -8.72298,-15.590501 1.20243,-2.993807 1.82688,-6.189082 1.82688,-9.425044 0,-14.498503 -12.33984,-26.293918 -27.50767,-26.293918 -2.9041,0 -5.77494,0.437718 -8.50741,1.285592 C 204.56425,8.7747016 190.87956,0 175.47711,0 c -15.03204,0 -28.66863,8.5771707 -34.82965,21.385833 -2.12664,-0.498093 -4.31692,-0.74878 -6.55219,-0.74878 -13.48229,0 -24.7309,9.320045 -27.06456,21.573521 -1.16236,-0.143062 -2.33775,-0.214594 -3.52207,-0.214594 C 88.340319,41.99598 76,53.791395 76,68.289898 v 12.546163 c 0,0.519749 0.0851,1.021123 0.241668,1.491653 v 208.592596 0.57421 c 0,0.82885 0.218331,1.64391 0.634392,2.37103 5.699196,9.94479 13.948263,18.3579 24.51934,25.0057 0.87469,0.54994 1.85989,0.81309 2.83346,0.81309 1.67932,0 3.3264,-0.78224 4.31848,-2.22337 1.56744,-2.27652 0.90696,-5.33792 -1.47543,-6.83548 -6.75649,-4.24921 -12.397309,-9.3102 -16.853815,-15.09504 29.313665,-2.13346 55.589995,-14.81087 74.678475,-34.06521 19.08724,19.25434 45.3622,31.937 74.67562,34.07112 -23.83474,30.86863 -74.05231,30.60153 -74.59218,30.59169 -0.0507,-10e-4 -0.10559,-10e-4 -0.15628,0 -0.11388,-0.005 -11.13402,0.10959 -25.17576,-2.88553 -2.78393,-0.58996 -5.54336,1.08216 -6.16382,3.74194 -0.62132,2.66043 1.13141,5.29855 3.91462,5.89245 13.85089,2.95443 24.82088,3.12309 27.1427,3.12309 0.33133,-6.6e-4 0.40053,-6.6e-4 0.7298,0 2.74881,0 17.1109,-0.23231 34.07836,-4.79521 24.8849,-6.69177 43.40992,-19.60346 53.57358,-37.33858 0.41624,-0.72713 0.63526,-1.54153 0.63526,-2.37103 v -0.57422 -141.018 c 0,-2.72606 -2.31177,-4.93565 -5.16407,-4.93565 -2.8518,0 -5.16357,2.20959 -5.16357,4.93565 v 135.96161 c -55.36129,-2.58103 -99.56778,-46.44207 -99.56778,-99.98671 0,-53.54465 44.2073,-97.405689 99.56778,-99.986715 v 28.805385 c 0,2.72605 2.31177,4.93564 5.16357,4.93564 2.8523,0 5.16407,-2.20959 5.16407,-4.93564 V 87.882203 c 0.0796,-0.03478 0.16152,-0.07022 0.24153,-0.104999 V 73.639637 c -0.004,-0.594561 -0.11111,-1.164841 -0.31304,-1.693121 z M 133.33511,185.87851 c 0,25.68886 9.26434,49.34662 24.76404,68.08646 -18.04189,18.55609 -43.33564,30.58579 -71.531554,31.90025 V 85.891801 c 28.195914,1.314466 53.491054,13.342849 71.533204,31.898939 -15.50051,18.73984 -24.76569,42.39826 -24.76569,68.08777 z m 49.66907,-90.437634 c -6.56357,4.34896 -12.63507,9.329884 -18.11276,14.855504 -6.9122,-6.97264 -14.76769,-13.081007 -23.36829,-18.141997 0.0635,-5.106272 2.12202,-9.920512 5.84962,-13.609943 3.87205,-3.832492 9.07412,-5.994175 14.64738,-6.086707 0.1249,-0.002 0.24924,-0.0033 0.37363,-0.0033 5.43437,0 10.56667,1.979903 14.48606,5.598458 0.6682,0.616218 1.28244,1.271154 1.85086,1.953652 0.65369,1.147779 1.39789,2.250934 2.23237,3.301588 1.43626,2.676182 2.22825,5.649645 2.28467,8.745826 0.0237,1.153029 -0.0668,2.283746 -0.24354,3.3869 z m 27.6651,-13.46163 c -1.36969,0.455437 -2.72996,0.93253 -4.0759,1.435872 -1.12492,0.244781 -2.29191,0.384562 -3.49085,0.40425 -5.41281,0.08334 -10.27308,-2.249621 -13.4649,-5.95152 -0.63368,-1.08281 -1.34804,-2.12559 -2.1249,-3.130963 -1.08558,-2.094746 -1.71566,-4.444116 -1.76122,-6.933924 -0.16428,-8.987982 7.3533,-16.426561 16.75651,-16.584061 0.10083,-0.002 0.20115,-0.0026 0.30151,-0.0026 9.26728,0 16.88729,7.126861 17.04949,16.018375 0.11656,6.379394 -3.63804,11.975227 -9.18974,14.744596 z m 32.80279,-5.971207 c -5.23592,0.211968 -10.38355,0.751405 -15.41774,1.613059 1.42957,-3.246462 2.19836,-6.816455 2.13051,-10.558385 -0.26258,-14.429597 -12.74252,-25.959231 -27.85587,-25.713138 -14.16824,0.235594 -25.6675,10.771011 -26.81132,23.993766 -4.2291,-1.880809 -8.87991,-2.839588 -13.67707,-2.754276 -8.33128,0.138469 -16.10747,3.369837 -21.89578,9.098889 -4.32465,4.280054 -7.15127,9.571387 -8.24449,15.294532 -13.81,-6.445018 -29.16316,-10.316229 -45.372977,-10.971822 v -7.72011 c 0,-9.056232 7.708058,-16.42328 17.181997,-16.42328 2.19975,0 4.34735,0.395718 6.38438,1.175997 1.65186,0.633937 3.52758,0.408843 4.96398,-0.594561 1.43755,-1.002092 2.23331,-2.641401 2.10681,-4.337148 -0.0339,-0.462655 -0.0498,-0.838029 -0.0498,-1.179935 0,-9.056232 7.70791,-16.42328 17.18155,-16.42328 2.58312,0 5.06514,0.534186 7.37841,1.587465 1.36402,0.622124 2.94451,0.639187 4.3244,0.05184 1.38002,-0.588655 2.4208,-1.725934 2.84863,-3.111275 3.48147,-11.284197 14.51455,-19.1650878 26.83016,-19.1650878 12.74675,0 23.88236,8.2241088 27.0804,20.0011488 0.40944,1.507403 1.53981,2.741807 3.04921,3.329806 1.50749,0.587342 3.22019,0.460686 4.61628,-0.344531 2.66601,-1.536934 5.72928,-2.34937 8.86029,-2.34937 9.47375,0 17.18099,7.367048 17.18099,16.42328 0,2.952463 -0.83057,5.849145 -2.40372,8.377015 -1.42415,2.289652 -0.69057,5.248021 1.65865,6.681268 4.45344,2.718182 7.31425,7.147861 7.85122,12.153726 0.0226,0.202125 0.0564,0.400968 0.10224,0.595218 v 1.269185 h -0.004 z"
     id="path10"
     style="stroke-width:0.671244" /><path
     d="m 203.17591,185.87851 c 0,-9.79779 -8.33882,-17.76793 -18.58864,-17.76793 -2.8521,0 -5.16372,2.20959 -5.16372,4.93564 0,2.72606 2.31162,4.93565 5.16372,4.93565 4.55576,0 8.26196,3.54309 8.26196,7.8973 0,4.35421 -3.7062,7.8973 -8.26196,7.8973 -2.8521,0 -5.16372,2.20958 -5.16372,4.93564 0,2.72606 2.31162,4.93565 5.16372,4.93565 10.24982,-0.001 18.58864,-7.97211 18.58864,-17.76925 z"
     id="path11"
     style="stroke-width:0.671244" /><path
     d="m 223.10905,231.47992 c 2.60736,1.1025 5.65667,-0.0243 6.81068,-2.51802 1.153,-2.49309 -0.0263,-5.40749 -2.63414,-6.50999 -9.37452,-3.96309 -20.37264,0.10434 -24.51862,9.06411 -4.145,8.96107 0.10963,19.47418 9.48348,23.43595 0.67898,0.28744 1.38746,0.42328 2.08589,0.42328 1.98117,0 3.87218,-1.09725 4.72484,-2.94065 1.15307,-2.49374 -0.0263,-5.40749 -2.63399,-6.50999 -4.16728,-1.76071 -6.058,-6.43386 -4.21602,-10.41598 1.84351,-3.98211 6.73536,-5.78811 10.89788,-4.02871 z"
     id="path12"
     style="stroke-width:0.671244" /><path
     d="m 109.8889,161.43325 c 0.0493,0 0.0982,-6.6e-4 0.14691,-6.6e-4 8.4564,-0.0774 15.27069,-6.71605 15.18958,-14.79841 -0.0268,-2.7103 -2.33286,-4.88839 -5.16212,-4.88839 -0.0174,0 -0.0333,0 -0.0513,0 -2.85212,0.0263 -5.14105,2.25683 -5.11433,4.98224 0.026,2.64074 -2.19967,4.80899 -4.96176,4.83392 -0.0157,6.6e-4 -0.0322,6.6e-4 -0.048,6.6e-4 -2.74077,-6.6e-4 -4.98377,-2.11903 -5.00986,-4.74337 -0.0267,-2.7103 -2.33297,-4.88839 -5.16231,-4.88839 -0.01638,0 -0.0329,0 -0.05008,0 -2.851993,0.0263 -5.140986,2.25684 -5.114208,4.98224 0.08094,8.03511 6.946678,14.52016 15.336498,14.52016 z"
     id="path13"
     style="stroke-width:0.671244" /><path
     d="m 207.96983,127.59903 c 0,-2.72606 -2.31173,-4.93564 -5.16392,-4.93564 -2.85218,0 -5.16397,2.20958 -5.16397,4.93564 0,9.55367 8.13135,17.32562 18.12615,17.32562 2.85231,0 5.16408,-2.20958 5.16408,-4.93564 0,-2.72606 -2.31177,-4.93565 -5.16408,-4.93565 -4.2996,6.6e-4 -7.79826,-3.34359 -7.79826,-7.45433 z"
     id="path14"
     style="stroke-width:0.671244" /><path
     d="m 109.00665,216.03052 c -0.3632,2.70374 1.63541,5.17649 4.4634,5.52364 0.22383,0.0276 0.44495,0.0413 0.66456,0.0413 2.55887,0 4.78059,-1.81715 5.11523,-4.30761 1.2726,-9.47492 -5.75645,-18.17415 -15.6691,-19.3915 -2.83209,-0.35503 -5.415635,1.56319 -5.779537,4.26562 -0.363173,2.70375 1.63543,5.17715 4.463337,5.52365 4.26499,0.525 7.29001,4.26758 6.74211,8.34486 z"
     id="path15"
     style="stroke-width:0.671244" /><path
     d="m 120.05424,259.46827 c -3.34842,2.57972 -8.26836,2.07572 -10.96724,-1.12481 -1.78987,-2.1223 -5.04075,-2.45502 -7.26044,-0.74418 -2.219669,1.71149 -2.568439,4.81818 -0.77857,6.94048 3.57632,4.23937 8.83061,6.44305 14.12816,6.44305 3.9951,0 8.0149,-1.25212 11.35916,-3.82986 2.22048,-1.71084 2.56912,-4.81818 0.77931,-6.93983 -1.78983,-2.12231 -5.04154,-2.45569 -7.26038,-0.74485 z"
     id="path16"
     style="stroke-width:0.671244" /><ellipse
     cx="180.58786"
     cy="226.99643"
     id="circle16"
     rx="5.2467208"
     ry="5.0150528"
     style="stroke-width:0.671244" /><ellipse
     cx="163.56743"
     cy="174.34561"
     id="circle17"
     rx="5.2474332"
     ry="5.0157089"
     style="stroke-width:0.671244" /><ellipse
     cx="222.71523"
     cy="117.80321"
     id="circle18"
     rx="5.2467208"
     ry="5.0150528"
     style="stroke-width:0.671244" /><ellipse
     cx="222.99666"
     cy="174.34561"
     id="circle19"
     rx="5.2467208"
     ry="5.0150528"
     style="stroke-width:0.671244" /><ellipse
     cx="115.13696"
     cy="187.43776"
     id="circle20"
     rx="5.2467208"
     ry="5.0150528"
     style="stroke-width:0.671244" /><ellipse
     cx="115.13696"
     cy="243.17296"
     id="circle21"
     rx="5.2467208"
     ry="5.0150528"
     style="stroke-width:0.671244" /><ellipse
     cx="131.10669"
     cy="124.36569"
     id="circle22"
     rx="5.2474332"
     ry="5.0157089"
     style="stroke-width:0.671244" /><ellipse
     cx="104.06201"
     cy="103.60855"
     id="circle23"
     rx="5.2467208"
     ry="5.0150528"
     style="stroke-width:0.671244" /><ellipse
     cx="182.17375"
     cy="135.32506"
     id="circle24"
     rx="5.2467208"
     ry="5.0150528"
     style="stroke-width:0.671244" /></svg>
