<?xml version="1.0" encoding="UTF-8" standalone="no"?>
<!-- icon666.com - MILLIONS vector ICONS FREE -->

<svg
   id="Capa_1"
   enable-background="new 0 0 512 512"
   viewBox="0 0 336 336"
   version="1.1"
   sodipodi:docname="carbonara_2u3vxbq4425p.svg"
   width="336"
   height="336"
   inkscape:version="1.3.1 (9b9bdc1480, 2023-11-25, custom)"
   xmlns:inkscape="http://www.inkscape.org/namespaces/inkscape"
   xmlns:sodipodi="http://sodipodi.sourceforge.net/DTD/sodipodi-0.dtd"
   xmlns="http://www.w3.org/2000/svg"
   xmlns:svg="http://www.w3.org/2000/svg">
  <defs
     id="defs27" />
  <sodipodi:namedview
     id="namedview27"
     pagecolor="#ffffff"
     bordercolor="#000000"
     borderopacity="0.25"
     inkscape:showpageshadow="2"
     inkscape:pageopacity="0.0"
     inkscape:pagecheckerboard="0"
     inkscape:deskcolor="#d1d1d1"
     inkscape:zoom="1.578125"
     inkscape:cx="255.68317"
     inkscape:cy="222.41584"
     inkscape:window-width="1920"
     inkscape:window-height="1011"
     inkscape:window-x="0"
     inkscape:window-y="32"
     inkscape:window-maximized="1"
     inkscape:current-layer="Capa_1" />
  <g
     id="g27"
     transform="matrix(0.65625,0,0,0.75613201,0,-25.569472)">
    <g
       id="g25">
      <circle
         cx="347.509"
         cy="198.08099"
         fill="#fff0ab"
         r="137.952"
         id="circle1" />
      <circle
         cx="347.509"
         cy="215.46001"
         fill="#ffe270"
         r="120.573"
         id="circle2" />
      <circle
         cx="347.509"
         cy="233.72099"
         fill="#fff0ab"
         r="102.312"
         id="circle3" />
      <circle
         cx="347.509"
         cy="252.133"
         fill="#ffe270"
         r="83.900002"
         id="circle4" />
      <circle
         cx="347.509"
         cy="269.944"
         fill="#fff0ab"
         r="66.087997"
         id="circle5" />
      <circle
         cx="164.491"
         cy="198.08099"
         fill="#fff0ab"
         r="137.952"
         id="circle6" />
      <circle
         cx="164.491"
         cy="215.46001"
         fill="#ffe270"
         r="120.573"
         id="circle7" />
      <circle
         cx="164.491"
         cy="233.72099"
         fill="#fff0ab"
         r="102.312"
         id="circle8" />
      <circle
         cx="164.491"
         cy="252.133"
         fill="#ffe270"
         r="83.900002"
         id="circle9" />
      <circle
         cx="164.491"
         cy="269.944"
         fill="#fff0ab"
         r="66.087997"
         id="circle10" />
      <path
         d="m 388.85,470.684 h -265.7 c -14.521,0 -26.292,-11.772 -26.292,-26.292 v -43.894 h 318.284 v 43.894 c 0,14.52 -11.772,26.292 -26.292,26.292 z"
         fill="#dbd1d7"
         id="path10" />
      <path
         d="M 379.094,432.837 H 128.906 C 61.855,432.837 7.5,378.482 7.5,311.431 v -72.202 h 493 v 72.202 c 0,67.051 -54.355,121.406 -121.406,121.406 z"
         fill="#f0eef0"
         id="path11" />
      <path
         d="m 469.546,239.229 v 72.202 c 0,67.051 -54.355,121.406 -121.406,121.406 h 34.954 c 67.051,0 121.406,-54.355 121.406,-121.406 v -72.202 z"
         fill="#e7e2e6"
         id="path12" />
      <g
         id="g14">
        <path
           d="m 385.629,111.192 6.51,2.19 9.562,1.644 8.373,-7.365 12.023,-20.213 -5.441,-21.618 -9.078,-4.71 c -9.616,0.979 -19.163,8.2 -24.034,19.312 -4.871,11.112 -3.712,23.026 2.085,30.76 z"
           fill="#ff7383"
           id="path13" />
        <path
           d="m 418.026,62.705 c -3.337,-1.463 -6.898,-1.946 -10.449,-1.585 5.796,7.734 6.955,19.649 2.085,30.76 -4.87,11.111 -14.418,18.333 -24.034,19.312 2.141,2.856 4.908,5.147 8.246,6.61 12.375,5.424 27.813,-2.512 34.482,-17.727 6.67,-15.214 2.045,-31.946 -10.33,-37.37 z"
           fill="#ff546a"
           id="path14" />
      </g>
      <g
         id="g16">
        <path
           d="m 167.52,99.025 5.697,-3.836 7.12,-6.591 -0.755,-11.126 -8.735,-21.836 -20.47,-8.827 -9.26,4.343 c -5.07,8.228 -5.143,20.199 0.715,30.823 5.858,10.624 16.023,16.948 25.688,17.05 z"
           fill="#ff7383"
           id="path15" />
        <path
           d="m 148.729,43.821 c -3.191,1.76 -5.739,4.292 -7.612,7.331 9.665,0.102 19.828,6.427 25.687,17.051 5.859,10.623 5.786,22.594 0.716,30.823 3.569,0.038 7.071,-0.767 10.262,-2.526 11.831,-6.525 14.919,-23.607 6.896,-38.154 -8.022,-14.547 -24.117,-21.05 -35.949,-14.525 z"
           fill="#ff546a"
           id="path16" />
      </g>
      <g
         id="g18">
        <path
           d="m 107.225,206.148 3.457,-4.357 3.879,-6.833 -3.31,-8.402 -12.094,-14.712 -17.963,-1.795 -6.083,5.622 c -1.896,7.594 0.982,16.851 8.108,23.614 7.127,6.763 16.522,9.153 24.006,6.863 z"
           fill="#ff7383"
           id="path17" />
        <path
           d="m 79.19,168.147 c -2.031,2.14 -3.378,4.72 -4.078,7.524 7.484,-2.29 16.879,0.1 24.005,6.863 7.126,6.763 10.004,16.02 8.108,23.614 2.764,-0.846 5.269,-2.325 7.301,-4.465 7.532,-7.936 5.728,-21.877 -4.03,-31.138 -9.758,-9.261 -23.774,-10.335 -31.306,-2.398 z"
           fill="#ff546a"
           id="path18" />
      </g>
      <g
         id="g20">
        <path
           d="m 174.392,181.919 6.251,-2.846 8.107,-5.33 1.086,-11.098 -5.023,-22.976 -18.739,-12.074 -9.848,2.76 c -6.355,7.282 -8.397,19.078 -4.365,30.52 4.031,11.442 13.015,19.353 22.531,21.044 z"
           fill="#ff7383"
           id="path19" />
        <path
           d="m 164.94,124.375 c -3.437,1.211 -6.367,3.29 -8.714,5.979 9.516,1.691 18.5,9.602 22.532,21.044 4.031,11.443 1.99,23.238 -4.365,30.52 3.514,0.624 7.101,0.407 10.538,-0.804 12.744,-4.49 18.599,-20.831 13.079,-36.499 -5.521,-15.667 -20.327,-24.729 -33.07,-20.24 z"
           fill="#ff546a"
           id="path20" />
      </g>
      <g
         fill="#6ce79a"
         id="g24">
        <path
           d="m 242.661,98.896 -4.765,-7.793 c -2.728,-4.462 -1.323,-10.291 3.139,-13.019 l 31.338,-19.162 c 2.613,-1.597 5.837,-1.833 8.654,-0.632 l 10.317,4.398 c 7.08,3.018 7.793,12.775 1.226,16.79 l -36.89,22.557 c -4.462,2.728 -10.29,1.323 -13.019,-3.139 z"
           id="path21" />
        <path
           d="m 264.236,153.943 3.263,-8.532 c 1.868,-4.885 7.343,-7.33 12.227,-5.462 l 34.309,13.122 c 2.86,1.094 5.015,3.504 5.784,6.468 l 2.815,10.856 c 1.932,7.45 -5.36,13.971 -12.549,11.222 l -40.387,-15.446 c -4.885,-1.869 -7.33,-7.343 -5.462,-12.228 z"
           id="path22" />
        <path
           d="m 377.154,189.292 -4.765,-7.793 c -2.728,-4.462 -1.323,-10.291 3.139,-13.019 l 31.338,-19.162 c 2.613,-1.597 5.837,-1.833 8.654,-0.632 l 10.317,4.398 c 7.08,3.018 7.793,12.775 1.226,16.79 l -36.89,22.557 c -4.462,2.728 -10.291,1.323 -13.019,-3.139 z"
           id="path23" />
        <path
           d="m 40.904,103.314 4.308,-8.055 c 2.466,-4.612 8.204,-6.351 12.816,-3.885 l 32.392,17.322 c 2.7,1.444 4.536,4.105 4.927,7.142 l 1.431,11.124 c 0.982,7.634 -7.07,13.188 -13.858,9.559 L 44.79,116.13 c -4.613,-2.466 -6.352,-8.204 -3.886,-12.816 z"
           id="path24" />
      </g>
    </g>
    <g
       id="g26">
      <path
         d="m 504.5,231.729 h -15.453 c 2.6,-10.976 3.914,-22.254 3.914,-33.648 0,-9.503 -0.932,-19.037 -2.769,-28.335 -0.802,-4.062 -4.745,-6.705 -8.811,-5.904 -4.063,0.803 -6.707,4.748 -5.904,8.812 1.647,8.343 2.483,16.898 2.483,25.428 0,8.975 -0.908,17.866 -2.705,26.562 0.217,-3.054 0.326,-6.119 0.326,-9.182 0,-39.167 -17.908,-75.992 -48.322,-100.218 3.199,-3.422 5.93,-7.51 7.966,-12.156 0.163,-0.372 0.32,-0.745 0.472,-1.12 13.396,12.314 24.187,27.398 31.435,44.018 1.23,2.821 3.986,4.504 6.879,4.504 1.001,0 2.019,-0.202 2.994,-0.627 3.797,-1.656 5.532,-6.076 3.877,-9.873 -9.221,-21.142 -23.579,-40.051 -41.521,-54.685 -0.15,-0.122 -0.302,-0.237 -0.458,-0.346 -0.071,-3.149 -0.516,-6.252 -1.342,-9.237 -2.564,-9.276 -8.434,-16.338 -16.525,-19.885 -9.591,-4.204 -20.507,-2.493 -29.533,3.568 -14.183,-4.497 -28.973,-6.776 -43.995,-6.776 -16.099,0 -31.879,2.606 -46.96,7.75 -1.67,-1.954 -3.795,-3.537 -6.262,-4.59 L 283.97,51.392 c -5.037,-2.148 -10.836,-1.724 -15.508,1.132 l -31.338,19.162 c -0.097,0.06 -0.194,0.12 -0.29,0.182 -14.117,-8.115 -29.354,-13.738 -45.368,-16.74 -0.073,-0.135 -0.146,-0.269 -0.22,-0.404 -10.006,-18.144 -30.703,-25.98 -46.138,-17.47 -7.179,3.959 -12.176,10.759 -14.227,19.286 -5.258,1.246 -10.476,2.795 -15.552,4.618 -3.898,1.399 -5.924,5.695 -4.524,9.593 1.099,3.061 3.983,4.967 7.059,4.967 0.841,0 1.697,-0.143 2.534,-0.443 3.303,-1.186 6.674,-2.243 10.077,-3.16 0.809,4.613 2.42,9.183 4.791,13.483 0.875,1.586 1.832,3.094 2.859,4.519 -13.946,2.932 -27.358,8.19 -39.594,15.545 -1.293,-1.43 -2.835,-2.647 -4.575,-3.578 l -10.959,-5.86 c 4.062,-3.253 8.319,-6.267 12.721,-9.005 3.518,-2.187 4.596,-6.812 2.409,-10.329 -2.187,-3.519 -6.81,-4.596 -10.329,-2.409 -6.702,4.167 -13.101,8.909 -19.057,14.12 L 61.563,84.762 C 57.566,82.624 52.975,82.171 48.638,83.486 44.3,84.801 40.734,87.727 38.596,91.724 l -4.308,8.055 c -4.249,7.947 -1.508,17.798 6.073,22.455 -13.968,22.802 -21.324,48.904 -21.324,75.847 0,11.387 1.315,22.672 3.914,33.648 H 7.5 c -4.142,0 -7.5,3.358 -7.5,7.5 v 72.202 c 0,29.02 9.42,56.426 27.242,79.257 2.548,3.264 7.261,3.844 10.527,1.297 3.265,-2.549 3.846,-7.262 1.297,-10.527 C 23.322,361.289 15,337.074 15,311.431 v -64.702 h 464.058 c 0.054,10e-4 0.109,0.002 0.163,0.002 0.055,0 0.109,-0.001 0.164,-0.002 H 497 v 64.702 c 0,62.808 -51.098,113.905 -113.905,113.905 h -254.19 c -25.586,0 -49.758,-8.289 -69.904,-23.972 -3.268,-2.545 -7.98,-1.957 -10.525,1.311 -2.544,3.269 -1.958,7.981 1.311,10.525 12.062,9.39 25.398,16.438 39.57,20.995 v 10.195 c 0,18.634 15.159,33.793 33.792,33.793 h 265.699 c 18.634,0 33.793,-15.159 33.793,-33.793 V 434.131 C 474.434,417.399 512,368.72 512,311.431 v -72.202 c 0,-4.142 -3.358,-7.5 -7.5,-7.5 z M 460.582,215.46 c 0,5.45 -0.39,10.904 -1.162,16.269 h -2.118 c -0.392,-22.365 -7.388,-43.581 -20.329,-61.699 1.569,-2.828 2.32,-6.101 2.075,-9.47 -0.465,-6.364 -4.399,-11.872 -10.27,-14.375 l -10.317,-4.398 c -3.756,-1.602 -7.937,-1.773 -11.758,-0.571 -17.666,-11.328 -38.089,-17.306 -59.195,-17.306 -17.858,0 -35.489,4.361 -51.184,12.637 -2.703,-5.791 -5.768,-11.369 -9.185,-16.717 18.045,-11.434 38.768,-17.442 60.368,-17.442 9.168,0 18.264,1.097 27.08,3.263 2.683,8.851 8.436,15.586 16.275,19.022 3.585,1.571 7.354,2.316 11.143,2.316 4.211,0 8.443,-0.921 12.465,-2.649 28.942,21.299 46.112,55.088 46.112,91.12 z m -23.962,16.269 c -3.802,-16.638 -12.251,-31.92 -24.305,-44.046 l 13.103,-8.012 c 10.696,15.357 16.499,33.23 16.881,52.058 z m -26.212,0 c -13.323,-21.897 -37.141,-35.373 -62.9,-35.373 -13.471,0 -26.489,3.644 -37.824,10.449 0.172,-2.9 0.259,-5.809 0.259,-8.725 0,-2.918 -0.088,-5.845 -0.261,-8.764 1.261,0.291 2.538,0.435 3.808,0.435 4.094,0 8.115,-1.49 11.289,-4.329 2.341,-2.093 4.004,-4.726 4.899,-7.596 11.037,-2.627 22.732,-2.764 33.834,-0.411 0.137,2.8 0.975,5.538 2.479,7.997 l 4.765,7.793 c 3.196,5.227 8.786,8.113 14.506,8.113 3.016,0 6.068,-0.803 8.824,-2.488 l 5.002,-3.058 c 10.609,9.716 18.257,22.208 22.066,35.958 h -10.746 z m -136.124,0 c -0.409,-23.295 -8,-45.385 -22.016,-64 -13.655,-18.136 -32.962,-31.831 -54.485,-38.679 -2.776,-3.395 -6.043,-6.281 -9.685,-8.51 -8.208,-5.023 -17.317,-6.174 -25.651,-3.238 -4.343,1.53 -8.154,4.057 -11.268,7.408 -24.146,2.923 -46.813,13.941 -64.121,31.148 -5.052,0.952 -9.694,3.317 -13.31,7.126 -5.055,5.326 -7.184,12.507 -6.564,19.87 -0.131,0.203 -0.253,0.414 -0.366,0.633 -7.64,14.825 -11.814,31.463 -12.121,48.242 H 52.58 c -0.772,-5.365 -1.162,-10.82 -1.162,-16.269 0,-26.824 9.461,-52.602 26.714,-72.994 l 1.25,0.669 c 2.522,1.349 5.271,2.016 8.01,2.016 3.373,0 6.729,-1.012 9.628,-3.011 5.252,-3.623 8.01,-9.805 7.195,-16.134 l -0.741,-5.758 c 14.926,-9.58 32.004,-15.532 49.654,-17.296 4.722,2.32 9.758,3.554 14.72,3.554 4.38,0 8.703,-0.963 12.7,-2.987 31.072,4.415 58.835,21.582 76.809,47.414 l -0.127,0.331 c -1.619,4.234 -1.493,8.844 0.356,12.983 1.849,4.139 5.198,7.31 9.432,8.929 l 2.804,1.072 c 5.139,13.113 7.742,26.964 7.742,41.212 0,5.45 -0.39,10.904 -1.161,16.269 z m -20.681,0 c -6.104,-26.782 -23.914,-49.301 -48.467,-61.485 2.611,-6.868 3.051,-14.319 1.742,-21.401 31.319,15.514 51.675,47.041 52.404,82.886 z m -26.213,0 c -13.316,-21.872 -37.225,-35.373 -62.898,-35.373 -25.674,0 -49.582,13.501 -62.898,35.373 H 90.84 c 1.676,-6.083 4.101,-11.909 7.251,-17.416 8.692,0.963 16.627,-1.937 21.875,-7.467 5.306,-5.591 7.39,-13.225 6.452,-20.967 8.037,-4.637 16.72,-7.717 25.881,-9.18 2.729,3.283 5.923,6.08 9.472,8.252 5.231,3.202 10.828,4.83 16.357,4.83 3.146,0 6.271,-0.527 9.293,-1.592 3.424,-1.206 6.517,-3.033 9.199,-5.394 20.432,9.471 35.572,27.372 41.518,48.934 z m -18.494,0 h -88.81 c 11.024,-12.773 27.219,-20.373 44.405,-20.373 17.186,0 33.38,7.6 44.405,20.373 z m -139.196,0 c 0.209,-10.384 2.056,-20.436 5.508,-30.026 0.88,1.045 1.83,2.054 2.849,3.022 1.785,1.694 3.706,3.189 5.726,4.468 -3.802,7.118 -6.615,14.659 -8.406,22.536 z m 121.236,-84.621 c 2.099,5.957 2.213,12.143 0.322,17.419 -1.694,4.728 -4.827,8.107 -8.82,9.514 -3.994,1.405 -8.552,0.738 -12.836,-1.884 -4.78,-2.926 -8.569,-7.818 -10.667,-13.775 -2.098,-5.957 -2.213,-12.144 -0.322,-17.419 1.694,-4.728 4.827,-8.106 8.82,-9.514 4.318,-1.521 8.917,-0.514 12.836,1.884 4.779,2.926 8.568,7.818 10.667,13.775 z m -46.313,15.786 c -8.212,1.812 -16.073,4.741 -23.493,8.756 -1.518,-2.322 -3.344,-4.527 -5.472,-6.546 -2.815,-2.671 -5.925,-4.799 -9.175,-6.375 10.785,-8.339 23.265,-14.279 36.513,-17.366 -1.345,6.935 -0.8,14.391 1.627,21.531 z M 84.629,173.31 c 1.898,-2 4.629,-2.964 7.649,-2.964 4.291,0 9.164,1.947 13.054,5.639 6.628,6.291 8.347,15.695 3.753,20.535 -2.06,2.17 -5.192,3.212 -8.806,2.935 -4.139,-0.317 -8.475,-2.362 -11.897,-5.61 -6.628,-6.291 -8.346,-15.695 -3.753,-20.535 z m 338.522,-9.834 -36.89,22.556 c -0.929,0.566 -2.143,0.272 -2.709,-0.653 l -4.765,-7.793 c -0.352,-0.575 -0.321,-1.127 -0.234,-1.489 0.088,-0.362 0.312,-0.867 0.888,-1.219 l 31.339,-19.162 c 0.543,-0.332 1.213,-0.381 1.799,-0.131 l 10.317,4.398 c 0.913,0.39 1.152,1.123 1.192,1.668 0.039,0.547 -0.09,1.307 -0.937,1.825 z m -51.534,-1.395 c -0.678,0.415 -1.321,0.872 -1.926,1.367 -13.446,-3.343 -27.727,-3.579 -41.294,-0.707 l -1.319,-5.084 c -1.374,-5.302 -5.249,-9.635 -10.363,-11.59 l -2.738,-1.047 c 10.658,-4.02 22.038,-6.11 33.531,-6.11 15.528,0 30.623,3.745 44.18,10.899 z m -60.26,-2.004 c 0.593,0.227 1.042,0.729 1.202,1.345 l 2.815,10.856 c 0.249,0.96 -0.186,1.598 -0.594,1.963 -0.408,0.365 -1.09,0.727 -2.016,0.371 l -40.389,-15.447 c -0.629,-0.241 -0.942,-0.696 -1.094,-1.036 -0.152,-0.34 -0.282,-0.877 -0.042,-1.506 l 3.264,-8.532 c 0.241,-0.63 0.697,-0.943 1.037,-1.095 0.338,-0.15 0.877,-0.282 1.506,-0.042 z m -17.214,23.473 c 0.531,4.806 0.8,9.681 0.8,14.531 0,8.967 -0.908,17.864 -2.705,26.561 0.217,-3.054 0.326,-6.118 0.326,-9.181 0,-11.712 -1.556,-23.19 -4.637,-34.288 z m 12.799,44.056 c 2.014,-1.515 15.94,-16.25 40.566,-16.25 17.246,0 33.401,7.589 44.414,20.373 h -85.894 c 0.325,-1.37 0.63,-2.744 0.914,-4.123 z M 415.015,69.574 c 3.878,1.7 6.751,5.302 8.089,10.143 1.493,5.402 0.919,11.562 -1.616,17.347 -4.998,11.402 -16.034,17.625 -24.603,13.869 -3.878,-1.7 -6.751,-5.302 -8.089,-10.143 -1.493,-5.402 -0.919,-11.562 1.616,-17.347 4.011,-9.15 11.909,-14.964 19.301,-14.964 1.82,0.001 3.61,0.353 5.302,1.095 z m -35.279,2.065 c -1.141,1.814 -2.169,3.745 -3.062,5.783 -1.788,4.078 -2.932,8.321 -3.418,12.557 -8.437,-1.721 -17.066,-2.591 -25.748,-2.591 -24.752,0 -48.49,6.969 -69.103,20.222 -1.911,-2.399 -3.901,-4.742 -5.97,-7.028 l 24.048,-14.704 c 4.04,-2.47 6.784,-6.423 7.742,-10.898 13.871,-4.878 28.422,-7.351 43.283,-7.351 10.944,-0.001 21.747,1.346 32.228,4.01 z M 244.948,84.482 276.285,65.321 c 0.543,-0.333 1.217,-0.381 1.801,-0.131 l 10.316,4.397 c 1.484,0.633 1.632,2.65 0.256,3.493 l -31.867,19.484 c -0.105,0.061 -0.209,0.124 -0.311,0.19 l -4.712,2.881 c -0.927,0.568 -2.142,0.273 -2.708,-0.653 l -4.765,-7.793 c -0.566,-0.925 -0.274,-2.14 0.653,-2.707 z m -15.873,0.228 c -0.304,3.487 0.461,7.097 2.423,10.305 l 4.765,7.793 c 3.196,5.227 8.786,8.113 14.506,8.113 2.939,0 5.914,-0.763 8.614,-2.362 3.957,4.187 7.611,8.599 10.953,13.224 0.099,0.159 0.204,0.316 0.315,0.47 0.092,0.126 0.186,0.249 0.284,0.367 2.119,2.982 4.11,6.052 5.969,9.205 -2.542,-0.086 -5.091,0.407 -7.481,1.475 -1.62,0.724 -3.092,1.677 -4.38,2.824 -18.134,-22.984 -43.49,-39.03 -71.916,-45.522 2.762,-5.619 3.923,-12.23 3.323,-19.034 11.423,2.871 22.352,7.272 32.625,13.142 z M 145.216,61.224 c 0.894,-4.942 3.427,-8.791 7.135,-10.835 2.007,-1.106 4.214,-1.63 6.494,-1.63 7.025,0 14.726,4.979 19.266,13.209 6.011,10.902 4.239,23.447 -3.951,27.964 -8.191,4.516 -19.747,-0.676 -25.759,-11.579 -3.051,-5.531 -4.181,-11.614 -3.185,-17.129 z m -97.698,45.627 4.308,-8.055 c 0.318,-0.594 0.809,-0.848 1.165,-0.956 0.358,-0.108 0.907,-0.17 1.5,0.148 l 32.391,17.321 c 0.561,0.3 0.944,0.855 1.025,1.486 l 1.431,11.124 c 0.126,0.984 -0.385,1.562 -0.835,1.873 -0.45,0.311 -1.17,0.584 -2.047,0.115 L 48.327,109.516 c -0.959,-0.512 -1.321,-1.707 -0.809,-2.665 z m 6.081,22.496 11.041,5.904 c -18.249,22.693 -28.222,50.9 -28.222,80.209 0,3.062 0.109,6.127 0.326,9.181 -1.797,-8.696 -2.705,-17.591 -2.705,-26.56 0,-24.45 6.75,-48.122 19.56,-68.734 z m 354.043,315.044 c 0,10.362 -8.431,18.793 -18.793,18.793 H 123.15 c -10.362,0 -18.792,-8.431 -18.792,-18.793 v -6.365 c 8.003,1.532 16.209,2.31 24.547,2.31 h 254.189 c 8.392,0 16.599,-0.806 24.548,-2.345 z"
         id="path25" />
      <path
         d="m 334.793,281.748 c 4.143,0 7.5,-3.357 7.5,-7.5 0,-4.143 -3.357,-7.5 -7.5,-7.5 H 177.207 c -4.142,0 -7.5,3.357 -7.5,7.5 0,4.143 3.358,7.5 7.5,7.5 z"
         id="path26" />
    </g>
  </g>
</svg>
