<?xml version="1.0" encoding="UTF-8" standalone="no"?>
<!-- icon666.com - MILLIONS vector ICONS FREE -->

<svg
   id="Icons"
   viewBox="0 0 336 336"
   version="1.1"
   sodipodi:docname="chili_con_carne_w2yz0egs7wv5.svg"
   width="336"
   height="336"
   inkscape:version="1.3.1 (9b9bdc1480, 2023-11-25, custom)"
   xmlns:inkscape="http://www.inkscape.org/namespaces/inkscape"
   xmlns:sodipodi="http://sodipodi.sourceforge.net/DTD/sodipodi-0.dtd"
   xmlns="http://www.w3.org/2000/svg"
   xmlns:svg="http://www.w3.org/2000/svg">
  <defs
     id="defs22" />
  <sodipodi:namedview
     id="namedview22"
     pagecolor="#ffffff"
     bordercolor="#000000"
     borderopacity="0.25"
     inkscape:showpageshadow="2"
     inkscape:pageopacity="0.0"
     inkscape:pagecheckerboard="0"
     inkscape:deskcolor="#d1d1d1"
     inkscape:zoom="13.466667"
     inkscape:cx="29.962871"
     inkscape:cy="49.009901"
     inkscape:window-width="1920"
     inkscape:window-height="1011"
     inkscape:window-x="0"
     inkscape:window-y="32"
     inkscape:window-maximized="1"
     inkscape:current-layer="Icons" />
  <circle
     cx="168"
     cy="168"
     fill="#ffdf00"
     id="circle1"
     style="stroke-width:5.6"
     r="162.39999" />
  <path
     d="m 168,5.6 q -4.228,0 -8.4,0.2128 a 162.4,162.4 0 0 1 0,324.3744 Q 163.7776,330.4 168,330.4 A 162.4,162.4 0 0 0 168,5.6 Z"
     fill="#fec108"
     id="path1"
     style="stroke-width:5.6" />
  <circle
     cx="168"
     cy="168"
     fill="#f44335"
     id="circle2"
     style="stroke-width:5.6"
     r="134.39999" />
  <path
     d="m 168,33.6 c -2.8,0 -5.6,0.1176 -8.4,0.2856 a 134.4,134.4 0 0 1 0,268.24 c 2.8,0.168 5.6,0.2856 8.4,0.2856 A 134.4056,134.4056 0 0 0 168,33.6 Z"
     fill="#c81e1e"
     id="path2"
     style="stroke-width:5.6" />
  <g
     fill="#ff5722"
     id="g6"
     transform="scale(5.6)">
    <path
       d="m 16,26 a 3,3 0 0 1 -2.847,-3.95 10.421,10.421 0 0 1 4.376,-5.666 3,3 0 0 1 2.992,5.2 4.591,4.591 0 0 0 -1.675,2.363 A 3,3 0 0 1 16,26 Z"
       id="path3" />
    <path
       d="m 25,43 a 3,3 0 0 1 -3.95,2.846 10.421,10.421 0 0 1 -5.666,-4.375 3,3 0 0 1 5.2,-2.993 4.607,4.607 0 0 0 2.364,1.676 A 3,3 0 0 1 25,43 Z"
       id="path4" />
    <path
       d="m 39,38 a 3,3 0 0 1 2.847,3.95 10.421,10.421 0 0 1 -4.376,5.666 3,3 0 0 1 -2.992,-5.2 4.591,4.591 0 0 0 1.675,-2.363 A 3,3 0 0 1 39,38 Z"
       id="path5" />
    <path
       d="m 21.01,30.448 a 3,3 0 0 1 4.165,-2.521 10.42,10.42 0 0 1 5.3,4.816 3.0001722,3.0001722 0 0 1 -5.424,2.566 4.6,4.6 0 0 0 -2.221,-1.86 3,3 0 0 1 -1.82,-3.001 z"
       id="path6" />
  </g>
  <path
     d="M 257.6,106.4 C 240.8,89.6 224,95.2 207.2,78.4 190.4,61.6 162.4,67.2 162.4,95.2 c 0,28 16.8,28 16.8,50.4 0,22.4 16.8,28 39.2,33.6 22.4,5.6 50.4,16.8 56,-5.6 5.6,-22.4 -5.6,-56 -16.8,-67.2 z"
     fill="#f5f5f5"
     id="path7"
     style="stroke-width:5.6" />
  <path
     d="M 257.6,106.4 C 240.8,89.6 224,95.2 207.2,78.4 A 28.8624,28.8624 0 0 0 177.4696,70.4088 32.48,32.48 0 0 1 190.4,78.4 c 16.8,16.8 33.6,11.2 50.4,28 11.2,11.2 22.4,44.8 16.8,67.2 a 15.7304,15.7304 0 0 1 -11.4688,12.4656 C 259.5824,188.356 271.04,187.04 274.4,173.6 c 5.6,-22.4 -5.6,-56 -16.8,-67.2 z"
     fill="#cfd8dc"
     id="path8"
     style="stroke-width:5.6" />
  <path
     d="M 168,0 A 168,168 0 1 0 336,168 168.1904,168.1904 0 0 0 168,0 Z m 0,324.8 A 156.8,156.8 0 1 1 324.8,168 156.9792,156.9792 0 0 1 168,324.8 Z"
     id="path9"
     style="stroke-width:5.6" />
  <path
     d="M 168,28 A 140,140 0 1 0 308,168 140.1568,140.1568 0 0 0 168,28 Z m 0,268.8 A 128.8,128.8 0 1 1 296.8,168 128.9456,128.9456 0 0 1 168,296.8 Z"
     id="path10"
     style="stroke-width:5.6" />
  <path
     d="m 89.6,151.2 a 22.4,22.4 0 0 0 21.2464,-15.3216 20.5016,20.5016 0 0 1 6.916,-10.1808 22.5176,22.5176 0 0 0 8.1592,-30.2848 22.4,22.4 0 0 0 -30.5032,-8.54 A 64.232,64.232 0 0 0 68.348,121.7104 22.4,22.4 0 0 0 89.6,151.2 Z M 79.576,133.84 a 11.1552,11.1552 0 0 1 -0.6048,-8.5512 52.4104,52.4104 0 0 1 21.9408,-28.6272 11.2,11.2 0 0 1 15.2488,4.2784 11.312,11.312 0 0 1 -4.2784,15.26 31.1472,31.1472 0 0 0 -11.6424,16.1448 11.34,11.34 0 0 1 -14.168,7.084 11.1384,11.1384 0 0 1 -6.496,-5.5888 z"
     id="path11"
     style="stroke-width:5.6" />
  <path
     d="m 130.2784,219.52 a 20.5464,20.5464 0 0 1 -10.1808,-6.9104 22.5176,22.5176 0 0 0 -30.2848,-8.1592 22.4,22.4 0 0 0 -8.54,30.5032 64.26,64.26 0 0 0 34.8376,27.0704 22.401575,22.401575 0 1 0 14.168,-42.504 z m 3.5392,24.7912 A 11.2,11.2 0 0 1 119.6552,251.44 52.4104,52.4104 0 0 1 91.028,229.5048 11.1664,11.1664 0 0 1 100.7104,212.8 a 11.4464,11.4464 0 0 1 9.856,5.6896 31.1416,31.1416 0 0 0 16.1672,11.6704 11.1664,11.1664 0 0 1 7.1064,14.1736 z"
     id="path12"
     style="stroke-width:5.6" />
  <path
     d="m 225.4896,208.32 a 22.4,22.4 0 0 0 -28.336,14.168 20.5016,20.5016 0 0 1 -6.916,10.1808 22.5176,22.5176 0 0 0 -8.1592,30.2848 22.3608,22.3608 0 0 0 30.5032,8.54 64.232,64.232 0 0 0 27.0984,-34.8152 22.4,22.4 0 0 0 -14.1624,-28.336 z m 3.5392,24.7912 a 52.4104,52.4104 0 0 1 -21.9408,28.6272 11.2,11.2 0 0 1 -15.2488,-4.2784 11.312,11.312 0 0 1 4.2784,-15.26 31.1472,31.1472 0 0 0 11.6424,-16.1448 11.213186,11.213186 0 1 1 21.28,7.0784 z"
     id="path13"
     style="stroke-width:5.6" />
  <path
     d="m 143.1696,151.2392 a 22.4,22.4 0 1 0 -17.528,41.2272 20.4904,20.4904 0 0 1 9.5872,7.7112 22.5176,22.5176 0 0 0 20.2552,12.6 22.4,22.4 0 0 0 20.244,-31.752 64.2376,64.2376 0 0 0 -32.5584,-29.7864 z m 22.7248,43.0304 a 11.116,11.116 0 0 1 -5.824,6.2944 11.3176,11.3176 0 0 1 -14.8736,-5.4936 31.2256,31.2256 0 0 0 -15.176,-12.9136 11.2,11.2 0 0 1 -6.7872,-11.2 10.9312,10.9312 0 0 1 0.8624,-3.4832 11.2,11.2 0 0 1 14.6888,-5.9192 53.2,53.2 0 0 1 26.768,24.164 11.0936,11.0936 0 0 1 0.3416,8.5512 z"
     id="path14"
     style="stroke-width:5.6" />
  <path
     d="M 211.1592,74.4408 A 34.0536,34.0536 0 0 0 174.3728,65.52 C 163.2064,70.168 156.8,80.976 156.8,95.2 a 49.3752,49.3752 0 0 0 10.08,31.4664 29.7696,29.7696 0 0 1 6.72,18.9336 c 0,28.1736 24.08,34.1936 43.4392,39.032 2.856,0.7112 5.796,1.5176 8.7696,2.3296 a 120.5064,120.5064 0 0 0 29.792,5.6448 27.6192,27.6192 0 0 0 14.1736,-3.36 21.84,21.84 0 0 0 10.08,-14.2968 c 5.8464,-23.3744 -5.1632,-59.4104 -18.2728,-72.52 A 63.0056,63.0056 0 0 0 234.192,87.0744 52.1696,52.1696 0 0 1 211.1592,74.4408 Z m 57.8088,97.7984 a 10.5672,10.5672 0 0 1 -4.8496,7.3528 c -7.28,4.2448 -22.1872,0.168 -35.3528,-3.4328 -3.0576,-0.8344 -6.0816,-1.68 -9.0048,-2.3912 C 195.104,167.6024 184.8,162.3272 184.8,145.6 A 40.7512,40.7512 0 0 0 176.1536,120.4 38.8304,38.8304 0 0 1 168,95.2 a 19.1072,19.1072 0 0 1 10.64,-19.3144 18.2168,18.2168 0 0 1 6.9496,-1.3384 25.536,25.536 0 0 1 17.6344,7.84 63.0056,63.0056 0 0 0 27.3896,15.3552 52.1696,52.1696 0 0 1 23.0104,12.6448 c 9.744,9.6992 20.4848,41.2944 15.344,61.852 z"
     id="path15"
     style="stroke-width:5.6" />
  <path
     d="m 190.4,95.2 a 9.52,9.52 0 0 1 0.1232,-1.68 5.6,5.6 0 0 0 -10.3096,-4.3736 15.5904,15.5904 0 0 0 -1.0136,6.0536 27.86,27.86 0 0 0 6.2496,18.9896 5.601502,5.6015019 0 0 0 9.3016,-6.244 A 17.416,17.416 0 0 1 190.4,95.2 Z"
     id="path16"
     style="stroke-width:5.6" />
  <circle
     cx="67.199997"
     cy="190.39999"
     id="circle16"
     style="stroke-width:5.6"
     r="5.5999999" />
  <circle
     cx="95.199997"
     cy="173.60001"
     id="circle17"
     style="stroke-width:5.6"
     r="5.5999999" />
  <circle
     cx="140"
     cy="128.8"
     id="circle18"
     style="stroke-width:5.6"
     r="5.5999999" />
  <circle
     cx="156.8"
     cy="268.79999"
     id="circle19"
     style="stroke-width:5.6"
     r="5.5999999" />
  <circle
     cx="196"
     cy="196"
     id="circle20"
     style="stroke-width:5.6"
     r="5.5999999" />
  <circle
     cx="257.60001"
     cy="212.8"
     id="circle21"
     style="stroke-width:5.6"
     r="5.5999999" />
  <circle
     cx="140"
     cy="72.800003"
     id="circle22"
     style="stroke-width:5.6"
     r="5.5999999" />
</svg>
