<?xml version="1.0" encoding="UTF-8" standalone="no"?>
<!-- icon666.com - MILLIONS vector ICONS FREE -->

<svg
   id="Capa_1"
   enable-background="new 0 0 510.482 510.482"
   viewBox="0 0 336 336"
   version="1.1"
   sodipodi:docname="curry.svg"
   width="336"
   height="336"
   inkscape:version="1.3.1 (9b9bdc1480, 2023-11-25, custom)"
   xmlns:inkscape="http://www.inkscape.org/namespaces/inkscape"
   xmlns:sodipodi="http://sodipodi.sourceforge.net/DTD/sodipodi-0.dtd"
   xmlns="http://www.w3.org/2000/svg"
   xmlns:svg="http://www.w3.org/2000/svg">
  <defs
     id="defs16" />
  <sodipodi:namedview
     id="namedview16"
     pagecolor="#ffffff"
     bordercolor="#000000"
     borderopacity="0.25"
     inkscape:showpageshadow="2"
     inkscape:pageopacity="0.0"
     inkscape:pagecheckerboard="0"
     inkscape:deskcolor="#d1d1d1"
     inkscape:zoom="1.5828178"
     inkscape:cx="255.55689"
     inkscape:cy="157.31438"
     inkscape:window-width="1920"
     inkscape:window-height="1011"
     inkscape:window-x="0"
     inkscape:window-y="32"
     inkscape:window-maximized="1"
     inkscape:current-layer="Capa_1"
     showgrid="false" />
  <g
     id="g16"
     transform="matrix(0.65820146,0,0,0.84457052,0,-48.668092)">
    <g
       id="g10">
      <g
         id="XMLID_672_">
        <g
           id="g7">
          <path
             d="m 89.524,337.132 6.747,34.743 7.18,25.69 c 1.25,4.45 5.31,7.53 9.93,7.53 h 283.72 c 4.62,0 8.68,-3.08 9.93,-7.53 l 7.18,-25.69 16.306,-34.743 z"
             fill="#fdb441"
             id="path1" />
          <path
             d="m 151.6,398.326 -7.18,-25.689 -6.747,-34.743 H 430.16 l 0.357,-0.761 H 89.524 l 6.747,34.743 7.18,25.69 c 1.25,4.45 5.31,7.53 9.93,7.53 h 44.28 c -2.892,-1.175 -5.178,-3.628 -6.061,-6.77 z"
             fill="#fea713"
             id="path2" />
          <path
             d="m 495.941,273.055 -3.81,-7.65 c -5.44,-10.92 -14.73,-19.44 -26.09,-23.9 l -1.26,-0.5 -2.01,-4.6 c -5.99,-13.73 -17.89,-24 -32.36,-27.9 l -0.52,-0.14 c -4.62,-4.62 -10.07,-8.23 -15.99,-10.68 -5.92,-2.45 -12.32,-3.75 -18.86,-3.75 h -9.82 l -3.91,-3.92 c -9.25,-9.24 -21.79,-14.44 -34.86,-14.44 h -5.98 l -3.01,-3.01 c -9.24,-9.24 -21.78,-14.43 -34.85,-14.43 h -12.72 c -2.96,-4.23 -6.86,-7.61 -11.31,-9.93 -4.45,-2.32 -9.46,-3.58 -14.62,-3.58 h -8.72 c 0,0 -55.555,51.906 -59.721,52.403 -4.165,0.497 -15.091,95.733 -15.091,95.733 l 97.372,57.374 9.79,-0.45 193.41,-38.78 19.06,-19.52 z"
             fill="#f9f7f8"
             id="path3" />
          <path
             d="m 277.801,273.055 v 77.08 l -168.47,7.66 -94.79,-63.05 v -21.69 l 3.81,-7.65 c 5.44,-10.92 14.73,-19.44 26.09,-23.9 l 1.26,-0.5 2.01,-4.6 c 5.99,-13.73 17.89,-24 32.36,-27.9 l 0.52,-0.14 c 9.24,-9.24 21.78,-14.43 34.85,-14.43 h 9.82 l 3.91,-3.92 c 9.25,-9.24 21.79,-14.44 34.86,-14.44 h 5.98 l 3.01,-3.01 c 9.24,-9.24 21.78,-14.43 34.85,-14.43 h 12.72 c 5.92,-8.47 15.6,-13.51 25.93,-13.51 h 8.72 v 15.46 c 0,13.59 -11.02,24.6 -24.6,24.6 -6.1,0 -11.62,2.47 -15.62,6.47 -4,4 -6.47,9.53 -6.47,15.63 0,6.1 2.47,11.62 6.47,15.62 4,4 9.52,6.47 15.62,6.47 h 18.28 c 15.95,0 28.88,12.92 28.88,28.87 z"
             fill="#fd9468"
             id="path4" />
          <path
             d="m 502.981,280.085 v 24.22 c 0,2.26 -1.09,4.39 -2.92,5.71 l -85.85,61.86 H 96.271 l -85.85,-61.86 c -1.83,-1.32 -2.92,-3.45 -2.92,-5.71 v -24.22 c 0,-3.88 3.15,-7.03 7.04,-7.03 h 69.9 c 11.57,0 20.96,9.38 20.96,20.96 v 22.6 c 0,10.64 8.62,19.26 19.26,19.26 5.32,0 10.14,-2.15 13.62,-5.64 3.49,-3.49 5.65,-8.3 5.65,-13.62 v -22.6 c 0,-11.58 9.38,-20.96 20.96,-20.96 h 331.05 c 3.89,0 7.04,3.15 7.04,7.03 z"
             fill="#fece85"
             id="path5" />
          <g
             id="g6">
            <path
               d="M 144.106,371.875 H 96.271 l -85.85,-61.86 c -1.83,-1.32 -2.92,-3.45 -2.92,-5.71 v -24.22 c 0,-3.88 3.15,-7.03 7.04,-7.03 h 47.835 c -3.89,0 -7.04,3.15 -7.04,7.03 v 9.106 c 0,12.358 5.988,23.949 16.067,31.1 z"
               fill="#fec165"
               id="path6" />
          </g>
        </g>
      </g>
      <path
         d="m 115.567,217.028 c 13.675,0 26.102,-5.413 35.274,-14.2 1.136,-1.088 2.652,-1.663 4.225,-1.662 h 0.025 c 15.483,0 29.617,-5.862 40.32,-15.473 1.214,-1.09 2.821,-1.617 4.447,-1.497 1.232,0.091 2.475,0.141 3.729,0.141 24.543,0 45.201,-16.924 50.934,-39.712 h -8.002 c -10.33,0 -20.01,5.04 -25.93,13.51 h -12.733 c -13.066,0 -25.598,5.191 -34.837,14.43 l -3.01,3.01 h -5.98 c -13.07,0 -25.61,5.2 -34.86,14.44 l -3.91,3.92 h -9.82 c -11.738,0 -23.04,4.198 -31.917,11.744 8.77,7.09 19.917,11.349 32.045,11.349 z"
         fill="#fe7d43"
         id="path7" />
      <circle
         cx="115.567"
         cy="165.979"
         fill="#fee97d"
         r="31.049"
         id="circle7" />
      <circle
         cx="203.589"
         cy="131.817"
         fill="#fee97d"
         r="32.52"
         id="circle8" />
      <circle
         cx="155.091"
         cy="140.73599"
         fill="#fee45a"
         r="40.429001"
         id="circle9" />
      <path
         d="m 179.829,172.246 c -22.328,0 -40.429,-18.101 -40.429,-40.429 0,-12.733 5.892,-24.084 15.091,-31.495 -22.05,0.323 -39.828,18.287 -39.828,40.414 0,22.329 18.101,40.429 40.429,40.429 9.596,0 18.405,-3.35 25.338,-8.934 -0.201,0.003 -0.4,0.015 -0.601,0.015 z"
         fill="#fedf30"
         id="path9" />
      <path
         d="M 169.496,243.037 H 151.11 c -5.706,0 -10.332,-4.626 -10.332,-10.332 v -8.823 c 0,-5.706 4.626,-10.332 10.332,-10.332 h 18.386 c 5.706,0 10.332,4.626 10.332,10.332 v 8.823 c 0.001,5.706 -4.625,10.332 -10.332,10.332 z"
         fill="#fdb441"
         id="path10" />
    </g>
    <g
       id="g15">
      <path
         d="m 501.058,266.497 -2.209,-4.436 C 492.834,249.985 482.785,240.503 470.427,235.2 l -0.781,-1.793 c -3.561,-8.167 -9.102,-15.489 -16.023,-21.176 -3.201,-2.627 -7.925,-2.165 -10.557,1.035 -2.629,3.201 -2.165,7.928 1.035,10.557 5.1,4.188 9.178,9.575 11.795,15.577 l 2.007,4.604 c 0.795,1.824 2.281,3.258 4.134,3.985 l 1.26,0.494 c 8.507,3.342 15.619,9.335 20.351,17.066 H 285.301 v -7.805 c 0,-20.058 -16.318,-36.376 -36.376,-36.376 h -18.288 c -8.045,0 -14.59,-6.545 -14.59,-14.59 0,-8.045 6.545,-14.59 14.59,-14.59 17.702,0 32.104,-14.402 32.104,-32.105 v -7.958 h 1.217 c 7.877,0 15.276,3.853 19.793,10.306 1.403,2.005 3.697,3.199 6.145,3.199 h 12.711 c 11.164,0 21.659,4.347 29.552,12.239 l 3.009,3.01 c 1.406,1.406 3.314,2.197 5.304,2.197 h 5.981 c 11.163,0 21.658,4.348 29.552,12.241 l 3.915,3.915 c 1.407,1.406 3.314,2.196 5.304,2.196 h 9.818 c 7.918,0 15.653,2.251 22.37,6.508 3.498,2.218 8.132,1.182 10.35,-2.318 2.218,-3.499 1.18,-8.133 -2.318,-10.351 -9.122,-5.782 -19.635,-8.839 -30.401,-8.839 h -6.712 l -1.718,-1.719 c -10.728,-10.727 -24.989,-16.634 -40.159,-16.634 h -2.874 l -0.813,-0.813 C 332.04,156.536 317.779,150.629 302.608,150.629 h -9.063 c -7.392,-8.521 -18.181,-13.505 -29.586,-13.505 h -17.434 c -2.886,0 -5.731,0.326 -8.493,0.942 0.154,-0.817 0.291,-1.64 0.384,-2.475 2.083,-18.594 -11.35,-35.415 -29.942,-37.497 -10.384,-1.163 -20.473,2.512 -27.644,9.631 -2.233,-1.731 -4.66,-3.264 -7.273,-4.551 -3.716,-1.828 -8.212,-0.301 -10.042,3.415 -1.83,3.716 -0.301,8.212 3.415,10.042 9.26,4.56 15.012,13.795 15.012,24.102 0,14.806 -12.045,26.851 -26.851,26.851 -14.805,0 -26.85,-12.045 -26.85,-26.851 0,-9.685 5.256,-18.657 13.716,-23.416 3.61,-2.031 4.891,-6.604 2.86,-10.214 -2.031,-3.611 -6.605,-4.891 -10.214,-2.86 -10.614,5.97 -17.981,16.207 -20.448,27.851 -17.876,0.939 -32.131,15.777 -32.131,33.882 0,9.901 4.277,18.81 11.064,25.017 -5.959,2.552 -11.486,6.126 -16.345,10.657 -16.126,4.774 -29.163,16.28 -35.907,31.754 l -0.781,1.792 C 27.698,240.5 17.648,249.981 11.633,262.057 l -2.21,4.436 C 3.927,268.572 0,273.873 0,280.088 v 24.219 c 0,4.661 2.258,9.07 6.039,11.794 l 22.181,15.982 c 3.361,2.422 8.047,1.661 10.47,-1.7 2.422,-3.361 1.66,-8.048 -1.7,-10.47 L 15,304.068 V 280.55 h 69.437 c 7.425,0 13.465,6.04 13.465,13.465 v 22.598 c 0,14.758 12.006,26.764 26.764,26.764 14.758,0 26.764,-12.006 26.764,-26.764 v -22.598 c 0,-7.425 6.04,-13.465 13.465,-13.465 h 330.589 v 23.518 l -83.693,60.302 h -25.703 c -4.143,0 -7.5,3.357 -7.5,7.5 0,4.143 3.357,7.5 7.5,7.5 h 18.24 l -4.521,16.175 c -0.338,1.209 -1.45,2.053 -2.705,2.053 h -283.72 c -1.255,0 -2.367,-0.844 -2.704,-2.052 l -4.521,-16.176 h 246.654 c 4.143,0 7.5,-3.357 7.5,-7.5 0,-4.143 -3.357,-7.5 -7.5,-7.5 H 98.692 l -35.77,-25.772 c -3.36,-2.42 -8.048,-1.661 -10.47,1.7 -2.422,3.361 -1.66,8.049 1.7,10.47 l 35.604,25.651 6.475,23.165 c 2.143,7.662 9.194,13.014 17.15,13.014 H 397.1 c 7.956,0 15.008,-5.352 17.15,-13.015 l 6.475,-23.164 83.716,-60.317 c 3.783,-2.725 6.041,-7.134 6.041,-11.795 v -24.219 c 0,-6.215 -3.927,-11.516 -9.424,-13.591 z M 206.804,113.004 c 10.374,1.162 17.868,10.547 16.706,20.922 -0.563,5.024 -3.049,9.529 -7,12.685 -3.952,3.155 -8.891,4.579 -13.921,4.021 -2.267,-0.254 -4.434,-0.914 -6.428,-1.926 0.503,-2.581 0.781,-5.242 0.781,-7.968 0,-7.903 -2.178,-15.395 -6.099,-21.82 4.021,-4.33 9.891,-6.596 15.961,-5.914 z m -93.046,34.183 c 1.854,11.912 8.747,22.164 18.43,28.523 -3.344,5.596 -9.425,9.2 -16.232,9.2 -10.438,0 -18.931,-8.492 -18.931,-18.931 -0.001,-9.694 7.327,-17.698 16.733,-18.792 z m 22.671,146.828 v 22.598 c 0,6.486 -5.277,11.764 -11.764,11.764 -6.487,0 -11.764,-5.277 -11.764,-11.764 v -22.598 c 0,-15.695 -12.77,-28.465 -28.465,-28.465 h -57.6 c 4.732,-7.731 11.843,-13.724 20.35,-17.065 l 1.261,-0.496 c 1.853,-0.727 3.339,-2.16 4.134,-3.984 l 2.007,-4.604 c 5.104,-11.708 15.104,-20.329 27.433,-23.652 l 0.516,-0.139 c 1.269,-0.341 2.426,-1.01 3.355,-1.938 7.894,-7.894 18.388,-12.241 29.551,-12.241 h 9.818 c 1.989,0 3.896,-0.79 5.304,-2.196 l 3.915,-3.915 c 7.894,-7.894 18.389,-12.241 29.552,-12.241 h 5.981 c 1.989,0 3.897,-0.791 5.304,-2.197 l 3.009,-3.009 c 7.893,-7.894 18.388,-12.24 29.552,-12.24 h 12.711 c 2.447,0 4.74,-1.194 6.145,-3.199 4.517,-6.453 11.916,-10.306 19.793,-10.306 h 1.217 v 7.958 c 0,9.432 -7.673,17.105 -17.104,17.105 -16.315,0 -29.59,13.274 -29.59,29.59 0,16.316 13.274,29.59 29.59,29.59 h 18.288 c 11.787,0 21.376,9.589 21.376,21.376 v 7.805 h -105.41 c -15.696,-0.002 -28.465,12.768 -28.465,28.463 z"
         id="path11" />
      <path
         d="M 169.496,206.049 H 151.11 c -9.833,0 -17.832,7.999 -17.832,17.832 v 8.823 c 0,9.833 7.999,17.832 17.832,17.832 h 18.386 c 9.833,0 17.832,-7.999 17.832,-17.832 v -8.823 c 0,-9.833 -7.999,-17.832 -17.832,-17.832 z m 2.832,26.656 c 0,1.562 -1.271,2.832 -2.832,2.832 H 151.11 c -1.562,0 -2.832,-1.271 -2.832,-2.832 v -8.823 c 0,-1.562 1.271,-2.832 2.832,-2.832 h 18.386 c 1.562,0 2.832,1.271 2.832,2.832 z"
         id="path12" />
      <path
         d="m 98.283,235.537 h -7.177 c -4.143,0 -7.5,3.357 -7.5,7.5 0,4.143 3.357,7.5 7.5,7.5 h 7.177 c 4.143,0 7.5,-3.357 7.5,-7.5 0,-4.143 -3.357,-7.5 -7.5,-7.5 z"
         id="path13" />
      <path
         d="m 327.768,198.582 -1.841,1.732 c -3.133,2.946 -8.031,2.938 -11.15,-0.019 l -1.787,-1.694 c -3.005,-2.85 -7.752,-2.725 -10.603,0.282 -2.851,3.006 -2.724,7.753 0.282,10.603 l 1.788,1.695 c 4.455,4.222 10.179,6.333 15.905,6.333 5.697,0 11.396,-2.092 15.844,-6.276 l 1.841,-1.732 c 3.017,-2.839 3.161,-7.586 0.322,-10.602 -2.841,-3.017 -7.585,-3.158 -10.601,-0.322 z"
         id="path14" />
      <path
         d="m 395.008,225.637 -1.842,1.732 c -3.129,2.946 -8.028,2.939 -11.149,-0.019 l -1.787,-1.694 c -3.006,-2.851 -7.753,-2.725 -10.603,0.282 -2.851,3.006 -2.724,7.753 0.282,10.603 l 1.788,1.695 c 4.455,4.222 10.18,6.334 15.905,6.334 5.698,0 11.397,-2.092 15.844,-6.277 l 1.841,-1.732 c 3.017,-2.839 3.161,-7.586 0.322,-10.602 -2.84,-3.017 -7.585,-3.157 -10.601,-0.322 z"
         id="path15" />
    </g>
  </g>
</svg>
