<?xml version="1.0" encoding="UTF-8" standalone="no"?>
<!-- icon666.com - MILLIONS vector ICONS FREE -->

<svg
   viewBox="0 -26 336 336"
   version="1.1"
   id="svg16"
   sodipodi:docname="lasagne.svg"
   width="336"
   height="336"
   inkscape:version="1.3.1 (9b9bdc1480, 2023-11-25, custom)"
   xmlns:inkscape="http://www.inkscape.org/namespaces/inkscape"
   xmlns:sodipodi="http://sodipodi.sourceforge.net/DTD/sodipodi-0.dtd"
   xmlns="http://www.w3.org/2000/svg"
   xmlns:svg="http://www.w3.org/2000/svg">
  <defs
     id="defs16" />
  <sodipodi:namedview
     id="namedview16"
     pagecolor="#ffffff"
     bordercolor="#000000"
     borderopacity="0.25"
     inkscape:showpageshadow="2"
     inkscape:pageopacity="0.0"
     inkscape:pagecheckerboard="0"
     inkscape:deskcolor="#d1d1d1"
     inkscape:zoom="1.5812133"
     inkscape:cx="255.81621"
     inkscape:cy="257.39728"
     inkscape:window-width="1920"
     inkscape:window-height="1011"
     inkscape:window-x="0"
     inkscape:window-y="32"
     inkscape:window-maximized="1"
     inkscape:current-layer="svg16" />
  <g
     fill-rule="evenodd"
     id="g7"
     transform="matrix(0.65625148,0,0,0.73064974,-8.0983008e-5,-26.364304)">
    <path
       d="m 258.82422,374.9375 c -32.04297,0 -61.0625,7.21094 -89.35156,14.23828 -43.41016,10.78516 -84.843754,21.07813 -127.703129,-2.73437 -5.148437,-2.85938 -10.964843,-3.36328 -16.214843,-1.86719 -5.246094,1.49609 -9.921876,4.99609 -12.785157,10.14062 -5.722656,10.29297 -2.015625,23.27735 8.273438,29 57.613281,32.00391 106.941411,19.75 158.625001,6.91016 25.63281,-6.36719 51.92969,-12.89844 79.15625,-12.89844 27.1914,0 52.98437,8.1211 77.9414,15.98047 49.78125,15.67578 96.74219,30.46484 155.10938,-5.72265 10.01562,-6.1836 13.12109,-19.31641 6.93359,-29.33204 -3.89453,-6.3125 -10.54687,-9.8789 -17.4414,-10.10546 -4.05078,-0.13672 -8.1836,0.8789 -11.89063,3.16796 -41.71484,25.86329 -72.22265,7.14844 -112.50781,-5.53906 C 328.875,377.33203 292.34766,374.9375 258.82422,374.9375 Z m 0,0"
       fill="#ffc144"
       id="path1" />
    <path
       d="m 169.47266,389.17578 c 28.28906,-7.02734 57.30859,-14.23828 89.35156,-14.23828 33.52344,0 70.05078,2.39453 98.14062,11.24219 40.28907,12.68359 70.79297,31.40234 112.51172,5.53515 3.70313,-2.28515 7.83594,-3.30078 11.88672,-3.16797 25.57031,-4.3125 8.99609,-27.17968 9.74219,-58.94531 0.70312,-30.09765 26.72656,-50.42969 -5.61719,-64.94531 -13.625,8.02344 -18.77734,13.89844 -18.77734,31 0,11.81641 -9.57813,21.39453 -21.39453,21.39453 -11.81641,0 -21.39454,-9.57812 -21.39454,-21.39453 0,-6.30859 -3.74218,-13.58594 -14.78515,-13.89063 -25.8711,-0.71484 -49.13672,3.16407 -74.85938,-3.22656 -25.63281,-6.36719 -53.80468,-23.02344 -81.03125,-23.02344 -13.8164,0 -27.26562,2.09375 -40.43359,5.1875 -14.15234,3.32813 -20.55469,19.20313 -20.55469,32.25 v 35.94922 c 0,11.81641 -9.57812,21.39453 -21.39453,21.39453 -11.81641,0 -21.39453,-9.57812 -21.39453,-21.39453 v -15.89453 c 0,-11.1875 -6.29297,-26.97265 -23.78516,-23.6289 -30.960934,5.91796 -62.687496,1.10156 -98.660152,-19.53125 -22.292969,6.82812 -12.339844,26.76171 -11.207032,55.34375 1.222656,30.80468 -19.113281,51.64062 9.738282,59.38281 5.246093,-1.4961 11.066406,-0.99219 16.210937,1.87109 42.863281,23.8086 84.296875,13.51563 127.707035,2.73047 z m 0,0"
       fill="#ffda8f"
       id="path2" />
    <path
       d="m 253.24609,212.72266 c 32.04297,0 61.0625,7.21093 89.35157,14.23828 43.41015,10.78515 84.84375,21.07812 127.70312,-2.73047 3.35547,-1.86719 6.99219,-2.73047 10.57031,-2.69141 19.32422,-0.375 9.41407,-27.15625 8.52735,-56.15625 -0.83203,-27.09375 10.71875,-56.15625 -7.33985,-56.15625 -18.44922,9.875 -35.79297,14.72266 -52.51172,16.24219 -18.4414,1.67188 -22.08203,15.5625 -22.08203,25.94141 v 23.12109 c 0,11.81641 -9.57812,21.39453 -21.39062,21.39453 -11.81641,0 -21.39453,-9.57812 -21.39453,-21.39453 v -27.61719 c 0,-12.71484 -7.09375,-23.95703 -27.91407,-30.51172 -24.95703,-7.85937 -50.75,-23.105465 -77.9414,-23.105465 -27.23047,0 -52.77344,12.906255 -78.40625,19.273435 -22.52735,5.59766 -45.35547,4.70703 -67.86719,6.46485 -16.191405,1.26172 -29.023436,4.51562 -29.023436,21.64843 0,11.81641 -9.578125,21.39453 -21.394532,21.39453 -11.816406,0 -21.394531,-9.57812 -21.394531,-21.39453 0,-14.49609 -0.492187,-22.76953 -5.0625,-29.43359 -12.878906,-0.25781 -19.058593,21.82422 -20.300781,48.94141 -1.484375,32.35546 -0.234375,65.49218 16.46875,66.13281 3.679688,0.0742 7.390625,1.10156 10.75,3.17578 41.714844,25.86328 79.72266,13.89844 120.00781,1.21094 28.08985,-8.84766 57.1211,-17.98828 90.64453,-17.98828 z m 0,0"
       fill="#ffda8f"
       id="path3" />
    <path
       d="m 364.67969,146.91406 v 27.61719 c 0,11.81641 9.57812,21.39453 21.39453,21.39453 11.8125,0 21.39062,-9.57812 21.39062,-21.39453 v -23.11719 c 0,-10.38281 3.64063,-24.27343 22.08203,-25.94531 16.71875,-1.51562 34.0625,-6.36719 52.51172,-16.24219 3.23828,-1.73047 6.50782,-3.61718 9.8125,-5.66797 10.01563,-6.187496 13.1211,-19.320309 6.9375,-29.335934 -6.18359,-10.015625 -19.3164,-13.117187 -29.33203,-6.933594 -41.71484,25.863282 -79.72265,13.894532 -120.00781,1.207032 -28.08984,-8.84375 -57.12109,-17.988282 -90.64453,-17.988282 -32.04297,0 -61.0625,7.210938 -89.35156,14.238282 C 126.0625,75.53125 84.628906,85.824219 41.769531,62.015625 31.476562,56.292969 18.496094,59.996094 12.773438,70.289062 7.050781,80.582031 10.753906,93.5625 21.046875,99.285156 c 7.148437,4.128904 11.71875,7.722654 14.632813,11.964844 4.570312,6.66406 5.0625,14.9375 5.0625,29.43359 0,11.81641 9.578124,21.39453 21.394531,21.39453 11.816406,0 21.394531,-9.57812 21.394531,-21.39453 0,-17.1289 12.832031,-20.38671 29.02344,-21.64843 22.51172,-1.75391 45.33984,-0.86719 67.86718,-6.46094 25.62891,-6.37109 51.17579,-19.277345 78.40235,-19.277345 27.19531,0 52.98828,15.246095 77.94531,23.105465 20.81641,6.5586 27.91016,17.79688 27.91016,30.51172 z m 0,0"
       fill="#ffc144"
       id="path4" />
    <path
       d="m 491.02734,261.5 c 10.29297,-5.72266 13.9961,-18.70703 8.27344,-28.99609 -5.72265,-10.29297 -18.70703,-14 -29,-8.27344 -42.85937,23.80859 -84.29297,13.51562 -127.70312,2.73047 -28.28907,-7.02735 -57.3086,-14.23828 -89.35157,-14.23828 -33.52343,0 -62.55468,9.14062 -90.64453,17.98828 -40.28515,12.6875 -78.292966,24.65625 -120.00781,-1.21094 -10.015625,-6.18359 -23.148438,-3.07813 -29.332031,6.9375 -6.1875,10.01562 -3.082031,23.14844 6.9375,29.33203 38.808593,24.0625 72.578125,29.89844 105.488281,23.60938 17.48828,-3.34375 23.78125,12.4414 23.78125,23.6289 v 15.89453 c 0,11.81641 9.58203,21.39454 21.39453,21.39454 11.81641,0 21.39453,-9.57813 21.39453,-21.39454 v -35.95312 c 0,-13.04688 6.40235,-28.92188 20.55469,-32.25 13.16797,-3.08984 26.62109,-5.1875 40.43359,-5.1875 27.23047,0 55.39844,16.65625 81.03125,23.02344 25.72266,6.39062 48.98828,2.51562 74.85938,3.22656 11.04687,0.30469 14.78515,7.58594 14.78515,13.89453 0,11.81641 9.57813,21.39453 21.39454,21.39453 11.8164,0 21.39453,-9.57812 21.39453,-21.39453 0,-19.25391 6.52734,-24.27344 24.3164,-34.15625 z m 0,0"
       fill="#ffc144"
       id="path5" />
    <path
       d="m 340.67969,28.636719 c -0.54688,-0.597657 -1.10938,-1.1875 -1.6875,-1.765625 -15.19922,-15.195313 -36.97266,-19.800782 -56.16016,-13.820313 -4.0039,12.847657 -3.26172,26.855469 2.22656,39.273438 14.35157,1.941406 27.96485,5.269531 41.17969,9.070312 1.05078,-11.835937 5.86328,-23.40625 14.44141,-32.757812 z m 0,0"
       fill="#ff5a58"
       id="path6" />
    <path
       d="m 342.37109,26.871094 c -0.57812,0.578125 -1.14453,1.167968 -1.6914,1.765625 -8.57813,9.351562 -13.39453,20.921875 -14.44141,32.757812 7.85938,2.261719 15.58203,4.695313 23.23047,7.101563 8.89844,2.804687 17.6875,5.570312 26.42969,7.902344 3.11718,-2.050782 6.07422,-4.445313 8.8125,-7.183594 15.19922,-15.199219 19.80078,-36.976563 13.82031,-56.160156 -19.1875,-5.984376 -40.96094,-1.378907 -56.16016,13.816406 z m 0,0"
       fill="#88df8e"
       id="path7" />
  </g>
  <path
     d="m 332.92706,261.07217 c -0.95105,-1.71532 -2.08668,-3.25653 -3.36586,-4.60938 0.76905,-1.40707 1.35096,-2.97968 1.73805,-4.71497 1.19714,-5.3543 0.2948,-11.28511 -0.7511,-18.15208 -0.8639,-5.6768 -1.84571,-12.10995 -1.69959,-18.96835 0.13073,-6.28188 1.93286,-12.09283 3.67347,-17.7154 2.79932,-9.03609 6.4087,-20.73219 -2.19178,-30.05083 6.02675,-7.06104 7.54176,-17.94659 3.07105,-26.89704 -1.27149,-2.54872 -2.93775,-4.75493 -4.90138,-6.55587 2.19947,-6.22765 1.36121,-14.50739 0.4076,-23.8032 -0.51014,-4.9747 -1.03821,-10.123503 -1.18177,-15.355063 -0.15637,-5.73103 0.43579,-11.67612 1.00745,-17.42714 0.88953,-8.921915 1.67395,-16.844898 -0.70239,-22.690096 8.20058,-7.066756 10.46157,-20.06433 4.89625,-30.102202 -5.95241,-10.734272 -18.63908,-14.0735688 -28.29059,-7.437786 -15.19889,10.491674 -29.52107,11.59621 -44.32005,8.782068 8.91835,-12.403921 11.80484,-28.9491428 7.48537,-44.375556 -0.64087,-2.291842 -2.2533,-4.087072 -4.31178,-4.800597 -13.87869,-4.814867 -28.7674,-1.584025 -39.91598,8.385347 -11.14859,-9.969372 -26.03729,-13.203069 -39.91599,-8.385347 -2.05847,0.716379 -3.6709,2.508755 -4.31177,4.800597 -2.05848,7.346455 -2.48146,15.0667972 -1.32789,22.5274162 -2.67627,-0.185517 -5.39356,-0.291118 -8.16469,-0.291118 -21.83061,0 -41.34641,5.399958 -60.21876,10.6201078 -4.2118,1.164473 -8.56972,2.371757 -12.860988,3.467732 -3.532479,0.901896 -5.737074,4.82343 -4.927014,8.753527 0.810061,3.93295 4.327158,6.39033 7.864764,5.485581 4.404058,-1.12737 8.818378,-2.348925 13.089138,-3.527669 18.10587,-5.008946 36.82699,-10.189139 57.05286,-10.189139 20.99492,0 39.55966,6.510204 57.51685,12.806349 5.81142,2.037828 11.66641,4.089926 17.5778,5.83949 0.0872,0.02854 0.17432,0.05709 0.26404,0.07991 21.14104,6.224793 43.02549,8.53376 66.33011,-7.554804 3.48377,-2.397445 8.06984,-1.19016 10.2206,2.688562 2.15076,3.881577 1.06641,8.984709 -2.42762,11.385008 -12.67385,8.750675 -25.117,13.639744 -38.03695,14.944071 -12.80972,1.292907 -20.45915,11.0996 -20.45915,26.232038 v 16.893433 c 0,4.58938 -3.35304,8.3254 -7.47768,8.3254 -4.12208,0 -7.47768,-3.73602 -7.47768,-8.3254 V 80.978417 c 0,-9.683965 -3.97339,-22.621602 -22.90727,-29.260242 -4.81166,-1.686778 -9.6874,-3.867307 -14.84769,-6.179129 -12.12528,-5.428499 -24.66327,-11.039661 -38.27536,-11.039661 -13.0712,0 -25.21441,4.495208 -36.95772,8.842004 -5.55763,2.057806 -10.81021,4.001451 -16.0756,5.457037 -9.85403,2.725667 -19.800334,3.21087 -30.333684,3.721747 -4.291269,0.208352 -8.73122,0.425268 -13.132719,0.807712 -7.511004,0.650738 -25.099056,2.177679 -25.099056,23.098232 0,4.59225 -3.355598,8.32826 -7.477678,8.32826 -4.124643,0 -7.480242,-3.73601 -7.480242,-8.32826 0,-18.982614 -1.394534,-27.054014 -16.203771,-36.57244 -0.03076,-0.01997 -0.06152,-0.0371 -0.09229,-0.05709 -1.735477,-1.073142 -2.991584,-2.836976 -3.535042,-4.963281 -0.546021,-2.123451 -0.312744,-4.358211 0.651125,-6.290437 0.963869,-1.932227 2.548101,-3.327882 4.455332,-3.935805 1.909795,-0.605069 3.917001,-0.348201 5.655042,0.727795 4.140024,2.560129 8.431294,4.714975 12.753324,6.404603 3.419686,1.338572 7.16237,-0.665006 8.364644,-4.469522 1.199709,-3.807371 -0.597292,-7.977212 -4.016977,-9.315785 C 37.703614,16.538522 34.091667,14.723314 30.600204,12.56276 25.803928,9.5944952 20.251426,8.8809702 14.973216,10.559181 9.6950056,12.234538 5.3165771,16.101844 2.6479921,21.444721 -0.02059284,26.784743 -0.65889978,32.96387 0.84586386,38.843318 2.3480648,44.702786 5.8010757,49.560459 10.57428,52.534438 c 0.597292,0.385301 1.156131,0.750625 1.681644,1.10453 -4.3886818,5.873745 -7.9032163,16.910552 -8.7184034,36.709439 -0.961306,23.275203 0.3588876,37.705533 4.3758646,46.230733 -1.8533979,1.61542 -3.486336,3.61614 -4.791149,5.97363 -5.0551865,9.11314 -3.65296219,20.67225 2.7813788,28.00443 -5.47303495,7.25228 -4.2963964,17.8153 -3.2197338,27.45931 0.4768074,4.284 0.9715593,8.71641 1.1433128,13.5113 0.2384037,6.69002 -1.0074484,12.92908 -2.1071822,18.43465 -1.25866996,6.299 -2.44556245,12.24979 -1.17663853,17.80674 0.74597353,3.27365 2.18665023,5.77954 3.89905643,7.70606 -0.6613781,0.94185 -1.2637966,1.9465 -1.7944376,3.01108 -2.66858494,5.34288 -3.3094552,11.52201 -1.80212824,17.40145 1.50476434,5.87659 4.97828304,10.75139 9.77968614,13.72252 40.067229,24.78501 75.043382,15.10961 108.86597,5.75386 16.3704,-4.52946 33.29707,-9.21018 50.36217,-9.21018 16.83439,0 33.274,5.76243 49.18041,11.33933 17.67265,6.19626 35.66829,12.50667 54.94824,12.50667 16.30888,-0.003 33.53804,-4.51804 52.25915,-17.4414 4.67067,-3.21086 7.93911,-8.25406 9.20034,-14.19916 1.26124,-5.94794 0.36914,-12.08711 -2.51477,-17.28728 z M 191.01524,-10.809457 c 8.34926,-1.746708 16.91642,0.519447 23.66607,6.2076692 -2.56605,4.27829704 -4.50917,8.987563 -5.73708,13.945136 -5.54225,-1.604005 -11.22036,-3.008222 -17.09586,-4.067093 -1.4458,-5.20302596 -1.73291,-10.722856 -0.83313,-16.0857122 z m 30.54645,24.1514 c 1.3689,-5.5997448 4.03492,-10.7571048 7.75966,-14.9069678 7.09316,-7.894441 17.10356,-11.2708432 26.81147,-9.2444322 1.82007,10.80562524 -1.21253,21.953743 -8.30312,29.851038 -0.77674,0.861939 -1.59962,1.678211 -2.45326,2.44311 -4.59376,-1.449883 -9.26955,-3.088136 -14.06582,-4.769201 -3.22486,-1.130225 -6.4728,-2.266156 -9.74893,-3.373547 z M 96.871354,181.87658 c -2.353277,-2.16626 -6.083144,-4.44954 -11.366481,-4.44954 -1.320193,0 -2.737799,0.1427 -4.25538,0.46807 -21.356372,4.54373 -41.864231,-0.63076 -64.548486,-16.2912 -3.483773,-2.39459 -4.565562,-7.49773 -2.414801,-11.37645 2.150762,-3.87872 6.736832,-5.086 10.210351,-2.69712 29.933783,20.66369 57.511726,10.994 84.187323,1.6411 17.95463,-6.29329 36.51937,-12.80349 57.51172,-12.80349 20.22075,0 38.94186,5.18019 57.05799,10.18914 28.60334,7.91156 58.18336,16.09427 88.57088,-2.70283 1.73548,-1.07315 3.74268,-1.33287 5.64992,-0.72495 1.90979,0.60508 3.49402,2.00358 4.45789,3.93581 1.99183,3.98718 0.69727,9.03608 -2.88392,11.25372 -11.98684,7.4121 -19.33122,12.89197 -19.33122,31.33802 0,4.58939 -3.35303,8.32541 -7.47768,8.32541 -4.12207,0 -7.47767,-3.73602 -7.47767,-8.32541 0,-8.16844 -5.03468,-17.11319 -16.08329,-17.45282 -5.46022,-0.1684 -10.72048,-0.003 -15.80643,0.15983 -10.88199,0.34534 -21.15899,0.67071 -31.92049,-2.30612 -5.73707,-1.58687 -11.76894,-4.14415 -18.1597,-6.8527 -11.80997,-5.00609 -24.0224,-10.18343 -36.59628,-10.18343 -8.61843,0 -17.788,1.30147 -28.0368,3.98433 -12.74564,3.33359 -18.54936,18.23771 -18.54936,30.67302 v 26.26914 c 0,4.58939 -3.3556,8.32541 -7.47768,8.32541 -4.12464,0 -7.47768,-3.73602 -7.47768,-8.32541 v -11.61334 c -0.003,-8.32541 -2.90955,-15.97154 -7.782726,-20.45819 z M 40.774669,99.361677 c 11.358791,0 20.600145,-10.28903 20.600145,-22.93555 0,-4.729243 0.604981,-7.457766 12.996855,-8.533758 4.178476,-0.362475 8.503071,-0.573677 12.686674,-0.776315 10.715356,-0.522305 21.794727,-1.061729 32.922797,-4.138451 5.76015,-1.59544 11.50235,-3.718891 17.05229,-5.773843 11.24856,-4.161277 21.87163,-8.094226 32.82026,-8.094226 11.06912,0 22.40996,5.074589 33.37654,9.986492 5.16542,2.311827 10.50771,4.703558 15.80131,6.558728 12.16628,4.266878 13.72744,10.428883 13.72744,15.323663 v 20.181353 c 0,12.64652 9.24136,22.93555 20.60271,22.93555 11.35879,0 20.60015,-10.28903 20.60015,-22.93555 V 84.266337 c 0,-9.53555 4.30665,-11.253713 8.52101,-11.68183 11.59207,-1.17018 22.77398,-4.783469 33.92256,-10.959746 0.32813,3.082428 -0.28198,9.247286 -0.71521,13.588376 -0.59473,5.96221 -1.26892,12.72358 -1.08179,19.48494 0.1615,5.839493 0.74598,11.539133 1.26124,16.568063 0.59985,5.83378 1.49451,14.57303 0.43579,16.83634 -0.14099,0.0371 -0.39734,0.0828 -0.79212,0.097 -3.48633,-0.0199 -6.93678,0.94755 -10.06423,2.88549 -25.86554,16.00008 -50.50317,9.1845 -79.04241,1.29291 -18.87236,-5.22015 -38.38559,-10.61726 -60.21364,-10.61726 -23.00726,0 -42.55125,6.8527 -61.45693,13.47992 -26.029592,9.12456 -48.508768,17.00758 -73.336095,-0.13129 -3.09156,-2.12631 -6.495864,-3.22228 -9.889915,-3.38211 -0.107667,-0.009 -0.212769,-0.0228 -0.320436,-0.0228 -0.246094,-0.006 -0.407593,-0.009 -0.779298,-0.44809 -1.932866,-2.28613 -4.9911,-10.5516 -3.765756,-40.237113 0.469118,-11.40499 1.912358,-18.725754 3.363289,-23.132485 0.133301,2.32324 0.164063,5.108842 0.164063,8.542325 0.0026,12.64367 9.243918,22.9327 20.602707,22.9327 z M 322.67056,274.99732 c -0.45886,2.14628 -1.63806,3.97006 -3.33509,5.13738 -35.74519,24.6737 -63.83583,14.8242 -96.37155,3.41636 -16.84208,-5.90228 -34.26094,-12.01006 -53.11279,-12.01006 -18.66984,0 -36.38863,4.90335 -53.52808,9.64115 -32.797185,9.07605 -63.779433,17.64406 -99.324679,-4.34394 -1.735478,-1.07314 -2.991584,-2.83697 -3.535042,-4.96042 -0.546022,-2.12631 -0.312745,-4.36107 0.651124,-6.29044 0.963869,-1.93223 2.545538,-3.33073 4.455333,-3.93866 1.909794,-0.60507 3.917001,-0.34819 5.652478,0.7278 30.38752,18.79425 59.967542,10.6144 88.575996,2.69998 18.10588,-5.00895 36.82956,-10.18629 57.05543,-10.18629 12.84305,0 24.48126,0.6222 34.59419,1.8466 3.59913,0.43668 6.83938,-2.46308 7.23159,-6.47309 0.39221,-4.01001 -2.20972,-7.61475 -5.81142,-8.05142 -10.58205,-1.28149 -22.69963,-1.93222 -36.01436,-1.93222 -21.83061,0 -41.34641,5.3971 -60.22133,10.61725 -28.528986,7.89444 -53.169179,14.70718 -79.034715,-1.29291 -4.18104,-2.58867 -8.938863,-3.46203 -13.586457,-2.53159 -2.232793,-0.83911 -3.501716,-1.8095 -3.750374,-2.89977 -0.49988,-2.18909 0.358887,-6.48737 1.26636,-11.03965 1.209964,-6.05926 2.717291,-13.59694 2.409674,-22.18493 -0.192262,-5.40852 -0.745974,-10.36324 -1.233035,-14.73572 -1.376591,-12.34399 -1.204837,-15.65189 1.512454,-17.36149 22.802176,13.89661 44.120095,18.15493 66.496732,13.39429 2.786505,-0.59365 4.07081,0.22547 4.796276,0.89048 1.776493,1.63826 3.019781,5.41994 3.019781,9.19876 v 11.61334 c 0,12.64652 9.241354,22.93555 20.600144,22.93555 11.36135,0 20.6027,-10.28903 20.6027,-22.93555 v -26.26628 c 0,-5.72819 2.24305,-14.83562 8.42873,-16.4539 9.25161,-2.42028 17.44194,-3.59616 25.03241,-3.59616 10.16164,0 21.2282,4.69214 31.93073,9.22731 6.46767,2.74278 13.16092,5.57976 19.66448,7.3807 12.50466,3.45917 24.17364,3.08814 35.45809,2.72852 4.90394,-0.15412 9.97707,-0.31681 15.06814,-0.15983 2.76857,0.0856 3.32228,1.15306 3.32228,2.84839 0,12.64652 9.24391,22.93556 20.6027,22.93556 11.3588,0 20.60015,-10.28904 20.60015,-22.93556 0,-7.56622 0.98694,-10.46313 6.09852,-14.29333 5.30385,3.44775 4.31434,6.65861 1.17921,16.78496 -1.87647,6.05355 -4.20924,13.58552 -4.38869,22.13926 -0.17431,8.25691 0.96387,15.74037 1.87904,21.7511 0.76648,5.03463 1.49194,9.78957 0.95618,12.18701 -0.10511,0.47663 -0.3025,1.34714 -3.20948,1.98646 -3.75038,0.0114 -7.43923,1.16732 -10.71792,3.42206 -15.03739,10.38322 -27.10114,9.72392 -40.59018,5.54266 -3.49147,-1.0817 -7.10854,1.19302 -8.0801,5.07745 -0.97156,3.88728 1.06897,7.91727 4.56044,8.99897 13.85305,4.29257 30.74897,6.79562 51.01586,-7.19518 1.68677,-1.16162 3.68116,-1.51838 5.6089,-1.01036 1.9303,0.50804 3.56836,1.82378 4.60914,3.70178 1.04334,1.87799 1.36633,4.09563 0.91003,6.24762 z m 0,0"
     id="path8"
     style="stroke-width:0.692453" />
  <path
     d="m 68.88069,36.742713 c 3.622201,0 6.559951,-3.270799 6.559951,-7.303643 0,-4.032844 -2.93775,-7.306498 -6.559951,-7.306498 h -0.0051 c -3.624764,0 -6.559951,3.273654 -6.559951,7.306498 0,4.032844 2.940314,7.303643 6.565078,7.303643 z m 0,0"
     id="path9"
     style="stroke-width:0.692453" />
  <path
     d="m 236.06844,248.77099 h -0.005 c -3.48377,-1.10739 -7.11366,1.13879 -8.11085,5.01751 -0.99464,3.87872 1.02539,7.92299 4.50916,9.03037 0.60242,0.19409 1.20996,0.28542 1.80726,0.28542 2.85571,0 5.48072,-2.09206 6.30616,-5.30293 0.99463,-3.87872 -1.02283,-7.92012 -4.5066,-9.03037 z m 0,0"
     id="path10"
     style="stroke-width:0.692453" />
  <path
     d="m 53.845866,213.9424 h -0.0026 c -3.624764,0 -6.559952,3.2708 -6.559952,7.3065 0,4.03284 2.940315,7.30364 6.562515,7.30364 3.624764,0 6.562515,-3.2708 6.562515,-7.30364 0,-4.0357 -2.937751,-7.3065 -6.562515,-7.3065 z m 0,0"
     id="path11"
     style="stroke-width:0.692453" />
  <path
     d="m 166.04692,185.45277 h -0.005 c -3.62476,0 -6.55995,3.2708 -6.55995,7.30365 0,4.0357 2.94032,7.30649 6.56508,7.30649 3.6222,0 6.55995,-3.27079 6.55995,-7.30649 0,-4.03285 -2.93775,-7.30365 -6.55995,-7.30365 z m 0,0"
     id="path12"
     style="stroke-width:0.692453" />
  <path
     d="m 248.71923,205.17746 h -0.005 c -3.6222,0 -6.55995,3.2708 -6.55995,7.30364 0,4.0357 2.94031,7.3065 6.56508,7.3065 3.62476,0 6.55995,-3.2708 6.55995,-7.3065 0,-4.03284 -2.93519,-7.30364 -6.55995,-7.30364 z m 0,0"
     id="path13"
     style="stroke-width:0.692453" />
  <path
     d="m 173.91937,91.581397 c 3.62477,0 6.56252,-3.27079 6.56252,-7.30649 0,-4.03285 -2.93775,-7.30364 -6.56252,-7.30364 h -0.005 c -3.6222,0 -6.55739,3.27079 -6.55739,7.30364 0,4.0357 2.93775,7.30649 6.56251,7.30649 z m 0,0"
     id="path14"
     style="stroke-width:0.692453" />
  <path
     d="m 85.34081,105.82622 c 3.624764,0 6.562515,-3.2708 6.562515,-7.306503 0,-4.03284 -2.937751,-7.30364 -6.562515,-7.30364 h -0.0051 c -3.6222,0 -6.557387,3.2708 -6.557387,7.30364 0,4.035703 2.940314,7.306503 6.562514,7.306503 z m 0,0"
     id="path15"
     style="stroke-width:0.692453" />
  <path
     d="m 293.99289,108.01817 c 3.6222,0 6.55995,-3.2708 6.55995,-7.3065 0,-4.032853 -2.93775,-7.303643 -6.55995,-7.303643 h -0.005 c -3.62476,0 -6.55995,3.27079 -6.55995,7.303643 0,4.0357 2.94031,7.3065 6.56508,7.3065 z m 0,0"
     id="path16"
     style="stroke-width:0.692453" />
</svg>
