<?xml version="1.0" encoding="UTF-8" standalone="no"?>
<!-- icon666.com - MILLIONS vector ICONS FREE -->

<svg
   id="Capa_1"
   enable-background="new 0 0 509.667 509.667"
   viewBox="0 0 336.00001 336.00001"
   version="1.1"
   sodipodi:docname="porridge_4qd5zw2b2ia8.svg"
   width="336"
   height="336"
   inkscape:version="1.3.1 (9b9bdc1480, 2023-11-25, custom)"
   xmlns:inkscape="http://www.inkscape.org/namespaces/inkscape"
   xmlns:sodipodi="http://sodipodi.sourceforge.net/DTD/sodipodi-0.dtd"
   xmlns="http://www.w3.org/2000/svg"
   xmlns:svg="http://www.w3.org/2000/svg">
  <defs
     id="defs37" />
  <sodipodi:namedview
     id="namedview37"
     pagecolor="#ffffff"
     bordercolor="#000000"
     borderopacity="0.25"
     inkscape:showpageshadow="2"
     inkscape:pageopacity="0.0"
     inkscape:pagecheckerboard="0"
     inkscape:deskcolor="#d1d1d1"
     inkscape:zoom="1.5853489"
     inkscape:cx="255.14888"
     inkscape:cy="254.8335"
     inkscape:window-width="1920"
     inkscape:window-height="1011"
     inkscape:window-x="0"
     inkscape:window-y="32"
     inkscape:window-maximized="1"
     inkscape:current-layer="Capa_1" />
  <g
     id="g37"
     transform="scale(0.65925528)">
    <g
       id="g20">
      <g
         id="g19">
        <g
           id="g18">
          <g
             id="g1">
            <circle
               cx="254.83299"
               cy="254.83299"
               fill="#c4e5f9"
               r="247.33299"
               id="circle1" />
          </g>
          <g
             id="g2">
            <path
               d="M 274.628,482.372 C 138.029,482.372 27.295,371.637 27.295,235.039 27.295,171.777 51.058,114.072 90.13,70.335 39.428,115.628 7.5,181.497 7.5,254.833 c 0,136.598 110.735,247.333 247.333,247.333 73.336,0 139.205,-31.928 184.498,-82.63 -43.736,39.072 -101.44,62.836 -164.703,62.836 z"
               fill="#83c8f1"
               id="path1" />
          </g>
          <g
             id="g3">
            <circle
               cx="254.83299"
               cy="254.83299"
               fill="#83c8f1"
               r="218.5"
               id="circle2" />
          </g>
          <g
             id="g4">
            <path
               d="m 268.971,459.196 c -120.674,0 -218.5,-97.826 -218.5,-218.5 0,-56.74 21.631,-108.426 57.093,-147.269 -43.767,39.957 -71.23,97.473 -71.23,161.406 0,120.674 97.826,218.5 218.5,218.5 63.934,0 121.45,-27.462 161.407,-71.23 -38.844,35.461 -90.53,57.093 -147.27,57.093 z"
               fill="#3d6dea"
               id="path3" />
          </g>
          <g
             id="g5">
            <path
               d="m 440.758,271.686 c 9.952,-17.567 0.443,-32.921 -8.208,-48.201 2.13,-12.593 5.708,-25.313 -0.413,-37.451 -4.562,-9.046 -13.496,-15.038 -21.004,-21.442 -1.707,-9.239 -2.424,-19.651 -7.406,-27.836 h -10e-4 c -7.345,-12.129 -20.513,-15.531 -32.916,-20.14 -5.73,-9.774 -10.612,-20.705 -20.815,-26.606 -10.216,-5.909 -22.091,-4.681 -33.434,-4.773 -8.7,-7.181 -17.104,-15.859 -28.67,-17.89 -11.531,-2.025 -22.449,3.273 -33.053,7.052 -10.63,-3.778 -21.498,-9.07 -33.062,-7.036 -11.529,2.028 -19.992,10.732 -28.675,17.896 -11.433,0.08 -23.552,-1.18 -33.816,4.913 h -0.001 c -9.941,6.032 -14.773,16.752 -20.441,26.414 -11.478,4.287 -23.827,7.441 -31.365,17.92 -6.241,8.675 -7.04,19.87 -8.935,30.106 -9.466,8.057 -20.153,15.318 -23.523,28.037 -2.688,10.145 0.394,20.777 2.095,30.837 -4.669,8.246 -10.759,16.517 -12.241,26.093 l 0.011,0.013 c -2.176,14.02 5.718,25.087 12.23,36.589 -1.889,11.17 -5.168,22.674 -1.137,33.749 4.037,11.091 13.927,17.772 22.565,25.124 2.06,11.139 2.927,23.082 10.505,32.105 7.589,9.037 19.178,11.937 29.808,15.897 5.731,9.773 10.613,20.701 20.815,26.601 10.216,5.908 22.093,4.68 33.434,4.772 8.813,7.273 17.297,16.021 29.068,17.945 l 0.011,0.013 c 11.484,1.875 22.086,-3.36 32.642,-7.122 9.922,3.527 20.148,8.477 30.894,7.291 12.712,-1.402 21.469,-10.395 30.839,-18.128 10.168,-0.083 21.022,1.057 30.524,-3.268 12.082,-5.499 17.393,-17.265 23.738,-28.08 11.478,-4.287 23.827,-7.441 31.365,-17.92 6.239,-8.674 7.041,-19.872 8.935,-30.107 9.513,-8.096 20.232,-15.385 23.562,-28.194 2.624,-10.095 -0.443,-20.676 -2.134,-30.679 2.737,-4.831 5.473,-9.662 8.209,-14.494 z"
               fill="#e8bc85"
               style="fill:#865e3c"
               id="path4" />
          </g>
          <g
             id="g7">
            <g
               id="g6">
              <path
                 d="m 361.748,400.762 c -9.502,4.325 -20.355,3.185 -30.524,3.268 -9.369,7.733 -18.127,16.726 -30.839,18.128 -10.746,1.186 -20.972,-3.764 -30.895,-7.292 -10.557,3.762 -21.158,8.997 -32.642,7.122 l -0.01,-0.013 c -11.771,-1.924 -20.255,-10.672 -29.068,-17.945 -11.342,-0.092 -23.218,1.136 -33.435,-4.772 -10.202,-5.899 -15.084,-16.828 -20.815,-26.601 -10.629,-3.959 -22.219,-6.86 -29.808,-15.897 -7.577,-9.023 -8.445,-20.966 -10.505,-32.105 -8.638,-7.352 -18.528,-14.032 -22.565,-25.124 -4.031,-11.075 -0.752,-22.579 1.137,-33.75 -6.512,-11.502 -14.406,-22.569 -12.23,-36.589 l -0.011,-0.013 c 1.482,-9.576 7.572,-17.847 12.241,-26.093 -1.701,-10.06 -4.783,-20.691 -2.095,-30.836 0.028,-0.104 0.065,-0.2 0.094,-0.303 -6.542,5.665 -12.416,11.866 -14.758,20.703 -2.688,10.146 0.394,20.777 2.095,30.836 -4.669,8.246 -10.759,16.517 -12.241,26.093 l 0.011,0.013 c -2.176,14.02 5.718,25.087 12.23,36.589 -1.889,11.17 -5.168,22.674 -1.137,33.75 4.037,11.091 13.927,17.772 22.565,25.124 2.06,11.139 2.927,23.082 10.505,32.105 7.589,9.037 19.178,11.937 29.808,15.897 5.731,9.772 10.613,20.701 20.815,26.601 10.216,5.908 22.093,4.679 33.434,4.772 8.813,7.273 17.297,16.021 29.068,17.945 l 0.011,0.013 c 11.484,1.875 22.086,-3.36 32.642,-7.122 9.922,3.527 20.148,8.477 30.894,7.291 12.712,-1.402 21.469,-10.396 30.839,-18.128 10.168,-0.083 21.022,1.057 30.524,-3.268 10.995,-5.004 16.384,-15.199 22.047,-25.144 -2.166,1.854 -4.587,3.473 -7.382,4.745 z"
                 fill="#d09851"
                 style="fill:#63452c"
                 id="path5" />
            </g>
          </g>
          <g
             id="g8">
            <circle
               cx="254.83299"
               cy="134.83299"
               fill="#e2fc85"
               r="15"
               style="fill:#ed333b"
               id="circle7" />
          </g>
          <g
             id="g9">
            <circle
               cx="150.91"
               cy="194.83299"
               fill="#fcc062"
               r="15"
               id="circle8" />
          </g>
          <g
             id="g10">
            <circle
               cx="150.91"
               cy="314.83301"
               fill="#e2fc85"
               r="15"
               style="fill:#ed333b"
               id="circle9" />
          </g>
          <g
             id="g11">
            <circle
               cx="358.75699"
               cy="314.83301"
               fill="#e2fc85"
               r="15"
               style="fill:#ed333b"
               id="circle10" />
          </g>
          <g
             id="g12">
            <circle
               cx="254.83299"
               cy="375.57999"
               fill="#fcc062"
               r="15"
               id="circle11" />
          </g>
          <g
             id="g13">
            <circle
               cx="358.75699"
               cy="195.58"
               fill="#fcc062"
               r="15"
               id="circle12" />
          </g>
          <g
             id="g14">
            <path
               d="m 274.535,277.497 -14.263,0.011 c -3.401,0.003 -5.812,-3.318 -4.757,-6.551 l 5.159,-15.808 c 4.474,-13.709 17.254,-22.988 31.674,-22.998 l 14.263,-0.011 c 3.401,-0.003 5.812,3.318 4.757,6.551 l -5.159,15.808 c -4.474,13.709 -17.254,22.988 -31.674,22.998 z"
               fill="#8edf78"
               id="path13" />
          </g>
          <g
             id="g15">
            <path
               d="m 306.611,232.14 -12.174,0.009 -2.603,7.975 c -4.474,13.708 -17.254,22.988 -31.674,22.998 l -2.089,0.002 -2.556,7.832 c -1.055,3.233 1.356,6.554 4.757,6.552 l 14.263,-0.011 c 14.42,-0.011 27.199,-9.29 31.674,-22.998 l 5.159,-15.808 c 1.056,-3.233 -1.356,-6.554 -4.757,-6.551 z"
               fill="#31a469"
               id="path14" />
          </g>
          <g
             id="g16">
            <path
               d="m 235.192,277.526 14.263,-0.011 c 3.401,-0.003 5.807,-3.327 4.747,-6.558 l -5.183,-15.8 c -4.494,-13.702 -17.288,-22.962 -31.708,-22.951 l -14.263,0.011 c -3.401,0.003 -5.807,3.327 -4.747,6.558 l 5.183,15.8 c 4.494,13.702 17.287,22.962 31.708,22.951 z"
               fill="#8edf78"
               id="path15" />
          </g>
          <g
             id="g17">
            <path
               d="m 251.642,263.154 -2.08,0.002 c -14.42,0.011 -27.213,-9.25 -31.708,-22.952 l -2.623,-7.997 -12.184,0.009 c -3.401,0.002 -5.807,3.327 -4.747,6.558 l 5.183,15.8 c 4.495,13.702 17.287,22.962 31.708,22.952 l 14.263,-0.011 c 3.401,-0.002 5.807,-3.327 4.747,-6.559 z"
               fill="#31a469"
               id="path16" />
          </g>
        </g>
      </g>
    </g>
    <g
       id="g36">
      <path
         d="m 414.83,433.501 10.01,11.172 c 3.942,-3.533 7.831,-7.242 11.557,-11.023 l -10.686,-10.527 c -3.508,3.561 -7.169,7.052 -10.881,10.378 z"
         fill="#000000"
         id="path20" />
      <path
         d="M 435.028,74.639 C 386.896,26.507 322.902,0 254.833,0 186.764,0 122.771,26.507 74.639,74.639 26.507,122.771 0,186.765 0,254.833 c 0,68.068 26.507,132.063 74.639,180.194 48.131,48.132 112.126,74.639 180.194,74.639 57.424,0 111.638,-18.646 156.78,-53.921 l -9.236,-11.82 c -42.479,33.195 -93.5,50.741 -147.544,50.741 C 122.589,494.666 15,387.077 15,254.833 15,122.589 122.589,15 254.833,15 c 132.244,0 239.833,107.589 239.833,239.833 0,57.66 -20.76,113.389 -58.455,156.921 l 11.34,9.818 C 487.607,375.315 509.666,316.099 509.666,254.833 509.667,186.765 483.16,122.771 435.028,74.639 Z"
         fill="#000000"
         id="path21" />
      <path
         d="m 440.404,222.128 c 2.236,-12.398 4.507,-25.03 -0.557,-37.065 -4.427,-10.523 -13.228,-17.411 -21.796,-24.461 -4.633,-27.915 -15.673,-40.614 -42.104,-50.095 -5.455,-9.627 -10.891,-19.513 -20.354,-25.773 -10.908,-7.215 -23.735,-7.068 -36.299,-6.995 -8.442,-7.164 -16.916,-14.637 -27.967,-17.27 -12.708,-3.028 -24.731,1.569 -36.489,5.947 -11.75,-4.363 -23.81,-8.963 -36.492,-5.932 -11.062,2.644 -19.52,10.104 -27.967,17.272 -11.916,-0.084 -24.389,-0.338 -34.982,6.002 -10.207,6.109 -15.998,16.708 -21.687,26.719 -10.622,3.83 -21.748,7.639 -29.556,16.243 -8.551,9.422 -10.483,21.826 -12.522,33.903 -8.297,6.896 -16.963,13.85 -21.554,23.896 -5.594,12.243 -3.193,24.896 -0.827,37.58 -5.634,9.521 -10.786,18.567 -12.299,29.726 l 0.139,0.164 c -0.814,13.167 5.794,24.59 12.167,35.565 -2.258,12.343 -4.638,24.996 0.551,36.967 4.524,10.435 13.287,17.469 21.827,24.528 1.973,11.58 3.865,23.636 11.671,32.934 7.814,9.307 19.345,13.249 30.417,17.187 5.467,9.623 10.886,19.504 20.354,25.767 10.913,7.218 23.733,7.065 36.301,6.992 8.293,7.038 16.664,14.471 27.491,17.205 l 0.127,0.17 c 2.981,0.588 6.043,0.976 9.082,0.976 9.741,0 18.786,-3.681 27.751,-7.027 11.575,4.33 23.466,8.859 35.986,6.042 11.206,-2.521 19.939,-10.151 28.466,-17.361 13.226,0.098 26.672,0.167 37.813,-8.01 8.549,-6.274 13.712,-15.722 18.859,-24.732 10.624,-3.811 21.758,-7.646 29.561,-16.244 8.552,-9.422 10.482,-21.826 12.521,-33.904 8.336,-6.93 17.035,-13.923 21.613,-24.036 5.534,-12.225 3.118,-24.834 0.76,-37.482 4.251,-7.507 9.459,-15.063 11.215,-23.611 3.108,-15.134 -3.961,-29.004 -11.22,-41.787 z m -4.432,42.211 c -2.54,7.165 -7.531,13.879 -11.261,20.466 1.692,10.303 5.642,21.71 2.091,31.953 -3.683,10.623 -14.382,17.328 -22.57,24.312 -1.974,10.408 -2.221,22.705 -9.337,31.124 -7.128,8.433 -19.267,11.074 -29.194,14.794 -5.455,9.244 -10.248,20.967 -20.063,26.421 -9.5,5.279 -21.332,3.414 -31.8,3.542 -8.483,6.983 -17.383,16.82 -28.939,18.152 -10.28,1.185 -20.634,-4.479 -30.074,-7.797 -9.733,3.425 -20.14,9.16 -30.727,7.783 -11.36,-1.86 -19.773,-11.138 -28.27,-18.139 -10.441,-0.098 -22.911,1.704 -32.402,-3.785 -9.468,-5.477 -14.154,-17.234 -19.45,-26.206 -9.785,-3.659 -22.131,-6.223 -29.184,-14.623 -7.034,-8.378 -7.432,-21.026 -9.358,-31.267 -7.556,-6.45 -17.357,-12.577 -21.579,-21.927 -4.868,-10.781 -0.755,-23.281 1.1,-34.339 -5.813,-10.295 -14.437,-21.519 -12.658,-34.063 1.337,-9.433 8.11,-17.753 12.658,-25.879 -1.7,-10.334 -5.675,-21.811 -2.048,-32.071 3.726,-10.54 14.376,-17.244 22.526,-24.194 1.972,-10.408 2.223,-22.706 9.338,-31.124 7.127,-8.431 19.266,-11.078 29.193,-14.794 5.224,-8.88 9.871,-20.529 19.151,-26.058 9.481,-5.648 22.221,-3.777 32.704,-3.881 7.666,-6.311 15.445,-14.953 25.379,-17.486 11.444,-2.918 23.094,3.37 33.643,7.106 10.543,-3.739 22.194,-10.033 33.634,-7.123 9.924,2.525 17.702,11.173 25.365,17.477 10.442,0.103 22.909,-1.703 32.4,3.788 9.467,5.478 14.158,17.238 19.451,26.213 9.982,3.719 22.418,6.447 29.541,15.021 6.951,8.367 7.071,20.596 9.008,30.836 7.786,6.703 17.943,12.78 21.927,22.644 4.292,10.628 0.356,22.854 -1.457,33.646 6.687,11.734 16.233,25.454 11.262,39.478 z"
         fill="#000000"
         id="path22" />
      <path
         d="M 413.932,95.735 C 371.436,53.238 314.933,29.834 254.833,29.834 c -60.1,0 -116.602,23.404 -159.099,65.901 -42.497,42.496 -65.901,98.999 -65.901,159.099 0,60.1 23.404,116.603 65.901,159.099 42.497,42.497 99,65.901 159.099,65.901 60.099,0 116.603,-23.404 159.099,-65.901 42.497,-42.496 65.901,-98.999 65.901,-159.099 0,-60.1 -23.404,-116.603 -65.901,-159.099 z M 254.833,464.833 c -115.794,0 -210,-94.206 -210,-210 0,-115.794 94.206,-210 210,-210 115.794,0 210,94.206 210,210 0,115.794 -94.206,210 -210,210 z"
         fill="#000000"
         id="path23" />
      <path
         d="m 254.833,157.333 c 12.406,0 22.5,-10.094 22.5,-22.5 0,-12.406 -10.094,-22.5 -22.5,-22.5 -12.407,0 -22.5,10.094 -22.5,22.5 0,12.406 10.094,22.5 22.5,22.5 z m 0,-30 c 4.136,0 7.5,3.364 7.5,7.5 0,4.136 -3.364,7.5 -7.5,7.5 -4.136,0 -7.5,-3.364 -7.5,-7.5 0,-4.136 3.365,-7.5 7.5,-7.5 z"
         fill="#000000"
         id="path24" />
      <path
         d="m 150.875,217.343 c 10.736,0 20.203,-7.843 22.17,-18.403 1.671,-8.97 -2.435,-18.305 -10.15,-23.15 -8.073,-5.07 -18.775,-4.448 -26.178,1.571 -7.355,5.98 -10.177,16.217 -6.964,25.128 3.167,8.787 11.763,14.854 21.122,14.854 z m -7.43,-23.266 c 0.383,-3.79 3.674,-6.747 7.478,-6.747 1.299,0 2.583,0.341 3.738,1.008 0,0 5.798,2.87 3.155,9.425 -1.369,3.396 -5.213,5.25 -8.765,4.335 -3.55,-0.913 -5.975,-4.368 -5.606,-8.021 z"
         fill="#000000"
         id="path25" />
      <path
         d="m 150.593,292.343 c -11.94,0.183 -21.869,9.986 -22.185,21.931 -0.33,12.494 10.073,23.069 22.538,23.069 12.714,0 23.105,-11.047 22.443,-23.705 -0.622,-11.913 -10.885,-21.478 -22.796,-21.295 z m 2.008,29.764 c -8.169,1.897 -12.747,-9.549 -5.441,-13.769 0,0 2.439,-1.008 3.739,-1.008 8.722,0 10.158,12.813 1.702,14.777 z"
         fill="#000000"
         id="path26" />
      <path
         d="m 254.833,352.333 c -12.407,0 -22.5,10.094 -22.5,22.5 0,12.406 10.093,22.5 22.5,22.5 12.406,0 22.5,-10.094 22.5,-22.5 0,-12.406 -10.093,-22.5 -22.5,-22.5 z m 0,30 c -4.136,0 -7.5,-3.364 -7.5,-7.5 0,-4.136 3.364,-7.5 7.5,-7.5 4.136,0 7.5,3.364 7.5,7.5 0,4.136 -3.364,7.5 -7.5,7.5 z"
         fill="#000000"
         id="path27" />
      <path
         d="m 363.827,293.011 c -24.459,-5.641 -38.125,28.719 -16.321,41.307 3.467,2.002 7.315,3.024 11.214,3.024 25.981,0.001 30.308,-38.519 5.107,-44.331 z m -8.821,28.317 c -6.515,-3.761 -3.69,-13.998 3.762,-13.998 12.499,0 6.806,20.094 -3.762,13.998 z"
         fill="#000000"
         id="path28" />
      <path
         d="m 358.792,217.343 c 11.239,0 20.91,-8.657 22.299,-19.764 1.209,-9.667 -4.223,-19.303 -13.112,-23.273 -8.847,-3.952 -19.505,-1.72 -25.975,5.505 -5.392,6.021 -7.16,14.753 -4.509,22.392 3.117,8.982 11.786,15.14 21.297,15.14 z m -0.047,-30.013 c 7.493,0 10.249,10.251 3.763,13.998 h -0.002 c -4.377,2.527 -10.115,-0.077 -11.101,-5.023 -0.908,-4.551 2.669,-8.975 7.34,-8.975 z"
         fill="#000000"
         id="path29" />
      <path
         d="m 306.614,224.64 c -16.461,-2.474 -35.4,1.95 -46.073,15.236 -1.722,2.144 -3.955,5.876 -6.035,10.305 -7.167,-14.646 -18.561,-24.654 -37.168,-25.474 -17.128,-0.754 -30.494,3.199 -24.001,22.995 6.56,20 18.285,37.327 41.83,37.325 6.355,0 22.778,-0.019 25.105,-0.019 18.1,0 35.301,-0.618 47.146,-16.706 8.156,-11.077 20.322,-40.487 -0.804,-43.662 z m -71.428,45.387 c -18.553,0 -23.909,-15.758 -28.684,-30.313 9.745,-0.007 19.336,-0.75 27.401,5.983 7.294,6.09 9.27,15.7 12.098,24.321 z m 57.194,-7.27 c -8.119,7.879 -18.256,7.241 -28.665,7.249 2.643,-8.097 4.469,-16.98 10.789,-23.114 8.119,-7.879 18.256,-7.241 28.665,-7.249 -2.644,8.097 -4.469,16.98 -10.789,23.114 z"
         fill="#000000"
         id="path30" />
      <path
         d="m 187.333,141.833 h 15 v 15 h -15 z"
         fill="#000000"
         id="path31" />
      <path
         d="m 307.333,141.833 h 15 v 15 h -15 z"
         fill="#000000"
         id="path32" />
      <path
         d="m 367.333,247.366 h 15 v 15 h -15 z"
         fill="#000000"
         id="path33" />
      <path
         d="m 307.333,352.333 h 15 v 15 h -15 z"
         fill="#000000"
         id="path34" />
      <path
         d="m 187.333,352.333 h 15 v 15 h -15 z"
         fill="#000000"
         id="path35" />
      <path
         d="m 127.333,247.366 h 15 v 15 h -15 z"
         fill="#000000"
         id="path36" />
    </g>
  </g>
</svg>
