<?xml version="1.0" encoding="UTF-8" standalone="no"?>
<!-- icon666.com - MILLIONS vector ICONS FREE -->

<svg
   id="Layer_1"
   viewBox="0 0 336 336"
   data-name="Layer 1"
   version="1.1"
   sodipodi:docname="risotto.svg"
   width="336"
   height="336"
   inkscape:version="1.3.1 (9b9bdc1480, 2023-11-25, custom)"
   xmlns:inkscape="http://www.inkscape.org/namespaces/inkscape"
   xmlns:sodipodi="http://sodipodi.sourceforge.net/DTD/sodipodi-0.dtd"
   xmlns="http://www.w3.org/2000/svg"
   xmlns:svg="http://www.w3.org/2000/svg">
  <defs
     id="defs24" />
  <sodipodi:namedview
     id="namedview24"
     pagecolor="#ffffff"
     bordercolor="#000000"
     borderopacity="0.25"
     inkscape:showpageshadow="2"
     inkscape:pageopacity="0.0"
     inkscape:pagecheckerboard="0"
     inkscape:deskcolor="#d1d1d1"
     inkscape:zoom="1.660818"
     inkscape:cx="109.88561"
     inkscape:cy="163.77471"
     inkscape:window-width="1920"
     inkscape:window-height="1011"
     inkscape:window-x="0"
     inkscape:window-y="32"
     inkscape:window-maximized="1"
     inkscape:current-layer="Layer_1" />
  <circle
     cx="246.75"
     cy="225.75"
     fill="#f7a539"
     id="circle1"
     style="stroke-width:5.25001"
     r="10.5" />
  <circle
     cx="99.75"
     cy="225.75"
     fill="#f7a539"
     id="circle2"
     style="stroke-width:5.25001"
     r="10.5" />
  <circle
     cx="183.75"
     cy="131.25"
     fill="#f7a539"
     id="circle3"
     style="stroke-width:5.25001"
     r="10.5" />
  <path
     d="M 168,5.25 A 162.75,162.75 0 1 1 5.25,168 162.75,162.75 0 0 1 168,5.25 Z M 299.25,168 V 131.25 A 26.25,26.25 0 0 0 273,105 26.17125,26.17125 0 0 0 246.75,78.75 H 236.1975 A 52.1535,52.1535 0 0 0 246.75,47.25 H 220.5 a 51.975,51.975 0 0 0 -27.4575,7.77 26.29725,26.29725 0 0 0 -50.085,0 A 51.975,51.975 0 0 0 115.5,47.25 H 89.25 a 52.1535,52.1535 0 0 0 10.5525,31.5 H 89.25 A 26.17125,26.17125 0 0 0 63,105 26.25,26.25 0 0 0 36.75,131.25 V 168 a 131.25,131.25 0 0 0 262.5,0 z"
     fill="#8cbf43"
     id="path3"
     style="stroke-width:5.25001" />
  <path
     d="M 193.0425,55.02 A 51.975,51.975 0 0 1 220.5,47.25 h 26.25 a 52.605,52.605 0 0 1 -52.5,52.5 H 168 a 52.5,52.5 0 0 1 25.0425,-44.73 z"
     fill="#419947"
     id="path4"
     style="stroke-width:5.25001" />
  <path
     d="M 99.8025,78.75 A 52.1535,52.1535 0 0 1 89.25,47.25 h 26.25 a 52.542,52.542 0 0 1 52.5,52.5 h -26.25 a 52.27425,52.27425 0 0 1 -41.9475,-21 z"
     fill="#64b269"
     id="path5"
     style="stroke-width:5.25001" />
  <path
     d="M 193.0425,55.02 A 52.5,52.5 0 0 0 168,99.75 52.5,52.5 0 0 0 142.9575,55.02 a 26.29725,26.29725 0 0 1 50.085,0 z"
     fill="#ccbfa3"
     id="path6"
     style="stroke-width:5.25001" />
  <path
     d="m 183.75,236.25 h 21 a 31.5,31.5 0 0 1 -31.5,31.5 h -10.5 a 31.54725,31.54725 0 0 1 -31.5,-31.5 h 21 l -2.625,-21.1575 C 147,199.5 157.6575,194.25 168,194.25 c 15.75,0 19.7925,9.765 18.375,20.8425 z"
     fill="#b18264"
     id="path7"
     style="stroke-width:5.25001" />
  <path
     d="m 120.75,147.1575 h 21 a 31.54725,31.54725 0 0 0 -31.5,-31.5 h -10.5 a 31.5,31.5 0 0 0 -31.5,31.5 h 21 l -2.625,21.1575 c -1.4175,11.0775 2.625,20.8425 18.375,20.8425 10.3425,0 21,-5.25 18.375,-20.8425 z"
     fill="none"
     id="path8"
     style="stroke-width:5.25001" />
  <path
     d="M 186.375,215.0925 C 187.7925,204.015 183.75,194.25 168,194.25 c -10.3425,0 -21,5.25 -18.375,20.8425 l 2.625,21.1575 h -21 a 31.54725,31.54725 0 0 0 31.5,31.5 h 10.5 a 31.5,31.5 0 0 0 31.5,-31.5 h -21 z"
     fill="none"
     id="path9"
     style="stroke-width:5.25001" />
  <circle
     cx="183.75"
     cy="131.25"
     fill="none"
     id="circle9"
     style="stroke-width:5.25001"
     r="10.5" />
  <circle
     cx="99.75"
     cy="225.75"
     fill="none"
     id="circle10"
     style="stroke-width:5.25001"
     r="10.5" />
  <circle
     cx="246.75"
     cy="225.75"
     fill="none"
     id="circle11"
     style="stroke-width:5.25001"
     r="10.5" />
  <path
     d="M 273,105 A 26.17125,26.17125 0 0 0 246.75,78.75 h -10.5525 a 52.27425,52.27425 0 0 1 -41.9475,21 h -52.5 a 52.27425,52.27425 0 0 1 -41.9475,-21 H 89.25 A 26.17125,26.17125 0 0 0 63,105 26.25,26.25 0 0 0 36.75,131.25 V 168 a 131.25,131.25 0 0 0 262.5,0 V 131.25 A 26.25,26.25 0 0 0 273,105 Z m -89.25,15.75 a 10.5,10.5 0 1 1 -10.5,10.5 10.5315,10.5315 0 0 1 10.5,-10.5 z m -94.5,105 a 10.5,10.5 0 1 1 10.5,10.5 10.5315,10.5315 0 0 1 -10.5,-10.5 z M 105,189.1575 c -15.75,0 -19.7925,-9.765 -18.375,-20.8425 l 2.625,-21.1575 h -21 a 31.5,31.5 0 0 1 31.5,-31.5 h 10.5 a 31.54725,31.54725 0 0 1 31.5,31.5 h -21 l 2.625,21.1575 C 126,183.9075 115.3425,189.1575 105,189.1575 Z m 68.25,78.5925 h -10.5 a 31.54725,31.54725 0 0 1 -31.5,-31.5 h 21 l -2.625,-21.1575 C 147,199.5 157.6575,194.25 168,194.25 c 15.75,0 19.7925,9.765 18.375,20.8425 L 183.75,236.25 h 21 a 31.5,31.5 0 0 1 -31.5,31.5 z m 80.9235,-49.4235 a 10.5,10.5 0 1 1 -14.847,0 10.52625,10.52625 0 0 1 14.847,0 z M 241.5,194.25 H 231 a 31.54725,31.54725 0 0 1 -31.5,-31.5 h 21 l -2.625,-21.1575 C 215.25,126 225.9075,120.75 236.25,120.75 c 15.75,0 19.7925,9.765 18.375,20.8425 L 252,162.75 h 21 a 31.5,31.5 0 0 1 -31.5,31.5 z"
     fill="#ccbfa3"
     id="path11"
     style="stroke-width:5.25001" />
  <path
     d="M 254.625,141.5925 C 256.0425,130.515 252,120.75 236.25,120.75 c -10.3425,0 -21,5.25 -18.375,20.8425 L 220.5,162.75 h -21 a 31.54725,31.54725 0 0 0 31.5,31.5 h 10.5 a 31.5,31.5 0 0 0 31.5,-31.5 h -21 z"
     fill="#b18264"
     id="path12"
     style="stroke-width:5.25001" />
  <circle
     cx="99.75"
     cy="225.75"
     fill="none"
     id="circle12"
     style="stroke-width:5.25001"
     r="10.5" />
  <circle
     cx="183.75"
     cy="131.25"
     fill="none"
     id="circle13"
     style="stroke-width:5.25001"
     r="10.5" />
  <circle
     cx="246.75"
     cy="225.75"
     fill="none"
     id="circle14"
     style="stroke-width:5.25001"
     r="10.5" />
  <path
     d="m 120.75,147.1575 h 21 a 31.54725,31.54725 0 0 0 -31.5,-31.5 h -10.5 a 31.5,31.5 0 0 0 -31.5,31.5 h 21 l -2.625,21.1575 c -1.4175,11.0775 2.625,20.8425 18.375,20.8425 10.3425,0 21,-5.25 18.375,-20.8425 z"
     fill="#b18264"
     id="path14"
     style="stroke-width:5.25001" />
  <g
     fill="#252525"
     id="g24"
     transform="scale(5.25)">
    <circle
       cx="12.5"
       cy="37.5"
       r="1.5"
       id="circle15" />
    <circle
       cx="31.5"
       cy="31.5"
       r="1.5"
       id="circle16" />
    <circle
       cx="43.5"
       cy="48.5"
       r="1.5"
       id="circle17" />
    <path
       d="M 32,0 A 32,32 0 1 0 64,32 32.036,32.036 0 0 0 32,0 Z m 0,62 A 30,30 0 1 1 62,32 30.034,30.034 0 0 1 32,62 Z"
       id="path17" />
    <path
       d="M 52.929,19.072 A 6.016,6.016 0 0 0 51.243,15.749 5.643,5.643 0 0 0 46.789,14.006 10.871,10.871 0 0 0 48,9 1,1 0 0 0 47,8 H 42 A 10.937,10.937 0 0 0 37.246,9.1 5.986,5.986 0 0 0 26.754,9.1 10.94,10.94 0 0 0 22,8 h -5 a 1,1 0 0 0 -1,1 10.882,10.882 0 0 0 1.209,5 5.985,5.985 0 0 0 -6.138,5.069 A 6.009,6.009 0 0 0 6,25 v 7 A 26,26 0 0 0 17.438,53.533 1.053,1.053 0 0 0 18.828,53.267 1,1 0 0 0 18.562,51.878 24,24 0 0 1 8,32 v -7 a 4,4 0 0 1 4,-4 1,1 0 0 0 1,-1 3.984,3.984 0 0 1 4,-4 h 1.546 A 10.873,10.873 0 0 0 27,20 h 10 a 10.868,10.868 0 0 0 8.453,-4 H 47 a 3.984,3.984 0 0 1 4,4 1,1 0 0 0 1,1 4,4 0 0 1 4,4 v 7 A 24.028,24.028 0 0 1 32,56 23.782,23.782 0 0 1 22.4,54 1,1 0 0 0 21.6,55.832 26,26 0 0 0 58,32 V 25 A 6.009,6.009 0 0 0 52.929,19.072 Z M 32,8 A 3.993,3.993 0 0 1 35.536,10.13 10.92,10.92 0 0 0 32,14.447 10.913,10.913 0 0 0 28.464,10.13 3.993,3.993 0 0 1 32,8 Z M 27,18 A 9.026,9.026 0 0 1 18.055,10 H 22 a 9.011,9.011 0 0 1 8.945,8 z m 10,0 H 33.055 A 9.01,9.01 0 0 1 42,10 h 3.945 A 9.03,9.03 0 0 1 37,18 Z"
       id="path18" />
    <path
       d="m 19,42 a 1,1 0 0 0 0,-2 3,3 0 0 0 0,6 1,1 0 0 0 0,-2 1,1 0 0 1 0,-2 z"
       id="path19" />
    <path
       d="m 37,24 a 1,1 0 0 0 -1,1 1,1 0 0 1 -2,0 1,1 0 0 0 -2,0 3,3 0 0 0 6,0 1,1 0 0 0 -1,-1 z"
       id="path20" />
    <path
       d="m 47.707,45.121 a 1,1 0 0 0 1.414,0 3,3 0 0 0 0,-4.243 3.078,3.078 0 0 0 -4.242,0 1,1 0 0 0 1.414,1.414 1.028,1.028 0 0 1 1.414,0 1,1 0 0 1 0,1.414 1,1 0 0 0 0,1.415 z"
       id="path21" />
    <path
       d="m 37,31 a 7.009,7.009 0 0 0 7,7 h 2 a 7.008,7.008 0 0 0 7,-7 1,1 0 0 0 -1,-1 h -2.868 l 0.36,-2.9 A 4.616,4.616 0 0 0 48.586,23.361 4.546,4.546 0 0 0 45,22 a 4.7,4.7 0 0 0 -3.688,1.482 4.256,4.256 0 0 0 -0.8,3.611 L 40.868,30 H 38 a 1,1 0 0 0 -1,1 z m 5,1 a 1,1 0 0 0 0.992,-1.123 L 42.486,26.8 A 2.433,2.433 0 0 1 42.839,24.769 2.811,2.811 0 0 1 45,24 a 2.687,2.687 0 0 1 2.085,0.68 2.823,2.823 0 0 1 0.423,2.167 l -0.5,4.03 A 1,1 0 0 0 48,32 h 2.9 A 5.008,5.008 0 0 1 46,36 h -2 a 5.018,5.018 0 0 1 -4.9,-4 z"
       id="path22" />
    <path
       d="M 27.508,41.093 27.868,44 H 25 a 1,1 0 0 0 -1,1 7.009,7.009 0 0 0 7,7 h 2 a 7.008,7.008 0 0 0 7,-7 1,1 0 0 0 -1,-1 h -2.868 l 0.36,-2.9 A 4.616,4.616 0 0 0 35.586,37.361 4.546,4.546 0 0 0 32,36 a 4.7,4.7 0 0 0 -3.688,1.482 4.256,4.256 0 0 0 -0.804,3.611 z m 1.978,-0.289 A 2.433,2.433 0 0 1 29.839,38.773 2.811,2.811 0 0 1 32,38 a 2.687,2.687 0 0 1 2.085,0.68 2.823,2.823 0 0 1 0.423,2.167 l -0.5,4.03 A 1,1 0 0 0 35,46 h 2.9 A 5.008,5.008 0 0 1 33,50 H 31 A 5.018,5.018 0 0 1 26.1,46 H 29 a 1,1 0 0 0 0.992,-1.123 z"
       id="path23" />
    <path
       d="M 24.492,31.937 24.132,29.03 H 27 a 1,1 0 0 0 1,-1 7.009,7.009 0 0 0 -7,-7 h -2 a 7.008,7.008 0 0 0 -7,7 1,1 0 0 0 1,1 h 2.868 l -0.36,2.9 a 4.613,4.613 0 0 0 0.906,3.738 4.543,4.543 0 0 0 3.586,1.362 4.7,4.7 0 0 0 3.688,-1.482 4.253,4.253 0 0 0 0.804,-3.611 z m -1.978,0.289 A 2.43,2.43 0 0 1 22.161,34.256 2.807,2.807 0 0 1 20,35.03 2.687,2.687 0 0 1 17.915,34.35 2.823,2.823 0 0 1 17.492,32.183 l 0.5,-4.03 A 1,1 0 0 0 17,27.03 h -2.9 a 5.007,5.007 0 0 1 4.9,-4 h 2 a 5.018,5.018 0 0 1 4.9,4 H 23 a 1,1 0 0 0 -0.992,1.123 z"
       id="path24" />
  </g>
</svg>
