<?xml version="1.0" encoding="UTF-8" standalone="no"?>
<!-- icon666.com - MILLIONS vector ICONS FREE -->

<svg
   version="1.1"
   id="Capa_1"
   x="0px"
   y="0px"
   viewBox="0 0 336 336"
   xml:space="preserve"
   sodipodi:docname="shawarma.svg"
   width="336"
   height="336"
   inkscape:version="1.3.1 (9b9bdc1480, 2023-11-25, custom)"
   xmlns:inkscape="http://www.inkscape.org/namespaces/inkscape"
   xmlns:sodipodi="http://sodipodi.sourceforge.net/DTD/sodipodi-0.dtd"
   xmlns="http://www.w3.org/2000/svg"
   xmlns:svg="http://www.w3.org/2000/svg"><defs
     id="defs18" /><sodipodi:namedview
     id="namedview18"
     pagecolor="#ffffff"
     bordercolor="#000000"
     borderopacity="0.25"
     inkscape:showpageshadow="2"
     inkscape:pageopacity="0.0"
     inkscape:pagecheckerboard="0"
     inkscape:deskcolor="#d1d1d1"
     inkscape:zoom="1.578125"
     inkscape:cx="111.20792"
     inkscape:cy="197.70297"
     inkscape:window-width="1920"
     inkscape:window-height="1011"
     inkscape:window-x="0"
     inkscape:window-y="32"
     inkscape:window-maximized="1"
     inkscape:current-layer="Capa_1"
     showgrid="false" /><path
     style="fill:#d4f582;stroke-width:0.708091"
     d="m 232.27575,52.171009 c -2.42156,-6.406288 4.01028,-16.748748 -0.5077,-22.081415 -4.56264,-5.385166 -18.03287,-3.30683 -24.30319,-7.226596 -6.20885,-3.881048 -8.04412,-15.5471584 -15.50274,-17.6274628 -7.19716,-2.007461 -16.63473,6.4384438 -24.61125,6.4384438 -7.97602,0 -17.41346,-8.4459048 -24.60994,-6.4391001 -7.4587,2.0803045 -9.29477,13.7464151 -15.50261,17.6274621 -6.26973,3.91911 -19.7406,1.840774 -24.30348,7.226597 -4.518542,5.332011 1.91394,15.675127 -0.50807,22.081414 -2.33646,6.181195 -14.696448,11.270394 -14.696448,18.121617 l 67.373468,55.627471 h 36.74449 l 55.12129,-55.627471 c 0.005,-6.850567 -12.3568,-11.939766 -14.69382,-18.12096 z"
     id="path1" /><ellipse
     style="fill:#ffd164;stroke-width:0.708091"
     cx="167.34904"
     cy="70.68441"
     rx="36.749786"
     ry="39.452942"
     id="ellipse1" /><path
     style="fill:#ffc350;stroke-width:0.708091"
     d="m 185.72586,78.573812 c -13.79392,-8.462311 -7.46448,-16.932496 -14.9286,-25.973618 -9.95168,-12.053953 -15.31154,-7.561939 -18.54709,-17.857805 -12.75414,6.18907 -21.64615,19.936797 -21.64615,35.940704 0,21.79004 16.45293,39.453597 36.74757,39.453597 14.90648,0 27.71156,-9.54643 33.47508,-23.240348 0.002,6.57e-4 -8.4016,-4.212452 -15.10081,-8.32253 z"
     id="path2" /><path
     style="fill:#e3aa75;stroke-width:0.708091"
     d="m 209.08201,55.571027 c -2.85894,-4.911356 -9.48784,-7.26991 -15.55284,-5.533479 -4.75701,1.361714 -8.15607,4.976325 -8.70627,9.257027 l -11.34688,77.145165 55.12165,-47.344312 z"
     id="path3" /><path
     style="fill:#cd916e;stroke-width:0.708091"
     d="m 203.19646,59.294575 c 0.31966,-2.485866 1.67963,-4.679701 3.62861,-6.405632 -3.35782,-3.001675 -8.48775,-4.228202 -13.2959,-2.851395 -4.75701,1.361714 -8.15607,4.976325 -8.70627,9.257027 l -11.34688,77.145165 21.0311,-18.06386 z"
     id="path4" /><ellipse
     style="fill:#ff8087;stroke-width:0.708091"
     cx="130.60696"
     cy="68.052856"
     id="circle4"
     rx="30.622143"
     ry="26.301741" /><path
     style="fill:#e6646e;stroke-width:0.708091"
     d="m 142.85319,78.573812 c -16.91289,0 -30.62302,-11.77636 -30.62302,-26.302397 0,-1.954962 0.28811,-3.845611 0.75878,-5.679166 -7.84831,4.762388 -13.007905,12.579607 -13.007905,21.460604 0,14.526694 13.710785,26.302398 30.622975,26.302398 14.63673,0 26.83552,-8.833747 29.86348,-20.623232 -4.98774,3.027269 -11.04202,4.841793 -17.61431,4.841793 z"
     id="path5" /><path
     style="fill:#cd916e;stroke-width:0.708091"
     d="m 163.61379,82.04208 c -4.68287,-7.063847 -14.84694,-9.917211 -23.4829,-6.592006 l -34.02526,13.645354 55.12134,63.125752 30.62275,-26.30239 z"
     id="path6" /><path
     style="fill:#b47d69;stroke-width:0.708091"
     d="m 182.45761,132.22139 c -17.2691,-21.41664 -34.41804,-39.9471 -48.53467,-54.281513 l -27.8158,11.155551 55.12134,63.125752 22.05866,-18.94652 c -0.28496,-0.3524 -0.54472,-0.70021 -0.82953,-1.05327 z"
     id="path7" /><path
     style="fill:#f7d291;stroke-width:0.708091"
     d="m 87.73186,315.29605 c 0,-105.92687 122.94487,-224.714878 152.77613,-251.979991 2.32612,-2.125585 6.46315,-0.688403 6.46315,2.228616 V 315.29605 c 0,8.71628 -8.22635,15.78144 -18.37347,15.78144 H 106.10563 c -10.147278,0 -18.37377,-7.06582 -18.37377,-15.78144"
     id="path8" /><path
     style="fill:#f0c382;stroke-width:0.708091"
     d="m 182.45761,132.22139 c -1.27158,-1.57762 -2.53826,-3.09224 -3.80823,-4.6377 -43.19515,50.73645 -90.916744,121.71618 -90.916744,187.71236 0,8.71628 8.226466,15.78144 18.373764,15.78144 h 122.49256 c 10.14796,0 18.37396,-7.06582 18.37396,-15.78144 V 235.07636 C 233.17335,202.82377 211.68371,168.4679 182.45761,132.22139 Z"
     id="path9" /><path
     style="fill:#f7d291;stroke-width:0.708091"
     d="M 246.97197,315.29605 C 246.97197,194.74274 87.732636,57.531894 87.732636,57.531894 V 315.29605 c 0,8.71628 8.226466,15.78144 18.373764,15.78144 h 122.49256 c 10.14632,0 18.37301,-7.06582 18.37301,-15.78144"
     id="path10" /><path
     style="fill:#f0c382;stroke-width:0.708091"
     d="M 106.10563,288.99365 V 74.514266 C 94.890982,63.713745 87.73186,57.531238 87.73186,57.531238 V 315.29539 c 0,8.71628 8.226492,15.78144 18.37377,15.78144 h 122.49263 c 10.14787,0 18.37371,-7.06581 18.37371,-15.78144 H 136.72931 c -16.91286,6.6e-4 -30.62368,-11.77504 -30.62368,-26.30174 z"
     id="path11" /><path
     d="m 249.16479,52.984755 c -2.1407,-0.76059 -4.60566,-0.340592 -6.24449,1.067059 -0.0401,0.03347 -0.45165,0.389811 -1.19204,1.042121 -1.83152,-1.590088 -3.5384,-3.216269 -4.00204,-4.442795 -0.6563,-1.735775 -0.0427,-4.990106 0.50054,-7.861189 0.97254,-5.152198 2.07509,-10.992144 -1.82544,-15.596377 -3.9348,-4.643606 -10.77987,-5.543322 -16.81967,-6.337381 -3.31756,-0.435748 -7.07723,-0.929903 -8.74543,-1.97268 -1.62121,-1.013902 -3.3051,-3.902704 -4.79119,-6.451569 -2.75414,-4.7262934 -5.8771,-10.0825851 -12.31334,-11.87807809 -6.21348,-1.73380581 -12.28211,0.94762129 -17.6365,3.31404959 -3.20904,1.4181507 -6.52724,2.8842075 -8.7436,2.8842075 -2.21576,0 -5.53486,-1.4660568 -8.74384,-2.8842075 -5.35358,-2.3657721 -11.42098,-5.0485116 -17.6364,-3.31404959 -6.43634,1.79483679 -9.55903,7.15112839 -12.31337,11.87742209 -1.48608,2.548865 -3.17003,5.437666 -4.79134,6.451569 -1.66794,1.042121 -5.4278,1.536275 -8.74446,1.97268 -6.03981,0.793403 -12.88565,1.693774 -16.820498,6.336725 -3.901211,4.603576 -2.798707,10.444178 -1.826066,15.596377 0.541717,2.871082 1.156755,6.125414 0.500431,7.861188 -0.463775,1.227183 -2.170645,2.85402 -4.002828,4.444108 -0.731963,-0.645091 -1.14378,-1.001434 -1.191154,-1.042121 C 90.143207,52.644163 87.678374,52.224165 85.537529,52.984755 83.3959,53.746659 82,55.541496 82,57.531894 V 315.29671 C 82,326.71279 92.812777,336 106.10412,336 H 228.59579 C 241.88713,336 252.7,326.71279 252.7,315.29671 V 57.531894 c 0.003,-1.990398 -1.39366,-3.785235 -3.53521,-4.547139 z M 107.56955,32.984958 c 1.1239,-1.326276 5.65009,-1.921492 9.28687,-2.39924 4.83416,-0.635248 9.83346,-1.292152 13.75519,-3.744548 3.87749,-2.423522 6.12372,-6.277007 8.29529,-10.003837 1.66175,-2.850738 3.73001,-6.398412 5.60433,-6.921441 1.67314,-0.4659357 5.825,1.366307 8.85371,2.705052 4.21591,1.863086 8.99506,3.97489 13.98665,3.97489 4.99139,0 9.77064,-2.111804 13.98728,-3.97489 3.02931,-1.339401 7.17909,-3.1723002 8.8538,-2.705052 1.87523,0.523029 3.94325,4.071359 5.60483,6.922098 2.17232,3.726829 4.41865,7.580314 8.29568,10.003836 3.92166,2.45174 8.92074,3.108644 13.75481,3.744548 3.63694,0.478404 8.16382,1.072964 9.28703,2.39924 1.08943,1.286245 0.36289,5.135137 -0.22155,8.228031 -0.7871,4.167171 -1.60081,8.476748 -0.0876,12.477233 1.25829,3.330456 4.06474,6.013851 7.00852,8.54631 -2.64043,2.439928 -5.78604,5.392386 -9.33884,8.805529 L 214.20758,53.369973 c -1.9966,-3.430206 -5.31193,-5.995477 -9.18794,-7.450378 -7.27741,-11.952234 -21.90816,-19.611955 -37.66806,-19.611955 -11.5311,0 -22.41334,3.984735 -30.38708,11.009208 -2.06665,-0.314999 -4.18978,-0.488248 -6.36049,-0.488248 -8.4756,0 -16.24673,2.448459 -22.41255,6.576255 -0.12606,-0.733028 -0.26358,-1.464744 -0.40112,-2.191866 -0.58372,-3.092894 -1.31034,-6.942442 -0.22079,-8.228031 z M 167.33718,132.4911 C 152.59777,114.67333 138.04356,98.979827 125.70035,86.399563 l 16.7754,-6.458787 c 5.97485,-2.300148 12.92077,-0.34978 16.15957,4.536638 l 21.70952,32.748066 c -4.2884,4.88773 -8.64116,9.98349 -13.00766,15.26562 z M 130.60474,46.672311 c 13.72627,0 24.89335,9.591713 24.89335,21.381198 0,0.724498 -0.0564,1.443089 -0.13912,2.157086 -5.55982,-1.610431 -11.8029,-1.471307 -17.57061,0.748778 l -19.84919,7.642658 c -4.53312,-4.489389 -8.63677,-8.439998 -12.17889,-11.786204 0.74495,-11.339956 11.5302,-20.143516 24.84446,-20.143516 z m 57.30263,62.068539 -3.07845,-4.6436 2.53536,-19.721554 c 0.34745,-2.701771 -1.92099,-5.133824 -5.06651,-5.432416 -3.15012,-0.300562 -5.97776,1.649806 -6.3247,4.351576 l -0.80145,6.233695 -6.57777,-9.922461 c -0.83584,-1.260652 -1.8046,-2.414991 -2.87741,-3.464331 0.81913,-2.628271 1.24073,-5.339885 1.24073,-8.090218 0,-11.396394 -7.14909,-21.382511 -17.79381,-26.833959 5.23686,-3.263518 11.56624,-5.067542 18.18823,-5.067542 9.18309,0 17.82959,3.571955 23.65473,9.446025 -6.48133,2.11443 -11.11385,7.205597 -11.8787,13.157106 l -0.45167,3.514205 c -0.34737,2.70177 1.92121,5.133823 5.06659,5.432416 3.14552,0.293343 5.97727,-1.649806 6.32481,-4.351577 l 0.45151,-3.514205 c 0.30413,-2.363147 2.19654,-4.375858 4.82339,-5.127917 3.33658,-0.958122 7.0415,0.361592 8.61534,3.064675 l 12.36851,21.246011 c -8.33177,8.256906 -18.07575,18.29946 -28.41873,29.724071 z m 23.66861,84.99061 c -1.4741,-2.4058 -4.93937,-3.32914 -7.73974,-2.0639 -2.80104,1.2659 -3.87607,4.24198 -2.40296,6.64779 0.32558,0.5309 0.6396,1.05853 0.96097,1.58877 h -84.03872 c -3.16463,0 -5.73027,2.20368 -5.73027,4.92186 0,2.71818 2.56564,4.92185 5.73027,4.92185 h 89.82352 c 21.94495,38.65167 33.0618,74.11069 33.0618,105.54888 0,5.98825 -5.67148,10.85958 -12.64318,10.85958 H 106.10563 c -6.971916,0 -12.643416,-4.87133 -12.643416,-10.85958 V 70.291969 c 0,-0.12403 0.01986,-0.254624 0.0503,-0.387842 8.205106,7.622314 20.872316,19.823267 35.393036,35.312023 h -10.5515 c -3.16465,0 -5.73038,2.20368 -5.73038,4.92185 0,2.71818 2.56573,4.92186 5.73038,4.92186 h 19.61382 c 6.12613,6.77444 12.46518,14.03976 18.85356,21.71982 h -38.4666 c -3.16465,0 -5.73032,2.20368 -5.73032,4.92186 0,2.71817 2.56566,4.92185 5.73032,4.92185 h 46.48906 c 5.57052,6.9746 11.11792,14.23204 16.53395,21.71982 h -63.02383 c -3.16463,0 -5.73033,2.20368 -5.73033,4.92186 0,2.71818 2.5657,4.92186 5.73033,4.92186 h 69.96979 c 0.51107,0.74287 1.02611,1.48115 1.53323,2.22796 1.59645,2.34739 5.1047,3.13883 7.83851,1.76858 2.73302,-1.37024 3.65519,-4.38504 2.05916,-6.73178 -8.15677,-12.0008 -16.77712,-23.5291 -25.44276,-34.37687 7.56881,-9.26818 15.12749,-17.98512 22.38804,-26.01299 h 19.64743 c 3.16463,0 5.73041,-2.20368 5.73041,-4.92186 0,-2.71818 -2.56579,-4.92185 -5.73041,-4.92185 h -10.58139 c 14.52161,-15.483507 27.20618,-27.689054 35.42202,-35.316618 0.0324,0.135187 0.0522,0.267093 0.0522,0.393092 V 254.4186 c -6.84664,-19.33633 -16.74559,-39.60322 -29.66401,-60.68714 z"
     id="path12"
     style="stroke-width:0.708091" /><path
     d="m 216.34826,294.59276 h -97.99273 c -3.16463,0 -5.73027,2.20367 -5.73027,4.92185 0,2.71818 2.56564,4.92186 5.73027,4.92186 h 97.99356 c 3.16457,0 5.7302,-2.20368 5.7302,-4.92186 0,-2.71818 -2.56563,-4.92185 -5.73103,-4.92185 z"
     id="path13"
     style="stroke-width:0.708091" /><path
     d="m 112.62526,267.95173 c 0,2.71818 2.56564,4.92186 5.73027,4.92186 h 97.99356 c 3.16457,0 5.7302,-2.20368 5.7302,-4.92186 0,-2.71817 -2.56563,-4.92185 -5.7302,-4.92185 h -97.99356 c -3.16463,6.5e-4 -5.73027,2.20368 -5.73027,4.92185 z"
     id="path14"
     style="stroke-width:0.708091" /><path
     d="m 155.10463,241.31071 h 46.44324 c 3.16468,0 5.73044,-2.20368 5.73044,-4.92185 0,-2.71818 -2.56576,-4.92186 -5.73044,-4.92186 h -46.44324 c -3.16457,0 -5.73035,2.20368 -5.73035,4.92186 0,2.71817 2.56578,4.92185 5.73035,4.92185 z"
     id="path15"
     style="stroke-width:0.708091" /><path
     d="m 118.35553,241.31071 h 12.24769 c 3.16469,0 5.73027,-2.20368 5.73027,-4.92185 0,-2.71818 -2.56558,-4.92186 -5.73027,-4.92186 h -12.24769 c -3.16463,0 -5.73027,2.20368 -5.73027,4.92186 0,2.71817 2.56564,4.92185 5.73027,4.92185 z"
     id="path16"
     style="stroke-width:0.708091" /><path
     d="m 216.34826,168.34125 h -3.25338 c -3.16462,0 -5.73024,2.20367 -5.73024,4.92185 0,2.71818 2.56562,4.92186 5.73024,4.92186 h 3.25338 c 3.16466,0 5.73031,-2.20368 5.73031,-4.92186 0,-2.71818 -2.56491,-4.92185 -5.73031,-4.92185 z"
     id="path17"
     style="stroke-width:0.708091" /><path
     d="m 216.34826,136.77837 h -18.37443 c -3.16485,0 -5.73053,2.20368 -5.73053,4.92185 0,2.71818 2.56568,4.92186 5.73053,4.92186 h 18.37443 c 3.16466,0 5.73031,-2.20368 5.73031,-4.92186 0,-2.71817 -2.56491,-4.92185 -5.73031,-4.92185 z"
     id="path18"
     style="stroke-width:0.708091" /></svg>
