<?xml version="1.0" encoding="UTF-8" standalone="no"?>
<!-- icon666.com - MILLIONS vector ICONS FREE -->

<svg
   viewBox="0 0 28.258734 28.492148"
   version="1.1"
   id="svg1"
   sodipodi:docname="cart_empty_green.svg"
   width="28.258734"
   height="28.492149"
   inkscape:version="1.3.1 (9b9bdc1480, 2023-11-25, custom)"
   xmlns:inkscape="http://www.inkscape.org/namespaces/inkscape"
   xmlns:sodipodi="http://sodipodi.sourceforge.net/DTD/sodipodi-0.dtd"
   xmlns="http://www.w3.org/2000/svg"
   xmlns:svg="http://www.w3.org/2000/svg">
  <defs
     id="defs1" />
  <sodipodi:namedview
     id="namedview1"
     pagecolor="#ffffff"
     bordercolor="#000000"
     borderopacity="0.25"
     inkscape:showpageshadow="2"
     inkscape:pageopacity="0.0"
     inkscape:pagecheckerboard="0"
     inkscape:deskcolor="#d1d1d1"
     showgrid="false"
     inkscape:zoom="24.015299"
     inkscape:cx="12.179736"
     inkscape:cy="17.03081"
     inkscape:window-width="1920"
     inkscape:window-height="1011"
     inkscape:window-x="0"
     inkscape:window-y="32"
     inkscape:window-maximized="1"
     inkscape:current-layer="svg1" />
  <g
     id="troly"
     style="fill:#3fa72f;fill-opacity:1"
     transform="matrix(1.2026541,0,0,1.3498589,-2.4053082,-1.2047465)">
    <path
       d="M 4.49,16.48 C 4.64,16.42 8.42,13.92 8.55,13.84 8.68,13.76 8.61,13.77 8.64,13.75 A 3.39,3.39 0 0 0 9.88,14 h 8 a 3,3 0 0 0 3,-2.1 l 1,-3.64 a 2.88,2.88 0 0 0 -3,-3.53 H 7.47 A 3,3 0 0 0 4.37,2 H 3 a 1,1 0 0 0 0,2 h 1.37 a 1,1 0 0 1 1,0.7 l 1.45,7 a 2.57,2.57 0 0 0 0.25,0.67 l -3.43,2.3 A 2.79,2.79 0 0 0 4.79,20 h 2.39 a 3,3 0 0 0 5.64,0 h 2.35 A 3,3 0 0 0 18,22 c 4,0 4,-6 0,-6 a 3,3 0 0 0 -2.83,2 c -0.3,-0.05 -2.05,0 -2.35,0 A 3,3 0 0 0 7.18,18 H 4.79 A 0.79,0.79 0 0 1 4.49,16.48 Z M 18.93,6.73 c 0.61,0 1.2,0.44 1.05,1 l -1,3.64 a 1,1 0 0 1 -1,0.65 h -8 A 1,1 0 0 1 8.93,11.32 L 7.89,6.73 Z M 18,18 a 1,1 0 1 1 -1,1 1,1 0 0 1 1,-1 z m -7,1 a 1,1 0 0 1 -2,0 1,1 0 0 1 2,0 z"
       id="path1"
       style="fill:#3fa72f;fill-opacity:1;stroke-width:1.00157;stroke-dasharray:none" />
  </g>
</svg>
