<?xml version="1.0" encoding="UTF-8" standalone="no"?>
<!-- icon666.com - MILLIONS vector ICONS FREE -->

<svg
   id="Layer_1"
   enable-background="new 0 0 512 512"
   viewBox="0 0 700 600"
   version="1.1"
   sodipodi:docname="pasta_2.svg"
   width="700"
   height="600"
   inkscape:version="1.3.1 (9b9bdc1480, 2023-11-25, custom)"
   xmlns:inkscape="http://www.inkscape.org/namespaces/inkscape"
   xmlns:sodipodi="http://sodipodi.sourceforge.net/DTD/sodipodi-0.dtd"
   xmlns="http://www.w3.org/2000/svg"
   xmlns:svg="http://www.w3.org/2000/svg">
  <defs
     id="defs20" />
  <sodipodi:namedview
     id="namedview20"
     pagecolor="#ffffff"
     bordercolor="#000000"
     borderopacity="0.25"
     inkscape:showpageshadow="2"
     inkscape:pageopacity="0.0"
     inkscape:pagecheckerboard="0"
     inkscape:deskcolor="#d1d1d1"
     showgrid="false"
     inkscape:zoom="0.68506069"
     inkscape:cx="263.48031"
     inkscape:cy="445.21603"
     inkscape:window-width="1920"
     inkscape:window-height="1011"
     inkscape:window-x="0"
     inkscape:window-y="32"
     inkscape:window-maximized="1"
     inkscape:current-layer="Layer_1" />
  <g
     id="g20"
     transform="matrix(1.3671875,0,0,1.4018692,0,-58.878506)">
    <path
       d="m 460.807,190.622 c -0.778,-0.112 -1.425,-0.645 -1.67,-1.392 C 431.115,103.741 350.766,42 256,42 161.234,42 80.885,103.741 52.864,189.23 c -0.245,0.747 -0.893,1.28 -1.67,1.392 C 22.25,194.78 0,219.687 0,249.812 v 12.376 c 0,30.125 22.25,55.032 51.193,59.19 0.778,0.112 1.425,0.645 1.67,1.392 C 80.885,408.259 161.234,470 256,470 c 94.766,0 175.115,-61.741 203.136,-147.23 0.245,-0.747 0.893,-1.28 1.67,-1.392 C 489.75,317.22 512,292.313 512,262.188 v -12.376 c 0,-30.125 -22.25,-55.032 -51.193,-59.19 z"
       fill="#f3f3f3"
       style="fill:#deddda"
       id="path1" />
    <ellipse
       cx="256"
       cy="256"
       fill="#fff0bd"
       rx="182.85699"
       ry="183.06"
       id="ellipse1" />
    <path
       d="m 256,72.94 c -5.205,0 -10.357,0.231 -15.453,0.66 93.622,7.881 167.404,86.671 167.404,182.4 0,95.729 -73.781,174.519 -167.404,182.4 5.096,0.429 10.248,0.66 15.453,0.66 100.828,0 182.857,-82.12 182.857,-183.06 C 438.857,155.06 356.828,72.94 256,72.94 Z"
       fill="#ffe482"
       id="path2" />
    <path
       d="m 172.866,249.446 c -6.01,6.01 -15.844,6.01 -21.853,0 L 129.16,227.593 c -6.01,-6.01 -6.01,-15.844 0,-21.853 6.01,-6.01 15.844,-6.01 21.853,0 l 21.853,21.853 c 6.01,6.009 6.01,15.843 0,21.853 z"
       fill="#ffc808"
       id="path3" />
    <path
       d="m 194.72,227.592 c -6.01,6.01 -15.844,6.01 -21.853,0 l -21.853,-21.853 c -6.01,-6.01 -6.01,-15.844 0,-21.853 6.01,-6.01 15.844,-6.01 21.853,0 l 21.853,21.853 c 6.009,6.009 6.009,15.844 0,21.853 z"
       fill="#ffae08"
       id="path4" />
    <path
       d="m 216.573,205.739 c -6.01,6.01 -15.844,6.01 -21.853,0 l -21.853,-21.853 c -6.01,-6.01 -6.01,-15.844 0,-21.853 6.01,-6.01 15.844,-6.01 21.853,0 l 21.853,21.853 c 6.01,6.009 6.01,15.843 0,21.853 z"
       fill="#ffc808"
       id="path5" />
    <path
       d="m 238.426,183.885 c -6.01,6.01 -15.844,6.01 -21.853,0 L 194.72,162.032 c -6.01,-6.01 -6.01,-15.844 0,-21.853 6.01,-6.01 15.844,-6.01 21.853,0 l 21.853,21.853 c 6.01,6.01 6.01,15.844 0,21.853 z"
       fill="#ffae08"
       id="path6" />
    <path
       d="m 221.751,400.969 c -8.283,1.904 -16.618,-3.315 -18.522,-11.597 l -6.925,-30.12 c -1.904,-8.283 3.315,-16.618 11.597,-18.522 8.283,-1.904 16.618,3.315 18.522,11.597 l 6.925,30.12 c 1.905,8.283 -3.314,16.618 -11.597,18.522 z"
       fill="#ffc808"
       id="path7" />
    <path
       d="m 251.871,394.044 c -8.283,1.904 -16.618,-3.315 -18.522,-11.597 l -6.925,-30.12 c -1.904,-8.283 3.315,-16.618 11.597,-18.522 8.283,-1.904 16.618,3.315 18.522,11.597 l 6.925,30.12 c 1.905,8.283 -3.314,16.618 -11.597,18.522 z"
       fill="#ffae08"
       id="path8" />
    <path
       d="m 281.991,387.12 c -8.283,1.904 -16.618,-3.315 -18.522,-11.597 l -6.925,-30.12 c -1.904,-8.283 3.315,-16.618 11.597,-18.522 8.283,-1.904 16.618,3.315 18.522,11.597 l 6.925,30.12 c 1.904,8.282 -3.315,16.617 -11.597,18.522 z"
       fill="#ffc808"
       id="path9" />
    <path
       d="m 312.11,380.195 c -8.283,1.904 -16.618,-3.315 -18.522,-11.597 l -6.925,-30.12 c -1.904,-8.283 3.315,-16.618 11.597,-18.522 8.283,-1.904 16.618,3.315 18.522,11.597 l 6.925,30.12 c 1.905,8.282 -3.314,16.617 -11.597,18.522 z"
       fill="#ffae08"
       id="path10" />
    <path
       d="m 288.927,258.747 c -7.698,-3.603 -11.048,-12.848 -7.446,-20.546 l 13.1,-27.992 c 3.603,-7.698 12.848,-11.048 20.546,-7.446 7.698,3.603 11.048,12.848 7.446,20.546 l -13.1,27.992 c -3.602,7.698 -12.848,11.048 -20.546,7.446 z"
       fill="#ffc808"
       id="path11" />
    <path
       d="m 316.919,271.847 c -7.698,-3.603 -11.048,-12.848 -7.446,-20.546 l 13.1,-27.992 c 3.603,-7.698 12.848,-11.048 20.546,-7.446 7.698,3.603 11.048,12.848 7.446,20.546 l -13.1,27.992 c -3.603,7.698 -12.848,11.048 -20.546,7.446 z"
       fill="#ffae08"
       id="path12" />
    <path
       d="m 344.911,284.947 c -7.698,-3.603 -11.048,-12.848 -7.446,-20.546 l 13.1,-27.992 c 3.603,-7.698 12.848,-11.048 20.546,-7.446 7.698,3.603 11.048,12.848 7.446,20.546 l -13.1,27.992 c -3.603,7.698 -12.849,11.048 -20.546,7.446 z"
       fill="#ffc808"
       id="path13" />
    <path
       d="m 372.902,298.047 c -7.698,-3.603 -11.048,-12.848 -7.446,-20.546 l 13.1,-27.992 c 3.603,-7.698 12.848,-11.048 20.546,-7.446 7.698,3.603 11.048,12.848 7.446,20.546 l -13.1,27.992 c -3.602,7.698 -12.848,11.048 -20.546,7.446 z"
       fill="#ffae08"
       id="path14" />
    <circle
       cx="226.226"
       cy="273.17899"
       fill="#f78e36"
       r="30.905001"
       id="circle14" />
    <circle
       cx="302.02701"
       cy="144.05"
       fill="#f78e36"
       r="30.905001"
       id="circle15" />
    <g
       fill="#62d152"
       id="g17">
      <path
         d="m 375.281,209.844 -14.008,-14.008 c -2.569,-2.569 -2.569,-6.734 0,-9.303 l 14.008,-14.008 c 2.569,-2.569 6.734,-2.569 9.303,0 l 14.008,14.008 c 2.569,2.569 2.569,6.734 0,9.303 l -14.008,14.008 c -2.569,2.568 -6.734,2.568 -9.303,0 z"
         fill="#62d152"
         id="path15" />
      <path
         d="m 127.341,299.566 v -19.81 c 0,-3.633 2.945,-6.578 6.578,-6.578 h 19.81 c 3.633,0 6.578,2.945 6.578,6.578 v 19.81 c 0,3.633 -2.945,6.578 -6.578,6.578 h -19.81 c -3.633,10e-4 -6.578,-2.945 -6.578,-6.578 z"
         fill="#62d152"
         id="path16" />
      <path
         d="m 343.815,343.099 10.239,-16.958 c 1.878,-3.11 5.921,-4.109 9.031,-2.231 l 16.958,10.239 c 3.11,1.878 4.109,5.921 2.231,9.031 l -10.239,16.958 c -1.878,3.11 -5.921,4.109 -9.031,2.231 L 346.046,352.13 c -3.11,-1.877 -4.109,-5.921 -2.231,-9.031 z"
         fill="#62d152"
         id="path17" />
    </g>
    <path
       d="m 73.143,449.674 c -10.81,0 -19.573,-8.763 -19.573,-19.573 V 196.249 H 92.717 V 430.1 c -0.001,10.811 -8.764,19.574 -19.574,19.574 z"
       fill="#6eabc9"
       id="path18" />
    <path
       d="m 124.652,148.808 c 0,43.24 -23.061,70.106 -51.509,70.106 -28.448,0 -51.509,-26.865 -51.509,-70.106 0,-43.241 23.061,-86.482 51.509,-86.482 28.448,0 51.509,43.241 51.509,86.482 z"
       fill="#a9dbf5"
       id="path19" />
    <path
       d="m 73.143,62.326 c -5.384,0 -10.574,1.551 -15.453,4.356 20.897,12.014 36.056,47.069 36.056,82.126 0,35.056 -15.159,59.346 -36.056,67.286 4.879,1.854 10.068,2.82 15.453,2.82 28.448,0 51.509,-26.866 51.509,-70.106 0,-43.24 -23.061,-86.482 -51.509,-86.482 z"
       fill="#88c3e0"
       id="path20" />
  </g>
</svg>
