<?xml version="1.0" encoding="UTF-8" standalone="no"?>
<!-- icon666.com - MILLIONS vector ICONS FREE -->

<svg
   viewBox="0 0 16 16"
   version="1.1"
   id="svg2"
   sodipodi:docname="Star_1.svg"
   width="16"
   height="16"
   inkscape:version="1.3.1 (9b9bdc1480, 2023-11-25, custom)"
   xmlns:inkscape="http://www.inkscape.org/namespaces/inkscape"
   xmlns:sodipodi="http://sodipodi.sourceforge.net/DTD/sodipodi-0.dtd"
   xmlns="http://www.w3.org/2000/svg"
   xmlns:svg="http://www.w3.org/2000/svg">
  <defs
     id="defs2" />
  <sodipodi:namedview
     id="namedview2"
     pagecolor="#ffffff"
     bordercolor="#000000"
     borderopacity="0.25"
     inkscape:showpageshadow="2"
     inkscape:pageopacity="0.0"
     inkscape:pagecheckerboard="0"
     inkscape:deskcolor="#d1d1d1"
     showgrid="false"
     inkscape:zoom="33.666667"
     inkscape:cx="9.9653465"
     inkscape:cy="10.455446"
     inkscape:window-width="1920"
     inkscape:window-height="1011"
     inkscape:window-x="0"
     inkscape:window-y="32"
     inkscape:window-maximized="1"
     inkscape:current-layer="svg2" />
  <g
     id="Layer_2"
     data-name="Layer 2"
     transform="matrix(0.80188479,0,0,0.77036703,-1.6242235,-1.1998439)">
    <path
       d="M 19.724,7.65 H 16.26 A 0.251,0.251 0 0 1 16.029,7.499 L 14.068,2.921 a 2.25,2.25 0 0 0 -4.136,0 L 7.972,7.5 A 0.253,0.253 0 0 1 7.74,7.652 H 4.276 A 2.25,2.25 0 0 0 2.87,11.657 L 6,14.164 a 0.248,0.248 0 0 1 0.083,0.267 l -1.5,4.987 A 2.25,2.25 0 0 0 8.1,21.865 l 3.754,-2.815 a 0.245,0.245 0 0 1 0.3,0 l 3.746,2.815 a 2.218,2.218 0 0 0 2.639,0.045 2.218,2.218 0 0 0 0.867,-2.491 l -1.5,-4.988 A 0.248,0.248 0 0 1 18,14.164 l 3.134,-2.507 A 2.25,2.25 0 0 0 19.724,7.65 Z"
       fill="#fcde4f"
       style="fill:#ff8a00"
       id="path1" />
    <path
       d="M 17.252,22.323 A 2.246,2.246 0 0 1 15.903,21.865 L 12.149,19.05 a 0.245,0.245 0 0 0 -0.3,0 L 8.1,21.865 A 2.25,2.25 0 0 1 4.594,19.418 l 1.5,-4.987 A 0.248,0.248 0 0 0 6,14.164 L 2.87,11.657 A 2.25,2.25 0 0 1 4.276,7.65 H 7.74 A 0.253,0.253 0 0 0 7.972,7.5 l 1.96,-4.577 a 2.25,2.25 0 0 1 4.136,0 L 16.029,7.5 a 0.251,0.251 0 0 0 0.231,0.151 h 3.464 a 2.25,2.25 0 0 1 1.406,4.007 L 18,14.164 a 0.248,0.248 0 0 0 -0.083,0.267 l 1.5,4.988 A 2.218,2.218 0 0 1 18.55,21.91 2.246,2.246 0 0 1 17.252,22.323 Z M 12,17.5 a 1.743,1.743 0 0 1 1.05,0.349 l 3.75,2.816 a 0.749,0.749 0 0 0 1.168,-0.815 l -1.5,-4.988 a 1.741,1.741 0 0 1 0.583,-1.869 l 3.133,-2.507 A 0.75,0.75 0 0 0 19.716,9.15 H 16.26 A 1.751,1.751 0 0 1 14.651,8.09 L 12.689,3.512 a 0.75,0.75 0 0 0 -1.378,0 L 9.35,8.089 A 1.752,1.752 0 0 1 7.74,9.15 H 4.276 a 0.749,0.749 0 0 0 -0.468,1.335 l 3.133,2.508 a 1.741,1.741 0 0 1 0.583,1.869 l -1.5,4.988 a 0.749,0.749 0 0 0 1.168,0.815 L 10.95,17.85 A 1.748,1.748 0 0 1 12,17.5 Z"
       fill="#000000"
       style="fill:#ff8a00"
       id="path2" />
  </g>
</svg>
