<?xml version="1.0" encoding="UTF-8" standalone="no"?>
<!-- icon666.com - MILLIONS vector ICONS FREE -->

<svg
   id="Capa_1"
   enable-background="new 0 0 512 512"
   viewBox="0 0 336 336"
   version="1.1"
   sodipodi:docname="chips.svg"
   width="336"
   height="336"
   inkscape:version="1.3.1 (9b9bdc1480, 2023-11-25, custom)"
   xmlns:inkscape="http://www.inkscape.org/namespaces/inkscape"
   xmlns:sodipodi="http://sodipodi.sourceforge.net/DTD/sodipodi-0.dtd"
   xmlns="http://www.w3.org/2000/svg"
   xmlns:svg="http://www.w3.org/2000/svg">
  <defs
     id="defs1" />
  <sodipodi:namedview
     id="namedview1"
     pagecolor="#ffffff"
     bordercolor="#000000"
     borderopacity="0.25"
     inkscape:showpageshadow="2"
     inkscape:pageopacity="0.0"
     inkscape:pagecheckerboard="0"
     inkscape:deskcolor="#d1d1d1"
     showgrid="false"
     inkscape:zoom="1.578125"
     inkscape:cx="234.77228"
     inkscape:cy="110.89109"
     inkscape:window-width="1920"
     inkscape:window-height="1011"
     inkscape:window-x="0"
     inkscape:window-y="32"
     inkscape:window-maximized="1"
     inkscape:current-layer="Capa_1" />
  <path
     id="XMLID_1195_"
     d="M 57.222869,292.6875 H 277.30826 v 36.75 H 57.222869 Z"
     fill="#f8a2aa"
     style="stroke-width:0.647967" />
  <path
     id="XMLID_1194_"
     d="M 57.222869,6.5625 H 277.30826 v 36.75 H 57.222869 Z"
     fill="#f8a2aa"
     style="stroke-width:0.647967" />
  <path
     id="XMLID_1193_"
     d="M 57.315629,43.3125 C 46.484739,54.422156 40.399756,69.490313 40.399756,85.20225 v 165.5955 c 0,15.71194 6.084983,30.78009 16.915873,41.88975 H 277.48691 c 10.83093,-11.10966 16.91595,-26.17781 16.91595,-41.88975 V 85.20225 c 0,-15.711938 -6.08502,-30.780094 -16.91595,-41.88975 z"
     fill="#f5737f"
     style="stroke-width:0.647967" />
  <ellipse
     id="XMLID_1189_"
     cx="167.18423"
     cy="168.08336"
     fill="#ffffff"
     rx="84.583244"
     ry="86.760185"
     style="stroke-width:0.647967" />
  <path
     id="XMLID_1188_"
     d="m 158.75134,159.43331 c -6.71386,6.88669 -14.78149,11.53228 -23.3245,13.94072 -14.6178,4.12125 -17.36442,24.07191 -4.47338,32.25469 8.07725,5.12728 17.59979,8.08697 27.79788,8.08697 29.2267,0 52.92042,-24.30291 52.9198,-54.28172 0,-10.46063 -2.88547,-20.22825 -7.88407,-28.51341 -7.97747,-13.22278 -27.42756,-10.4055 -31.44535,4.5885 -2.34735,8.7616 -6.87704,17.03756 -13.59038,23.92425 z"
     fill="#ffcb7c"
     style="stroke-width:0.647967" />
  <path
     id="XMLID_264_"
     d="m 300.8,85.20225 c 0,-16.737 -6.05494,-32.517188 -17.09439,-44.717531 V 6.5625 C 283.70561,2.9380313 280.84065,0 277.3079,0 H 57.222213 c -3.532872,0 -6.397828,2.9380313 -6.397828,6.5625 v 34.221469 c -10.868,12.159 -16.823106,27.818437 -16.823106,44.418281 v 53.2665 c 0,3.62447 2.864951,6.5625 6.397836,6.5625 3.532885,0 6.397838,-2.93803 6.397838,-6.5625 v -53.2665 c 0,-13.183406 4.689615,-25.627219 13.259514,-35.32725 H 274.74483 c 8.56984,9.700031 13.25952,22.143844 13.25952,35.32725 v 165.5955 c 0,13.18341 -4.68968,25.62722 -13.25952,35.32725 H 60.056467 C 51.486568,276.42497 46.796953,263.98116 46.796953,250.79775 v -53.2665 c 0,-3.62447 -2.864953,-6.5625 -6.397838,-6.5625 -3.532885,0 -6.397836,2.93803 -6.397836,6.5625 v 53.2665 c 0,16.6005 5.955106,32.25928 16.823106,44.41828 v 34.22147 c 0,3.62447 2.864956,6.5625 6.397828,6.5625 H 277.3079 c 3.53275,0 6.39771,-2.93803 6.39771,-6.5625 V 295.51528 C 294.74506,283.31428 300.8,267.53475 300.8,250.79775 Z M 270.91058,36.75 H 63.620704 V 13.125 h 18.713664 v 3.9375 c 0,3.624469 2.864958,6.5625 6.39784,6.5625 3.532904,0 6.397836,-2.938031 6.397836,-6.5625 V 13.125 H 113.7663 v 3.9375 c 0,3.624469 2.86496,6.5625 6.3978,6.5625 3.53282,0 6.3979,-2.938031 6.3979,-6.5625 V 13.125 h 18.63691 v 3.9375 c 0,3.624469 2.86484,6.5625 6.39783,6.5625 3.53289,0 6.39784,-2.938031 6.39784,-6.5625 V 13.125 h 18.63609 v 3.9375 c 0,3.624469 2.86512,6.5625 6.39795,6.5625 3.53289,0 6.39782,-2.938031 6.39782,-6.5625 V 13.125 h 18.63633 v 3.9375 c 0,3.624469 2.86496,6.5625 6.39777,6.5625 3.53291,0 6.39782,-2.938031 6.39782,-6.5625 V 13.125 h 18.63629 v 3.9375 c 0,3.624469 2.86493,6.5625 6.39782,6.5625 3.53295,0 6.39783,-2.938031 6.39783,-6.5625 V 13.125 h 18.62028 z m 0,286.125 H 252.2903 v -3.9375 c 0,-3.62447 -2.86488,-6.5625 -6.39783,-6.5625 -3.53289,0 -6.39782,2.93803 -6.39782,6.5625 v 3.9375 h -18.63629 v -3.9375 c 0,-3.62447 -2.86491,-6.5625 -6.39782,-6.5625 -3.53281,0 -6.39777,2.93803 -6.39777,6.5625 v 3.9375 h -18.63633 v -3.9375 c 0,-3.62447 -2.86493,-6.5625 -6.39782,-6.5625 -3.53283,0 -6.39795,2.93803 -6.39795,6.5625 v 3.9375 h -18.63609 v -3.9375 c 0,-3.62447 -2.86495,-6.5625 -6.39784,-6.5625 -3.53299,0 -6.39783,2.93803 -6.39783,6.5625 v 3.9375 H 126.562 v -3.9375 c 0,-3.62447 -2.86508,-6.5625 -6.3979,-6.5625 -3.53284,0 -6.39781,2.93803 -6.39781,6.5625 v 3.9375 H 95.130044 v -3.9375 c 0,-3.62447 -2.864932,-6.5625 -6.397836,-6.5625 -3.532882,0 -6.39784,2.93803 -6.39784,6.5625 v 3.9375 H 63.620704 V 299.25 H 270.91058 Z"
     style="stroke-width:0.647967" />
  <path
     id="XMLID_268_"
     d="m 218.06892,159.43331 c 0,-11.32556 -3.05687,-22.37944 -8.84052,-31.96659 -5.06007,-8.38688 -14.10277,-12.72731 -23.59586,-11.32359 -9.46433,1.39715 -16.92034,8.15128 -19.45889,17.62621 -2.12035,7.91307 -6.25145,15.183 -11.94617,21.02429 -5.69469,5.84128 -12.78221,10.07868 -20.49609,12.2535 -9.23724,2.60465 -15.8218,10.25325 -17.18397,19.9605 -1.36719,9.73875 2.86366,19.01221 11.03941,24.20184 9.34669,5.93316 20.12315,9.06872 31.16525,9.06872 15.84421,0 30.74029,-6.32888 41.94408,-17.82113 11.20397,-11.49225 17.37349,-26.77237 17.37276,-43.02375 z m -59.31758,47.71922 c -8.66064,0 -17.10907,-2.457 -24.43191,-7.10456 -3.83808,-2.436 -5.74725,-6.61238 -5.10751,-11.17135 0.63542,-4.52746 3.59246,-7.95703 7.91033,-9.17437 9.84886,-2.77725 18.89208,-8.18147 26.15308,-15.62794 7.25957,-7.44712 12.52806,-16.72256 15.23581,-26.82619 1.18615,-4.42903 4.53025,-7.46221 8.94356,-8.11387 0.56677,-0.0833 1.12727,-0.12469 1.67872,-0.12469 3.77599,0 7.14069,1.92872 9.21227,5.36419 4.53158,7.51078 6.92647,16.17656 6.92647,25.06022 0,12.74634 -4.83887,24.72947 -13.6263,33.7424 -8.78543,9.01229 -20.46794,13.97616 -32.89452,13.97616 z"
     style="stroke-width:0.647967" />
  <path
     id="XMLID_1172_"
     d="m 231.51784,234.07256 c 35.47348,-36.38644 35.47348,-95.592 0,-131.97843 -35.4735,-36.38513 -93.19222,-36.386442 -128.66688,0 -35.473446,36.38643 -35.473446,95.59199 0,131.97843 17.73735,18.19322 41.03569,27.2895 64.33343,27.2895 23.29834,6.6e-4 46.59675,-9.09628 64.33345,-27.2895 z M 111.89877,111.37481 c 15.2423,-15.634498 35.26361,-23.451748 55.28495,-23.451748 20.02209,0 40.04343,7.817251 55.28562,23.451748 30.48441,31.269 30.48441,82.14741 0,113.41641 -30.48372,31.269 -80.08549,31.26965 -110.57057,0 -30.484408,-31.26835 -30.484408,-82.14741 0,-113.41641 z"
     style="stroke-width:0.647967" />
  <path
     id="XMLID_1174_"
     d="m 40.397836,174.5625 c 1.689031,0 3.333278,-0.70219 4.522627,-1.92281 1.196393,-1.22063 1.875195,-2.91375 1.875195,-4.63969 0,-1.72594 -0.678802,-3.41906 -1.875195,-4.63969 -1.189349,-1.22062 -2.834238,-1.92281 -4.522627,-1.92281 -1.68327,0 -3.333272,0.70219 -4.52327,1.92281 C 34.684568,164.58094 34,166.27406 34,168 c 0,1.72594 0.683929,3.41906 1.874566,4.63969 1.190637,1.22062 2.84,1.92281 4.52327,1.92281 z"
     style="stroke-width:0.647967" />
</svg>
