<?xml version="1.0" encoding="UTF-8" standalone="no"?>
<!-- icon666.com - MILLIONS vector ICONS FREE -->

<svg
   id="Capa_1"
   enable-background="new 0 0 512 512"
   viewBox="0 0 336 336"
   version="1.1"
   sodipodi:docname="fruits.svg"
   width="336"
   height="336"
   inkscape:version="1.3.1 (9b9bdc1480, 2023-11-25, custom)"
   xmlns:inkscape="http://www.inkscape.org/namespaces/inkscape"
   xmlns:sodipodi="http://sodipodi.sourceforge.net/DTD/sodipodi-0.dtd"
   xmlns="http://www.w3.org/2000/svg"
   xmlns:svg="http://www.w3.org/2000/svg">
  <defs
     id="defs24" />
  <sodipodi:namedview
     id="namedview24"
     pagecolor="#ffffff"
     bordercolor="#000000"
     borderopacity="0.25"
     inkscape:showpageshadow="2"
     inkscape:pageopacity="0.0"
     inkscape:pagecheckerboard="0"
     inkscape:deskcolor="#d1d1d1"
     showgrid="false"
     inkscape:zoom="1.578125"
     inkscape:cx="255.68317"
     inkscape:cy="184.39604"
     inkscape:window-width="1920"
     inkscape:window-height="1011"
     inkscape:window-x="0"
     inkscape:window-y="32"
     inkscape:window-maximized="1"
     inkscape:current-layer="Capa_1" />
  <g
     id="g24"
     transform="matrix(0.65625,0,0,0.91095422,0,-65.204281)">
    <g
       id="g13">
      <g
         id="g12">
        <path
           d="M 336.96,325.272 237.622,94.792 c -3.614,-7.619 -14.456,-7.619 -18.07,0 l -5.965,2.574 -103.374,217.906 z"
           fill="#fd8087"
           id="path1" />
        <path
           d="m 237.622,84.791 c -3.614,-7.619 -14.456,-7.619 -18.07,0 l -5.965,12.574 103.373,217.907 13.491,10 16.509,-10 z"
           fill="#fe646f"
           id="path2" />
        <path
           d="M 276.446,325.272 177.108,94.792 c -3.614,-7.619 -14.456,-7.619 -18.07,0 L 153.073,97.366 49.7,315.272 Z"
           fill="#fd8087"
           id="path3" />
        <path
           d="m 177.108,84.791 c -3.614,-7.619 -14.456,-7.619 -18.07,0 l -5.965,12.574 103.373,217.906 13.491,10 16.509,-10 z"
           fill="#fe646f"
           id="path4" />
        <path
           d="m 381.95,269 c 0,-42.124 -24.148,-75.272 -66.272,-75.272 -3.736,0 -7.41,-0.731 -11.002,-0.212 -36.911,5.333 -65.27,37.097 -65.27,75.485 0,38.388 28.359,70.152 65.27,75.485 3.592,0.519 7.266,-0.212 11.002,-0.212 42.124,-0.002 66.272,-33.15 66.272,-75.274 z"
           fill="#80e29e"
           style="fill:#ffa348"
           id="path5" />
        <path
           d="m 315.678,192.727 c -3.737,0 -7.407,0.281 -11,0.801 36.91,5.333 65.272,37.085 65.272,75.472 0,38.387 -28.362,70.138 -65.272,75.472 3.593,0.519 7.263,0.801 11,0.801 42.124,0 76.272,-34.148 76.272,-76.272 0,-42.126 -34.148,-76.274 -76.272,-76.274 z"
           fill="#77d192"
           style="fill:#e66100"
           id="path6" />
        <path
           d="m 436.298,231.9 c 2.053,-2.053 5.418,-1.93 7.324,0.261 26.07,29.963 14.85,73.43 -13.661,101.941 -29.786,29.786 -68.079,29.786 -97.865,0 l 95.136,-95.136 z"
           fill="#ffe177"
           id="path7" />
        <path
           d="m 443.622,230.16 c -1.906,-2.191 -5.271,-2.314 -7.324,-0.261 l -9.066,9.066 c 18.992,29.53 15.568,69.297 -10.271,95.136 -11.959,11.959 -26.903,19.105 -42.433,21.461 23.15,3.512 47.605,-3.634 65.433,-21.461 28.511,-28.51 29.732,-73.978 3.661,-103.941 z"
           fill="#ffd15b"
           id="path8" />
        <path
           d="M 397.953,432.923 H 97.047 c -10.781,0 -20.347,-6.911 -23.734,-17.145 L 48.987,342.274 h 397.025 l -24.326,73.504 c -3.386,10.234 -12.953,17.145 -23.733,17.145 z"
           fill="#bed9fd"
           id="path9" />
        <path
           d="m 433.013,342.273 -24.326,73.504 c -3.387,10.235 -12.953,17.146 -23.734,17.146 h 30 c 10.78,0 20.347,-6.911 23.734,-17.146 l 24.326,-73.504 z"
           fill="#92c3f7"
           id="path10" />
        <path
           d="M 467.499,315.272 H 34.501 c -14.912,0 -27.001,12.089 -27.001,27.001 0,14.912 12.089,27.001 27.001,27.001 h 432.997 c 14.912,0 27.001,-12.089 27.001,-27.001 10e-4,-14.912 -12.088,-27.001 -27,-27.001 z"
           fill="#ddebfd"
           id="path11" />
        <path
           d="m 477.499,315.272 h -30 c 14.912,0 27.001,12.089 27.001,27.001 0,14.912 -12.089,27.001 -27.001,27.001 h 30 c 14.912,0 27.001,-12.089 27.001,-27.001 0,-14.912 -12.089,-27.001 -27.001,-27.001 z"
           fill="#bed9fd"
           id="path12" />
      </g>
    </g>
    <g
       id="g23">
      <path
         d="m 156.747,217.291 c 0,-4.142 -3.358,-7.5 -7.5,-7.5 -4.142,0 -7.5,3.358 -7.5,7.5 0,4.142 3.358,7.5 7.5,7.5 4.142,0 7.5,-3.358 7.5,-7.5 z"
         fill="#000000"
         id="path13" />
      <path
         d="m 194.399,217.291 c 0,-4.142 -3.358,-7.5 -7.5,-7.5 -4.142,0 -7.5,3.358 -7.5,7.5 0,4.142 3.358,7.5 7.5,7.5 4.142,0 7.5,-3.358 7.5,-7.5 z"
         fill="#000000"
         id="path14" />
      <path
         d="m 131.638,269.774 c 0,-4.142 -3.358,-7.5 -7.5,-7.5 -4.142,0 -7.5,3.358 -7.5,7.5 0,4.142 3.358,7.5 7.5,7.5 4.142,0 7.5,-3.357 7.5,-7.5 z"
         fill="#000000"
         id="path15" />
      <path
         d="m 175.573,269.774 c 0,-4.142 -3.358,-7.5 -7.5,-7.5 -4.142,0 -7.5,3.358 -7.5,7.5 0,4.142 3.358,7.5 7.5,7.5 4.142,0 7.5,-3.357 7.5,-7.5 z"
         fill="#000000"
         id="path16" />
      <path
         d="m 219.508,269.774 c 0,-4.142 -3.358,-7.5 -7.5,-7.5 -4.142,0 -7.5,3.358 -7.5,7.5 0,4.142 3.358,7.5 7.5,7.5 4.142,0 7.5,-3.357 7.5,-7.5 z"
         fill="#000000"
         id="path17" />
      <path
         d="m 308.723,232.071 v 10.21 c 0,4.142 3.357,7.5 7.5,7.5 4.143,0 7.5,-3.358 7.5,-7.5 v -10.21 c 0,-4.142 -3.357,-7.5 -7.5,-7.5 -4.143,0 -7.5,3.357 -7.5,7.5 z"
         fill="#000000"
         id="path18" />
      <path
         d="m 295.142,250.952 -9.263,-4.297 c -3.759,-1.743 -8.217,-0.11 -9.96,3.647 -1.743,3.758 -0.11,8.217 3.647,9.96 l 9.263,4.297 c 1.021,0.474 2.095,0.698 3.151,0.698 2.83,0 5.539,-1.61 6.809,-4.346 1.743,-3.756 0.11,-8.215 -3.647,-9.959 z"
         fill="#000000"
         id="path19" />
      <path
         d="m 352.879,277.736 -9.263,-4.296 c -3.758,-1.743 -8.217,-0.111 -9.96,3.648 -1.743,3.757 -0.109,8.217 3.647,9.96 l 9.263,4.296 c 1.021,0.474 2.095,0.698 3.151,0.698 2.83,0 5.539,-1.61 6.809,-4.346 1.744,-3.758 0.11,-8.217 -3.647,-9.96 z"
         fill="#000000"
         id="path20" />
      <path
         d="m 356.526,250.303 c -1.744,-3.758 -6.203,-5.39 -9.96,-3.647 l -9.263,4.297 c -3.758,1.743 -5.391,6.202 -3.647,9.96 1.27,2.736 3.978,4.346 6.809,4.346 1.057,0 2.13,-0.225 3.151,-0.698 l 9.263,-4.297 c 3.758,-1.744 5.391,-6.203 3.647,-9.961 z"
         fill="#000000"
         id="path21" />
      <path
         d="m 288.829,273.44 -9.263,4.296 c -3.757,1.743 -5.391,6.202 -3.647,9.959 1.27,2.736 3.979,4.346 6.809,4.346 1.057,0 2.13,-0.225 3.151,-0.698 l 9.263,-4.296 c 3.757,-1.743 5.391,-6.202 3.647,-9.96 -1.744,-3.758 -6.202,-5.389 -9.96,-3.647 z"
         fill="#000000"
         id="path22" />
      <path
         d="M 34.501,361.775 C 23.748,361.775 15,353.026 15,342.274 c 0,-10.752 8.748,-19.501 19.501,-19.501 h 15.157 c 0.012,0 0.024,0.002 0.036,0.002 0.009,0 0.019,-0.002 0.028,-0.002 H 151.73 c 4.143,0 7.5,-3.358 7.5,-7.5 0,-4.142 -3.357,-7.5 -7.5,-7.5 H 61.558 L 106.518,213 c 1.775,-3.742 0.181,-8.215 -3.562,-9.991 -3.74,-1.773 -8.215,-0.182 -9.991,3.562 L 44.955,307.773 H 34.501 C 15.477,307.772 0,323.249 0,342.273 c 0,19.024 15.477,34.501 34.501,34.501 h 18.004 l 13.688,41.359 c 4.411,13.332 16.811,22.289 30.854,22.289 h 317.906 c 14.043,0 26.442,-8.957 30.854,-22.289 l 13.688,-41.359 h 18.004 c 19.023,0 34.501,-15.478 34.501,-34.501 0,-19.023 -15.478,-34.501 -34.501,-34.501 h -12.36 c 4.14,-11.856 5.566,-24.515 4.114,-37.185 -1.932,-16.871 -8.839,-32.552 -19.974,-45.35 -2.271,-2.608 -5.555,-4.174 -9.01,-4.294 -3.433,-0.129 -6.832,1.211 -9.275,3.653 L 398.59,257 c -1.771,-12.344 -6.268,-24.123 -13.273,-34.577 -2.305,-3.44 -6.963,-4.361 -10.405,-2.056 -3.441,2.306 -4.361,6.964 -2.056,10.406 7.585,11.321 11.594,24.54 11.594,38.227 0,0.724 -0.014,1.451 -0.037,2.177 l -36.595,36.595 h -24.334 c 0.149,-0.591 0.238,-1.206 0.238,-1.843 v -10.211 c 0,-4.142 -3.357,-7.5 -7.5,-7.5 -4.143,0 -7.5,3.358 -7.5,7.5 v 10.211 c 0,0.637 0.088,1.252 0.238,1.843 h -50.08 c -7.84,-11.437 -11.975,-24.76 -11.975,-38.772 0,-37.921 30.852,-68.772 68.772,-68.772 12.559,0 24.844,3.415 35.526,9.874 3.543,2.141 8.154,1.008 10.299,-2.537 2.144,-3.545 1.007,-8.156 -2.537,-10.299 -13.024,-7.876 -27.993,-12.038 -43.288,-12.038 -7.199,0 -14.189,0.914 -20.861,2.63 L 244.396,81.577 c -2.926,-6.168 -8.984,-9.999 -15.811,-9.999 -6.827,0 -12.886,3.831 -15.811,9.999 l -14.446,30.451 -14.446,-30.451 c -2.926,-6.168 -8.984,-9.999 -15.812,-9.999 -6.826,0 -12.885,3.831 -15.811,9.999 l -45.279,95.447 c -1.775,3.742 -0.181,8.215 3.562,9.991 3.74,1.773 8.215,0.181 9.991,-3.562 l 45.279,-95.447 c 0.59,-1.243 1.668,-1.428 2.258,-1.428 0.591,0 1.669,0.186 2.259,1.428 l 69.262,146.001 c -4.921,10.657 -7.688,22.505 -7.688,34.993 0,13.716 3.256,26.892 9.489,38.772 h -56.978 c -4.143,0 -7.5,3.358 -7.5,7.5 0,4.142 3.357,7.5 7.5,7.5 h 293.083 c 10.753,0 19.501,8.749 19.501,19.501 0,10.752 -8.748,19.501 -19.501,19.501 H 34.501 Z m 172.13,-232.248 19.697,-41.521 c 0.59,-1.243 1.668,-1.428 2.259,-1.428 0.59,0 1.668,0.186 2.258,1.428 l 49.781,104.936 c -12.58,5.821 -23.485,14.66 -31.767,25.6 z M 439.674,237.13 c 15.905,19.821 19.502,47.4 9.354,70.642 h -79.995 z m -8.108,176.291 c -2.376,7.179 -9.052,12.001 -16.613,12.001 H 97.047 c -7.562,0 -14.237,-4.823 -16.613,-12.001 L 68.305,376.775 h 375.39 z"
         fill="#000000"
         id="path23" />
    </g>
  </g>
</svg>
