<?xml version="1.0" encoding="UTF-8" standalone="no"?>
<!-- icon666.com - MILLIONS vector ICONS FREE -->

<svg
   id="Capa_1"
   enable-background="new 0 0 510.224 510.224"
   viewBox="0 0 336 336"
   version="1.1"
   sodipodi:docname="guacamole.svg"
   width="336"
   height="336"
   inkscape:version="1.3.1 (9b9bdc1480, 2023-11-25, custom)"
   xmlns:inkscape="http://www.inkscape.org/namespaces/inkscape"
   xmlns:sodipodi="http://sodipodi.sourceforge.net/DTD/sodipodi-0.dtd"
   xmlns="http://www.w3.org/2000/svg"
   xmlns:svg="http://www.w3.org/2000/svg">
  <defs
     id="defs32" />
  <sodipodi:namedview
     id="namedview32"
     pagecolor="#ffffff"
     bordercolor="#000000"
     borderopacity="0.25"
     inkscape:showpageshadow="2"
     inkscape:pageopacity="0.0"
     inkscape:pagecheckerboard="0"
     inkscape:deskcolor="#d1d1d1"
     inkscape:zoom="1.5836182"
     inkscape:cx="254.79627"
     inkscape:cy="194.49133"
     inkscape:window-width="1920"
     inkscape:window-height="1011"
     inkscape:window-x="0"
     inkscape:window-y="32"
     inkscape:window-maximized="1"
     inkscape:current-layer="Capa_1" />
  <g
     id="g32"
     transform="matrix(0.65853558,0,0,0.86498454,0,-52.667827)">
    <g
       id="g17">
      <g
         id="g16">
        <g
           id="g1">
          <path
             d="m 447.218,189.087 0.083,-13.188 c 0.178,-28.155 -23.196,-50.754 -51.329,-49.627 l -13.176,0.527 C 376.05,106.427 366.002,90.835 345.001,85.168 V 85.153 C 328.374,80.368 314.55,85.963 299.813,93.226 287.336,78.847 274.301,68.173 255,68.413 235.718,68.164 222.638,78.867 210.188,93.226 195.5,85.97 181.551,80.365 165,85.153 v 0.015 c -21.027,5.682 -31.041,21.258 -37.795,41.631 l -13.176,-0.527 C 85.896,125.145 62.522,147.745 62.7,175.899 l 0.083,13.188 c -13.876,4.954 -23.897,15.264 -28.984,27.54 h 442.404 c -5.088,-12.277 -15.108,-22.587 -28.985,-27.54 z"
             fill="#e9fda4"
             id="path1" />
        </g>
        <g
           id="g2">
          <path
             d="m 457.435,194.117 c -111.659,0 -256.536,0 -373.723,0 -3.689,-31.161 18.965,-59.786 51.274,-58.43 -10e-4,0 13.175,0.527 13.175,0.527 6.754,-20.373 9.663,-29.005 30.69,-34.687 16.551,-4.788 30.5,0.802 45.188,8.058 14.539,-16.802 37.492,-36.068 60.53,-31.097 C 259.931,59.177 228.374,69.197 210.188,93.226 195.5,85.97 181.551,80.365 165,85.153 v 0.015 c -21.027,5.682 -31.041,21.258 -37.795,41.631 l -13.176,-0.527 C 85.896,125.145 62.522,147.745 62.7,175.899 l 0.083,13.188 c -13.185,4.683 -23.677,14.731 -28.984,27.54 h 442.404 c -3.736,-9.014 -10.14,-16.958 -18.768,-22.51 z"
             fill="#aae79a"
             id="path2" />
        </g>
        <g
           id="g3">
          <path
             d="M 120.367,411.611 H 180 v 30.223 h -59.633 z"
             fill="#d69660"
             id="path3" />
        </g>
        <g
           id="g4">
          <path
             d="m 120.367,411.611 h 21.718 v 30.223 h -21.718 z"
             fill="#c36632"
             id="path4" />
        </g>
        <g
           id="g5">
          <path
             d="m 330.184,411.611 h 59.633 v 30.223 h -59.633 z"
             fill="#d69660"
             id="path5" />
        </g>
        <g
           id="g6">
          <path
             d="m 330.184,411.611 h 21.718 v 30.223 h -21.718 z"
             fill="#c36632"
             id="path6" />
        </g>
        <g
           id="g7">
          <path
             d="m 7.5,216.627 v 82.117 L 120.367,411.611 H 389.856 L 502.723,298.744 v -82.117 z"
             fill="#68676b"
             id="path7" />
        </g>
        <g
           id="g8">
          <path
             d="M 411.814,389.016 H 130.317 L 29.457,288.156 V 216.627 H 7.5 v 82.117 L 120.367,411.611 H 389.856 L 502.723,298.744 v -0.637 z"
             fill="#48474a"
             id="path8" />
        </g>
        <g
           id="g9">
          <circle
             cx="389.96799"
             cy="171.968"
             fill="#52cd8d"
             r="15.032"
             id="circle8" />
        </g>
        <g
           id="g10">
          <circle
             cx="120"
             cy="171.968"
             fill="#c36632"
             r="15.032"
             id="circle9" />
        </g>
        <g
           id="g11">
          <circle
             cx="299.936"
             cy="149.117"
             fill="#c36632"
             r="15.032"
             id="circle10" />
        </g>
        <g
           id="g12">
          <circle
             cx="210.032"
             cy="149.117"
             fill="#52cd8d"
             r="15.032"
             id="circle11" />
        </g>
        <g
           id="g13">
          <path
             d="m 247.5,179.117 h 15 v 15 h -15 z"
             fill="#ffffff"
             id="path12" />
        </g>
        <g
           id="g14">
          <path
             d="m 157.5,119.116 h 15 v 15 h -15 z"
             fill="#ffffff"
             id="path13" />
        </g>
        <g
           id="g15">
          <path
             d="m 337.5,119.116 h 15 v 15 h -15 z"
             fill="#ffffff"
             id="path14" />
        </g>
      </g>
    </g>
    <g
       id="g31">
      <path
         d="m 421.175,365.165 h 15.256 v 15 h -15.256 z"
         transform="matrix(0.707,-0.707,0.707,0.707,-137.922,412.334)"
         id="path17" />
      <path
         d="m 480.966,209.127 c -5.776,-11.094 -14.861,-19.779 -26.217,-25.052 3.489,-40.06 -26.988,-69.736 -66.937,-64.982 -4.547,-13.489 -12.224,-26.122 -24.463,-33.799 l -8.235,12.537 c 12.844,7.472 17.545,23.742 22.666,36.676 17.914,-0.953 35.426,-3.076 49.261,10.991 14.505,13.325 12.999,30.984 12.643,48.863 8.998,2.739 17.739,7.398 23.424,14.766 H 46.892 c 5.683,-7.367 14.429,-12.029 23.425,-14.766 -0.35,-17.928 -1.87,-35.513 12.645,-48.865 13.814,-14.066 31.39,-11.944 49.259,-10.99 6.367,-16.756 11.55,-33.575 29.997,-40.515 18.051,-7.839 33.542,0.658 49.721,8.261 12.214,-13.125 23.348,-26.83 43.062,-26.338 19.689,-0.505 30.884,13.243 43.061,26.338 14.171,-6.507 28.87,-14.895 44.973,-9.862 l 3.935,-14.475 c -15.326,-4.468 -31.51,-1.021 -45.406,6.286 -25.318,-31.089 -67.82,-31.077 -93.125,0 -34.896,-19.347 -74.626,-3.26 -86.25,34.891 -39.972,-4.75 -70.425,24.94 -66.938,64.982 -11.356,5.273 -20.441,13.958 -26.217,25.053 H 0 v 92.724 l 112.867,112.867 v 34.617 H 187.5 v -30.224 h 135.184 v 30.224 h 74.633 v -34.577 l 20.337,-20.337 -10.606,-10.607 -20.297,20.298 H 123.474 L 15,295.638 v -41.636 h 45 v -15 H 15 v -14.875 h 480.224 v 14.875 H 75 v 15 h 420.224 v 41.636 L 440,350.861 450.606,361.468 510.223,301.85 V 209.126 H 480.966 Z M 172.5,434.335 H 127.867 V 419.111 H 172.5 Z m 165.184,0 v -15.224 h 44.633 v 15.224 z"
         id="path18" />
      <path
         d="m 412.5,171.968 c -0.781,-29.711 -44.288,-29.704 -45.064,0.001 0.781,29.71 44.287,29.705 45.064,-0.001 z m -30.064,0 c 0.178,-9.897 14.888,-9.896 15.064,0 -0.177,9.899 -14.888,9.897 -15.064,0 z"
         id="path19" />
      <path
         d="m 120,149.436 c -29.712,0.781 -29.705,44.287 0.001,45.063 29.71,-0.78 29.705,-44.286 -0.001,-45.063 z m 0,30.064 c -9.898,-0.177 -9.897,-14.887 0,-15.063 9.899,0.177 9.896,14.887 0,15.063 z"
         id="path20" />
      <path
         d="m 187.5,149.117 c 0.781,29.711 44.288,29.704 45.064,-10e-4 -0.781,-29.711 -44.287,-29.705 -45.064,10e-4 z m 30.064,0 c -0.178,9.897 -14.888,9.896 -15.064,0 0.177,-9.899 14.888,-9.897 15.064,0 z"
         id="path21" />
      <path
         d="m 277.404,149.117 c 0.781,29.711 44.288,29.704 45.064,-10e-4 -0.781,-29.711 -44.287,-29.705 -45.064,10e-4 z m 30.064,0 c -0.178,9.897 -14.888,9.896 -15.064,0 0.178,-9.899 14.888,-9.897 15.064,0 z"
         id="path22" />
      <path
         d="m 247.5,104.117 h 15 v 15 h -15 z"
         id="path23" />
      <path
         d="m 329.904,179.117 h 15 v 15 h -15 z"
         id="path24" />
      <path
         d="m 165.096,179.117 h 15 v 15 h -15 z"
         id="path25" />
      <path
         d="m 127.5,374.117 h 15 v 15 h -15 z"
         id="path26" />
      <path
         d="m 172.5,374.117 h 15 v 15 h -15 z"
         id="path27" />
      <path
         d="m 150.343,344.117 h 15 v 15 h -15 z"
         id="path28" />
      <path
         d="m 322.5,374.117 h 15 v 15 h -15 z"
         id="path29" />
      <path
         d="m 367.5,374.117 h 15 v 15 h -15 z"
         id="path30" />
      <path
         d="m 345.343,344.117 h 15 v 15 h -15 z"
         id="path31" />
    </g>
  </g>
</svg>
