<?xml version="1.0" encoding="UTF-8" standalone="no"?>
<!-- icon666.com - MILLIONS vector ICONS FREE -->

<svg
   id="Capa_1"
   enable-background="new 0 0 512.024 512.024"
   viewBox="0 0 336.00001 336.00001"
   version="1.1"
   sodipodi:docname="pickles.svg"
   width="336"
   height="336"
   inkscape:version="1.3.1 (9b9bdc1480, 2023-11-25, custom)"
   xmlns:inkscape="http://www.inkscape.org/namespaces/inkscape"
   xmlns:sodipodi="http://sodipodi.sourceforge.net/DTD/sodipodi-0.dtd"
   xmlns="http://www.w3.org/2000/svg"
   xmlns:svg="http://www.w3.org/2000/svg">
  <defs
     id="defs11" />
  <sodipodi:namedview
     id="namedview11"
     pagecolor="#ffffff"
     bordercolor="#000000"
     borderopacity="0.25"
     inkscape:showpageshadow="2"
     inkscape:pageopacity="0.0"
     inkscape:pagecheckerboard="0"
     inkscape:deskcolor="#d1d1d1"
     inkscape:zoom="1.5780511"
     inkscape:cx="255.69515"
     inkscape:cy="226.86211"
     inkscape:window-width="1920"
     inkscape:window-height="1011"
     inkscape:window-x="0"
     inkscape:window-y="32"
     inkscape:window-maximized="1"
     inkscape:current-layer="Capa_1" />
  <g
     clip-rule="evenodd"
     fill-rule="evenodd"
     id="g8"
     transform="matrix(0.65627117,0,0,0.65621905,-0.01328946,9.8559594e-5)">
    <path
       d="m 143.144,411.337 c 5.207,-5.207 6.928,-12.632 5.164,-19.306 -0.871,-3.295 -2.593,-6.407 -5.164,-8.978 l -14.142,-14.142 c -2.571,-2.571 -5.683,-4.292 -8.978,-5.164 -6.673,-1.765 -14.099,-0.044 -19.306,5.163 l -84.853,84.853 c -7.778,7.778 -7.778,20.506 0,28.284 l 14.142,14.142 c 7.778,7.778 20.506,7.778 28.284,0 z"
       fill="#c68a65"
       id="path1" />
    <path
       d="m 148.307,392.031 91.711,-91.712 8.839,8.839 c 12.639,12.639 33.322,12.639 45.961,0 l 22.981,-22.981 28.788,-28.788 c -8.102,-10.593 -16.654,-20.836 -25.731,-30.837 l -31.341,31.341 -35.355,-35.355 31.341,-31.342 c -10.001,-9.077 -20.244,-17.628 -30.837,-25.73 l -28.788,28.788 -22.981,22.981 c -12.64,12.64 -12.64,33.322 0,45.962 l 8.839,8.839 -91.711,91.711 c 3.295,0.871 6.407,2.593 8.978,5.164 l 14.142,14.142 c 2.572,2.571 4.293,5.683 5.164,8.978 z"
       fill="#ffffff"
       id="path2" />
    <path
       d="m 320.858,226.552 c 9.077,10.001 17.629,20.244 25.731,30.837 12.599,16.469 24.114,33.783 34.832,52.348 13.392,23.158 38.952,34.896 63.928,31.806 11.159,-24.392 -5.534,-56.276 -26.217,-69.534 C 347.06,225.809 332.884,130.882 260.021,117.35 222.898,110.455 186.06,80.991 174.356,51.41 c -11.299,29.189 0.017,63.064 27.961,79.224 18.565,10.719 35.879,22.233 52.348,34.833 10.593,8.102 20.836,16.653 30.837,25.73 6.116,5.549 12.141,11.294 18.1,17.254 5.961,5.959 11.707,11.984 17.256,18.101 z"
       fill="#cbe558"
       style="fill:#33d17a"
       id="path3" />
    <path
       d="m 260.021,117.35 c 72.863,13.532 87.039,108.458 159.111,154.659 20.682,13.258 37.375,45.142 26.217,69.534 8.355,-1.034 16.644,-3.727 24.391,-8.206 8.333,-4.819 15.187,-11.213 20.404,-18.589 -7.612,-40.658 -49.929,-80.523 -72.962,-127.951 l -3.817,3.816 c -1.876,-2.57 -3.774,-5.105 -5.693,-7.606 -6.094,-7.941 -12.644,-15.824 -19.638,-23.631 l 14.621,-14.621 c 3.7,-3.7 8.52,-5.64 13.394,-5.819 -6.828,-7.568 -13.807,-14.922 -20.909,-22.024 -7.101,-7.101 -14.455,-14.08 -22.021,-20.908 -0.18,4.875 -2.12,9.694 -5.82,13.394 l -14.621,14.62 c -7.807,-6.994 -15.69,-13.544 -23.632,-19.638 -2.5,-1.919 -5.036,-3.816 -7.605,-5.692 l 2.386,-2.386 C 288.142,65.711 232.794,76.372 194.345,24.134 c -6.129,4.888 -11.466,10.982 -15.628,18.179 -1.712,2.961 -3.164,6.002 -4.361,9.096 11.704,29.582 48.542,59.046 85.665,65.941 z"
       fill="#cbe558"
       style="fill:#33d17a"
       id="path4" />
    <path
       d="m 388.034,159.376 c 6.994,7.807 13.544,15.69 19.638,23.631 1.919,2.501 3.817,5.036 5.693,7.606 l 3.817,-3.816 13.757,-13.757 c 2.926,-2.926 4.752,-6.553 5.476,-10.353 1.202,-6.301 -0.623,-13.079 -5.476,-17.931 -4.078,-4.079 -9.517,-6.018 -14.89,-5.819 -4.874,0.179 -9.694,2.119 -13.394,5.819 z"
       fill="#ffffff"
       id="path5" />
    <path
       d="m 430.939,173.039 -13.757,13.757 c 23.033,47.428 65.35,87.294 72.962,127.951 14.132,-19.979 16.248,-47.159 3.196,-69.731 -16.408,-28.42 -35.71,-56.308 -56.925,-82.331 -0.725,3.801 -2.55,7.428 -5.476,10.354 z"
       fill="#cbe558"
       style="fill:#33d17a"
       id="path6" />
    <path
       d="m 352.678,124.02 14.621,-14.62 c 3.7,-3.7 5.64,-8.52 5.82,-13.394 0.198,-5.372 -1.742,-10.811 -5.82,-14.89 -4.852,-4.852 -11.63,-6.677 -17.931,-5.476 -3.8,0.724 -7.427,2.549 -10.353,5.476 l -15.188,15.188 -2.386,2.386 c 2.57,1.876 5.105,3.773 7.605,5.692 7.943,6.094 15.825,12.644 23.632,19.638 z"
       fill="#ffffff"
       id="path7" />
    <path
       d="m 323.827,96.303 15.188,-15.188 c 2.926,-2.927 6.553,-4.752 10.353,-5.476 -26.023,-21.215 -53.911,-40.516 -82.331,-56.925 -23.709,-13.71 -52.5,-10.685 -72.692,5.42 38.449,52.239 93.797,41.578 129.482,72.169 z"
       fill="#cbe558"
       style="fill:#33d17a"
       id="path8" />
  </g>
  <path
     d="m 327.25799,209.94491 c 10.45309,-15.10747 11.96579,-35.51391 2.17685,-52.44108 -10.50953,-18.20155 -22.69911,-35.94309 -36.24783,-52.77708 0.11879,-5.192003 -1.79293,-10.422069 -5.74631,-14.375788 -3.1035,-3.10326 -7.07526,-5.034513 -11.3758,-5.583768 -3.97635,-4.347451 -8.03998,-8.609594 -12.11739,-12.686683 -4.06757,-4.068558 -8.33071,-8.131866 -12.68704,-12.115772 -0.5493,-4.30086 -2.48005,-8.271641 -5.58421,-11.374901 -3.70793,-3.708294 -8.65293,-5.750448 -13.92213,-5.750448 -0.14898,0 -0.2973,0.0072 -0.44561,0.0105 C 214.47122,29.300935 196.72565,17.109041 178.522,6.6003497 167.19476,0.05062743 153.99452,-1.6962277 141.35408,1.6813318 128.71299,5.0588912 118.14374,13.155978 111.59416,24.482319 c -1.31583,2.275111 -2.42165,4.614532 -3.33452,6.993982 -0.0348,0.0945 -0.0722,0.187679 -0.10238,0.283487 -8.29264,22.010243 0.30451,47.492541 21.32488,59.647686 9.73381,5.61986 18.87567,11.540266 27.63361,17.895746 l -28.61342,28.6105 c -5.25149,5.25106 -8.14367,12.25489 -8.14367,19.72069 0,7.46581 2.89218,14.46963 8.14367,19.7207 l 1.16028,1.16019 -53.21112,53.2069 c -5.396518,-0.2953 -10.892133,1.61102 -15.006297,5.7242 L 5.7573029,293.12724 c -7.6764039,7.67579 -7.6764039,20.16496 0,27.84141 l 9.2816431,9.2809 C 18.747535,333.95719 23.691882,336 28.960427,336 c 5.268545,0 10.213548,-2.04215 13.92148,-5.75045 l 6.959099,-6.95854 c 2.562739,-2.56254 2.562739,-6.71772 0,-9.28091 -2.562738,-2.56319 -6.718248,-2.56254 -9.281643,0 l -6.958443,6.95855 c -2.558145,2.55859 -6.722186,2.55859 -9.280987,0 l -9.281643,-9.28091 c -2.558801,-2.5586 -2.558801,-6.72165 0,-9.28025 l 55.686578,-55.68215 c 2.558801,-2.5586 6.722842,-2.55795 9.280987,0 l 9.280987,9.28025 c 2.558801,2.55859 2.558801,6.72165 0,9.28025 l -6.962381,6.96182 c -2.562739,2.56254 -2.562739,6.71772 0,9.28091 2.562739,2.56319 6.718248,2.56253 9.281643,0 l 6.962381,-6.96248 c 4.112855,-4.11319 6.019315,-9.60771 5.724655,-15.0038 l 53.21112,-53.20689 1.16029,1.16019 c 5.25148,5.25107 12.25521,8.14302 19.72226,8.14302 7.4664,0 14.47078,-2.89195 19.72226,-8.14302 l 28.61277,-28.61049 c 6.35664,8.7579 12.27818,17.90034 17.89848,27.63469 9.06836,15.68036 25.55651,24.45269 42.48831,24.45204 1.90975,0 3.82475,-0.11747 5.73581,-0.3432 0.15685,-0.0144 0.31304,-0.0269 0.46792,-0.0525 6.25164,-0.80059 12.4475,-2.82699 18.23581,-6.17371 6.12892,-3.54358 11.19008,-8.22833 15.09752,-13.62245 0.22772,-0.26774 0.42985,-0.55516 0.6123,-0.85506 z m -4.92204,-21.78778 c -5.16551,-11.00151 -12.74544,-21.85734 -20.61413,-33.12528 -7.00898,-10.03556 -14.22533,-20.37495 -19.94146,-31.18025 l 5.47331,-5.47287 c 11.41715,14.67897 21.7626,30.01021 30.81652,45.69057 4.37536,7.56752 5.66362,16.08393 4.26576,24.08783 z m -42.35836,-82.76694 c -0.0164,0.0761 -0.0289,0.1529 -0.0427,0.22968 -0.25201,1.20678 -0.84134,2.35648 -1.77653,3.29159 l -6.1906,6.19012 c -2.64477,-3.41103 -5.43655,-6.83124 -8.34121,-10.21996 l 5.25083,-5.249752 c 1.21147,-1.211381 2.78324,-1.842007 4.37339,-1.906317 0.0919,-0.0033 0.18375,-0.0052 0.27498,-0.01247 1.67742,0.002 3.35485,0.641126 4.63196,1.918785 1.56586,1.563774 2.16832,3.727984 1.81984,5.758324 z M 238.30043,62.510212 c 0,1.763261 -0.67727,3.411027 -1.90647,4.640125 l -5.25017,5.249753 c -3.3857,-2.901145 -6.80553,-5.692044 -10.22076,-8.339888 l 6.1906,-6.190115 c 1.2292,-1.229754 2.87775,-1.906316 4.6405,-1.906316 1.76274,0 3.41064,0.677218 4.63983,1.906316 1.2292,1.229099 1.90647,2.876865 1.90647,4.640125 z m -49.473,135.725128 c -2.77275,2.77253 -6.48002,4.29889 -10.44062,4.29889 -3.9606,0 -7.66918,-1.52636 -10.44127,-4.29889 l -5.80079,-5.80032 c -2.56273,-2.56253 -6.71824,-2.56253 -9.28164,0 l -54.295281,54.29097 -9.280987,-9.28025 54.295278,-54.29097 c 2.56274,-2.56253 2.56274,-6.71771 0,-9.2809 l -5.80078,-5.80032 c -5.75746,-5.75636 -5.75746,-15.12323 0,-20.88024 l 29.88397,-29.88159 c 3.42245,2.72397 6.78978,5.53915 10.12298,8.43701 l -15.64485,15.64361 c -2.56274,2.56253 -2.56274,6.71771 0,9.2809 l 23.20247,23.20063 c 1.23116,1.23041 2.90006,1.92206 4.64049,1.92206 1.74043,0 3.40999,-0.69165 4.6405,-1.92206 l 15.64485,-15.64427 c 2.89809,3.33294 5.71415,6.70066 8.43833,10.12284 z m 5.76403,-56.8056 c 2.3442,2.34336 4.6254,4.69722 6.85934,7.06223 l -11.46308,11.46218 -13.92148,-13.92038 11.46243,-11.46218 c 2.36651,2.23312 4.71924,4.51414 7.06279,6.85815 z m 61.39351,58.54393 C 244.77323,180.55483 231.58875,162.30866 216.62051,145.61182 201.74941,129.02326 185.25994,113.86657 167.36802,100.58732 157.3356,93.141205 146.86676,86.289622 136.04748,80.043073 125.75321,74.09051 119.53372,63.768184 118.35703,52.763391 c 12.3333,15.016917 31.75106,27.107096 51.07496,30.695958 23.91912,4.441947 37.39368,24.143611 52.99652,46.955751 12.64175,18.48373 26.96947,39.43417 49.08055,53.60654 10.56269,6.77021 18.78052,21.87178 15.98086,33.83662 C 274.95514,218 262.69337,211.57365 255.98497,199.97367 Z m 48.99327,13.08697 c -1.26398,0.73103 -2.55683,1.36494 -3.86675,1.92601 0.94109,-16.32608 -9.27508,-33.52492 -22.51863,-42.01377 C 258.72687,160.2396 245.78192,141.31162 233.26355,123.00705 216.72814,98.829312 201.10954,75.992889 171.83,70.555458 151.13515,66.711983 129.64883,50.809827 121.56882,33.721883 c 0.42526,-0.900333 0.88006,-1.792791 1.38736,-2.669499 1.15175,-1.991625 2.47808,-3.843475 3.94944,-5.547676 3.09366,3.508803 6.41636,6.669154 10.05473,9.547987 1.20491,0.953486 2.64083,1.416121 4.06757,1.416121 1.93731,0 3.85559,-0.853741 5.15107,-2.490352 2.24904,-2.84274 1.76799,-6.969702 -1.07432,-9.217909 -2.84362,-2.249518 -5.4628,-4.71034 -7.91463,-7.434305 2.37177,-1.252722 4.89644,-2.255425 7.55237,-2.964798 9.25408,-2.473289 18.91702,-1.193662 27.21294,3.603299 15.67898,9.051886 31.01144,19.396523 45.69091,30.812109 l -5.71481,5.714356 c -4.04263,-2.783682 -8.61487,-5.197255 -14.02845,-7.418557 -3.35486,-1.376747 -7.18682,0.226396 -8.56302,3.579019 -1.37686,3.352623 0.22641,7.186255 3.5793,8.562346 4.48889,1.842007 8.22373,3.809352 11.47818,6.037872 6.6e-4,0.0059 0,0.01181 6.6e-4,0.01772 0.14832,1.911567 1.12485,3.662359 2.67299,4.792368 1.63346,1.193006 3.27086,2.418167 4.8656,3.64136 5.06313,3.885473 10.15185,8.114148 15.12508,12.569219 1.24954,1.11951 2.8154,1.674015 4.37798,1.674015 1.68334,0 3.36405,-0.644407 4.64181,-1.922066 l 9.59468,-9.593922 c 0.65234,-0.652282 1.2502,-1.344593 1.79687,-2.068402 2.44986,2.322359 4.8551,4.659811 7.19273,6.998576 2.34158,2.341389 4.68053,4.746432 7.00045,7.193473 -0.72387,0.547287 -1.41623,1.145102 -2.06857,1.796728 l -9.59468,9.594578 c -2.46364,2.463447 -2.57258,6.423067 -0.24807,9.018417 4.46199,4.9807 8.691,10.06968 12.56956,15.12388 1.21476,1.5828 2.44067,3.22007 3.64362,4.86652 1.13075,1.54802 2.88168,2.52447 4.79275,2.67212 0.10172,0.008 0.20278,0.009 0.30451,0.0118 5.90972,10.87158 12.99941,21.03247 19.89551,30.90791 10.3704,14.84958 20.202,28.92811 23.62576,42.41669 -2.62836,3.16232 -5.84672,5.92238 -9.60846,8.09774 z"
     fill="#000000"
     id="path9"
     style="stroke-width:0.656245" />
  <path
     d="m 169.48515,37.495799 -0.005,-0.0013 c -3.43886,-1.145758 -7.1527,0.712654 -8.2992,4.151242 -1.14651,3.438588 0.71402,7.155412 4.15288,8.301171 0.68843,0.229676 1.38802,0.338609 2.07644,0.338609 2.74781,0 5.30793,-1.738981 6.22474,-4.488539 1.1465,-3.439244 -0.71206,-7.155412 -4.15026,-8.30117 z"
     fill="#000000"
     id="path10"
     style="stroke-width:0.656245" />
  <path
     d="m 61.225343,293.35757 c -2.438048,2.68131 -2.24051,6.8319 0.44167,9.26975 1.257416,1.14314 2.83706,1.70683 4.412767,1.70683 1.784402,0 3.562897,-0.72381 4.85772,-2.14781 l 0.0033,-0.003 c 2.438047,-2.68131 2.238541,-6.82992 -0.442983,-9.26778 -2.681524,-2.43916 -6.833752,-2.23967 -9.272455,0.44229 z"
     fill="#000000"
     id="path11"
     style="stroke-width:0.656245" />
</svg>
