<?xml version="1.0" encoding="UTF-8" standalone="no"?>
<!-- icon666.com - MILLIONS vector ICONS FREE -->

<svg
   version="1.1"
   id="Layer_1"
   x="0px"
   y="0px"
   viewBox="0 0 336.00002 336.00002"
   xml:space="preserve"
   sodipodi:docname="sandwich.svg"
   width="336"
   height="336"
   inkscape:version="1.3.1 (9b9bdc1480, 2023-11-25, custom)"
   xmlns:inkscape="http://www.inkscape.org/namespaces/inkscape"
   xmlns:sodipodi="http://sodipodi.sourceforge.net/DTD/sodipodi-0.dtd"
   xmlns="http://www.w3.org/2000/svg"
   xmlns:svg="http://www.w3.org/2000/svg"><defs
     id="defs9" /><sodipodi:namedview
     id="namedview9"
     pagecolor="#ffffff"
     bordercolor="#000000"
     borderopacity="0.25"
     inkscape:showpageshadow="2"
     inkscape:pageopacity="0.0"
     inkscape:pagecheckerboard="0"
     inkscape:deskcolor="#d1d1d1"
     inkscape:zoom="1.578122"
     inkscape:cx="256.31732"
     inkscape:cy="159.04981"
     inkscape:window-width="1920"
     inkscape:window-height="1011"
     inkscape:window-x="0"
     inkscape:window-y="32"
     inkscape:window-maximized="1"
     inkscape:current-layer="Layer_1" /><path
     style="fill:#fed477;stroke-width:0.650168"
     d="m 275.67577,68.442002 c -29.69192,0 -53.76111,17.12176 -53.76111,38.242978 h -0.15356 c 0,-21.121218 -24.06984,-38.242978 -53.7611,-38.242978 -29.69126,0 -53.7611,17.12176 -53.7611,38.242978 h -0.15356 c 0,-21.121218 -24.069848,-38.242979 -53.761107,-38.242979 -29.691915,0 -53.7617586,17.121761 -53.7617586,38.242979 v 36.97791 H 329.43687 v -36.97791 c -6.6e-4,-21.121218 -24.0705,-38.242978 -53.7611,-38.242978 z"
     id="path1" /><path
     style="fill:#72c17a;stroke-width:0.650168"
     d="m 9.5385565,143.66224 c -0.033469,0.44705 -0.059062,0.8947 -0.059062,1.34621 0,16.88793 23.7942195,30.57906 53.1455425,30.57906 27.01705,0 49.308463,-11.60154 52.686823,-26.61703 3.37836,15.01549 25.67109,26.61703 52.68683,26.61703 27.01574,0 49.30846,-11.60154 52.68682,-26.61703 3.37836,15.01549 25.67043,26.61703 52.68683,26.61703 29.35198,0 53.14554,-13.69048 53.14554,-30.57906 0,-0.45151 -0.0256,-0.89916 -0.0591,-1.34621 H 9.5385168 Z"
     id="path2" /><path
     style="fill:#f1584e;stroke-width:0.650168"
     d="m 321.67543,157.76111 c -8.40325,10.51857 -26.86349,17.82577 -48.30112,17.82577 -21.43698,0 -39.88803,-7.30762 -48.28735,-17.82577 h -8.79962 c -8.39931,10.51815 -26.85102,17.82577 -48.28668,17.82577 -21.43698,0 -39.88804,-7.30762 -48.28735,-17.82577 h -8.79962 c -8.39997,10.51815 -26.851018,17.82577 -48.287341,17.82577 -21.438291,0 -39.899188,-7.30762 -48.301124,-17.82577 H 6.5624744 v 38.51857 H 329.43687 v -38.51857 z"
     id="path3" /><path
     style="fill:#fbaa3d;stroke-width:0.650168"
     d="M 329.43621,229.22662 V 196.27914 H 6.5624744 v 32.94748 c 0,17.08247 14.1086636,30.93076 31.5123456,30.93076 h 259.8497 c 17.40303,0 31.51169,-13.84829 31.51169,-30.93076 z"
     id="path4" /><path
     d="m 294.07629,239.90125 c -0.42656,0 -0.85969,-0.0451 -1.27968,-0.12889 -0.42,-0.0772 -0.83409,-0.20611 -1.22719,-0.36711 -0.40031,-0.16098 -0.78093,-0.35438 -1.1353,-0.58618 -0.36094,-0.23836 -0.69497,-0.50884 -0.9975,-0.80513 -0.30187,-0.29633 -0.5775,-0.62488 -0.81375,-0.97917 -0.23559,-0.34782 -0.43968,-0.72136 -0.60375,-1.10788 -0.16406,-0.39287 -0.29531,-0.79876 -0.37406,-1.20446 -0.0853,-0.41855 -0.13059,-0.84388 -0.13059,-1.26252 0,-0.41875 0.0453,-0.84379 0.13059,-1.25612 0.0788,-0.4122 0.21,-0.81801 0.37406,-1.20469 0.16407,-0.39277 0.36816,-0.76641 0.60375,-1.11425 0.23625,-0.35417 0.51188,-0.68271 0.81375,-0.97905 0.30187,-0.29627 0.63656,-0.56677 0.9975,-0.79873 0.35437,-0.23188 0.73499,-0.43222 1.1353,-0.59324 0.39375,-0.16104 0.80719,-0.28342 1.22719,-0.36713 0.84656,-0.16749 1.7128,-0.16749 2.55871,0 0.42065,0.0839 0.83409,0.20609 1.22718,0.36713 0.40031,0.16102 0.78093,0.36074 1.13531,0.59324 0.36093,0.23196 0.69562,0.50246 0.99749,0.79873 0.30188,0.29634 0.5775,0.62488 0.82031,0.97905 0.23625,0.34784 0.43969,0.72148 0.60375,1.11425 0.16406,0.38668 0.28875,0.79249 0.37406,1.20469 0.0853,0.41233 0.12469,0.83737 0.12469,1.25612 0,0.41864 -0.0394,0.84397 -0.12469,1.26252 -0.0853,0.4057 -0.21,0.81159 -0.37406,1.20446 -0.16406,0.38652 -0.3675,0.76006 -0.60375,1.10788 -0.24281,0.35429 -0.51843,0.68284 -0.82031,0.97917 -0.30187,0.29629 -0.63656,0.56677 -0.99749,0.80513 -0.35438,0.2318 -0.735,0.4252 -1.13531,0.58618 -0.39375,0.161 -0.80653,0.28985 -1.22718,0.36711 -0.41935,0.0839 -0.85247,0.12889 -1.27903,0.12889 z"
     id="path5"
     style="stroke-width:0.650168" /><path
     d="m 335.99869,143.66224 v -36.97791 c 0,-12.334554 -6.5546,-23.790508 -18.45762,-32.25767 C 306.27593,66.412972 291.40733,62 275.67577,62 c -15.73288,0 -30.60082,4.413617 -41.86662,12.42666 -4.94023,3.514409 -8.9604,7.544768 -11.97192,11.93841 -3.01152,-4.393642 -7.03169,-8.424001 -11.97192,-11.93841 -11.26515,-8.013043 -26.13309,-12.426016 -41.86597,-12.426016 -15.73287,0 -30.60081,4.413619 -41.86596,12.426668 -4.94023,3.514402 -8.95974,7.544116 -11.97192,11.93841 -3.01152,-4.393665 -7.03103,-8.424008 -11.97192,-11.93841 C 90.924395,66.413617 76.055797,62.000644 60.322921,62.000644 c -15.73222,0 -30.600818,4.413619 -41.865306,12.426668 C 6.5545994,82.89447 0,94.350417 0,106.68498 v 36.97791 c 0,2.38639 1.3256198,4.46446 3.2904246,5.57803 0.1561869,0.88908 0.3602799,1.76835 0.6129352,2.63592 C 1.6051812,152.87788 0,155.13347 0,157.76111 v 38.51857 32.94757 C 0,249.83439 17.080152,266.6 38.07482,266.6 H 297.92518 C 318.91919,266.6 336,249.83507 336,229.22725 v -32.94757 -38.51857 c 0,-2.62764 -1.60518,-4.88323 -3.90336,-5.88544 0.25266,-0.86767 0.45675,-1.74633 0.61294,-2.63594 1.96349,-1.1131 3.28911,-3.19097 3.28911,-5.57749 z M 13.124949,165.97438 c 9.65865,8.85298 25.390869,14.85449 43.783516,15.89151 0.06759,0.006 0.135843,0.01 0.204093,0.0109 0.499404,0.0269 1.001434,0.0506 1.504776,0.0702 0.143718,0.01 0.287436,0.011 0.43181,0.0164 0.446905,0.0157 0.895778,0.0277 1.345964,0.0378 0.15553,0.005 0.310405,0.01 0.465936,0.0109 0.586028,0.0106 1.174026,0.0164 1.764649,0.0164 0.691028,0 1.380088,-0.01 2.066523,-0.0219 0.245437,-0.008 0.488904,-0.015 0.733685,-0.0225 0.438373,-0.0121 0.876746,-0.024 1.313151,-0.0414 0.295967,-0.012 0.58931,-0.0292 0.883965,-0.044 0.381936,-0.0193 0.764528,-0.0367 1.145152,-0.0598 0.313686,-0.0192 0.624747,-0.0433 0.937121,-0.0652 0.358968,-0.0261 0.718591,-0.05 1.07559,-0.0792 0.315655,-0.0259 0.629341,-0.0553 0.943684,-0.0845 0.353061,-0.032 0.706122,-0.0649 1.05787,-0.10047 0.307124,-0.0316 0.612279,-0.0663 0.918091,-0.10049 0.358967,-0.0406 0.717278,-0.0811 1.07362,-0.12573 0.290062,-0.0361 0.578154,-0.0747 0.866903,-0.11334 0.372093,-0.0496 0.743529,-0.10042 1.113652,-0.15453 0.267093,-0.0393 0.532873,-0.08 0.797997,-0.12111 0.395061,-0.0613 0.788153,-0.12428 1.179933,-0.19 0.232968,-0.0394 0.465936,-0.0791 0.698247,-0.12058 0.42853,-0.0751 0.855091,-0.15386 1.279683,-0.235 0.190311,-0.0367 0.380623,-0.073 0.569622,-0.11078 0.474467,-0.094 0.945653,-0.19203 1.415526,-0.29246 0.135843,-0.0297 0.271687,-0.058 0.406874,-0.0882 0.534841,-0.11793 1.065089,-0.24022 1.592712,-0.3671 0.06759,-0.0166 0.135187,-0.0316 0.202124,-0.0484 10.44746,-2.53668 19.519422,-6.8485 26.138332,-12.52851 0.0689,-0.0593 0.1365,-0.11914 0.20541,-0.17905 0.28809,-0.25058 0.57356,-0.50307 0.85246,-0.75947 0.13585,-0.12426 0.26907,-0.25055 0.40228,-0.37611 0.20475,-0.19257 0.40819,-0.3865 0.60703,-0.5823 0.18769,-0.18423 0.37144,-0.37037 0.55388,-0.55649 0.0847,-0.087 0.1739,-0.17134 0.2579,-0.25904 h 2.79758 c 0.0768,0.08 0.15816,0.15715 0.2356,0.23706 0.19359,0.19778 0.3885,0.39554 0.58799,0.59066 0.18835,0.1849 0.38063,0.36714 0.57356,0.54946 0.14438,0.13593 0.2881,0.27188 0.4351,0.40649 0.2684,0.24601 0.54206,0.48894 0.81899,0.72979 0.0794,0.0692 0.1575,0.13842 0.23757,0.20676 6.61891,5.67677 15.68825,9.98604 26.13177,12.52075 0.0636,0.0159 0.12731,0.0301 0.19097,0.0462 0.53156,0.12745 1.06574,0.25117 1.60452,0.36969 0.13191,0.0291 0.26381,0.0576 0.39637,0.0858 0.47316,0.10173 0.94763,0.20035 1.42537,0.29501 0.18638,0.0369 0.37407,0.0729 0.5611,0.10893 0.42787,0.0817 0.85705,0.16096 1.28821,0.23631 0.22969,0.0406 0.46003,0.0805 0.69037,0.11922 0.39441,0.0664 0.79012,0.13014 1.18715,0.19129 0.26316,0.0406 0.52631,0.0811 0.79078,0.11968 0.37209,0.0543 0.74615,0.10581 1.12087,0.15597 0.28613,0.0383 0.57225,0.0765 0.86034,0.1121 0.35831,0.0448 0.71859,0.0858 1.07887,0.12621 0.30385,0.0341 0.60769,0.0691 0.91284,0.10057 0.35306,0.0357 0.70744,0.0693 1.06181,0.10112 0.31303,0.0288 0.62541,0.0583 0.93975,0.0846 0.35831,0.0295 0.71925,0.054 1.07953,0.0798 0.31106,0.0217 0.62146,0.0457 0.93449,0.0654 0.38128,0.0231 0.76453,0.0412 1.14778,0.0606 0.294,0.0154 0.58668,0.0315 0.88199,0.044 0.43641,0.0177 0.87544,0.0298 1.31447,0.0412 0.24412,0.01 0.48759,0.0168 0.73237,0.0221 0.68644,0.0146 1.3755,0.0219 2.06652,0.0219 0.69103,0 1.38009,-0.01 2.06653,-0.0219 0.24543,-0.008 0.48825,-0.0152 0.73237,-0.0221 0.43903,-0.0126 0.87806,-0.0234 1.31446,-0.0412 0.29466,-0.0117 0.588,-0.0294 0.882,-0.044 0.38325,-0.0192 0.7665,-0.0374 1.14778,-0.0606 0.31237,-0.019 0.62277,-0.0436 0.93384,-0.0654 0.36028,-0.0256 0.72056,-0.05 1.07952,-0.0798 0.31435,-0.026 0.62738,-0.0557 0.93975,-0.0846 0.35437,-0.0329 0.7094,-0.0656 1.06181,-0.10112 0.30581,-0.0314 0.609,-0.0661 0.91284,-0.10057 0.36028,-0.0405 0.72056,-0.0817 1.07887,-0.12621 0.28809,-0.0359 0.57422,-0.074 0.86034,-0.1121 0.37472,-0.0505 0.74878,-0.10111 1.12087,-0.15597 0.26447,-0.0385 0.52828,-0.0783 0.79078,-0.11968 0.39703,-0.0612 0.7934,-0.12495 1.18715,-0.19129 0.231,-0.0389 0.46069,-0.0785 0.69037,-0.11922 0.43116,-0.076 0.86034,-0.15524 1.28822,-0.23631 0.18703,-0.0362 0.37471,-0.0722 0.56109,-0.10893 0.47775,-0.0946 0.95287,-0.19328 1.42537,-0.29501 0.1319,-0.0285 0.26446,-0.0569 0.39637,-0.0858 0.53878,-0.11852 1.07296,-0.24224 1.60453,-0.36969 0.0636,-0.0157 0.12731,-0.0304 0.19096,-0.0462 10.44352,-2.53471 19.51286,-6.84463 26.13178,-12.52075 0.0801,-0.0683 0.15815,-0.13786 0.23756,-0.20676 0.27693,-0.24085 0.55125,-0.48378 0.81899,-0.72979 0.147,-0.13461 0.29072,-0.27056 0.4351,-0.40649 0.19293,-0.18232 0.38521,-0.36456 0.57356,-0.54946 0.1995,-0.19512 0.3944,-0.39288 0.58799,-0.59066 0.0774,-0.0792 0.15882,-0.15711 0.2356,-0.23706 h 2.79758 c 0.084,0.0875 0.17259,0.172 0.25791,0.25904 0.18243,0.18612 0.36618,0.37226 0.55387,0.55649 0.19884,0.1958 0.40228,0.38906 0.60703,0.5823 0.13387,0.12556 0.26643,0.25185 0.40228,0.37611 0.2789,0.25574 0.56371,0.50824 0.85246,0.75947 0.0689,0.0589 0.1365,0.11972 0.20541,0.17905 6.61957,5.68001 15.69087,9.99258 26.13899,12.52851 0.0669,0.016 0.13453,0.0324 0.20212,0.0484 0.52763,0.12688 1.05853,0.24917 1.59272,0.3671 0.13518,0.0293 0.27103,0.0586 0.40687,0.0882 0.46922,0.10117 0.94106,0.19907 1.41487,0.29246 0.18965,0.0372 0.37931,0.074 0.56962,0.11078 0.42459,0.0812 0.85115,0.15979 1.27968,0.235 0.23232,0.0413 0.46463,0.0809 0.69825,0.12058 0.39178,0.0658 0.78487,0.12876 1.17993,0.19 0.26578,0.0412 0.53156,0.0817 0.798,0.12111 0.37012,0.0543 0.7409,0.10502 1.11365,0.15453 0.28875,0.0391 0.57684,0.0773 0.86691,0.11334 0.35634,0.0446 0.71531,0.0851 1.07362,0.12573 0.30581,0.0344 0.61096,0.069 0.91809,0.10049 0.35109,0.036 0.70481,0.0683 1.05787,0.10047 0.31434,0.0289 0.62803,0.0584 0.94368,0.0845 0.357,0.0288 0.71662,0.0542 1.07559,0.0792 0.31237,0.0215 0.62344,0.046 0.93712,0.0652 0.38063,0.0234 0.76322,0.0408 1.14515,0.0598 0.29466,0.0152 0.588,0.0319 0.88397,0.044 0.4364,0.0176 0.87478,0.0295 1.31249,0.0414 0.24478,0.01 0.48825,0.0166 0.73369,0.0225 0.68643,0.0147 1.37549,0.0219 2.06652,0.0219 0.59062,0 1.17862,-0.01 1.76465,-0.0164 0.15553,-0.004 0.31041,-0.01 0.46594,-0.0109 0.45018,-0.01 0.8984,-0.0217 1.34596,-0.0378 0.14438,-0.008 0.28809,-0.0108 0.43181,-0.0164 0.50334,-0.0195 1.00537,-0.0434 1.50478,-0.0702 0.0683,-0.006 0.1365,-0.01 0.20409,-0.0109 18.39396,-1.03702 34.12618,-7.03853 43.78417,-15.89151 v 23.864 H 13.124949 Z M 211.12268,153.78611 c -6.6e-4,6.2e-4 -6.6e-4,6.2e-4 -0.001,0.002 -0.462,0.57912 -0.9614,1.14459 -1.49493,1.6973 -2.50161,2.58105 -5.90294,4.99657 -10.07274,7.05844 -0.0584,0.0283 -0.11484,0.0577 -0.17391,0.0862 -0.29662,0.14559 -0.60178,0.28601 -0.90627,0.42764 -7.03826,3.25234 -15.78341,5.35336 -25.20516,5.92729 -0.0315,0.003 -0.063,0.006 -0.0945,0.01 -0.46987,0.0282 -0.94171,0.0511 -1.41486,0.0709 -0.27497,0.0116 -0.55125,0.0215 -0.82819,0.0299 -0.32419,0.011 -0.64772,0.0221 -0.97321,0.0295 -0.64838,0.0146 -1.30003,0.0244 -1.9589,0.0244 -0.65887,0 -1.31053,-0.01 -1.9589,-0.0244 -0.3255,-0.01 -0.64903,-0.0185 -0.97322,-0.0295 -0.27693,-0.01 -0.55321,-0.0188 -0.82818,-0.0299 -0.47315,-0.0208 -0.945,-0.0436 -1.41487,-0.0709 -0.0315,-0.003 -0.063,-0.006 -0.0945,-0.01 -9.42174,-0.57393 -18.1669,-2.67495 -25.20515,-5.92729 -0.3045,-0.14163 -0.60965,-0.28205 -0.90628,-0.42764 -0.0584,-0.0283 -0.1155,-0.058 -0.17325,-0.0862 -4.16979,-2.06187 -7.57112,-4.47804 -10.07274,-7.05844 -0.53353,-0.55271 -1.03228,-1.11894 -1.49493,-1.6973 -6.6e-4,-5.9e-4 -0.001,-0.002 -0.001,-0.002 -0.96272,-1.20842 -1.73447,-2.44126 -2.29818,-3.68251 h 90.84367 c -0.56371,1.24125 -1.33546,2.47409 -2.29817,3.68251 z m -105.46225,0.10566 c -0.20606,0.25497 -0.41672,0.50885 -0.63722,0.75878 -2.55542,2.89407 -6.229752,5.61229 -10.848422,7.8958 -0.05578,0.0275 -0.110905,0.0559 -0.166686,0.0832 -0.299249,0.14629 -0.607029,0.28862 -0.914153,0.43159 -7.037598,3.25097 -15.780782,5.35081 -25.199902,5.92484 -0.0315,0.003 -0.06366,0.006 -0.09516,0.01 -0.469873,0.0281 -0.941715,0.0511 -1.414869,0.0709 -0.274968,0.0112 -0.551248,0.0214 -0.828184,0.0301 -0.324187,0.0108 -0.647717,0.0219 -0.973215,0.0296 -0.648373,0.0144 -1.300026,0.0243 -1.958899,0.0243 -0.719903,0 -1.435213,-0.0125 -2.14921,-0.0297 -0.233624,-0.01 -0.467248,-0.014 -0.700216,-0.0214 -0.49153,-0.0164 -0.98109,-0.0371 -1.469338,-0.061 -0.256593,-0.0135 -0.513842,-0.0242 -0.769778,-0.0387 -0.629342,-0.0364 -1.255402,-0.0806 -1.878837,-0.13011 -0.353061,-0.0283 -0.703497,-0.0631 -1.05459,-0.0959 -0.309092,-0.0288 -0.618185,-0.0585 -0.925965,-0.0907 -0.395061,-0.0412 -0.789465,-0.0845 -1.181901,-0.13148 -0.238218,-0.0283 -0.475123,-0.0597 -0.712029,-0.0902 -0.750091,-0.0959 -1.493619,-0.20228 -2.231241,-0.31831 -0.211968,-0.0338 -0.424592,-0.0647 -0.635248,-0.0998 -0.384561,-0.0637 -0.766497,-0.13139 -1.14712,-0.20041 -0.293999,-0.0536 -0.586685,-0.10812 -0.878715,-0.16473 -0.324843,-0.0625 -0.650342,-0.12437 -0.972559,-0.19077 -0.60506,-0.12556 -1.206183,-0.25566 -1.801399,-0.39482 -0.129937,-0.0301 -0.257249,-0.0627 -0.38653,-0.0934 -0.616216,-0.14757 -1.228495,-0.3001 -1.832899,-0.46248 -0.02953,-0.01 -0.05972,-0.0164 -0.08925,-0.0242 -4.951387,-1.33707 -9.495244,-3.1632 -13.443885,-5.43506 -1.714118,-0.98616 -3.860703,-2.38719 -5.879977,-4.15598 -1.118245,-0.99639 -2.124929,-2.03991 -2.996426,-3.13115 -0.07744,-0.0966 -0.164061,-0.18293 -0.246092,-0.27444 -0.817685,-1.0569 -1.534307,-2.19257 -2.07768,-3.40872 h 90.883055 c -0.57947,1.27791 -1.38271,2.54695 -2.38546,3.78882 z m 211.09708,-0.37936 c -0.082,0.0914 -0.16931,0.17773 -0.24609,0.27432 -0.8715,1.09133 -1.87752,2.13485 -2.99643,3.13115 -2.01993,1.76878 -4.16585,3.16986 -5.87997,4.15599 -3.94864,2.27185 -8.4925,4.09794 -13.44389,5.43522 -0.0295,0.01 -0.0591,0.0157 -0.0892,0.024 -0.6044,0.16232 -1.21668,0.31497 -1.8329,0.46252 -0.12928,0.0307 -0.25659,0.0633 -0.38653,0.0934 -0.59521,0.13909 -1.19634,0.26926 -1.8014,0.39486 -0.32221,0.0663 -0.64771,0.12816 -0.97255,0.19063 -0.29203,0.0571 -0.58472,0.11144 -0.87872,0.16483 -0.38062,0.0691 -0.76256,0.13663 -1.14646,0.20038 -0.21132,0.0354 -0.4246,0.0665 -0.63722,0.0999 -0.73697,0.11535 -1.48049,0.22168 -2.22993,0.31754 -0.2369,0.0303 -0.47381,0.0622 -0.71203,0.0902 -0.39243,0.0468 -0.78684,0.0901 -1.1819,0.13149 -0.30778,0.0325 -0.61687,0.0621 -0.92596,0.0908 -0.3511,0.033 -0.70153,0.0667 -1.05459,0.0959 -0.62344,0.0503 -1.2495,0.0939 -1.87884,0.13014 -0.25528,0.0154 -0.51319,0.0259 -0.76978,0.039 -0.48825,0.0242 -0.97846,0.0453 -1.46999,0.0611 -0.23297,0.01 -0.46659,0.0157 -0.70022,0.0216 -0.714,0.0171 -1.42931,0.029 -2.14921,0.029 -0.65887,0 -1.31053,-0.01 -1.9589,-0.024 -0.3255,-0.01 -0.64903,-0.0187 -0.97321,-0.0296 -0.27694,-0.01 -0.55322,-0.0187 -0.82819,-0.0301 -0.4725,-0.0208 -0.94499,-0.0431 -1.41487,-0.0705 -0.0315,-0.003 -0.0636,-0.006 -0.0951,-0.01 -9.41912,-0.57395 -18.16231,-2.67448 -25.1999,-5.9248 -0.30647,-0.14232 -0.61491,-0.2847 -0.91416,-0.43146 -0.0558,-0.0274 -0.1109,-0.0556 -0.16668,-0.0832 -4.61802,-2.28346 -8.293,-5.00104 -10.84843,-7.89581 -0.2205,-0.24987 -0.4305,-0.50368 -0.63722,-0.75879 -1.00274,-1.24188 -1.80599,-2.51085 -2.38611,-3.78808 h 90.88305 c -0.54206,1.216 -1.25868,2.35163 -2.07637,3.40867 z M 13.124949,106.68498 c 0,-8.0955 4.629169,-15.847032 13.034386,-21.8259 9.04309,-6.432976 21.175793,-9.975721 34.163586,-9.975721 12.988449,0 25.121151,3.542745 34.164897,9.975721 8.405872,5.979517 13.035042,13.7304 13.035042,21.8259 0,3.55755 2.93868,6.44135 6.56248,6.44135 h 0.1529 c 3.6238,0 6.56248,-2.8838 6.56248,-6.44135 0,-8.0955 4.62917,-15.847032 13.03438,-21.8259 9.04309,-6.432976 21.17711,-9.975721 34.1649,-9.975721 12.98779,0 25.12115,3.542745 34.16424,9.975721 8.40587,5.979517 13.03439,13.7304 13.03439,21.8259 0,3.55755 2.93867,6.44135 6.56247,6.44135 h 0.15356 c 3.6238,0 6.56248,-2.8838 6.56248,-6.44135 0,-8.0955 4.62917,-15.847032 13.03439,-21.8259 9.04309,-6.432976 21.1771,-9.975721 34.16489,-9.975721 12.9878,0 25.1205,3.542745 34.16424,9.975721 8.40588,5.979517 13.03439,13.7304 13.03439,21.8259 v 30.53643 H 13.124949 Z M 322.87374,229.22662 c 0,13.50365 -11.1923,24.49003 -24.94987,24.49003 H 38.07482 c -9.860774,0 -18.401834,-5.64454 -22.450225,-13.81414 H 268.97417 c 3.6238,0 6.56247,-2.8838 6.56247,-6.44134 0,-3.55754 -2.93867,-6.44126 -6.56247,-6.44126 H 13.124949 V 202.72047 H 322.87374 Z"
     id="path6"
     style="stroke-width:0.650168" /><path
     d="m 46.221476,121.88915 c -1.679994,0 -3.358675,-0.62868 -4.640326,-1.88667 -2.562646,-2.51535 -2.562646,-6.59402 0,-9.10937 L 67.084238,85.860713 c 2.563959,-2.515348 6.718005,-2.515348 9.281307,6.09e-4 2.562647,2.515352 2.562647,6.594014 0,9.109365 L 50.862458,120.00308 c -1.282308,1.25671 -2.962301,1.88603 -4.640982,1.88603 z"
     id="path7"
     style="stroke-width:0.650168" /><path
     d="m 155.2478,121.88915 c -1.67999,0 -3.35867,-0.62868 -4.64033,-1.88667 -2.56264,-2.51535 -2.56264,-6.59402 0,-9.10937 l 25.50244,-25.032397 c 2.5633,-2.515348 6.71734,-2.515989 9.2813,-6.05e-4 2.56265,2.515348 2.56265,6.594011 0,9.109363 l -25.50243,25.032399 c -1.28231,1.25799 -2.96099,1.88731 -4.64098,1.88731 z"
     id="path8"
     style="stroke-width:0.650168" /><path
     d="m 264.27412,121.88915 c -1.67999,0 -3.35867,-0.62868 -4.64032,-1.88667 -2.56265,-2.51535 -2.56265,-6.59402 0,-9.10937 l 25.50309,-25.032397 c 2.56461,-2.515348 6.71866,-2.515348 9.28065,6.09e-4 2.56264,2.515352 2.56264,6.594014 0,9.109365 l -25.50309,25.032393 c -1.28165,1.25671 -2.96099,1.88603 -4.64033,1.88603 z"
     id="path9"
     style="stroke-width:0.650168" /></svg>
