<?xml version="1.0" encoding="UTF-8" standalone="no"?>
<!-- icon666.com - MILLIONS vector ICONS FREE -->

<svg
   viewBox="0 0 336 336"
   version="1.1"
   id="svg18"
   sodipodi:docname="yoghurt.svg"
   width="336"
   height="336"
   inkscape:version="1.3.1 (9b9bdc1480, 2023-11-25, custom)"
   xmlns:inkscape="http://www.inkscape.org/namespaces/inkscape"
   xmlns:sodipodi="http://sodipodi.sourceforge.net/DTD/sodipodi-0.dtd"
   xmlns="http://www.w3.org/2000/svg"
   xmlns:svg="http://www.w3.org/2000/svg">
  <defs
     id="defs18" />
  <sodipodi:namedview
     id="namedview18"
     pagecolor="#ffffff"
     bordercolor="#000000"
     borderopacity="0.25"
     inkscape:showpageshadow="2"
     inkscape:pageopacity="0.0"
     inkscape:pagecheckerboard="0"
     inkscape:deskcolor="#d1d1d1"
     inkscape:zoom="1.6290323"
     inkscape:cx="217.61386"
     inkscape:cy="214.23762"
     inkscape:window-width="1920"
     inkscape:window-height="1011"
     inkscape:window-x="0"
     inkscape:window-y="32"
     inkscape:window-maximized="1"
     inkscape:current-layer="svg18" />
  <path
     d="M 157.16129,5.4193548 146.32258,81.290323 H 124.64516 L 135.48387,5.4193548 Z m 0,0"
     fill="#ffeaa7"
     id="path1"
     style="stroke-width:0.677419" />
  <path
     d="m 124.64516,81.290323 h 27.09678 c 14.95614,0 27.09677,12.140621 27.09677,27.096777 0,7.47807 -3.03516,14.25226 -7.91205,19.18472 -4.93246,4.87689 -11.70665,7.91205 -19.18472,7.91205 H 32.516129 c -8.996976,0 -16.258064,-7.26109 -16.258064,-16.25806 0,-4.49849 1.841733,-8.56301 4.768396,-11.48967 2.926664,-2.92666 6.99118,-4.7684 11.489668,-4.7684 h 23.683216 c -5.040953,0 -9.592364,-2.05872 -12.89743,-5.366433 -3.307712,-3.305061 -5.366431,-7.856472 -5.366431,-12.897428 0,-8.398936 5.689264,-15.660025 13.818297,-17.721394 l 3.252142,-0.812374 c 8.51008,-2.114289 16.530619,-5.689264 23.683215,-10.460308 7.208165,-4.768397 13.60131,-10.730216 18.859249,-17.774319 l 6.340223,6.340222 c 9.80935,9.80935 15.3372,23.14075 15.3372,37.014617 z m 0,0"
     fill="#e6e9ed"
     id="path2"
     style="stroke-width:0.677419" />
  <path
     d="m 189.67742,140.90323 v 10.83871 c 0,2.97958 -2.43977,5.41935 -5.41936,5.41935 H 10.83871 c -2.9795874,0 -5.4193552,-2.43977 -5.4193552,-5.41935 v -10.83871 c 0,-2.97959 2.4397678,-5.41936 5.4193552,-5.41936 h 173.41935 c 2.97959,0 5.41936,2.43977 5.41936,5.41936 z m 0,0"
     fill="#fcd770"
     id="path3"
     style="stroke-width:0.677419" />
  <path
     d="m 170.70968,243.87097 -6.2873,67.03805 c -1.02936,11.16419 -10.40474,19.67163 -21.56893,19.67163 H 52.243322 c -11.164189,0 -20.539567,-8.50744 -21.568927,-19.67163 L 16.258065,157.16129 H 178.83871 l -1.02936,10.73021 -5.04095,54.24912 z m 0,0"
     fill="#ffeaa7"
     id="path4"
     style="stroke-width:0.677419" />
  <path
     d="m 97.548387,184.25806 c 29.914943,0 54.193553,24.27861 54.193553,54.19355 0,29.91495 -24.27861,54.19355 -54.193553,54.19355 -29.914944,0 -54.193548,-24.2786 -54.193548,-54.19355 0,-29.91494 24.278604,-54.19355 54.193548,-54.19355 z m 0,0"
     fill="#e6e9ed"
     id="path5"
     style="stroke-width:0.677419" />
  <path
     d="m 124.64516,228.42528 c 0,3.03516 -0.59539,6.07031 -1.84173,8.83291 l -0.97644,2.27835 -2.60118,-1.08493 -10.83871,-10.83871 -10.838713,10.83871 -10.83871,-10.83871 -10.838709,10.83871 -2.601185,1.08493 -0.976436,-2.27835 c -1.246346,-2.7626 -1.841734,-5.79775 -1.841734,-8.83291 0,-6.23173 2.492692,-11.8125 6.612777,-15.87702 4.064516,-4.12008 9.645287,-6.61278 15.877016,-6.61278 h 9.213964 c 12.41053,0 22.48979,10.07927 22.48979,22.4898 z m 0,0"
     fill="#b4dd7f"
     id="path6"
     style="stroke-width:0.677419" />
  <path
     d="m 121.82699,239.53654 -9.15839,21.46044 c -2.60119,6.06766 -8.563,9.97076 -15.120213,9.97076 -6.557208,0 -12.519027,-3.9031 -15.120211,-9.97076 l -9.158393,-21.46044 2.601185,-1.08493 10.838709,-10.83871 10.83871,10.83871 10.838713,-10.83871 10.83871,10.83871 z m 0,0"
     fill="#ff826e"
     id="path7"
     style="stroke-width:0.677419" />
  <path
     d="m 319.74194,243.87097 -8.45452,67.74193 c -1.35483,10.83871 -10.56615,18.96775 -21.51335,18.96775 H 142.85345 c 11.16419,0 20.53957,-8.50744 21.56893,-19.67163 l 6.2873,-67.03805 z m 0,0"
     fill="#b4dd7f"
     id="path8"
     style="stroke-width:0.677419" />
  <path
     d="m 330.58065,227.6129 v 10.83871 c 0,2.97959 -2.43977,5.41936 -5.41936,5.41936 H 170.70968 l 2.05872,-21.73035 0.65095,0.0529 h 151.74194 c 2.97959,0 5.41936,2.43976 5.41936,5.41935 z m 0,0"
     fill="#a0d468"
     id="path9"
     style="stroke-width:0.677419" />
  <path
     d="m 289.3401,189.67742 h 14.14377 c 8.99698,0 16.25807,7.26109 16.25807,16.25806 0,4.49849 -1.84174,8.563 -4.7684,11.48967 -2.92667,2.92666 -6.99118,4.7684 -11.48967,4.7684 H 173.41935 l -0.65095,-0.0529 5.04095,-54.24912 1.02936,0.1085 h 62.91797 c 19.29322,0 38.42502,-3.68612 56.30784,-10.83871 0,11.54259 -3.08808,22.76235 -8.72442,32.51613 z m 0,0"
     fill="#e6e9ed"
     id="path10"
     style="stroke-width:0.677419" />
  <path
     d="m 298.06452,119.22581 c 0,23.95312 -19.40172,43.35484 -43.35484,43.35484 h -10.83871 c 0,-23.95313 19.40171,-43.35484 43.35484,-43.35484 z m 0,0"
     fill="#b4dd7f"
     id="path11"
     style="stroke-width:0.677419" />
  <path
     d="m 243.87097,151.74194 c 0,8.97845 -7.27961,16.25806 -16.25807,16.25806 -8.97845,0 -16.25806,-7.27961 -16.25806,-16.25806 0,-8.97846 7.27961,-16.25807 16.25806,-16.25807 8.97846,0 16.25807,7.27961 16.25807,16.25807 z m 0,0"
     fill="#ff826e"
     id="path12"
     style="stroke-width:0.677419" />
  <path
     d="m 97.548387,276.3871 c 8.758823,0 16.641763,-5.19708 20.089713,-13.24408 l 10.17188,-23.7335 c 1.49509,-3.50088 2.25454,-7.19493 2.25454,-10.99483 0,-15.37953 -12.51903,-27.89856 -27.89857,-27.89856 h -9.229836 c -15.384829,0 -27.903856,12.51903 -27.903856,27.89856 0,3.7999 0.759451,7.49395 2.259829,10.98954 l 10.166582,23.7282 c 3.447959,8.05759 11.330897,13.25467 20.089718,13.25467 z m 10.124243,-17.515 c -1.73589,4.05923 -5.71308,6.67629 -10.124243,6.67629 -4.411164,0 -8.388356,-2.61706 -10.129536,-6.67629 l -7.287551,-17.01222 6.578377,-6.58367 10.83871,10.83871 10.838713,-10.83871 6.57837,6.57838 z M 92.930822,211.35484 h 9.229838 c 9.40713,0 17.06515,7.65801 17.06515,17.05985 0,0.73299 -0.12437,1.43687 -0.21699,2.15133 L 108.3871,219.9496 97.548387,230.78831 86.709677,219.9496 76.087953,230.57132 c -0.09261,-0.71447 -0.216985,-1.42364 -0.216985,-2.15663 0,-9.40184 7.658014,-17.05985 17.059854,-17.05985 z m 0,0"
     id="path13"
     style="stroke-width:0.677419" />
  <path
     d="m 97.548387,287.22581 c -26.890373,0 -48.774193,-21.88383 -48.774193,-48.7742 0,-11.21711 3.913684,-22.18019 11.013356,-30.85698 l -8.391002,-6.86681 c -8.682082,10.61114 -13.461064,24.0087 -13.461064,37.72379 0,32.86807 26.744834,59.61291 59.612903,59.61291 13.715093,0 27.112653,-4.77899 37.723793,-13.46106 l -6.86681,-8.39101 c -8.67679,7.09967 -19.63987,11.01336 -30.856983,11.01336 z m 0,0"
     id="path14"
     style="stroke-width:0.677419" />
  <path
     d="m 97.548387,178.83871 c -13.715096,0 -27.112651,4.77898 -37.72379,13.46106 l 6.866809,8.391 c 8.676789,-7.09967 19.639869,-11.01335 30.856981,-11.01335 26.890373,0 48.774193,21.88382 48.774193,48.77419 0,11.21711 -3.91368,22.1802 -11.01336,30.85698 l 8.39101,6.86681 c 8.68208,-10.61113 13.46106,-24.00869 13.46106,-37.72379 0,-32.86807 -26.74483,-59.6129 -59.612903,-59.6129 z m 0,0"
     id="path15"
     style="stroke-width:0.677419" />
  <path
     d="m 130.06452,97.548387 h 10.83871 V 108.3871 h -10.83871 z m 0,0"
     id="path16"
     style="stroke-width:0.677419" />
  <path
     d="m 325.16129,216.77419 h -3.01399 c 1.86555,-3.20186 3.01399,-6.8721 3.01399,-10.83871 0,-11.95539 -9.72203,-21.67742 -21.67742,-21.67742 h -5.43523 c 3.56439,-8.55771 5.43523,-17.77431 5.43523,-27.09677 v -8.00466 l -7.43573,2.969 c -2.81288,1.12727 -5.66281,2.13017 -8.52332,3.07485 9.77495,-8.92024 15.95905,-21.7277 15.95905,-35.97467 v -5.41936 h -16.25806 c -18.19771,0 -34.07208,10.03692 -42.44985,24.84224 -3.96661,-5.1812 -10.15071,-8.58417 -17.16306,-8.58417 -11.95539,0 -21.67742,9.72202 -21.67742,21.67742 0,3.9666 1.14844,7.63684 3.01399,10.83871 h -24.69141 c 5.9777,0 10.83871,-4.86102 10.83871,-10.83871 v -10.83871 c 0,-5.9777 -4.86101,-10.83871 -10.83871,-10.83871 h -8.34601 c 5.17061,-5.76072 8.34601,-13.34199 8.34601,-21.67742 0,-17.649955 -14.14377,-32.034528 -31.69317,-32.473794 L 163.4089,0 h -32.62463 l -9.03931,63.275202 C 118.96119,54.77306 114.24042,46.964214 107.73085,40.449345 L 96.968876,29.682081 93.213961,34.683342 C 83.46812,47.668095 69.432838,56.990549 53.690776,60.930695 l -3.241557,0.807082 c -10.558216,2.638231 -17.93309,12.085054 -17.93309,22.9714 0,4.736638 1.431577,9.131924 3.836945,12.83921 h -3.836945 c -11.955393,0 -21.677419,9.722023 -21.677419,21.677423 0,3.96661 1.148437,7.63684 3.013987,10.83871 H 10.83871 C 4.8610129,130.06452 0,134.92553 0,140.90323 v 10.83871 c 0,5.97769 4.8610129,10.83871 10.83871,10.83871 h 0.481603 L 25.27621,311.43296 C 26.586064,325.43649 38.184224,336 52.259198,336 H 289.76878 c 13.63835,0 25.19947,-10.20363 26.88508,-23.73614 l 7.87235,-62.97354 h 0.63508 c 5.9777,0 10.83871,-4.86101 10.83871,-10.83871 V 227.6129 c 0,-5.97769 -4.86101,-10.83871 -10.83871,-10.83871 z m -37.93548,-92.12903 h 5.03566 c -2.64088,18.36177 -18.47027,32.51613 -37.55179,32.51613 h -5.03566 c 2.64087,-18.36177 18.47026,-32.51613 37.55179,-32.51613 z m -70.45162,27.09678 c 0,-5.9777 4.86102,-10.83871 10.83871,-10.83871 5.9777,0 10.83871,4.86101 10.83871,10.83871 0,5.97769 -4.86101,10.83871 -10.83871,10.83871 -5.97769,0 -10.83871,-4.86102 -10.83871,-10.83871 z m 25.0116,21.67741 c 17.21597,0 34.10383,-2.78641 50.3222,-8.27986 -0.8997,6.6657 -2.99017,13.11442 -6.05708,19.11857 h -63.85736 v 10.83871 h 81.29032 c 5.9777,0 10.83871,4.86102 10.83871,10.83871 0,5.9777 -4.86101,10.83871 -10.83871,10.83871 h -124.7907 l 4.06452,-43.35484 z m -90.87211,-162.58064 -9.2907,65.032258 h -10.73021 l 9.2907,-65.032258 z M 21.677419,119.22581 c 0,-5.9777 4.861013,-10.83871 10.83871,-10.83871 H 119.22581 V 97.548387 H 56.194052 c -7.078503,0 -12.839213,-5.760713 -12.839213,-12.83921 0,-5.90096 3.998362,-11.026592 9.722026,-12.458169 l 3.241558,-0.807084 C 72.45741,67.405872 87.035156,58.464466 97.966482,46.016885 l 2.101058,2.101059 c 7.57069,7.57069 12.20413,17.276839 13.40285,27.758314 H 81.290323 v 10.83871 h 70.451617 c 11.95539,0 21.67741,9.722025 21.67741,21.677422 0,11.95539 -9.72202,21.67742 -21.67741,21.67742 H 32.516129 c -5.977697,-0.005 -10.83871,-4.86631 -10.83871,-10.844 z M 10.83871,140.90323 h 173.41935 l 0.005,10.83871 H 10.83871 Z m 41.420488,184.25806 c -8.443925,0 -15.403351,-6.33493 -16.189263,-14.74181 L 22.209299,162.58065 H 172.88747 l -13.86063,147.83883 c -0.78591,8.40159 -7.74534,14.74181 -16.18926,14.74181 z M 305.89982,310.91961 c -1.01348,8.11845 -7.94909,14.24168 -16.13104,14.24168 H 164.54146 c 2.89491,-3.87399 4.7975,-8.55771 5.2791,-13.72833 l 5.82687,-62.14264 h 137.96068 z m 19.26147,-72.468 H 176.66091 l 1.01878,-10.83871 h 147.4816 z m 0,0"
     id="path17"
     style="stroke-width:0.677419" />
  <path
     d="m 200.51613,184.25806 h 10.83871 v 10.83871 h -10.83871 z m 0,0"
     id="path18"
     style="stroke-width:0.677419" />
</svg>
